<?xml version="1.0" standalone="no"?>
<!DOCTYPE svg PUBLIC "-//W3C//DTD SVG 1.1//EN" "http://www.w3.org/Graphics/SVG/1.1/DTD/svg11.dtd" >
<svg xmlns="http://www.w3.org/2000/svg">
<metadata>
This is a custom SVG webfont generated by Font Squirrel.
Copyright   : Copyright c 2008 by Jess Latham All rights reserved
Designer    : Jess Latham
Foundry     : Jess Latham
</metadata>
<defs>
<font id="webfontTkGoCmgv" horiz-adv-x="1329" >
<font-face units-per-em="2048" ascent="1638" descent="-410" />
<missing-glyph horiz-adv-x="604" />
<glyph unicode=" "  horiz-adv-x="604" />
<glyph unicode="&#x09;" horiz-adv-x="604" />
<glyph unicode="&#xa0;" horiz-adv-x="604" />
<glyph unicode="!" horiz-adv-x="362" d="M113 59.5q0 26.5 19.5 46t48 19.5t47 -19.5t18.5 -46.5q0 -29 -19.5 -48t-46.5 -19q-29 0 -48 20.5t-19 47zM113 542.5q0 26.5 19.5 46t48 19.5t47 -19.5t18.5 -45.5q0 -29 -19.5 -48.5t-46.5 -19.5q-29 0 -48 20.5t-19 47zM113 784.5q0 26.5 19.5 46t48 19.5t47 -19.5 t18.5 -46.5q0 -29 -19.5 -48t-46.5 -19q-29 0 -48 20.5t-19 47zM113 1026q0 27 19.5 46.5t48 19.5t47 -19.5t18.5 -46.5q0 -29 -19.5 -48.5t-46.5 -19.5q-29 0 -48 20.5t-19 47.5z" />
<glyph unicode="&#x22;" horiz-adv-x="604" d="M113 1147q0 27 19.5 46t48 19t47 -18t18.5 -47t-19.5 -48.5t-46.5 -19.5q-29 0 -48 19.5t-19 48.5zM113 1389q0 27 19.5 46t48 19t47 -18.5t18.5 -47t-19.5 -48t-46.5 -19.5q-29 0 -48 19.5t-19 48.5zM354 1147q0 27 19.5 46t48.5 19t47 -18t18 -47t-19 -48.5t-46 -19.5 q-29 0 -48.5 19.5t-19.5 48.5zM354 1389q0 27 19.5 46t48.5 19t47 -18.5t18 -47t-19 -48t-46 -19.5q-29 0 -48.5 19.5t-19.5 48.5z" />
<glyph unicode="#" horiz-adv-x="1449" d="M113 542.5q0 26.5 19.5 46t48 19.5t47 -19.5t18.5 -45.5q0 -29 -19.5 -48.5t-46.5 -19.5q-29 0 -48 20.5t-19 47zM233 301q0 27 19.5 46.5t48.5 19.5q27 0 46.5 -19.5t19.5 -46.5q0 -29 -19.5 -48.5t-46.5 -19.5t-47.5 20.5t-20.5 47.5zM233 784.5q0 26.5 19.5 46 t48.5 19.5q27 0 46.5 -19.5t19.5 -46.5q0 -29 -19.5 -48t-46.5 -19t-47.5 20.5t-20.5 47zM354 542.5q0 26.5 19.5 46t48.5 19.5t47 -19.5t18 -45.5q0 -29 -19 -48.5t-46 -19.5q-29 0 -48.5 20.5t-19.5 47zM475 784.5q0 26.5 19.5 46t48.5 19.5q27 0 46 -19.5t19 -46.5 q0 -29 -19.5 -48t-46 -19t-47 20.5t-20.5 47zM596 542.5q0 26.5 19.5 46t48 19.5t47 -19.5t18.5 -45.5q0 -29 -19.5 -48.5t-45.5 -19.5q-29 0 -48.5 20.5t-19.5 47zM596 1026q0 27 19.5 46.5t48 19.5t47 -19.5t18.5 -46.5q0 -29 -19.5 -48.5t-45.5 -19.5q-29 0 -48.5 20.5 t-19.5 47.5zM717 301q0 27 19.5 46.5t47.5 19.5q27 0 46.5 -19.5t19.5 -46.5q0 -29 -19.5 -48.5t-46 -19.5t-47 20.5t-20.5 47.5zM717 784.5q0 26.5 19.5 46t47.5 19.5q27 0 46.5 -19.5t19.5 -46.5q0 -29 -19.5 -48t-46 -19t-47 20.5t-20.5 47zM838 542.5q0 26.5 19.5 46 t48 19.5t47 -19.5t18.5 -45.5q0 -29 -19.5 -48.5t-46.5 -19.5q-29 0 -48 20.5t-19 47zM958 784.5q0 26.5 19.5 46t48.5 19.5q27 0 46.5 -19.5t19.5 -46.5q0 -29 -19.5 -48t-46.5 -19t-47.5 20.5t-20.5 47zM1079 542.5q0 26.5 19.5 46t48.5 19.5t47 -19.5t18 -45.5 q0 -29 -19 -48.5t-46 -19.5q-29 0 -48.5 20.5t-19.5 47zM1079 1026q0 27 19.5 46.5t48.5 19.5t47 -19.5t18 -46.5q0 -29 -19 -48.5t-46 -19.5q-29 0 -48.5 20.5t-19.5 47.5zM1200 784.5q0 26.5 19.5 46t48.5 19.5q27 0 46 -19.5t19 -46.5q0 -29 -19.5 -48t-46 -19t-47 20.5 t-20.5 47z" />
<glyph unicode="$" horiz-adv-x="1087" d="M113 59.5q0 26.5 19.5 46t48 19.5t47 -19.5t18.5 -46.5q0 -29 -19.5 -48t-46.5 -19q-29 0 -48 20.5t-19 47zM113 905q0 27 19.5 46.5t48 19.5t47 -18.5t18.5 -47t-19.5 -48t-46.5 -19.5q-29 0 -48 19t-19 48zM233 664q0 27 19.5 46t48.5 19q27 0 46.5 -18.5t19.5 -47 t-19.5 -48t-46.5 -19.5t-47.5 19.5t-20.5 48.5zM354 59.5q0 26.5 19.5 46t48.5 19.5t47 -19.5t18 -46.5q0 -29 -19 -48t-46 -19q-29 0 -48.5 20.5t-19.5 47zM354 1026q0 27 19.5 46.5t48.5 19.5t47 -19.5t18 -46.5q0 -29 -19 -48.5t-46 -19.5q-29 0 -48.5 20.5t-19.5 47.5z M475 -182.5q0 26.5 19.5 46t48.5 19.5q27 0 46 -19.5t19 -45.5q0 -29 -19.5 -48.5t-46 -19.5t-47 20.5t-20.5 47zM475 301q0 27 19.5 46.5t48.5 19.5q27 0 46 -19.5t19 -46.5q0 -29 -19.5 -48.5t-46 -19.5t-47 20.5t-20.5 47.5zM475 542.5q0 26.5 19.5 46t48.5 19.5 q27 0 46 -19.5t19 -45.5q0 -29 -19.5 -48.5t-46 -19.5t-47 20.5t-20.5 47zM475 784.5q0 26.5 19.5 46t48.5 19.5q27 0 46 -19.5t19 -46.5q0 -29 -19.5 -48t-46 -19t-47 20.5t-20.5 47zM475 1267.5q0 26.5 19.5 46t48.5 19.5q27 0 46 -19.5t19 -45.5q0 -29 -19.5 -48.5 t-46 -19.5t-47 20.5t-20.5 47zM596 59.5q0 26.5 19.5 46t48 19.5t47 -19.5t18.5 -46.5q0 -29 -19.5 -48t-45.5 -19q-29 0 -48.5 20.5t-19.5 47zM596 1026q0 27 19.5 46.5t48 19.5t47 -19.5t18.5 -46.5q0 -29 -19.5 -48.5t-45.5 -19.5q-29 0 -48.5 20.5t-19.5 47.5zM717 422 q0 27 19.5 46t47.5 19q27 0 46.5 -18t19.5 -47t-19.5 -48.5t-46 -19.5t-47 19.5t-20.5 48.5zM838 180q0 27 19.5 46.5t48 19.5t47 -18.5t18.5 -47t-19.5 -48t-46.5 -19.5q-29 0 -48 19t-19 48zM838 1026q0 27 19.5 46.5t48 19.5t47 -19.5t18.5 -46.5q0 -29 -19.5 -48.5 t-46.5 -19.5q-29 0 -48 20.5t-19 47.5z" />
<glyph unicode="%" d="M113 905q0 27 19.5 46.5t48 19.5t47 -18.5t18.5 -47t-19.5 -48t-46.5 -19.5q-29 0 -48 19t-19 48zM233 664q0 27 19.5 46t48.5 19q27 0 46.5 -18.5t19.5 -47t-19.5 -48t-46.5 -19.5t-47.5 19.5t-20.5 48.5zM354 59.5q0 26.5 19.5 46t48.5 19.5t47 -19.5t18 -46.5 q0 -29 -19 -48t-46 -19q-29 0 -48.5 20.5t-19.5 47zM354 1026q0 27 19.5 46.5t48.5 19.5t47 -19.5t18 -46.5q0 -29 -19 -48.5t-46 -19.5q-29 0 -48.5 20.5t-19.5 47.5zM475 301q0 27 19.5 46.5t48.5 19.5q27 0 46 -19.5t19 -46.5q0 -29 -19.5 -48.5t-46 -19.5t-47 20.5 t-20.5 47.5zM475 784.5q0 26.5 19.5 46t48.5 19.5q27 0 46 -19.5t19 -46.5q0 -29 -19.5 -48t-46 -19t-47 20.5t-20.5 47zM596 542.5q0 26.5 19.5 46t48 19.5t47 -19.5t18.5 -45.5q0 -29 -19.5 -48.5t-45.5 -19.5q-29 0 -48.5 20.5t-19.5 47zM717 301q0 27 19.5 46.5 t47.5 19.5q27 0 46.5 -19.5t19.5 -46.5q0 -29 -19.5 -48.5t-46 -19.5t-47 20.5t-20.5 47.5zM717 784.5q0 26.5 19.5 46t47.5 19.5q27 0 46.5 -19.5t19.5 -46.5q0 -29 -19.5 -48t-46 -19t-47 20.5t-20.5 47zM838 59.5q0 26.5 19.5 46t48 19.5t47 -19.5t18.5 -46.5 q0 -29 -19.5 -48t-46.5 -19q-29 0 -48 20.5t-19 47zM838 1026q0 27 19.5 46.5t48 19.5t47 -19.5t18.5 -46.5q0 -29 -19.5 -48.5t-46.5 -19.5q-29 0 -48 20.5t-19 47.5zM958 422q0 27 19.5 46t48.5 19q27 0 46.5 -18t19.5 -47t-19.5 -48.5t-46.5 -19.5t-47.5 19.5t-20.5 48.5 zM1079 180q0 27 19.5 46.5t48.5 19.5t47 -18.5t18 -47t-19 -48t-46 -19.5q-29 0 -48.5 19t-19.5 48z" />
<glyph unicode="&#x26;" horiz-adv-x="1570" d="M113 301q0 27 19.5 46.5t48 19.5t47 -19.5t18.5 -46.5q0 -29 -19.5 -48.5t-46.5 -19.5q-29 0 -48 20.5t-19 47.5zM354 59.5q0 26.5 19.5 46t48.5 19.5t47 -19.5t18 -46.5q0 -29 -19 -48t-46 -19q-29 0 -48.5 20.5t-19.5 47zM354 422q0 27 19.5 46t48.5 19t47 -18t18 -47 t-19 -48.5t-46 -19.5q-29 0 -48.5 19.5t-19.5 48.5zM354 664q0 27 19.5 46t48.5 19t47 -18.5t18 -47t-19 -48t-46 -19.5q-29 0 -48.5 19.5t-19.5 48.5zM354 905q0 27 19.5 46.5t48.5 19.5t47 -18.5t18 -47t-19 -48t-46 -19.5q-29 0 -48.5 19t-19.5 48zM596 59.5 q0 26.5 19.5 46t48 19.5t47 -19.5t18.5 -46.5q0 -29 -19.5 -48t-45.5 -19q-29 0 -48.5 20.5t-19.5 47zM596 542.5q0 26.5 19.5 46t48 19.5t47 -19.5t18.5 -45.5q0 -29 -19.5 -48.5t-45.5 -19.5q-29 0 -48.5 20.5t-19.5 47zM596 1026q0 27 19.5 46.5t48 19.5t47 -19.5 t18.5 -46.5q0 -29 -19.5 -48.5t-45.5 -19.5q-29 0 -48.5 20.5t-19.5 47.5zM838 59.5q0 26.5 19.5 46t48 19.5t47 -19.5t18.5 -46.5q0 -29 -19.5 -48t-46.5 -19q-29 0 -48 20.5t-19 47zM838 422q0 27 19.5 46t48 19t47 -18t18.5 -47t-19.5 -48.5t-46.5 -19.5q-29 0 -48 19.5 t-19 48.5zM838 664q0 27 19.5 46t48 19t47 -18.5t18.5 -47t-19.5 -48t-46.5 -19.5q-29 0 -48 19.5t-19 48.5zM838 1026q0 27 19.5 46.5t48 19.5t47 -19.5t18.5 -46.5q0 -29 -19.5 -48.5t-46.5 -19.5q-29 0 -48 20.5t-19 47.5zM1079 180q0 27 19.5 46.5t48.5 19.5t47 -18.5 t18 -47t-19 -48t-46 -19.5q-29 0 -48.5 19t-19.5 48zM1079 784.5q0 26.5 19.5 46t48.5 19.5t47 -19.5t18 -46.5q0 -29 -19 -48t-46 -19q-29 0 -48.5 20.5t-19.5 47zM1321 59.5q0 26.5 19.5 46t48 19.5t47 -19.5t18.5 -46.5q0 -29 -19.5 -48t-45.5 -19q-29 0 -48.5 20.5 t-19.5 47zM1321 422q0 27 19.5 46t48 19t47 -18t18.5 -47t-19.5 -48.5t-45.5 -19.5q-29 0 -48.5 19.5t-19.5 48.5z" />
<glyph unicode="'" horiz-adv-x="362" d="M113 1147q0 27 19.5 46t48 19t47 -18t18.5 -47t-19.5 -48.5t-46.5 -19.5q-29 0 -48 19.5t-19 48.5zM113 1389q0 27 19.5 46t48 19t47 -18.5t18.5 -47t-19.5 -48t-46.5 -19.5q-29 0 -48 19.5t-19 48.5z" />
<glyph unicode="(" horiz-adv-x="724" d="M113 422q0 27 19.5 46t48 19t47 -18t18.5 -47t-19.5 -48.5t-46.5 -19.5q-29 0 -48 19.5t-19 48.5zM113 664q0 27 19.5 46t48 19t47 -18.5t18.5 -47t-19.5 -48t-46.5 -19.5q-29 0 -48 19.5t-19 48.5zM233 180q0 27 19.5 46.5t48.5 19.5q27 0 46.5 -18.5t19.5 -47 t-19.5 -48t-46.5 -19.5t-47.5 19t-20.5 48zM233 905q0 27 19.5 46.5t48.5 19.5q27 0 46.5 -18.5t19.5 -47t-19.5 -48t-46.5 -19.5t-47.5 19t-20.5 48zM475 59.5q0 26.5 19.5 46t48.5 19.5q27 0 46 -19.5t19 -46.5q0 -29 -19.5 -48t-46 -19t-47 20.5t-20.5 47zM475 1026 q0 27 19.5 46.5t48.5 19.5q27 0 46 -19.5t19 -46.5q0 -29 -19.5 -48.5t-46 -19.5t-47 20.5t-20.5 47.5z" />
<glyph unicode=")" horiz-adv-x="724" d="M113 59.5q0 26.5 19.5 46t48 19.5t47 -19.5t18.5 -46.5q0 -29 -19.5 -48t-46.5 -19q-29 0 -48 20.5t-19 47zM113 1026q0 27 19.5 46.5t48 19.5t47 -19.5t18.5 -46.5q0 -29 -19.5 -48.5t-46.5 -19.5q-29 0 -48 20.5t-19 47.5zM354 180q0 27 19.5 46.5t48.5 19.5t47 -18.5 t18 -47t-19 -48t-46 -19.5q-29 0 -48.5 19t-19.5 48zM354 905q0 27 19.5 46.5t48.5 19.5t47 -18.5t18 -47t-19 -48t-46 -19.5q-29 0 -48.5 19t-19.5 48zM475 422q0 27 19.5 46t48.5 19q27 0 46 -18t19 -47t-19.5 -48.5t-46 -19.5t-47 19.5t-20.5 48.5zM475 664q0 27 19.5 46 t48.5 19q27 0 46 -18.5t19 -47t-19.5 -48t-46 -19.5t-47 19.5t-20.5 48.5z" />
<glyph unicode="*" d="M113 59.5q0 26.5 19.5 46t48 19.5t47 -19.5t18.5 -46.5q0 -29 -19.5 -48t-46.5 -19q-29 0 -48 20.5t-19 47zM113 542.5q0 26.5 19.5 46t48 19.5t47 -19.5t18.5 -45.5q0 -29 -19.5 -48.5t-46.5 -19.5q-29 0 -48 20.5t-19 47zM113 1026q0 27 19.5 46.5t48 19.5t47 -19.5 t18.5 -46.5q0 -29 -19.5 -48.5t-46.5 -19.5q-29 0 -48 20.5t-19 47.5zM354 301q0 27 19.5 46.5t48.5 19.5t47 -19.5t18 -46.5q0 -29 -19 -48.5t-46 -19.5q-29 0 -48.5 20.5t-19.5 47.5zM354 542.5q0 26.5 19.5 46t48.5 19.5t47 -19.5t18 -45.5q0 -29 -19 -48.5t-46 -19.5 q-29 0 -48.5 20.5t-19.5 47zM354 784.5q0 26.5 19.5 46t48.5 19.5t47 -19.5t18 -46.5q0 -29 -19 -48t-46 -19q-29 0 -48.5 20.5t-19.5 47zM596 59.5q0 26.5 19.5 46t48 19.5t47 -19.5t18.5 -46.5q0 -29 -19.5 -48t-45.5 -19q-29 0 -48.5 20.5t-19.5 47zM596 301 q0 27 19.5 46.5t48 19.5t47 -19.5t18.5 -46.5q0 -29 -19.5 -48.5t-45.5 -19.5q-29 0 -48.5 20.5t-19.5 47.5zM596 542.5q0 26.5 19.5 46t48 19.5t47 -19.5t18.5 -45.5q0 -29 -19.5 -48.5t-45.5 -19.5q-29 0 -48.5 20.5t-19.5 47zM596 784.5q0 26.5 19.5 46t48 19.5t47 -19.5 t18.5 -46.5q0 -29 -19.5 -48t-45.5 -19q-29 0 -48.5 20.5t-19.5 47zM596 1026q0 27 19.5 46.5t48 19.5t47 -19.5t18.5 -46.5q0 -29 -19.5 -48.5t-45.5 -19.5q-29 0 -48.5 20.5t-19.5 47.5zM838 301q0 27 19.5 46.5t48 19.5t47 -19.5t18.5 -46.5q0 -29 -19.5 -48.5 t-46.5 -19.5q-29 0 -48 20.5t-19 47.5zM838 542.5q0 26.5 19.5 46t48 19.5t47 -19.5t18.5 -45.5q0 -29 -19.5 -48.5t-46.5 -19.5q-29 0 -48 20.5t-19 47zM838 784.5q0 26.5 19.5 46t48 19.5t47 -19.5t18.5 -46.5q0 -29 -19.5 -48t-46.5 -19q-29 0 -48 20.5t-19 47z M1079 59.5q0 26.5 19.5 46t48.5 19.5t47 -19.5t18 -46.5q0 -29 -19 -48t-46 -19q-29 0 -48.5 20.5t-19.5 47zM1079 542.5q0 26.5 19.5 46t48.5 19.5t47 -19.5t18 -45.5q0 -29 -19 -48.5t-46 -19.5q-29 0 -48.5 20.5t-19.5 47zM1079 1026q0 27 19.5 46.5t48.5 19.5t47 -19.5 t18 -46.5q0 -29 -19 -48.5t-46 -19.5q-29 0 -48.5 20.5t-19.5 47.5z" />
<glyph unicode="+" d="M113 542.5q0 26.5 19.5 46t48 19.5t47 -19.5t18.5 -45.5q0 -29 -19.5 -48.5t-46.5 -19.5q-29 0 -48 20.5t-19 47zM354 542.5q0 26.5 19.5 46t48.5 19.5t47 -19.5t18 -45.5q0 -29 -19 -48.5t-46 -19.5q-29 0 -48.5 20.5t-19.5 47zM596 59.5q0 26.5 19.5 46t48 19.5 t47 -19.5t18.5 -46.5q0 -29 -19.5 -48t-45.5 -19q-29 0 -48.5 20.5t-19.5 47zM596 301q0 27 19.5 46.5t48 19.5t47 -19.5t18.5 -46.5q0 -29 -19.5 -48.5t-45.5 -19.5q-29 0 -48.5 20.5t-19.5 47.5zM596 542.5q0 26.5 19.5 46t48 19.5t47 -19.5t18.5 -45.5q0 -29 -19.5 -48.5 t-45.5 -19.5q-29 0 -48.5 20.5t-19.5 47zM596 784.5q0 26.5 19.5 46t48 19.5t47 -19.5t18.5 -46.5q0 -29 -19.5 -48t-45.5 -19q-29 0 -48.5 20.5t-19.5 47zM596 1026q0 27 19.5 46.5t48 19.5t47 -19.5t18.5 -46.5q0 -29 -19.5 -48.5t-45.5 -19.5q-29 0 -48.5 20.5 t-19.5 47.5zM838 542.5q0 26.5 19.5 46t48 19.5t47 -19.5t18.5 -45.5q0 -29 -19.5 -48.5t-46.5 -19.5q-29 0 -48 20.5t-19 47zM1079 542.5q0 26.5 19.5 46t48.5 19.5t47 -19.5t18 -45.5q0 -29 -19 -48.5t-46 -19.5q-29 0 -48.5 20.5t-19.5 47z" />
<glyph unicode="," horiz-adv-x="362" d="M-8 -182.5q0 26.5 19.5 46t47.5 19.5q27 0 46.5 -19.5t19.5 -45.5q0 -29 -19.5 -48.5t-46 -19.5t-47 20.5t-20.5 47zM113 59.5q0 26.5 19.5 46t48 19.5t47 -19.5t18.5 -46.5q0 -29 -19.5 -48t-46.5 -19q-29 0 -48 20.5t-19 47z" />
<glyph unicode="-" horiz-adv-x="1087" d="M113 542.5q0 26.5 19.5 46t48 19.5t47 -19.5t18.5 -45.5q0 -29 -19.5 -48.5t-46.5 -19.5q-29 0 -48 20.5t-19 47zM354 542.5q0 26.5 19.5 46t48.5 19.5t47 -19.5t18 -45.5q0 -29 -19 -48.5t-46 -19.5q-29 0 -48.5 20.5t-19.5 47zM596 542.5q0 26.5 19.5 46t48 19.5 t47 -19.5t18.5 -45.5q0 -29 -19.5 -48.5t-45.5 -19.5q-29 0 -48.5 20.5t-19.5 47zM838 542.5q0 26.5 19.5 46t48 19.5t47 -19.5t18.5 -45.5q0 -29 -19.5 -48.5t-46.5 -19.5q-29 0 -48 20.5t-19 47z" />
<glyph unicode="." horiz-adv-x="362" d="M113 59.5q0 26.5 19.5 46t48 19.5t47 -19.5t18.5 -46.5q0 -29 -19.5 -48t-46.5 -19q-29 0 -48 20.5t-19 47z" />
<glyph unicode="/" horiz-adv-x="845" d="M113 59.5q0 26.5 19.5 46t48 19.5t47 -19.5t18.5 -46.5q0 -29 -19.5 -48t-46.5 -19q-29 0 -48 20.5t-19 47zM233 301q0 27 19.5 46.5t48.5 19.5q27 0 46.5 -19.5t19.5 -46.5q0 -29 -19.5 -48.5t-46.5 -19.5t-47.5 20.5t-20.5 47.5zM354 542.5q0 26.5 19.5 46t48.5 19.5 t47 -19.5t18 -45.5q0 -29 -19 -48.5t-46 -19.5q-29 0 -48.5 20.5t-19.5 47zM475 784.5q0 26.5 19.5 46t48.5 19.5q27 0 46 -19.5t19 -46.5q0 -29 -19.5 -48t-46 -19t-47 20.5t-20.5 47zM596 1026q0 27 19.5 46.5t48 19.5t47 -19.5t18.5 -46.5q0 -29 -19.5 -48.5t-45.5 -19.5 q-29 0 -48.5 20.5t-19.5 47.5z" />
<glyph unicode="0" d="M113 422q0 27 19.5 46t48 19t47 -18t18.5 -47t-19.5 -48.5t-46.5 -19.5q-29 0 -48 19.5t-19 48.5zM113 664q0 27 19.5 46t48 19t47 -18.5t18.5 -47t-19.5 -48t-46.5 -19.5q-29 0 -48 19.5t-19 48.5zM233 180q0 27 19.5 46.5t48.5 19.5q27 0 46.5 -18.5t19.5 -47 t-19.5 -48t-46.5 -19.5t-47.5 19t-20.5 48zM233 905q0 27 19.5 46.5t48.5 19.5q27 0 46.5 -18.5t19.5 -47t-19.5 -48t-46.5 -19.5t-47.5 19t-20.5 48zM475 59.5q0 26.5 19.5 46t48.5 19.5q27 0 46 -19.5t19 -46.5q0 -29 -19.5 -48t-46 -19t-47 20.5t-20.5 47zM475 1026 q0 27 19.5 46.5t48.5 19.5q27 0 46 -19.5t19 -46.5q0 -29 -19.5 -48.5t-46 -19.5t-47 20.5t-20.5 47.5zM717 59.5q0 26.5 19.5 46t47.5 19.5q27 0 46.5 -19.5t19.5 -46.5q0 -29 -19.5 -48t-46 -19t-47 20.5t-20.5 47zM717 1026q0 27 19.5 46.5t47.5 19.5q27 0 46.5 -19.5 t19.5 -46.5q0 -29 -19.5 -48.5t-46 -19.5t-47 20.5t-20.5 47.5zM958 180q0 27 19.5 46.5t48.5 19.5q27 0 46.5 -18.5t19.5 -47t-19.5 -48t-46.5 -19.5t-47.5 19t-20.5 48zM958 905q0 27 19.5 46.5t48.5 19.5q27 0 46.5 -18.5t19.5 -47t-19.5 -48t-46.5 -19.5t-47.5 19 t-20.5 48zM1079 422q0 27 19.5 46t48.5 19t47 -18t18 -47t-19 -48.5t-46 -19.5q-29 0 -48.5 19.5t-19.5 48.5zM1079 664q0 27 19.5 46t48.5 19t47 -18.5t18 -47t-19 -48t-46 -19.5q-29 0 -48.5 19.5t-19.5 48.5z" />
<glyph unicode="1" horiz-adv-x="845" d="M113 59.5q0 26.5 19.5 46t48 19.5t47 -19.5t18.5 -46.5q0 -29 -19.5 -48t-46.5 -19q-29 0 -48 20.5t-19 47zM113 905q0 27 19.5 46.5t48 19.5t47 -18.5t18.5 -47t-19.5 -48t-46.5 -19.5q-29 0 -48 19t-19 48zM354 59.5q0 26.5 19.5 46t48.5 19.5t47 -19.5t18 -46.5 q0 -29 -19 -48t-46 -19q-29 0 -48.5 20.5t-19.5 47zM354 301q0 27 19.5 46.5t48.5 19.5t47 -19.5t18 -46.5q0 -29 -19 -48.5t-46 -19.5q-29 0 -48.5 20.5t-19.5 47.5zM354 542.5q0 26.5 19.5 46t48.5 19.5t47 -19.5t18 -45.5q0 -29 -19 -48.5t-46 -19.5q-29 0 -48.5 20.5 t-19.5 47zM354 784.5q0 26.5 19.5 46t48.5 19.5t47 -19.5t18 -46.5q0 -29 -19 -48t-46 -19q-29 0 -48.5 20.5t-19.5 47zM354 1026q0 27 19.5 46.5t48.5 19.5t47 -19.5t18 -46.5q0 -29 -19 -48.5t-46 -19.5q-29 0 -48.5 20.5t-19.5 47.5zM596 59.5q0 26.5 19.5 46t48 19.5 t47 -19.5t18.5 -46.5q0 -29 -19.5 -48t-45.5 -19q-29 0 -48.5 20.5t-19.5 47z" />
<glyph unicode="2" horiz-adv-x="1087" d="M113 59.5q0 26.5 19.5 46t48 19.5t47 -19.5t18.5 -46.5q0 -29 -19.5 -48t-46.5 -19q-29 0 -48 20.5t-19 47zM113 301q0 27 19.5 46.5t48 19.5t47 -19.5t18.5 -46.5q0 -29 -19.5 -48.5t-46.5 -19.5q-29 0 -48 20.5t-19 47.5zM113 1026q0 27 19.5 46.5t48 19.5t47 -19.5 t18.5 -46.5q0 -29 -19.5 -48.5t-46.5 -19.5q-29 0 -48 20.5t-19 47.5zM354 59.5q0 26.5 19.5 46t48.5 19.5t47 -19.5t18 -46.5q0 -29 -19 -48t-46 -19q-29 0 -48.5 20.5t-19.5 47zM354 422q0 27 19.5 46t48.5 19t47 -18t18 -47t-19 -48.5t-46 -19.5q-29 0 -48.5 19.5 t-19.5 48.5zM354 1026q0 27 19.5 46.5t48.5 19.5t47 -19.5t18 -46.5q0 -29 -19 -48.5t-46 -19.5q-29 0 -48.5 20.5t-19.5 47.5zM596 59.5q0 26.5 19.5 46t48 19.5t47 -19.5t18.5 -46.5q0 -29 -19.5 -48t-45.5 -19q-29 0 -48.5 20.5t-19.5 47zM596 542.5q0 26.5 19.5 46 t48 19.5t47 -19.5t18.5 -45.5q0 -29 -19.5 -48.5t-45.5 -19.5q-29 0 -48.5 20.5t-19.5 47zM596 1026q0 27 19.5 46.5t48 19.5t47 -19.5t18.5 -46.5q0 -29 -19.5 -48.5t-45.5 -19.5q-29 0 -48.5 20.5t-19.5 47.5zM838 59.5q0 26.5 19.5 46t48 19.5t47 -19.5t18.5 -46.5 q0 -29 -19.5 -48t-46.5 -19q-29 0 -48 20.5t-19 47zM838 784.5q0 26.5 19.5 46t48 19.5t47 -19.5t18.5 -46.5q0 -29 -19.5 -48t-46.5 -19q-29 0 -48 20.5t-19 47z" />
<glyph unicode="3" d="M113 59.5q0 26.5 19.5 46t48 19.5t47 -19.5t18.5 -46.5q0 -29 -19.5 -48t-46.5 -19q-29 0 -48 20.5t-19 47zM113 1026q0 27 19.5 46.5t48 19.5t47 -19.5t18.5 -46.5q0 -29 -19.5 -48.5t-46.5 -19.5q-29 0 -48 20.5t-19 47.5zM354 59.5q0 26.5 19.5 46t48.5 19.5t47 -19.5 t18 -46.5q0 -29 -19 -48t-46 -19q-29 0 -48.5 20.5t-19.5 47zM354 542.5q0 26.5 19.5 46t48.5 19.5t47 -19.5t18 -45.5q0 -29 -19 -48.5t-46 -19.5q-29 0 -48.5 20.5t-19.5 47zM354 1026q0 27 19.5 46.5t48.5 19.5t47 -19.5t18 -46.5q0 -29 -19 -48.5t-46 -19.5 q-29 0 -48.5 20.5t-19.5 47.5zM596 59.5q0 26.5 19.5 46t48 19.5t47 -19.5t18.5 -46.5q0 -29 -19.5 -48t-45.5 -19q-29 0 -48.5 20.5t-19.5 47zM596 542.5q0 26.5 19.5 46t48 19.5t47 -19.5t18.5 -45.5q0 -29 -19.5 -48.5t-45.5 -19.5q-29 0 -48.5 20.5t-19.5 47zM596 1026 q0 27 19.5 46.5t48 19.5t47 -19.5t18.5 -46.5q0 -29 -19.5 -48.5t-45.5 -19.5q-29 0 -48.5 20.5t-19.5 47.5zM838 59.5q0 26.5 19.5 46t48 19.5t47 -19.5t18.5 -46.5q0 -29 -19.5 -48t-46.5 -19q-29 0 -48 20.5t-19 47zM838 542.5q0 26.5 19.5 46t48 19.5t47 -19.5 t18.5 -45.5q0 -29 -19.5 -48.5t-46.5 -19.5q-29 0 -48 20.5t-19 47zM838 1026q0 27 19.5 46.5t48 19.5t47 -19.5t18.5 -46.5q0 -29 -19.5 -48.5t-46.5 -19.5q-29 0 -48 20.5t-19 47.5zM958 784.5q0 26.5 19.5 46t48.5 19.5q27 0 46.5 -19.5t19.5 -46.5q0 -29 -19.5 -48 t-46.5 -19t-47.5 20.5t-20.5 47zM1079 301q0 27 19.5 46.5t48.5 19.5t47 -19.5t18 -46.5q0 -29 -19 -48.5t-46 -19.5q-29 0 -48.5 20.5t-19.5 47.5zM1079 542.5q0 26.5 19.5 46t48.5 19.5t47 -19.5t18 -45.5q0 -29 -19 -48.5t-46 -19.5q-29 0 -48.5 20.5t-19.5 47z" />
<glyph unicode="4" d="M113 301q0 27 19.5 46.5t48 19.5t47 -19.5t18.5 -46.5q0 -29 -19.5 -48.5t-46.5 -19.5q-29 0 -48 20.5t-19 47.5zM113 542.5q0 26.5 19.5 46t48 19.5t47 -19.5t18.5 -45.5q0 -29 -19.5 -48.5t-46.5 -19.5q-29 0 -48 20.5t-19 47zM354 301q0 27 19.5 46.5t48.5 19.5 t47 -19.5t18 -46.5q0 -29 -19 -48.5t-46 -19.5q-29 0 -48.5 20.5t-19.5 47.5zM354 784.5q0 26.5 19.5 46t48.5 19.5t47 -19.5t18 -46.5q0 -29 -19 -48t-46 -19q-29 0 -48.5 20.5t-19.5 47zM596 301q0 27 19.5 46.5t48 19.5t47 -19.5t18.5 -46.5q0 -29 -19.5 -48.5 t-45.5 -19.5q-29 0 -48.5 20.5t-19.5 47.5zM596 905q0 27 19.5 46.5t48 19.5t47 -18.5t18.5 -47t-19.5 -48t-45.5 -19.5q-29 0 -48.5 19t-19.5 48zM838 -61q0 27 19.5 46t48 19t47 -18.5t18.5 -47t-19.5 -48t-46.5 -19.5q-29 0 -48 19.5t-19 48.5zM838 180q0 27 19.5 46.5 t48 19.5t47 -18.5t18.5 -47t-19.5 -48t-46.5 -19.5q-29 0 -48 19t-19 48zM838 422q0 27 19.5 46t48 19t47 -18t18.5 -47t-19.5 -48.5t-46.5 -19.5q-29 0 -48 19.5t-19 48.5zM838 664q0 27 19.5 46t48 19t47 -18.5t18.5 -47t-19.5 -48t-46.5 -19.5q-29 0 -48 19.5t-19 48.5z M838 905q0 27 19.5 46.5t48 19.5t47 -18.5t18.5 -47t-19.5 -48t-46.5 -19.5q-29 0 -48 19t-19 48zM838 1147q0 27 19.5 46t48 19t47 -18t18.5 -47t-19.5 -48.5t-46.5 -19.5q-29 0 -48 19.5t-19 48.5zM1079 301q0 27 19.5 46.5t48.5 19.5t47 -19.5t18 -46.5q0 -29 -19 -48.5 t-46 -19.5q-29 0 -48.5 20.5t-19.5 47.5z" />
<glyph unicode="5" horiz-adv-x="1087" d="M113 180q0 27 19.5 46.5t48 19.5t47 -18.5t18.5 -47t-19.5 -48t-46.5 -19.5q-29 0 -48 19t-19 48zM113 542.5q0 26.5 19.5 46t48 19.5t47 -19.5t18.5 -45.5q0 -29 -19.5 -48.5t-46.5 -19.5q-29 0 -48 20.5t-19 47zM113 784.5q0 26.5 19.5 46t48 19.5t47 -19.5t18.5 -46.5 q0 -29 -19.5 -48t-46.5 -19q-29 0 -48 20.5t-19 47zM113 1026q0 27 19.5 46.5t48 19.5t47 -19.5t18.5 -46.5q0 -29 -19.5 -48.5t-46.5 -19.5q-29 0 -48 20.5t-19 47.5zM354 59.5q0 26.5 19.5 46t48.5 19.5t47 -19.5t18 -46.5q0 -29 -19 -48t-46 -19q-29 0 -48.5 20.5 t-19.5 47zM354 664q0 27 19.5 46t48.5 19t47 -18.5t18 -47t-19 -48t-46 -19.5q-29 0 -48.5 19.5t-19.5 48.5zM354 1026q0 27 19.5 46.5t48.5 19.5t47 -19.5t18 -46.5q0 -29 -19 -48.5t-46 -19.5q-29 0 -48.5 20.5t-19.5 47.5zM596 59.5q0 26.5 19.5 46t48 19.5t47 -19.5 t18.5 -46.5q0 -29 -19.5 -48t-45.5 -19q-29 0 -48.5 20.5t-19.5 47zM596 664q0 27 19.5 46t48 19t47 -18.5t18.5 -47t-19.5 -48t-45.5 -19.5q-29 0 -48.5 19.5t-19.5 48.5zM596 1026q0 27 19.5 46.5t48 19.5t47 -19.5t18.5 -46.5q0 -29 -19.5 -48.5t-45.5 -19.5 q-29 0 -48.5 20.5t-19.5 47.5zM838 180q0 27 19.5 46.5t48 19.5t47 -18.5t18.5 -47t-19.5 -48t-46.5 -19.5q-29 0 -48 19t-19 48zM838 542.5q0 26.5 19.5 46t48 19.5t47 -19.5t18.5 -45.5q0 -29 -19.5 -48.5t-46.5 -19.5q-29 0 -48 20.5t-19 47zM838 1026q0 27 19.5 46.5 t48 19.5t47 -19.5t18.5 -46.5q0 -29 -19.5 -48.5t-46.5 -19.5q-29 0 -48 20.5t-19 47.5z" />
<glyph unicode="6" d="M113 301q0 27 19.5 46.5t48 19.5t47 -19.5t18.5 -46.5q0 -29 -19.5 -48.5t-46.5 -19.5q-29 0 -48 20.5t-19 47.5zM113 542.5q0 26.5 19.5 46t48 19.5t47 -19.5t18.5 -45.5q0 -29 -19.5 -48.5t-46.5 -19.5q-29 0 -48 20.5t-19 47zM233 784.5q0 26.5 19.5 46t48.5 19.5 q27 0 46.5 -19.5t19.5 -46.5q0 -29 -19.5 -48t-46.5 -19t-47.5 20.5t-20.5 47zM354 59.5q0 26.5 19.5 46t48.5 19.5t47 -19.5t18 -46.5q0 -29 -19 -48t-46 -19q-29 0 -48.5 20.5t-19.5 47zM354 542.5q0 26.5 19.5 46t48.5 19.5t47 -19.5t18 -45.5q0 -29 -19 -48.5t-46 -19.5 q-29 0 -48.5 20.5t-19.5 47zM475 1026q0 27 19.5 46.5t48.5 19.5q27 0 46 -19.5t19 -46.5q0 -29 -19.5 -48.5t-46 -19.5t-47 20.5t-20.5 47.5zM596 59.5q0 26.5 19.5 46t48 19.5t47 -19.5t18.5 -46.5q0 -29 -19.5 -48t-45.5 -19q-29 0 -48.5 20.5t-19.5 47zM596 542.5 q0 26.5 19.5 46t48 19.5t47 -19.5t18.5 -45.5q0 -29 -19.5 -48.5t-45.5 -19.5q-29 0 -48.5 20.5t-19.5 47zM717 1026q0 27 19.5 46.5t47.5 19.5q27 0 46.5 -19.5t19.5 -46.5q0 -29 -19.5 -48.5t-46 -19.5t-47 20.5t-20.5 47.5zM838 59.5q0 26.5 19.5 46t48 19.5t47 -19.5 t18.5 -46.5q0 -29 -19.5 -48t-46.5 -19q-29 0 -48 20.5t-19 47zM838 542.5q0 26.5 19.5 46t48 19.5t47 -19.5t18.5 -45.5q0 -29 -19.5 -48.5t-46.5 -19.5q-29 0 -48 20.5t-19 47zM1079 301q0 27 19.5 46.5t48.5 19.5t47 -19.5t18 -46.5q0 -29 -19 -48.5t-46 -19.5 q-29 0 -48.5 20.5t-19.5 47.5z" />
<glyph unicode="7" d="M113 1026q0 27 19.5 46.5t48 19.5t47 -19.5t18.5 -46.5q0 -29 -19.5 -48.5t-46.5 -19.5q-29 0 -48 20.5t-19 47.5zM354 59.5q0 26.5 19.5 46t48.5 19.5t47 -19.5t18 -46.5q0 -29 -19 -48t-46 -19q-29 0 -48.5 20.5t-19.5 47zM354 1026q0 27 19.5 46.5t48.5 19.5t47 -19.5 t18 -46.5q0 -29 -19 -48.5t-46 -19.5q-29 0 -48.5 20.5t-19.5 47.5zM475 301q0 27 19.5 46.5t48.5 19.5q27 0 46 -19.5t19 -46.5q0 -29 -19.5 -48.5t-46 -19.5t-47 20.5t-20.5 47.5zM596 1026q0 27 19.5 46.5t48 19.5t47 -19.5t18.5 -46.5q0 -29 -19.5 -48.5t-45.5 -19.5 q-29 0 -48.5 20.5t-19.5 47.5zM717 542.5q0 26.5 19.5 46t47.5 19.5q27 0 46.5 -19.5t19.5 -45.5q0 -29 -19.5 -48.5t-46 -19.5t-47 20.5t-20.5 47zM838 1026q0 27 19.5 46.5t48 19.5t47 -19.5t18.5 -46.5q0 -29 -19.5 -48.5t-46.5 -19.5q-29 0 -48 20.5t-19 47.5z M958 784.5q0 26.5 19.5 46t48.5 19.5q27 0 46.5 -19.5t19.5 -46.5q0 -29 -19.5 -48t-46.5 -19t-47.5 20.5t-20.5 47z" />
<glyph unicode="8" d="M113 301q0 27 19.5 46.5t48 19.5t47 -19.5t18.5 -46.5q0 -29 -19.5 -48.5t-46.5 -19.5q-29 0 -48 20.5t-19 47.5zM233 784.5q0 26.5 19.5 46t48.5 19.5q27 0 46.5 -19.5t19.5 -46.5q0 -29 -19.5 -48t-46.5 -19t-47.5 20.5t-20.5 47zM354 59.5q0 26.5 19.5 46t48.5 19.5 t47 -19.5t18 -46.5q0 -29 -19 -48t-46 -19q-29 0 -48.5 20.5t-19.5 47zM354 542.5q0 26.5 19.5 46t48.5 19.5t47 -19.5t18 -45.5q0 -29 -19 -48.5t-46 -19.5q-29 0 -48.5 20.5t-19.5 47zM354 1026q0 27 19.5 46.5t48.5 19.5t47 -19.5t18 -46.5q0 -29 -19 -48.5t-46 -19.5 q-29 0 -48.5 20.5t-19.5 47.5zM596 59.5q0 26.5 19.5 46t48 19.5t47 -19.5t18.5 -46.5q0 -29 -19.5 -48t-45.5 -19q-29 0 -48.5 20.5t-19.5 47zM596 542.5q0 26.5 19.5 46t48 19.5t47 -19.5t18.5 -45.5q0 -29 -19.5 -48.5t-45.5 -19.5q-29 0 -48.5 20.5t-19.5 47zM596 1026 q0 27 19.5 46.5t48 19.5t47 -19.5t18.5 -46.5q0 -29 -19.5 -48.5t-45.5 -19.5q-29 0 -48.5 20.5t-19.5 47.5zM838 59.5q0 26.5 19.5 46t48 19.5t47 -19.5t18.5 -46.5q0 -29 -19.5 -48t-46.5 -19q-29 0 -48 20.5t-19 47zM838 542.5q0 26.5 19.5 46t48 19.5t47 -19.5 t18.5 -45.5q0 -29 -19.5 -48.5t-46.5 -19.5q-29 0 -48 20.5t-19 47zM838 1026q0 27 19.5 46.5t48 19.5t47 -19.5t18.5 -46.5q0 -29 -19.5 -48.5t-46.5 -19.5q-29 0 -48 20.5t-19 47.5zM958 784.5q0 26.5 19.5 46t48.5 19.5q27 0 46.5 -19.5t19.5 -46.5q0 -29 -19.5 -48 t-46.5 -19t-47.5 20.5t-20.5 47zM1079 301q0 27 19.5 46.5t48.5 19.5t47 -19.5t18 -46.5q0 -29 -19 -48.5t-46 -19.5q-29 0 -48.5 20.5t-19.5 47.5z" />
<glyph unicode="9" d="M113 784.5q0 26.5 19.5 46t48 19.5t47 -19.5t18.5 -46.5q0 -29 -19.5 -48t-46.5 -19q-29 0 -48 20.5t-19 47zM354 542.5q0 26.5 19.5 46t48.5 19.5t47 -19.5t18 -45.5q0 -29 -19 -48.5t-46 -19.5q-29 0 -48.5 20.5t-19.5 47zM354 1026q0 27 19.5 46.5t48.5 19.5t47 -19.5 t18 -46.5q0 -29 -19 -48.5t-46 -19.5q-29 0 -48.5 20.5t-19.5 47.5zM475 59.5q0 26.5 19.5 46t48.5 19.5q27 0 46 -19.5t19 -46.5q0 -29 -19.5 -48t-46 -19t-47 20.5t-20.5 47zM596 542.5q0 26.5 19.5 46t48 19.5t47 -19.5t18.5 -45.5q0 -29 -19.5 -48.5t-45.5 -19.5 q-29 0 -48.5 20.5t-19.5 47zM596 1026q0 27 19.5 46.5t48 19.5t47 -19.5t18.5 -46.5q0 -29 -19.5 -48.5t-45.5 -19.5q-29 0 -48.5 20.5t-19.5 47.5zM717 59.5q0 26.5 19.5 46t47.5 19.5q27 0 46.5 -19.5t19.5 -46.5q0 -29 -19.5 -48t-46 -19t-47 20.5t-20.5 47zM838 542.5 q0 26.5 19.5 46t48 19.5t47 -19.5t18.5 -45.5q0 -29 -19.5 -48.5t-46.5 -19.5q-29 0 -48 20.5t-19 47zM838 1026q0 27 19.5 46.5t48 19.5t47 -19.5t18.5 -46.5q0 -29 -19.5 -48.5t-46.5 -19.5q-29 0 -48 20.5t-19 47.5zM958 301q0 27 19.5 46.5t48.5 19.5q27 0 46.5 -19.5 t19.5 -46.5q0 -29 -19.5 -48.5t-46.5 -19.5t-47.5 20.5t-20.5 47.5zM1079 542.5q0 26.5 19.5 46t48.5 19.5t47 -19.5t18 -45.5q0 -29 -19 -48.5t-46 -19.5q-29 0 -48.5 20.5t-19.5 47zM1079 784.5q0 26.5 19.5 46t48.5 19.5t47 -19.5t18 -46.5q0 -29 -19 -48t-46 -19 q-29 0 -48.5 20.5t-19.5 47z" />
<glyph unicode=":" horiz-adv-x="362" d="M113 59.5q0 26.5 19.5 46t48 19.5t47 -19.5t18.5 -46.5q0 -29 -19.5 -48t-46.5 -19q-29 0 -48 20.5t-19 47zM113 784.5q0 26.5 19.5 46t48 19.5t47 -19.5t18.5 -46.5q0 -29 -19.5 -48t-46.5 -19q-29 0 -48 20.5t-19 47z" />
<glyph unicode=";" horiz-adv-x="483" d="M113 -182.5q0 26.5 19.5 46t48 19.5t47 -19.5t18.5 -45.5q0 -29 -19.5 -48.5t-46.5 -19.5q-29 0 -48 20.5t-19 47zM233 59.5q0 26.5 19.5 46t48.5 19.5q27 0 46.5 -19.5t19.5 -46.5q0 -29 -19.5 -48t-46.5 -19t-47.5 20.5t-20.5 47zM233 784.5q0 26.5 19.5 46t48.5 19.5 q27 0 46.5 -19.5t19.5 -46.5q0 -29 -19.5 -48t-46.5 -19t-47.5 20.5t-20.5 47z" />
<glyph unicode="&#x3c;" horiz-adv-x="845" d="M113 542.5q0 26.5 19.5 46t48 19.5t47 -19.5t18.5 -45.5q0 -29 -19.5 -48.5t-46.5 -19.5q-29 0 -48 20.5t-19 47zM354 301q0 27 19.5 46.5t48.5 19.5t47 -19.5t18 -46.5q0 -29 -19 -48.5t-46 -19.5q-29 0 -48.5 20.5t-19.5 47.5zM354 784.5q0 26.5 19.5 46t48.5 19.5 t47 -19.5t18 -46.5q0 -29 -19 -48t-46 -19q-29 0 -48.5 20.5t-19.5 47zM596 59.5q0 26.5 19.5 46t48 19.5t47 -19.5t18.5 -46.5q0 -29 -19.5 -48t-45.5 -19q-29 0 -48.5 20.5t-19.5 47zM596 1026q0 27 19.5 46.5t48 19.5t47 -19.5t18.5 -46.5q0 -29 -19.5 -48.5t-45.5 -19.5 q-29 0 -48.5 20.5t-19.5 47.5z" />
<glyph unicode="=" horiz-adv-x="1087" d="M113 422q0 27 19.5 46t48 19t47 -18t18.5 -47t-19.5 -48.5t-46.5 -19.5q-29 0 -48 19.5t-19 48.5zM113 784.5q0 26.5 19.5 46t48 19.5t47 -19.5t18.5 -46.5q0 -29 -19.5 -48t-46.5 -19q-29 0 -48 20.5t-19 47zM354 422q0 27 19.5 46t48.5 19t47 -18t18 -47t-19 -48.5 t-46 -19.5q-29 0 -48.5 19.5t-19.5 48.5zM354 784.5q0 26.5 19.5 46t48.5 19.5t47 -19.5t18 -46.5q0 -29 -19 -48t-46 -19q-29 0 -48.5 20.5t-19.5 47zM596 422q0 27 19.5 46t48 19t47 -18t18.5 -47t-19.5 -48.5t-45.5 -19.5q-29 0 -48.5 19.5t-19.5 48.5zM596 784.5 q0 26.5 19.5 46t48 19.5t47 -19.5t18.5 -46.5q0 -29 -19.5 -48t-45.5 -19q-29 0 -48.5 20.5t-19.5 47zM838 422q0 27 19.5 46t48 19t47 -18t18.5 -47t-19.5 -48.5t-46.5 -19.5q-29 0 -48 19.5t-19 48.5zM838 784.5q0 26.5 19.5 46t48 19.5t47 -19.5t18.5 -46.5 q0 -29 -19.5 -48t-46.5 -19q-29 0 -48 20.5t-19 47z" />
<glyph unicode="&#x3e;" horiz-adv-x="845" d="M113 59.5q0 26.5 19.5 46t48 19.5t47 -19.5t18.5 -46.5q0 -29 -19.5 -48t-46.5 -19q-29 0 -48 20.5t-19 47zM113 1026q0 27 19.5 46.5t48 19.5t47 -19.5t18.5 -46.5q0 -29 -19.5 -48.5t-46.5 -19.5q-29 0 -48 20.5t-19 47.5zM354 301q0 27 19.5 46.5t48.5 19.5t47 -19.5 t18 -46.5q0 -29 -19 -48.5t-46 -19.5q-29 0 -48.5 20.5t-19.5 47.5zM354 784.5q0 26.5 19.5 46t48.5 19.5t47 -19.5t18 -46.5q0 -29 -19 -48t-46 -19q-29 0 -48.5 20.5t-19.5 47zM596 542.5q0 26.5 19.5 46t48 19.5t47 -19.5t18.5 -45.5q0 -29 -19.5 -48.5t-45.5 -19.5 q-29 0 -48.5 20.5t-19.5 47z" />
<glyph unicode="?" horiz-adv-x="845" d="M113 905q0 27 19.5 46.5t48 19.5t47 -18.5t18.5 -47t-19.5 -48t-46.5 -19.5q-29 0 -48 19t-19 48zM354 59.5q0 26.5 19.5 46t48.5 19.5t47 -19.5t18 -46.5q0 -29 -19 -48t-46 -19q-29 0 -48.5 20.5t-19.5 47zM354 422q0 27 19.5 46t48.5 19t47 -18t18 -47t-19 -48.5 t-46 -19.5q-29 0 -48.5 19.5t-19.5 48.5zM354 1026q0 27 19.5 46.5t48.5 19.5t47 -19.5t18 -46.5q0 -29 -19 -48.5t-46 -19.5q-29 0 -48.5 20.5t-19.5 47.5zM596 664q0 27 19.5 46t48 19t47 -18.5t18.5 -47t-19.5 -48t-45.5 -19.5q-29 0 -48.5 19.5t-19.5 48.5zM596 905 q0 27 19.5 46.5t48 19.5t47 -18.5t18.5 -47t-19.5 -48t-45.5 -19.5q-29 0 -48.5 19t-19.5 48z" />
<glyph unicode="@" d="M113 422q0 27 19.5 46t48 19t47 -18t18.5 -47t-19.5 -48.5t-46.5 -19.5q-29 0 -48 19.5t-19 48.5zM113 664q0 27 19.5 46t48 19t47 -18.5t18.5 -47t-19.5 -48t-46.5 -19.5q-29 0 -48 19.5t-19 48.5zM233 180q0 27 19.5 46.5t48.5 19.5q27 0 46.5 -18.5t19.5 -47 t-19.5 -48t-46.5 -19.5t-47.5 19t-20.5 48zM233 905q0 27 19.5 46.5t48.5 19.5q27 0 46.5 -18.5t19.5 -47t-19.5 -48t-46.5 -19.5t-47.5 19t-20.5 48zM354 -61q0 27 19.5 46t48.5 19t47 -18.5t18 -47t-19 -48t-46 -19.5q-29 0 -48.5 19.5t-19.5 48.5zM475 301 q0 27 19.5 46.5t48.5 19.5q27 0 46 -19.5t19 -46.5q0 -29 -19.5 -48.5t-46 -19.5t-47 20.5t-20.5 47.5zM475 542.5q0 26.5 19.5 46t48.5 19.5q27 0 46 -19.5t19 -45.5q0 -29 -19.5 -48.5t-46 -19.5t-47 20.5t-20.5 47zM475 1026q0 27 19.5 46.5t48.5 19.5q27 0 46 -19.5 t19 -46.5q0 -29 -19.5 -48.5t-46 -19.5t-47 20.5t-20.5 47.5zM596 -182.5q0 26.5 19.5 46t48 19.5t47 -19.5t18.5 -45.5q0 -29 -19.5 -48.5t-45.5 -19.5q-29 0 -48.5 20.5t-19.5 47zM717 59.5q0 26.5 19.5 46t47.5 19.5q27 0 46.5 -19.5t19.5 -46.5q0 -29 -19.5 -48t-46 -19 t-47 20.5t-20.5 47zM717 301q0 27 19.5 46.5t47.5 19.5q27 0 46.5 -19.5t19.5 -46.5q0 -29 -19.5 -48.5t-46 -19.5t-47 20.5t-20.5 47.5zM717 542.5q0 26.5 19.5 46t47.5 19.5q27 0 46.5 -19.5t19.5 -45.5q0 -29 -19.5 -48.5t-46 -19.5t-47 20.5t-20.5 47zM717 1026 q0 27 19.5 46.5t47.5 19.5q27 0 46.5 -19.5t19.5 -46.5q0 -29 -19.5 -48.5t-46 -19.5t-47 20.5t-20.5 47.5zM958 180q0 27 19.5 46.5t48.5 19.5q27 0 46.5 -18.5t19.5 -47t-19.5 -48t-46.5 -19.5t-47.5 19t-20.5 48zM958 905q0 27 19.5 46.5t48.5 19.5q27 0 46.5 -18.5 t19.5 -47t-19.5 -48t-46.5 -19.5t-47.5 19t-20.5 48zM1079 422q0 27 19.5 46t48.5 19t47 -18t18 -47t-19 -48.5t-46 -19.5q-29 0 -48.5 19.5t-19.5 48.5zM1079 664q0 27 19.5 46t48.5 19t47 -18.5t18 -47t-19 -48t-46 -19.5q-29 0 -48.5 19.5t-19.5 48.5z" />
<glyph unicode="A" d="M113 59.5q0 26.5 19.5 46t48 19.5t47 -19.5t18.5 -46.5q0 -29 -19.5 -48t-46.5 -19q-29 0 -48 20.5t-19 47zM113 301q0 27 19.5 46.5t48 19.5t47 -19.5t18.5 -46.5q0 -29 -19.5 -48.5t-46.5 -19.5q-29 0 -48 20.5t-19 47.5zM113 542.5q0 26.5 19.5 46t48 19.5t47 -19.5 t18.5 -45.5q0 -29 -19.5 -48.5t-46.5 -19.5q-29 0 -48 20.5t-19 47zM113 784.5q0 26.5 19.5 46t48 19.5t47 -19.5t18.5 -46.5q0 -29 -19.5 -48t-46.5 -19q-29 0 -48 20.5t-19 47zM354 422q0 27 19.5 46t48.5 19t47 -18t18 -47t-19 -48.5t-46 -19.5q-29 0 -48.5 19.5 t-19.5 48.5zM354 1026q0 27 19.5 46.5t48.5 19.5t47 -19.5t18 -46.5q0 -29 -19 -48.5t-46 -19.5q-29 0 -48.5 20.5t-19.5 47.5zM596 422q0 27 19.5 46t48 19t47 -18t18.5 -47t-19.5 -48.5t-45.5 -19.5q-29 0 -48.5 19.5t-19.5 48.5zM596 1026q0 27 19.5 46.5t48 19.5 t47 -19.5t18.5 -46.5q0 -29 -19.5 -48.5t-45.5 -19.5q-29 0 -48.5 20.5t-19.5 47.5zM838 422q0 27 19.5 46t48 19t47 -18t18.5 -47t-19.5 -48.5t-46.5 -19.5q-29 0 -48 19.5t-19 48.5zM838 1026q0 27 19.5 46.5t48 19.5t47 -19.5t18.5 -46.5q0 -29 -19.5 -48.5t-46.5 -19.5 q-29 0 -48 20.5t-19 47.5zM1079 59.5q0 26.5 19.5 46t48.5 19.5t47 -19.5t18 -46.5q0 -29 -19 -48t-46 -19q-29 0 -48.5 20.5t-19.5 47zM1079 301q0 27 19.5 46.5t48.5 19.5t47 -19.5t18 -46.5q0 -29 -19 -48.5t-46 -19.5q-29 0 -48.5 20.5t-19.5 47.5zM1079 542.5 q0 26.5 19.5 46t48.5 19.5t47 -19.5t18 -45.5q0 -29 -19 -48.5t-46 -19.5q-29 0 -48.5 20.5t-19.5 47zM1079 784.5q0 26.5 19.5 46t48.5 19.5t47 -19.5t18 -46.5q0 -29 -19 -48t-46 -19q-29 0 -48.5 20.5t-19.5 47z" />
<glyph unicode="B" d="M113 59.5q0 26.5 19.5 46t48 19.5t47 -19.5t18.5 -46.5q0 -29 -19.5 -48t-46.5 -19q-29 0 -48 20.5t-19 47zM113 301q0 27 19.5 46.5t48 19.5t47 -19.5t18.5 -46.5q0 -29 -19.5 -48.5t-46.5 -19.5q-29 0 -48 20.5t-19 47.5zM113 542.5q0 26.5 19.5 46t48 19.5t47 -19.5 t18.5 -45.5q0 -29 -19.5 -48.5t-46.5 -19.5q-29 0 -48 20.5t-19 47zM113 784.5q0 26.5 19.5 46t48 19.5t47 -19.5t18.5 -46.5q0 -29 -19.5 -48t-46.5 -19q-29 0 -48 20.5t-19 47zM354 59.5q0 26.5 19.5 46t48.5 19.5t47 -19.5t18 -46.5q0 -29 -19 -48t-46 -19 q-29 0 -48.5 20.5t-19.5 47zM354 542.5q0 26.5 19.5 46t48.5 19.5t47 -19.5t18 -45.5q0 -29 -19 -48.5t-46 -19.5q-29 0 -48.5 20.5t-19.5 47zM354 1026q0 27 19.5 46.5t48.5 19.5t47 -19.5t18 -46.5q0 -29 -19 -48.5t-46 -19.5q-29 0 -48.5 20.5t-19.5 47.5zM596 59.5 q0 26.5 19.5 46t48 19.5t47 -19.5t18.5 -46.5q0 -29 -19.5 -48t-45.5 -19q-29 0 -48.5 20.5t-19.5 47zM596 542.5q0 26.5 19.5 46t48 19.5t47 -19.5t18.5 -45.5q0 -29 -19.5 -48.5t-45.5 -19.5q-29 0 -48.5 20.5t-19.5 47zM596 1026q0 27 19.5 46.5t48 19.5t47 -19.5 t18.5 -46.5q0 -29 -19.5 -48.5t-45.5 -19.5q-29 0 -48.5 20.5t-19.5 47.5zM838 59.5q0 26.5 19.5 46t48 19.5t47 -19.5t18.5 -46.5q0 -29 -19.5 -48t-46.5 -19q-29 0 -48 20.5t-19 47zM838 542.5q0 26.5 19.5 46t48 19.5t47 -19.5t18.5 -45.5q0 -29 -19.5 -48.5t-46.5 -19.5 q-29 0 -48 20.5t-19 47zM838 1026q0 27 19.5 46.5t48 19.5t47 -19.5t18.5 -46.5q0 -29 -19.5 -48.5t-46.5 -19.5q-29 0 -48 20.5t-19 47.5zM958 784.5q0 26.5 19.5 46t48.5 19.5q27 0 46.5 -19.5t19.5 -46.5q0 -29 -19.5 -48t-46.5 -19t-47.5 20.5t-20.5 47zM1079 301 q0 27 19.5 46.5t48.5 19.5t47 -19.5t18 -46.5q0 -29 -19 -48.5t-46 -19.5q-29 0 -48.5 20.5t-19.5 47.5zM1079 542.5q0 26.5 19.5 46t48.5 19.5t47 -19.5t18 -45.5q0 -29 -19 -48.5t-46 -19.5q-29 0 -48.5 20.5t-19.5 47z" />
<glyph unicode="C" horiz-adv-x="1208" d="M113 422q0 27 19.5 46t48 19t47 -18t18.5 -47t-19.5 -48.5t-46.5 -19.5q-29 0 -48 19.5t-19 48.5zM113 664q0 27 19.5 46t48 19t47 -18.5t18.5 -47t-19.5 -48t-46.5 -19.5q-29 0 -48 19.5t-19 48.5zM233 180q0 27 19.5 46.5t48.5 19.5q27 0 46.5 -18.5t19.5 -47 t-19.5 -48t-46.5 -19.5t-47.5 19t-20.5 48zM233 905q0 27 19.5 46.5t48.5 19.5q27 0 46.5 -18.5t19.5 -47t-19.5 -48t-46.5 -19.5t-47.5 19t-20.5 48zM475 59.5q0 26.5 19.5 46t48.5 19.5q27 0 46 -19.5t19 -46.5q0 -29 -19.5 -48t-46 -19t-47 20.5t-20.5 47zM475 1026 q0 27 19.5 46.5t48.5 19.5q27 0 46 -19.5t19 -46.5q0 -29 -19.5 -48.5t-46 -19.5t-47 20.5t-20.5 47.5zM717 59.5q0 26.5 19.5 46t47.5 19.5q27 0 46.5 -19.5t19.5 -46.5q0 -29 -19.5 -48t-46 -19t-47 20.5t-20.5 47zM717 1026q0 27 19.5 46.5t47.5 19.5q27 0 46.5 -19.5 t19.5 -46.5q0 -29 -19.5 -48.5t-46 -19.5t-47 20.5t-20.5 47.5zM958 180q0 27 19.5 46.5t48.5 19.5q27 0 46.5 -18.5t19.5 -47t-19.5 -48t-46.5 -19.5t-47.5 19t-20.5 48zM958 905q0 27 19.5 46.5t48.5 19.5q27 0 46.5 -18.5t19.5 -47t-19.5 -48t-46.5 -19.5t-47.5 19 t-20.5 48z" />
<glyph unicode="D" horiz-adv-x="1208" d="M113 59.5q0 26.5 19.5 46t48 19.5t47 -19.5t18.5 -46.5q0 -29 -19.5 -48t-46.5 -19q-29 0 -48 20.5t-19 47zM113 301q0 27 19.5 46.5t48 19.5t47 -19.5t18.5 -46.5q0 -29 -19.5 -48.5t-46.5 -19.5q-29 0 -48 20.5t-19 47.5zM113 542.5q0 26.5 19.5 46t48 19.5t47 -19.5 t18.5 -45.5q0 -29 -19.5 -48.5t-46.5 -19.5q-29 0 -48 20.5t-19 47zM113 784.5q0 26.5 19.5 46t48 19.5t47 -19.5t18.5 -46.5q0 -29 -19.5 -48t-46.5 -19q-29 0 -48 20.5t-19 47zM354 59.5q0 26.5 19.5 46t48.5 19.5t47 -19.5t18 -46.5q0 -29 -19 -48t-46 -19 q-29 0 -48.5 20.5t-19.5 47zM354 1026q0 27 19.5 46.5t48.5 19.5t47 -19.5t18 -46.5q0 -29 -19 -48.5t-46 -19.5q-29 0 -48.5 20.5t-19.5 47.5zM596 59.5q0 26.5 19.5 46t48 19.5t47 -19.5t18.5 -46.5q0 -29 -19.5 -48t-45.5 -19q-29 0 -48.5 20.5t-19.5 47zM596 1026 q0 27 19.5 46.5t48 19.5t47 -19.5t18.5 -46.5q0 -29 -19.5 -48.5t-45.5 -19.5q-29 0 -48.5 20.5t-19.5 47.5zM838 180q0 27 19.5 46.5t48 19.5t47 -18.5t18.5 -47t-19.5 -48t-46.5 -19.5q-29 0 -48 19t-19 48zM838 905q0 27 19.5 46.5t48 19.5t47 -18.5t18.5 -47t-19.5 -48 t-46.5 -19.5q-29 0 -48 19t-19 48zM958 422q0 27 19.5 46t48.5 19q27 0 46.5 -18t19.5 -47t-19.5 -48.5t-46.5 -19.5t-47.5 19.5t-20.5 48.5zM958 664q0 27 19.5 46t48.5 19q27 0 46.5 -18.5t19.5 -47t-19.5 -48t-46.5 -19.5t-47.5 19.5t-20.5 48.5z" />
<glyph unicode="E" d="M113 301q0 27 19.5 46.5t48 19.5t47 -19.5t18.5 -46.5q0 -29 -19.5 -48.5t-46.5 -19.5q-29 0 -48 20.5t-19 47.5zM113 542.5q0 26.5 19.5 46t48 19.5t47 -19.5t18.5 -45.5q0 -29 -19.5 -48.5t-46.5 -19.5q-29 0 -48 20.5t-19 47zM113 784.5q0 26.5 19.5 46t48 19.5 t47 -19.5t18.5 -46.5q0 -29 -19.5 -48t-46.5 -19q-29 0 -48 20.5t-19 47zM354 59.5q0 26.5 19.5 46t48.5 19.5t47 -19.5t18 -46.5q0 -29 -19 -48t-46 -19q-29 0 -48.5 20.5t-19.5 47zM354 542.5q0 26.5 19.5 46t48.5 19.5t47 -19.5t18 -45.5q0 -29 -19 -48.5t-46 -19.5 q-29 0 -48.5 20.5t-19.5 47zM354 1026q0 27 19.5 46.5t48.5 19.5t47 -19.5t18 -46.5q0 -29 -19 -48.5t-46 -19.5q-29 0 -48.5 20.5t-19.5 47.5zM596 59.5q0 26.5 19.5 46t48 19.5t47 -19.5t18.5 -46.5q0 -29 -19.5 -48t-45.5 -19q-29 0 -48.5 20.5t-19.5 47zM596 542.5 q0 26.5 19.5 46t48 19.5t47 -19.5t18.5 -45.5q0 -29 -19.5 -48.5t-45.5 -19.5q-29 0 -48.5 20.5t-19.5 47zM596 1026q0 27 19.5 46.5t48 19.5t47 -19.5t18.5 -46.5q0 -29 -19.5 -48.5t-45.5 -19.5q-29 0 -48.5 20.5t-19.5 47.5zM838 59.5q0 26.5 19.5 46t48 19.5t47 -19.5 t18.5 -46.5q0 -29 -19.5 -48t-46.5 -19q-29 0 -48 20.5t-19 47zM838 542.5q0 26.5 19.5 46t48 19.5t47 -19.5t18.5 -45.5q0 -29 -19.5 -48.5t-46.5 -19.5q-29 0 -48 20.5t-19 47zM838 1026q0 27 19.5 46.5t48 19.5t47 -19.5t18.5 -46.5q0 -29 -19.5 -48.5t-46.5 -19.5 q-29 0 -48 20.5t-19 47.5zM1079 59.5q0 26.5 19.5 46t48.5 19.5t47 -19.5t18 -46.5q0 -29 -19 -48t-46 -19q-29 0 -48.5 20.5t-19.5 47zM1079 1026q0 27 19.5 46.5t48.5 19.5t47 -19.5t18 -46.5q0 -29 -19 -48.5t-46 -19.5q-29 0 -48.5 20.5t-19.5 47.5z" />
<glyph unicode="F" horiz-adv-x="1087" d="M113 59.5q0 26.5 19.5 46t48 19.5t47 -19.5t18.5 -46.5q0 -29 -19.5 -48t-46.5 -19q-29 0 -48 20.5t-19 47zM113 301q0 27 19.5 46.5t48 19.5t47 -19.5t18.5 -46.5q0 -29 -19.5 -48.5t-46.5 -19.5q-29 0 -48 20.5t-19 47.5zM113 542.5q0 26.5 19.5 46t48 19.5t47 -19.5 t18.5 -45.5q0 -29 -19.5 -48.5t-46.5 -19.5q-29 0 -48 20.5t-19 47zM113 784.5q0 26.5 19.5 46t48 19.5t47 -19.5t18.5 -46.5q0 -29 -19.5 -48t-46.5 -19q-29 0 -48 20.5t-19 47zM354 422q0 27 19.5 46t48.5 19t47 -18t18 -47t-19 -48.5t-46 -19.5q-29 0 -48.5 19.5 t-19.5 48.5zM354 1026q0 27 19.5 46.5t48.5 19.5t47 -19.5t18 -46.5q0 -29 -19 -48.5t-46 -19.5q-29 0 -48.5 20.5t-19.5 47.5zM596 422q0 27 19.5 46t48 19t47 -18t18.5 -47t-19.5 -48.5t-45.5 -19.5q-29 0 -48.5 19.5t-19.5 48.5zM596 1026q0 27 19.5 46.5t48 19.5 t47 -19.5t18.5 -46.5q0 -29 -19.5 -48.5t-45.5 -19.5q-29 0 -48.5 20.5t-19.5 47.5zM838 1026q0 27 19.5 46.5t48 19.5t47 -19.5t18.5 -46.5q0 -29 -19.5 -48.5t-46.5 -19.5q-29 0 -48 20.5t-19 47.5z" />
<glyph unicode="G" d="M113 422q0 27 19.5 46t48 19t47 -18t18.5 -47t-19.5 -48.5t-46.5 -19.5q-29 0 -48 19.5t-19 48.5zM113 664q0 27 19.5 46t48 19t47 -18.5t18.5 -47t-19.5 -48t-46.5 -19.5q-29 0 -48 19.5t-19 48.5zM233 180q0 27 19.5 46.5t48.5 19.5q27 0 46.5 -18.5t19.5 -47 t-19.5 -48t-46.5 -19.5t-47.5 19t-20.5 48zM233 905q0 27 19.5 46.5t48.5 19.5q27 0 46.5 -18.5t19.5 -47t-19.5 -48t-46.5 -19.5t-47.5 19t-20.5 48zM475 59.5q0 26.5 19.5 46t48.5 19.5q27 0 46 -19.5t19 -46.5q0 -29 -19.5 -48t-46 -19t-47 20.5t-20.5 47zM475 1026 q0 27 19.5 46.5t48.5 19.5q27 0 46 -19.5t19 -46.5q0 -29 -19.5 -48.5t-46 -19.5t-47 20.5t-20.5 47.5zM596 542.5q0 26.5 19.5 46t48 19.5t47 -19.5t18.5 -45.5q0 -29 -19.5 -48.5t-45.5 -19.5q-29 0 -48.5 20.5t-19.5 47zM717 59.5q0 26.5 19.5 46t47.5 19.5 q27 0 46.5 -19.5t19.5 -46.5q0 -29 -19.5 -48t-46 -19t-47 20.5t-20.5 47zM717 1026q0 27 19.5 46.5t47.5 19.5q27 0 46.5 -19.5t19.5 -46.5q0 -29 -19.5 -48.5t-46 -19.5t-47 20.5t-20.5 47.5zM838 542.5q0 26.5 19.5 46t48 19.5t47 -19.5t18.5 -45.5q0 -29 -19.5 -48.5 t-46.5 -19.5q-29 0 -48 20.5t-19 47zM958 59.5q0 26.5 19.5 46t48.5 19.5q27 0 46.5 -19.5t19.5 -46.5q0 -29 -19.5 -48t-46.5 -19t-47.5 20.5t-20.5 47zM958 1026q0 27 19.5 46.5t48.5 19.5q27 0 46.5 -19.5t19.5 -46.5q0 -29 -19.5 -48.5t-46.5 -19.5t-47.5 20.5 t-20.5 47.5zM1079 301q0 27 19.5 46.5t48.5 19.5t47 -19.5t18 -46.5q0 -29 -19 -48.5t-46 -19.5q-29 0 -48.5 20.5t-19.5 47.5zM1079 542.5q0 26.5 19.5 46t48.5 19.5t47 -19.5t18 -45.5q0 -29 -19 -48.5t-46 -19.5q-29 0 -48.5 20.5t-19.5 47z" />
<glyph unicode="H" d="M113 59.5q0 26.5 19.5 46t48 19.5t47 -19.5t18.5 -46.5q0 -29 -19.5 -48t-46.5 -19q-29 0 -48 20.5t-19 47zM113 301q0 27 19.5 46.5t48 19.5t47 -19.5t18.5 -46.5q0 -29 -19.5 -48.5t-46.5 -19.5q-29 0 -48 20.5t-19 47.5zM113 542.5q0 26.5 19.5 46t48 19.5t47 -19.5 t18.5 -45.5q0 -29 -19.5 -48.5t-46.5 -19.5q-29 0 -48 20.5t-19 47zM113 784.5q0 26.5 19.5 46t48 19.5t47 -19.5t18.5 -46.5q0 -29 -19.5 -48t-46.5 -19q-29 0 -48 20.5t-19 47zM113 1026q0 27 19.5 46.5t48 19.5t47 -19.5t18.5 -46.5q0 -29 -19.5 -48.5t-46.5 -19.5 q-29 0 -48 20.5t-19 47.5zM354 542.5q0 26.5 19.5 46t48.5 19.5t47 -19.5t18 -45.5q0 -29 -19 -48.5t-46 -19.5q-29 0 -48.5 20.5t-19.5 47zM596 542.5q0 26.5 19.5 46t48 19.5t47 -19.5t18.5 -45.5q0 -29 -19.5 -48.5t-45.5 -19.5q-29 0 -48.5 20.5t-19.5 47zM838 542.5 q0 26.5 19.5 46t48 19.5t47 -19.5t18.5 -45.5q0 -29 -19.5 -48.5t-46.5 -19.5q-29 0 -48 20.5t-19 47zM1079 59.5q0 26.5 19.5 46t48.5 19.5t47 -19.5t18 -46.5q0 -29 -19 -48t-46 -19q-29 0 -48.5 20.5t-19.5 47zM1079 301q0 27 19.5 46.5t48.5 19.5t47 -19.5t18 -46.5 q0 -29 -19 -48.5t-46 -19.5q-29 0 -48.5 20.5t-19.5 47.5zM1079 542.5q0 26.5 19.5 46t48.5 19.5t47 -19.5t18 -45.5q0 -29 -19 -48.5t-46 -19.5q-29 0 -48.5 20.5t-19.5 47zM1079 784.5q0 26.5 19.5 46t48.5 19.5t47 -19.5t18 -46.5q0 -29 -19 -48t-46 -19 q-29 0 -48.5 20.5t-19.5 47zM1079 1026q0 27 19.5 46.5t48.5 19.5t47 -19.5t18 -46.5q0 -29 -19 -48.5t-46 -19.5q-29 0 -48.5 20.5t-19.5 47.5z" />
<glyph unicode="I" horiz-adv-x="362" d="M113 59.5q0 26.5 19.5 46t48 19.5t47 -19.5t18.5 -46.5q0 -29 -19.5 -48t-46.5 -19q-29 0 -48 20.5t-19 47zM113 301q0 27 19.5 46.5t48 19.5t47 -19.5t18.5 -46.5q0 -29 -19.5 -48.5t-46.5 -19.5q-29 0 -48 20.5t-19 47.5zM113 542.5q0 26.5 19.5 46t48 19.5t47 -19.5 t18.5 -45.5q0 -29 -19.5 -48.5t-46.5 -19.5q-29 0 -48 20.5t-19 47zM113 784.5q0 26.5 19.5 46t48 19.5t47 -19.5t18.5 -46.5q0 -29 -19.5 -48t-46.5 -19q-29 0 -48 20.5t-19 47zM113 1026q0 27 19.5 46.5t48 19.5t47 -19.5t18.5 -46.5q0 -29 -19.5 -48.5t-46.5 -19.5 q-29 0 -48 20.5t-19 47.5z" />
<glyph unicode="J" horiz-adv-x="362" d="M-8 -182.5q0 26.5 19.5 46t47.5 19.5q27 0 46.5 -19.5t19.5 -45.5q0 -29 -19.5 -48.5t-46 -19.5t-47 20.5t-20.5 47zM113 59.5q0 26.5 19.5 46t48 19.5t47 -19.5t18.5 -46.5q0 -29 -19.5 -48t-46.5 -19q-29 0 -48 20.5t-19 47zM113 301q0 27 19.5 46.5t48 19.5t47 -19.5 t18.5 -46.5q0 -29 -19.5 -48.5t-46.5 -19.5q-29 0 -48 20.5t-19 47.5zM113 542.5q0 26.5 19.5 46t48 19.5t47 -19.5t18.5 -45.5q0 -29 -19.5 -48.5t-46.5 -19.5q-29 0 -48 20.5t-19 47zM113 784.5q0 26.5 19.5 46t48 19.5t47 -19.5t18.5 -46.5q0 -29 -19.5 -48t-46.5 -19 q-29 0 -48 20.5t-19 47zM113 1026q0 27 19.5 46.5t48 19.5t47 -19.5t18.5 -46.5q0 -29 -19.5 -48.5t-46.5 -19.5q-29 0 -48 20.5t-19 47.5z" />
<glyph unicode="K" d="M113 59.5q0 26.5 19.5 46t48 19.5t47 -19.5t18.5 -46.5q0 -29 -19.5 -48t-46.5 -19q-29 0 -48 20.5t-19 47zM113 301q0 27 19.5 46.5t48 19.5t47 -19.5t18.5 -46.5q0 -29 -19.5 -48.5t-46.5 -19.5q-29 0 -48 20.5t-19 47.5zM113 542.5q0 26.5 19.5 46t48 19.5t47 -19.5 t18.5 -45.5q0 -29 -19.5 -48.5t-46.5 -19.5q-29 0 -48 20.5t-19 47zM113 784.5q0 26.5 19.5 46t48 19.5t47 -19.5t18.5 -46.5q0 -29 -19.5 -48t-46.5 -19q-29 0 -48 20.5t-19 47zM113 1026q0 27 19.5 46.5t48 19.5t47 -19.5t18.5 -46.5q0 -29 -19.5 -48.5t-46.5 -19.5 q-29 0 -48 20.5t-19 47.5zM354 542.5q0 26.5 19.5 46t48.5 19.5t47 -19.5t18 -45.5q0 -29 -19 -48.5t-46 -19.5q-29 0 -48.5 20.5t-19.5 47zM596 542.5q0 26.5 19.5 46t48 19.5t47 -19.5t18.5 -45.5q0 -29 -19.5 -48.5t-45.5 -19.5q-29 0 -48.5 20.5t-19.5 47zM838 301 q0 27 19.5 46.5t48 19.5t47 -19.5t18.5 -46.5q0 -29 -19.5 -48.5t-46.5 -19.5q-29 0 -48 20.5t-19 47.5zM838 784.5q0 26.5 19.5 46t48 19.5t47 -19.5t18.5 -46.5q0 -29 -19.5 -48t-46.5 -19q-29 0 -48 20.5t-19 47zM1079 59.5q0 26.5 19.5 46t48.5 19.5t47 -19.5t18 -46.5 q0 -29 -19 -48t-46 -19q-29 0 -48.5 20.5t-19.5 47zM1079 1026q0 27 19.5 46.5t48.5 19.5t47 -19.5t18 -46.5q0 -29 -19 -48.5t-46 -19.5q-29 0 -48.5 20.5t-19.5 47.5z" />
<glyph unicode="L" horiz-adv-x="1208" d="M113 301q0 27 19.5 46.5t48 19.5t47 -19.5t18.5 -46.5q0 -29 -19.5 -48.5t-46.5 -19.5q-29 0 -48 20.5t-19 47.5zM113 542.5q0 26.5 19.5 46t48 19.5t47 -19.5t18.5 -45.5q0 -29 -19.5 -48.5t-46.5 -19.5q-29 0 -48 20.5t-19 47zM113 784.5q0 26.5 19.5 46t48 19.5 t47 -19.5t18.5 -46.5q0 -29 -19.5 -48t-46.5 -19q-29 0 -48 20.5t-19 47zM113 1026q0 27 19.5 46.5t48 19.5t47 -19.5t18.5 -46.5q0 -29 -19.5 -48.5t-46.5 -19.5q-29 0 -48 20.5t-19 47.5zM233 59.5q0 26.5 19.5 46t48.5 19.5q27 0 46.5 -19.5t19.5 -46.5q0 -29 -19.5 -48 t-46.5 -19t-47.5 20.5t-20.5 47zM475 59.5q0 26.5 19.5 46t48.5 19.5q27 0 46 -19.5t19 -46.5q0 -29 -19.5 -48t-46 -19t-47 20.5t-20.5 47zM717 59.5q0 26.5 19.5 46t47.5 19.5q27 0 46.5 -19.5t19.5 -46.5q0 -29 -19.5 -48t-46 -19t-47 20.5t-20.5 47zM958 59.5 q0 26.5 19.5 46t48.5 19.5q27 0 46.5 -19.5t19.5 -46.5q0 -29 -19.5 -48t-46.5 -19t-47.5 20.5t-20.5 47z" />
<glyph unicode="M" horiz-adv-x="1812" d="M113 59.5q0 26.5 19.5 46t48 19.5t47 -19.5t18.5 -46.5q0 -29 -19.5 -48t-46.5 -19q-29 0 -48 20.5t-19 47zM113 301q0 27 19.5 46.5t48 19.5t47 -19.5t18.5 -46.5q0 -29 -19.5 -48.5t-46.5 -19.5q-29 0 -48 20.5t-19 47.5zM113 542.5q0 26.5 19.5 46t48 19.5t47 -19.5 t18.5 -45.5q0 -29 -19.5 -48.5t-46.5 -19.5q-29 0 -48 20.5t-19 47zM113 784.5q0 26.5 19.5 46t48 19.5t47 -19.5t18.5 -46.5q0 -29 -19.5 -48t-46.5 -19q-29 0 -48 20.5t-19 47zM354 1026q0 27 19.5 46.5t48.5 19.5t47 -19.5t18 -46.5q0 -29 -19 -48.5t-46 -19.5 q-29 0 -48.5 20.5t-19.5 47.5zM596 1026q0 27 19.5 46.5t48 19.5t47 -19.5t18.5 -46.5q0 -29 -19.5 -48.5t-45.5 -19.5q-29 0 -48.5 20.5t-19.5 47.5zM838 59.5q0 26.5 19.5 46t48 19.5t47 -19.5t18.5 -46.5q0 -29 -19.5 -48t-46.5 -19q-29 0 -48 20.5t-19 47zM838 301 q0 27 19.5 46.5t48 19.5t47 -19.5t18.5 -46.5q0 -29 -19.5 -48.5t-46.5 -19.5q-29 0 -48 20.5t-19 47.5zM838 542.5q0 26.5 19.5 46t48 19.5t47 -19.5t18.5 -45.5q0 -29 -19.5 -48.5t-46.5 -19.5q-29 0 -48 20.5t-19 47zM838 784.5q0 26.5 19.5 46t48 19.5t47 -19.5 t18.5 -46.5q0 -29 -19.5 -48t-46.5 -19q-29 0 -48 20.5t-19 47zM1079 1026q0 27 19.5 46.5t48.5 19.5t47 -19.5t18 -46.5q0 -29 -19 -48.5t-46 -19.5q-29 0 -48.5 20.5t-19.5 47.5zM1321 1026q0 27 19.5 46.5t48 19.5t47 -19.5t18.5 -46.5q0 -29 -19.5 -48.5t-45.5 -19.5 q-29 0 -48.5 20.5t-19.5 47.5zM1563 59.5q0 26.5 19.5 46t48 19.5t47 -19.5t18.5 -46.5q0 -29 -19.5 -48t-46.5 -19q-29 0 -48 20.5t-19 47zM1563 301q0 27 19.5 46.5t48 19.5t47 -19.5t18.5 -46.5q0 -29 -19.5 -48.5t-46.5 -19.5q-29 0 -48 20.5t-19 47.5zM1563 542.5 q0 26.5 19.5 46t48 19.5t47 -19.5t18.5 -45.5q0 -29 -19.5 -48.5t-46.5 -19.5q-29 0 -48 20.5t-19 47zM1563 784.5q0 26.5 19.5 46t48 19.5t47 -19.5t18.5 -46.5q0 -29 -19.5 -48t-46.5 -19q-29 0 -48 20.5t-19 47z" />
<glyph unicode="N" d="M113 59.5q0 26.5 19.5 46t48 19.5t47 -19.5t18.5 -46.5q0 -29 -19.5 -48t-46.5 -19q-29 0 -48 20.5t-19 47zM113 301q0 27 19.5 46.5t48 19.5t47 -19.5t18.5 -46.5q0 -29 -19.5 -48.5t-46.5 -19.5q-29 0 -48 20.5t-19 47.5zM113 542.5q0 26.5 19.5 46t48 19.5t47 -19.5 t18.5 -45.5q0 -29 -19.5 -48.5t-46.5 -19.5q-29 0 -48 20.5t-19 47zM113 784.5q0 26.5 19.5 46t48 19.5t47 -19.5t18.5 -46.5q0 -29 -19.5 -48t-46.5 -19q-29 0 -48 20.5t-19 47zM354 1026q0 27 19.5 46.5t48.5 19.5t47 -19.5t18 -46.5q0 -29 -19 -48.5t-46 -19.5 q-29 0 -48.5 20.5t-19.5 47.5zM596 1026q0 27 19.5 46.5t48 19.5t47 -19.5t18.5 -46.5q0 -29 -19.5 -48.5t-45.5 -19.5q-29 0 -48.5 20.5t-19.5 47.5zM838 1026q0 27 19.5 46.5t48 19.5t47 -19.5t18.5 -46.5q0 -29 -19.5 -48.5t-46.5 -19.5q-29 0 -48 20.5t-19 47.5z M1079 59.5q0 26.5 19.5 46t48.5 19.5t47 -19.5t18 -46.5q0 -29 -19 -48t-46 -19q-29 0 -48.5 20.5t-19.5 47zM1079 301q0 27 19.5 46.5t48.5 19.5t47 -19.5t18 -46.5q0 -29 -19 -48.5t-46 -19.5q-29 0 -48.5 20.5t-19.5 47.5zM1079 542.5q0 26.5 19.5 46t48.5 19.5t47 -19.5 t18 -45.5q0 -29 -19 -48.5t-46 -19.5q-29 0 -48.5 20.5t-19.5 47zM1079 784.5q0 26.5 19.5 46t48.5 19.5t47 -19.5t18 -46.5q0 -29 -19 -48t-46 -19q-29 0 -48.5 20.5t-19.5 47z" />
<glyph unicode="O" d="M113 422q0 27 19.5 46t48 19t47 -18t18.5 -47t-19.5 -48.5t-46.5 -19.5q-29 0 -48 19.5t-19 48.5zM113 664q0 27 19.5 46t48 19t47 -18.5t18.5 -47t-19.5 -48t-46.5 -19.5q-29 0 -48 19.5t-19 48.5zM233 180q0 27 19.5 46.5t48.5 19.5q27 0 46.5 -18.5t19.5 -47 t-19.5 -48t-46.5 -19.5t-47.5 19t-20.5 48zM233 905q0 27 19.5 46.5t48.5 19.5q27 0 46.5 -18.5t19.5 -47t-19.5 -48t-46.5 -19.5t-47.5 19t-20.5 48zM475 59.5q0 26.5 19.5 46t48.5 19.5q27 0 46 -19.5t19 -46.5q0 -29 -19.5 -48t-46 -19t-47 20.5t-20.5 47zM475 1026 q0 27 19.5 46.5t48.5 19.5q27 0 46 -19.5t19 -46.5q0 -29 -19.5 -48.5t-46 -19.5t-47 20.5t-20.5 47.5zM717 59.5q0 26.5 19.5 46t47.5 19.5q27 0 46.5 -19.5t19.5 -46.5q0 -29 -19.5 -48t-46 -19t-47 20.5t-20.5 47zM717 1026q0 27 19.5 46.5t47.5 19.5q27 0 46.5 -19.5 t19.5 -46.5q0 -29 -19.5 -48.5t-46 -19.5t-47 20.5t-20.5 47.5zM958 180q0 27 19.5 46.5t48.5 19.5q27 0 46.5 -18.5t19.5 -47t-19.5 -48t-46.5 -19.5t-47.5 19t-20.5 48zM958 905q0 27 19.5 46.5t48.5 19.5q27 0 46.5 -18.5t19.5 -47t-19.5 -48t-46.5 -19.5t-47.5 19 t-20.5 48zM1079 422q0 27 19.5 46t48.5 19t47 -18t18 -47t-19 -48.5t-46 -19.5q-29 0 -48.5 19.5t-19.5 48.5zM1079 664q0 27 19.5 46t48.5 19t47 -18.5t18 -47t-19 -48t-46 -19.5q-29 0 -48.5 19.5t-19.5 48.5z" />
<glyph unicode="P" d="M113 59.5q0 26.5 19.5 46t48 19.5t47 -19.5t18.5 -46.5q0 -29 -19.5 -48t-46.5 -19q-29 0 -48 20.5t-19 47zM113 301q0 27 19.5 46.5t48 19.5t47 -19.5t18.5 -46.5q0 -29 -19.5 -48.5t-46.5 -19.5q-29 0 -48 20.5t-19 47.5zM113 542.5q0 26.5 19.5 46t48 19.5t47 -19.5 t18.5 -45.5q0 -29 -19.5 -48.5t-46.5 -19.5q-29 0 -48 20.5t-19 47zM113 784.5q0 26.5 19.5 46t48 19.5t47 -19.5t18.5 -46.5q0 -29 -19.5 -48t-46.5 -19q-29 0 -48 20.5t-19 47zM354 301q0 27 19.5 46.5t48.5 19.5t47 -19.5t18 -46.5q0 -29 -19 -48.5t-46 -19.5 q-29 0 -48.5 20.5t-19.5 47.5zM354 1026q0 27 19.5 46.5t48.5 19.5t47 -19.5t18 -46.5q0 -29 -19 -48.5t-46 -19.5q-29 0 -48.5 20.5t-19.5 47.5zM596 301q0 27 19.5 46.5t48 19.5t47 -19.5t18.5 -46.5q0 -29 -19.5 -48.5t-45.5 -19.5q-29 0 -48.5 20.5t-19.5 47.5z M596 1026q0 27 19.5 46.5t48 19.5t47 -19.5t18.5 -46.5q0 -29 -19.5 -48.5t-45.5 -19.5q-29 0 -48.5 20.5t-19.5 47.5zM838 301q0 27 19.5 46.5t48 19.5t47 -19.5t18.5 -46.5q0 -29 -19.5 -48.5t-46.5 -19.5q-29 0 -48 20.5t-19 47.5zM838 1026q0 27 19.5 46.5t48 19.5 t47 -19.5t18.5 -46.5q0 -29 -19.5 -48.5t-46.5 -19.5q-29 0 -48 20.5t-19 47.5zM1079 542.5q0 26.5 19.5 46t48.5 19.5t47 -19.5t18 -45.5q0 -29 -19 -48.5t-46 -19.5q-29 0 -48.5 20.5t-19.5 47zM1079 784.5q0 26.5 19.5 46t48.5 19.5t47 -19.5t18 -46.5q0 -29 -19 -48 t-46 -19q-29 0 -48.5 20.5t-19.5 47z" />
<glyph unicode="Q" d="M113 422q0 27 19.5 46t48 19t47 -18t18.5 -47t-19.5 -48.5t-46.5 -19.5q-29 0 -48 19.5t-19 48.5zM113 664q0 27 19.5 46t48 19t47 -18.5t18.5 -47t-19.5 -48t-46.5 -19.5q-29 0 -48 19.5t-19 48.5zM233 180q0 27 19.5 46.5t48.5 19.5q27 0 46.5 -18.5t19.5 -47 t-19.5 -48t-46.5 -19.5t-47.5 19t-20.5 48zM233 905q0 27 19.5 46.5t48.5 19.5q27 0 46.5 -18.5t19.5 -47t-19.5 -48t-46.5 -19.5t-47.5 19t-20.5 48zM475 59.5q0 26.5 19.5 46t48.5 19.5q27 0 46 -19.5t19 -46.5q0 -29 -19.5 -48t-46 -19t-47 20.5t-20.5 47zM475 1026 q0 27 19.5 46.5t48.5 19.5q27 0 46 -19.5t19 -46.5q0 -29 -19.5 -48.5t-46 -19.5t-47 20.5t-20.5 47.5zM717 59.5q0 26.5 19.5 46t47.5 19.5q27 0 46.5 -19.5t19.5 -46.5q0 -29 -19.5 -48t-46 -19t-47 20.5t-20.5 47zM717 1026q0 27 19.5 46.5t47.5 19.5q27 0 46.5 -19.5 t19.5 -46.5q0 -29 -19.5 -48.5t-46 -19.5t-47 20.5t-20.5 47.5zM958 -61q0 27 19.5 46t48.5 19q27 0 46.5 -18.5t19.5 -47t-19.5 -48t-46.5 -19.5t-47.5 19.5t-20.5 48.5zM958 180q0 27 19.5 46.5t48.5 19.5q27 0 46.5 -18.5t19.5 -47t-19.5 -48t-46.5 -19.5t-47.5 19 t-20.5 48zM958 905q0 27 19.5 46.5t48.5 19.5q27 0 46.5 -18.5t19.5 -47t-19.5 -48t-46.5 -19.5t-47.5 19t-20.5 48zM1079 422q0 27 19.5 46t48.5 19t47 -18t18 -47t-19 -48.5t-46 -19.5q-29 0 -48.5 19.5t-19.5 48.5zM1079 664q0 27 19.5 46t48.5 19t47 -18.5t18 -47 t-19 -48t-46 -19.5q-29 0 -48.5 19.5t-19.5 48.5zM1200 -303q0 27 19.5 46t48.5 19q27 0 46 -18t19 -47t-19.5 -48.5t-46 -19.5t-47 19.5t-20.5 48.5z" />
<glyph unicode="R" d="M113 59.5q0 26.5 19.5 46t48 19.5t47 -19.5t18.5 -46.5q0 -29 -19.5 -48t-46.5 -19q-29 0 -48 20.5t-19 47zM113 301q0 27 19.5 46.5t48 19.5t47 -19.5t18.5 -46.5q0 -29 -19.5 -48.5t-46.5 -19.5q-29 0 -48 20.5t-19 47.5zM113 542.5q0 26.5 19.5 46t48 19.5t47 -19.5 t18.5 -45.5q0 -29 -19.5 -48.5t-46.5 -19.5q-29 0 -48 20.5t-19 47zM113 784.5q0 26.5 19.5 46t48 19.5t47 -19.5t18.5 -46.5q0 -29 -19.5 -48t-46.5 -19q-29 0 -48 20.5t-19 47zM354 301q0 27 19.5 46.5t48.5 19.5t47 -19.5t18 -46.5q0 -29 -19 -48.5t-46 -19.5 q-29 0 -48.5 20.5t-19.5 47.5zM354 1026q0 27 19.5 46.5t48.5 19.5t47 -19.5t18 -46.5q0 -29 -19 -48.5t-46 -19.5q-29 0 -48.5 20.5t-19.5 47.5zM596 301q0 27 19.5 46.5t48 19.5t47 -19.5t18.5 -46.5q0 -29 -19.5 -48.5t-45.5 -19.5q-29 0 -48.5 20.5t-19.5 47.5z M596 1026q0 27 19.5 46.5t48 19.5t47 -19.5t18.5 -46.5q0 -29 -19.5 -48.5t-45.5 -19.5q-29 0 -48.5 20.5t-19.5 47.5zM838 301q0 27 19.5 46.5t48 19.5t47 -19.5t18.5 -46.5q0 -29 -19.5 -48.5t-46.5 -19.5q-29 0 -48 20.5t-19 47.5zM838 1026q0 27 19.5 46.5t48 19.5 t47 -19.5t18.5 -46.5q0 -29 -19.5 -48.5t-46.5 -19.5q-29 0 -48 20.5t-19 47.5zM1079 59.5q0 26.5 19.5 46t48.5 19.5t47 -19.5t18 -46.5q0 -29 -19 -48t-46 -19q-29 0 -48.5 20.5t-19.5 47zM1079 542.5q0 26.5 19.5 46t48.5 19.5t47 -19.5t18 -45.5q0 -29 -19 -48.5 t-46 -19.5q-29 0 -48.5 20.5t-19.5 47zM1079 784.5q0 26.5 19.5 46t48.5 19.5t47 -19.5t18 -46.5q0 -29 -19 -48t-46 -19q-29 0 -48.5 20.5t-19.5 47z" />
<glyph unicode="S" horiz-adv-x="1087" d="M113 59.5q0 26.5 19.5 46t48 19.5t47 -19.5t18.5 -46.5q0 -29 -19.5 -48t-46.5 -19q-29 0 -48 20.5t-19 47zM354 59.5q0 26.5 19.5 46t48.5 19.5t47 -19.5t18 -46.5q0 -29 -19 -48t-46 -19q-29 0 -48.5 20.5t-19.5 47zM475 301q0 27 19.5 46.5t48.5 19.5q27 0 46 -19.5 t19 -46.5q0 -29 -19.5 -48.5t-46 -19.5t-47 20.5t-20.5 47.5zM475 542.5q0 26.5 19.5 46t48.5 19.5q27 0 46 -19.5t19 -45.5q0 -29 -19.5 -48.5t-46 -19.5t-47 20.5t-20.5 47zM475 784.5q0 26.5 19.5 46t48.5 19.5q27 0 46 -19.5t19 -46.5q0 -29 -19.5 -48t-46 -19t-47 20.5 t-20.5 47zM596 1026q0 27 19.5 46.5t48 19.5t47 -19.5t18.5 -46.5q0 -29 -19.5 -48.5t-45.5 -19.5q-29 0 -48.5 20.5t-19.5 47.5zM838 1026q0 27 19.5 46.5t48 19.5t47 -19.5t18.5 -46.5q0 -29 -19.5 -48.5t-46.5 -19.5q-29 0 -48 20.5t-19 47.5z" />
<glyph unicode="T" horiz-adv-x="1087" d="M113 1026q0 27 19.5 46.5t48 19.5t47 -19.5t18.5 -46.5q0 -29 -19.5 -48.5t-46.5 -19.5q-29 0 -48 20.5t-19 47.5zM354 1026q0 27 19.5 46.5t48.5 19.5t47 -19.5t18 -46.5q0 -29 -19 -48.5t-46 -19.5q-29 0 -48.5 20.5t-19.5 47.5zM475 59.5q0 26.5 19.5 46t48.5 19.5 q27 0 46 -19.5t19 -46.5q0 -29 -19.5 -48t-46 -19t-47 20.5t-20.5 47zM475 301q0 27 19.5 46.5t48.5 19.5q27 0 46 -19.5t19 -46.5q0 -29 -19.5 -48.5t-46 -19.5t-47 20.5t-20.5 47.5zM475 542.5q0 26.5 19.5 46t48.5 19.5q27 0 46 -19.5t19 -45.5q0 -29 -19.5 -48.5 t-46 -19.5t-47 20.5t-20.5 47zM475 784.5q0 26.5 19.5 46t48.5 19.5q27 0 46 -19.5t19 -46.5q0 -29 -19.5 -48t-46 -19t-47 20.5t-20.5 47zM596 1026q0 27 19.5 46.5t48 19.5t47 -19.5t18.5 -46.5q0 -29 -19.5 -48.5t-45.5 -19.5q-29 0 -48.5 20.5t-19.5 47.5zM838 1026 q0 27 19.5 46.5t48 19.5t47 -19.5t18.5 -46.5q0 -29 -19.5 -48.5t-46.5 -19.5q-29 0 -48 20.5t-19 47.5z" />
<glyph unicode="U" d="M113 301q0 27 19.5 46.5t48 19.5t47 -19.5t18.5 -46.5q0 -29 -19.5 -48.5t-46.5 -19.5q-29 0 -48 20.5t-19 47.5zM113 542.5q0 26.5 19.5 46t48 19.5t47 -19.5t18.5 -45.5q0 -29 -19.5 -48.5t-46.5 -19.5q-29 0 -48 20.5t-19 47zM113 784.5q0 26.5 19.5 46t48 19.5 t47 -19.5t18.5 -46.5q0 -29 -19.5 -48t-46.5 -19q-29 0 -48 20.5t-19 47zM113 1026q0 27 19.5 46.5t48 19.5t47 -19.5t18.5 -46.5q0 -29 -19.5 -48.5t-46.5 -19.5q-29 0 -48 20.5t-19 47.5zM354 59.5q0 26.5 19.5 46t48.5 19.5t47 -19.5t18 -46.5q0 -29 -19 -48t-46 -19 q-29 0 -48.5 20.5t-19.5 47zM596 59.5q0 26.5 19.5 46t48 19.5t47 -19.5t18.5 -46.5q0 -29 -19.5 -48t-45.5 -19q-29 0 -48.5 20.5t-19.5 47zM838 59.5q0 26.5 19.5 46t48 19.5t47 -19.5t18.5 -46.5q0 -29 -19.5 -48t-46.5 -19q-29 0 -48 20.5t-19 47zM1079 301 q0 27 19.5 46.5t48.5 19.5t47 -19.5t18 -46.5q0 -29 -19 -48.5t-46 -19.5q-29 0 -48.5 20.5t-19.5 47.5zM1079 542.5q0 26.5 19.5 46t48.5 19.5t47 -19.5t18 -45.5q0 -29 -19 -48.5t-46 -19.5q-29 0 -48.5 20.5t-19.5 47zM1079 784.5q0 26.5 19.5 46t48.5 19.5t47 -19.5 t18 -46.5q0 -29 -19 -48t-46 -19q-29 0 -48.5 20.5t-19.5 47zM1079 1026q0 27 19.5 46.5t48.5 19.5t47 -19.5t18 -46.5q0 -29 -19 -48.5t-46 -19.5q-29 0 -48.5 20.5t-19.5 47.5z" />
<glyph unicode="V" d="M113 542.5q0 26.5 19.5 46t48 19.5t47 -19.5t18.5 -45.5q0 -29 -19.5 -48.5t-46.5 -19.5q-29 0 -48 20.5t-19 47zM113 784.5q0 26.5 19.5 46t48 19.5t47 -19.5t18.5 -46.5q0 -29 -19.5 -48t-46.5 -19q-29 0 -48 20.5t-19 47zM113 1026q0 27 19.5 46.5t48 19.5t47 -19.5 t18.5 -46.5q0 -29 -19.5 -48.5t-46.5 -19.5q-29 0 -48 20.5t-19 47.5zM233 301q0 27 19.5 46.5t48.5 19.5q27 0 46.5 -19.5t19.5 -46.5q0 -29 -19.5 -48.5t-46.5 -19.5t-47.5 20.5t-20.5 47.5zM596 59.5q0 26.5 19.5 46t48 19.5t47 -19.5t18.5 -46.5q0 -29 -19.5 -48 t-45.5 -19q-29 0 -48.5 20.5t-19.5 47zM958 301q0 27 19.5 46.5t48.5 19.5q27 0 46.5 -19.5t19.5 -46.5q0 -29 -19.5 -48.5t-46.5 -19.5t-47.5 20.5t-20.5 47.5zM1079 542.5q0 26.5 19.5 46t48.5 19.5t47 -19.5t18 -45.5q0 -29 -19 -48.5t-46 -19.5q-29 0 -48.5 20.5 t-19.5 47zM1079 784.5q0 26.5 19.5 46t48.5 19.5t47 -19.5t18 -46.5q0 -29 -19 -48t-46 -19q-29 0 -48.5 20.5t-19.5 47zM1079 1026q0 27 19.5 46.5t48.5 19.5t47 -19.5t18 -46.5q0 -29 -19 -48.5t-46 -19.5q-29 0 -48.5 20.5t-19.5 47.5z" />
<glyph unicode="W" horiz-adv-x="1812" d="M113 301q0 27 19.5 46.5t48 19.5t47 -19.5t18.5 -46.5q0 -29 -19.5 -48.5t-46.5 -19.5q-29 0 -48 20.5t-19 47.5zM113 542.5q0 26.5 19.5 46t48 19.5t47 -19.5t18.5 -45.5q0 -29 -19.5 -48.5t-46.5 -19.5q-29 0 -48 20.5t-19 47zM113 784.5q0 26.5 19.5 46t48 19.5 t47 -19.5t18.5 -46.5q0 -29 -19.5 -48t-46.5 -19q-29 0 -48 20.5t-19 47zM113 1026q0 27 19.5 46.5t48 19.5t47 -19.5t18.5 -46.5q0 -29 -19.5 -48.5t-46.5 -19.5q-29 0 -48 20.5t-19 47.5zM354 59.5q0 26.5 19.5 46t48.5 19.5t47 -19.5t18 -46.5q0 -29 -19 -48t-46 -19 q-29 0 -48.5 20.5t-19.5 47zM596 59.5q0 26.5 19.5 46t48 19.5t47 -19.5t18.5 -46.5q0 -29 -19.5 -48t-45.5 -19q-29 0 -48.5 20.5t-19.5 47zM838 301q0 27 19.5 46.5t48 19.5t47 -19.5t18.5 -46.5q0 -29 -19.5 -48.5t-46.5 -19.5q-29 0 -48 20.5t-19 47.5zM838 542.5 q0 26.5 19.5 46t48 19.5t47 -19.5t18.5 -45.5q0 -29 -19.5 -48.5t-46.5 -19.5q-29 0 -48 20.5t-19 47zM838 784.5q0 26.5 19.5 46t48 19.5t47 -19.5t18.5 -46.5q0 -29 -19.5 -48t-46.5 -19q-29 0 -48 20.5t-19 47zM838 1026q0 27 19.5 46.5t48 19.5t47 -19.5t18.5 -46.5 q0 -29 -19.5 -48.5t-46.5 -19.5q-29 0 -48 20.5t-19 47.5zM1079 59.5q0 26.5 19.5 46t48.5 19.5t47 -19.5t18 -46.5q0 -29 -19 -48t-46 -19q-29 0 -48.5 20.5t-19.5 47zM1321 59.5q0 26.5 19.5 46t48 19.5t47 -19.5t18.5 -46.5q0 -29 -19.5 -48t-45.5 -19q-29 0 -48.5 20.5 t-19.5 47zM1563 301q0 27 19.5 46.5t48 19.5t47 -19.5t18.5 -46.5q0 -29 -19.5 -48.5t-46.5 -19.5q-29 0 -48 20.5t-19 47.5zM1563 542.5q0 26.5 19.5 46t48 19.5t47 -19.5t18.5 -45.5q0 -29 -19.5 -48.5t-46.5 -19.5q-29 0 -48 20.5t-19 47zM1563 784.5q0 26.5 19.5 46 t48 19.5t47 -19.5t18.5 -46.5q0 -29 -19.5 -48t-46.5 -19q-29 0 -48 20.5t-19 47zM1563 1026q0 27 19.5 46.5t48 19.5t47 -19.5t18.5 -46.5q0 -29 -19.5 -48.5t-46.5 -19.5q-29 0 -48 20.5t-19 47.5z" />
<glyph unicode="X" d="M113 59.5q0 26.5 19.5 46t48 19.5t47 -19.5t18.5 -46.5q0 -29 -19.5 -48t-46.5 -19q-29 0 -48 20.5t-19 47zM113 1026q0 27 19.5 46.5t48 19.5t47 -19.5t18.5 -46.5q0 -29 -19.5 -48.5t-46.5 -19.5q-29 0 -48 20.5t-19 47.5zM354 301q0 27 19.5 46.5t48.5 19.5t47 -19.5 t18 -46.5q0 -29 -19 -48.5t-46 -19.5q-29 0 -48.5 20.5t-19.5 47.5zM354 784.5q0 26.5 19.5 46t48.5 19.5t47 -19.5t18 -46.5q0 -29 -19 -48t-46 -19q-29 0 -48.5 20.5t-19.5 47zM596 542.5q0 26.5 19.5 46t48 19.5t47 -19.5t18.5 -45.5q0 -29 -19.5 -48.5t-45.5 -19.5 q-29 0 -48.5 20.5t-19.5 47zM838 301q0 27 19.5 46.5t48 19.5t47 -19.5t18.5 -46.5q0 -29 -19.5 -48.5t-46.5 -19.5q-29 0 -48 20.5t-19 47.5zM838 784.5q0 26.5 19.5 46t48 19.5t47 -19.5t18.5 -46.5q0 -29 -19.5 -48t-46.5 -19q-29 0 -48 20.5t-19 47zM1079 59.5 q0 26.5 19.5 46t48.5 19.5t47 -19.5t18 -46.5q0 -29 -19 -48t-46 -19q-29 0 -48.5 20.5t-19.5 47zM1079 1026q0 27 19.5 46.5t48.5 19.5t47 -19.5t18 -46.5q0 -29 -19 -48.5t-46 -19.5q-29 0 -48.5 20.5t-19.5 47.5z" />
<glyph unicode="Y" d="M113 1026q0 27 19.5 46.5t48 19.5t47 -19.5t18.5 -46.5q0 -29 -19.5 -48.5t-46.5 -19.5q-29 0 -48 20.5t-19 47.5zM354 784.5q0 26.5 19.5 46t48.5 19.5t47 -19.5t18 -46.5q0 -29 -19 -48t-46 -19q-29 0 -48.5 20.5t-19.5 47zM596 59.5q0 26.5 19.5 46t48 19.5t47 -19.5 t18.5 -46.5q0 -29 -19.5 -48t-45.5 -19q-29 0 -48.5 20.5t-19.5 47zM596 301q0 27 19.5 46.5t48 19.5t47 -19.5t18.5 -46.5q0 -29 -19.5 -48.5t-45.5 -19.5q-29 0 -48.5 20.5t-19.5 47.5zM596 542.5q0 26.5 19.5 46t48 19.5t47 -19.5t18.5 -45.5q0 -29 -19.5 -48.5 t-45.5 -19.5q-29 0 -48.5 20.5t-19.5 47zM838 784.5q0 26.5 19.5 46t48 19.5t47 -19.5t18.5 -46.5q0 -29 -19.5 -48t-46.5 -19q-29 0 -48 20.5t-19 47zM1079 1026q0 27 19.5 46.5t48.5 19.5t47 -19.5t18 -46.5q0 -29 -19 -48.5t-46 -19.5q-29 0 -48.5 20.5t-19.5 47.5z" />
<glyph unicode="Z" horiz-adv-x="1087" d="M113 59.5q0 26.5 19.5 46t48 19.5t47 -19.5t18.5 -46.5q0 -29 -19.5 -48t-46.5 -19q-29 0 -48 20.5t-19 47zM113 1026q0 27 19.5 46.5t48 19.5t47 -19.5t18.5 -46.5q0 -29 -19.5 -48.5t-46.5 -19.5q-29 0 -48 20.5t-19 47.5zM354 59.5q0 26.5 19.5 46t48.5 19.5t47 -19.5 t18 -46.5q0 -29 -19 -48t-46 -19q-29 0 -48.5 20.5t-19.5 47zM354 422q0 27 19.5 46t48.5 19t47 -18t18 -47t-19 -48.5t-46 -19.5q-29 0 -48.5 19.5t-19.5 48.5zM354 1026q0 27 19.5 46.5t48.5 19.5t47 -19.5t18 -46.5q0 -29 -19 -48.5t-46 -19.5q-29 0 -48.5 20.5 t-19.5 47.5zM596 59.5q0 26.5 19.5 46t48 19.5t47 -19.5t18.5 -46.5q0 -29 -19.5 -48t-45.5 -19q-29 0 -48.5 20.5t-19.5 47zM596 664q0 27 19.5 46t48 19t47 -18.5t18.5 -47t-19.5 -48t-45.5 -19.5q-29 0 -48.5 19.5t-19.5 48.5zM596 1026q0 27 19.5 46.5t48 19.5t47 -19.5 t18.5 -46.5q0 -29 -19.5 -48.5t-45.5 -19.5q-29 0 -48.5 20.5t-19.5 47.5zM838 59.5q0 26.5 19.5 46t48 19.5t47 -19.5t18.5 -46.5q0 -29 -19.5 -48t-46.5 -19q-29 0 -48 20.5t-19 47zM838 1026q0 27 19.5 46.5t48 19.5t47 -19.5t18.5 -46.5q0 -29 -19.5 -48.5t-46.5 -19.5 q-29 0 -48 20.5t-19 47.5z" />
<glyph unicode="[" horiz-adv-x="604" d="M113 59.5q0 26.5 19.5 46t48 19.5t47 -19.5t18.5 -46.5q0 -29 -19.5 -48t-46.5 -19q-29 0 -48 20.5t-19 47zM113 301q0 27 19.5 46.5t48 19.5t47 -19.5t18.5 -46.5q0 -29 -19.5 -48.5t-46.5 -19.5q-29 0 -48 20.5t-19 47.5zM113 542.5q0 26.5 19.5 46t48 19.5t47 -19.5 t18.5 -45.5q0 -29 -19.5 -48.5t-46.5 -19.5q-29 0 -48 20.5t-19 47zM113 784.5q0 26.5 19.5 46t48 19.5t47 -19.5t18.5 -46.5q0 -29 -19.5 -48t-46.5 -19q-29 0 -48 20.5t-19 47zM113 1026q0 27 19.5 46.5t48 19.5t47 -19.5t18.5 -46.5q0 -29 -19.5 -48.5t-46.5 -19.5 q-29 0 -48 20.5t-19 47.5zM354 59.5q0 26.5 19.5 46t48.5 19.5t47 -19.5t18 -46.5q0 -29 -19 -48t-46 -19q-29 0 -48.5 20.5t-19.5 47zM354 1026q0 27 19.5 46.5t48.5 19.5t47 -19.5t18 -46.5q0 -29 -19 -48.5t-46 -19.5q-29 0 -48.5 20.5t-19.5 47.5z" />
<glyph unicode="\" horiz-adv-x="845" d="M113 1026q0 27 19.5 46.5t48 19.5t47 -19.5t18.5 -46.5q0 -29 -19.5 -48.5t-46.5 -19.5q-29 0 -48 20.5t-19 47.5zM233 784.5q0 26.5 19.5 46t48.5 19.5q27 0 46.5 -19.5t19.5 -46.5q0 -29 -19.5 -48t-46.5 -19t-47.5 20.5t-20.5 47zM354 542.5q0 26.5 19.5 46t48.5 19.5 t47 -19.5t18 -45.5q0 -29 -19 -48.5t-46 -19.5q-29 0 -48.5 20.5t-19.5 47zM475 301q0 27 19.5 46.5t48.5 19.5q27 0 46 -19.5t19 -46.5q0 -29 -19.5 -48.5t-46 -19.5t-47 20.5t-20.5 47.5zM596 59.5q0 26.5 19.5 46t48 19.5t47 -19.5t18.5 -46.5q0 -29 -19.5 -48t-45.5 -19 q-29 0 -48.5 20.5t-19.5 47z" />
<glyph unicode="]" horiz-adv-x="604" d="M113 59.5q0 26.5 19.5 46t48 19.5t47 -19.5t18.5 -46.5q0 -29 -19.5 -48t-46.5 -19q-29 0 -48 20.5t-19 47zM113 1026q0 27 19.5 46.5t48 19.5t47 -19.5t18.5 -46.5q0 -29 -19.5 -48.5t-46.5 -19.5q-29 0 -48 20.5t-19 47.5zM354 59.5q0 26.5 19.5 46t48.5 19.5t47 -19.5 t18 -46.5q0 -29 -19 -48t-46 -19q-29 0 -48.5 20.5t-19.5 47zM354 301q0 27 19.5 46.5t48.5 19.5t47 -19.5t18 -46.5q0 -29 -19 -48.5t-46 -19.5q-29 0 -48.5 20.5t-19.5 47.5zM354 542.5q0 26.5 19.5 46t48.5 19.5t47 -19.5t18 -45.5q0 -29 -19 -48.5t-46 -19.5 q-29 0 -48.5 20.5t-19.5 47zM354 784.5q0 26.5 19.5 46t48.5 19.5t47 -19.5t18 -46.5q0 -29 -19 -48t-46 -19q-29 0 -48.5 20.5t-19.5 47zM354 1026q0 27 19.5 46.5t48.5 19.5t47 -19.5t18 -46.5q0 -29 -19 -48.5t-46 -19.5q-29 0 -48.5 20.5t-19.5 47.5z" />
<glyph unicode="^" d="M113 542.5q0 26.5 19.5 46t48 19.5t47 -19.5t18.5 -45.5q0 -29 -19.5 -48.5t-46.5 -19.5q-29 0 -48 20.5t-19 47zM354 784.5q0 26.5 19.5 46t48.5 19.5t47 -19.5t18 -46.5q0 -29 -19 -48t-46 -19q-29 0 -48.5 20.5t-19.5 47zM596 1026q0 27 19.5 46.5t48 19.5t47 -19.5 t18.5 -46.5q0 -29 -19.5 -48.5t-45.5 -19.5q-29 0 -48.5 20.5t-19.5 47.5zM838 784.5q0 26.5 19.5 46t48 19.5t47 -19.5t18.5 -46.5q0 -29 -19.5 -48t-46.5 -19q-29 0 -48 20.5t-19 47zM1079 542.5q0 26.5 19.5 46t48.5 19.5t47 -19.5t18 -45.5q0 -29 -19 -48.5t-46 -19.5 q-29 0 -48.5 20.5t-19.5 47z" />
<glyph unicode="_" horiz-adv-x="966" d="M-8 -182.5q0 26.5 19.5 46t47.5 19.5q27 0 46.5 -19.5t19.5 -45.5q0 -29 -19.5 -48.5t-46 -19.5t-47 20.5t-20.5 47zM233 -182.5q0 26.5 19.5 46t48.5 19.5q27 0 46.5 -19.5t19.5 -45.5q0 -29 -19.5 -48.5t-46.5 -19.5t-47.5 20.5t-20.5 47zM475 -182.5q0 26.5 19.5 46 t48.5 19.5q27 0 46 -19.5t19 -45.5q0 -29 -19.5 -48.5t-46 -19.5t-47 20.5t-20.5 47zM717 -182.5q0 26.5 19.5 46t47.5 19.5q27 0 46.5 -19.5t19.5 -45.5q0 -29 -19.5 -48.5t-46 -19.5t-47 20.5t-20.5 47z" />
<glyph unicode="`" horiz-adv-x="604" d="M113 1026q0 27 19.5 46.5t48 19.5t47 -19.5t18.5 -46.5q0 -29 -19.5 -48.5t-46.5 -19.5q-29 0 -48 20.5t-19 47.5zM354 905q0 27 19.5 46.5t48.5 19.5t47 -18.5t18 -47t-19 -48t-46 -19.5q-29 0 -48.5 19t-19.5 48z" />
<glyph unicode="a" horiz-adv-x="1449" d="M113 422q0 27 19.5 46t48 19t47 -18t18.5 -47t-19.5 -48.5t-46.5 -19.5q-29 0 -48 19.5t-19 48.5zM113 664q0 27 19.5 46t48 19t47 -18.5t18.5 -47t-19.5 -48t-46.5 -19.5q-29 0 -48 19.5t-19 48.5zM233 180q0 27 19.5 46.5t48.5 19.5q27 0 46.5 -18.5t19.5 -47 t-19.5 -48t-46.5 -19.5t-47.5 19t-20.5 48zM233 905q0 27 19.5 46.5t48.5 19.5q27 0 46.5 -18.5t19.5 -47t-19.5 -48t-46.5 -19.5t-47.5 19t-20.5 48zM475 59.5q0 26.5 19.5 46t48.5 19.5q27 0 46 -19.5t19 -46.5q0 -29 -19.5 -48t-46 -19t-47 20.5t-20.5 47zM475 1026 q0 27 19.5 46.5t48.5 19.5q27 0 46 -19.5t19 -46.5q0 -29 -19.5 -48.5t-46 -19.5t-47 20.5t-20.5 47.5zM717 59.5q0 26.5 19.5 46t47.5 19.5q27 0 46.5 -19.5t19.5 -46.5q0 -29 -19.5 -48t-46 -19t-47 20.5t-20.5 47zM717 1026q0 27 19.5 46.5t47.5 19.5q27 0 46.5 -19.5 t19.5 -46.5q0 -29 -19.5 -48.5t-46 -19.5t-47 20.5t-20.5 47.5zM958 1026q0 27 19.5 46.5t48.5 19.5q27 0 46.5 -19.5t19.5 -46.5q0 -29 -19.5 -48.5t-46.5 -19.5t-47.5 20.5t-20.5 47.5zM1079 301q0 27 19.5 46.5t48.5 19.5t47 -19.5t18 -46.5q0 -29 -19 -48.5t-46 -19.5 q-29 0 -48.5 20.5t-19.5 47.5zM1079 542.5q0 26.5 19.5 46t48.5 19.5t47 -19.5t18 -45.5q0 -29 -19 -48.5t-46 -19.5q-29 0 -48.5 20.5t-19.5 47zM1079 784.5q0 26.5 19.5 46t48.5 19.5t47 -19.5t18 -46.5q0 -29 -19 -48t-46 -19q-29 0 -48.5 20.5t-19.5 47zM1200 59.5 q0 26.5 19.5 46t48.5 19.5q27 0 46 -19.5t19 -46.5q0 -29 -19.5 -48t-46 -19t-47 20.5t-20.5 47z" />
<glyph unicode="b" horiz-adv-x="1380" d="M43 59.5q0 26.5 19.5 46t48 19.5t47 -19.5t18.5 -46.5q0 -29 -19.5 -48t-45.5 -19q-29 0 -48.5 20.5t-19.5 47zM164 422q0 27 19.5 46t47.5 19q27 0 46.5 -18t19.5 -47t-19.5 -48.5t-46 -19.5t-47 19.5t-20.5 48.5zM164 664q0 27 19.5 46t47.5 19q27 0 46.5 -18.5 t19.5 -47t-19.5 -48t-46 -19.5t-47 19.5t-20.5 48.5zM164 1147q0 27 19.5 46t47.5 19q27 0 46.5 -18t19.5 -47t-19.5 -48.5t-46 -19.5t-47 19.5t-20.5 48.5zM164 1389q0 27 19.5 46t47.5 19q27 0 46.5 -18.5t19.5 -47t-19.5 -48t-46 -19.5t-47 19.5t-20.5 48.5zM285 180 q0 27 19.5 46.5t48 19.5t47 -18.5t18.5 -47t-19.5 -48t-46.5 -19.5q-29 0 -48 19t-19 48zM285 905q0 27 19.5 46.5t48 19.5t47 -18.5t18.5 -47t-19.5 -48t-46.5 -19.5q-29 0 -48 19t-19 48zM526 59.5q0 26.5 19.5 46t48.5 19.5t47 -19.5t18 -46.5q0 -29 -19 -48t-46 -19 q-29 0 -48.5 20.5t-19.5 47zM526 1026q0 27 19.5 46.5t48.5 19.5t47 -19.5t18 -46.5q0 -29 -19 -48.5t-46 -19.5q-29 0 -48.5 20.5t-19.5 47.5zM768 59.5q0 26.5 19.5 46t48 19.5t47 -19.5t18.5 -46.5q0 -29 -19.5 -48t-45.5 -19q-29 0 -48.5 20.5t-19.5 47zM768 1026 q0 27 19.5 46.5t48 19.5t47 -19.5t18.5 -46.5q0 -29 -19.5 -48.5t-45.5 -19.5q-29 0 -48.5 20.5t-19.5 47.5zM1010 180q0 27 19.5 46.5t48 19.5t47 -18.5t18.5 -47t-19.5 -48t-46.5 -19.5q-29 0 -48 19t-19 48zM1010 905q0 27 19.5 46.5t48 19.5t47 -18.5t18.5 -47 t-19.5 -48t-46.5 -19.5q-29 0 -48 19t-19 48zM1130 422q0 27 19.5 46t48.5 19q27 0 46.5 -18t19.5 -47t-19.5 -48.5t-46.5 -19.5t-47.5 19.5t-20.5 48.5zM1130 664q0 27 19.5 46t48.5 19q27 0 46.5 -18.5t19.5 -47t-19.5 -48t-46.5 -19.5t-47.5 19.5t-20.5 48.5z" />
<glyph unicode="c" horiz-adv-x="1208" d="M113 422q0 27 19.5 46t48 19t47 -18t18.5 -47t-19.5 -48.5t-46.5 -19.5q-29 0 -48 19.5t-19 48.5zM113 664q0 27 19.5 46t48 19t47 -18.5t18.5 -47t-19.5 -48t-46.5 -19.5q-29 0 -48 19.5t-19 48.5zM233 180q0 27 19.5 46.5t48.5 19.5q27 0 46.5 -18.5t19.5 -47 t-19.5 -48t-46.5 -19.5t-47.5 19t-20.5 48zM233 905q0 27 19.5 46.5t48.5 19.5q27 0 46.5 -18.5t19.5 -47t-19.5 -48t-46.5 -19.5t-47.5 19t-20.5 48zM475 59.5q0 26.5 19.5 46t48.5 19.5q27 0 46 -19.5t19 -46.5q0 -29 -19.5 -48t-46 -19t-47 20.5t-20.5 47zM475 1026 q0 27 19.5 46.5t48.5 19.5q27 0 46 -19.5t19 -46.5q0 -29 -19.5 -48.5t-46 -19.5t-47 20.5t-20.5 47.5zM717 59.5q0 26.5 19.5 46t47.5 19.5q27 0 46.5 -19.5t19.5 -46.5q0 -29 -19.5 -48t-46 -19t-47 20.5t-20.5 47zM717 1026q0 27 19.5 46.5t47.5 19.5q27 0 46.5 -19.5 t19.5 -46.5q0 -29 -19.5 -48.5t-46 -19.5t-47 20.5t-20.5 47.5zM958 180q0 27 19.5 46.5t48.5 19.5q27 0 46.5 -18.5t19.5 -47t-19.5 -48t-46.5 -19.5t-47.5 19t-20.5 48zM958 905q0 27 19.5 46.5t48.5 19.5q27 0 46.5 -18.5t19.5 -47t-19.5 -48t-46.5 -19.5t-47.5 19 t-20.5 48z" />
<glyph unicode="d" horiz-adv-x="1449" d="M113 422q0 27 19.5 46t48 19t47 -18t18.5 -47t-19.5 -48.5t-46.5 -19.5q-29 0 -48 19.5t-19 48.5zM113 664q0 27 19.5 46t48 19t47 -18.5t18.5 -47t-19.5 -48t-46.5 -19.5q-29 0 -48 19.5t-19 48.5zM233 180q0 27 19.5 46.5t48.5 19.5q27 0 46.5 -18.5t19.5 -47 t-19.5 -48t-46.5 -19.5t-47.5 19t-20.5 48zM233 905q0 27 19.5 46.5t48.5 19.5q27 0 46.5 -18.5t19.5 -47t-19.5 -48t-46.5 -19.5t-47.5 19t-20.5 48zM475 59.5q0 26.5 19.5 46t48.5 19.5q27 0 46 -19.5t19 -46.5q0 -29 -19.5 -48t-46 -19t-47 20.5t-20.5 47zM475 1026 q0 27 19.5 46.5t48.5 19.5q27 0 46 -19.5t19 -46.5q0 -29 -19.5 -48.5t-46 -19.5t-47 20.5t-20.5 47.5zM717 59.5q0 26.5 19.5 46t47.5 19.5q27 0 46.5 -19.5t19.5 -46.5q0 -29 -19.5 -48t-46 -19t-47 20.5t-20.5 47zM717 1026q0 27 19.5 46.5t47.5 19.5q27 0 46.5 -19.5 t19.5 -46.5q0 -29 -19.5 -48.5t-46 -19.5t-47 20.5t-20.5 47.5zM958 180q0 27 19.5 46.5t48.5 19.5q27 0 46.5 -18.5t19.5 -47t-19.5 -48t-46.5 -19.5t-47.5 19t-20.5 48zM958 905q0 27 19.5 46.5t48.5 19.5q27 0 46.5 -18.5t19.5 -47t-19.5 -48t-46.5 -19.5t-47.5 19 t-20.5 48zM1079 422q0 27 19.5 46t48.5 19t47 -18t18 -47t-19 -48.5t-46 -19.5q-29 0 -48.5 19.5t-19.5 48.5zM1079 664q0 27 19.5 46t48.5 19t47 -18.5t18 -47t-19 -48t-46 -19.5q-29 0 -48.5 19.5t-19.5 48.5zM1079 1147q0 27 19.5 46t48.5 19t47 -18t18 -47t-19 -48.5 t-46 -19.5q-29 0 -48.5 19.5t-19.5 48.5zM1079 1389q0 27 19.5 46t48.5 19t47 -18.5t18 -47t-19 -48t-46 -19.5q-29 0 -48.5 19.5t-19.5 48.5zM1200 59.5q0 26.5 19.5 46t48.5 19.5q27 0 46 -19.5t19 -46.5q0 -29 -19.5 -48t-46 -19t-47 20.5t-20.5 47z" />
<glyph unicode="e" d="M113 422q0 27 19.5 46t48 19t47 -18t18.5 -47t-19.5 -48.5t-46.5 -19.5q-29 0 -48 19.5t-19 48.5zM113 664q0 27 19.5 46t48 19t47 -18.5t18.5 -47t-19.5 -48t-46.5 -19.5q-29 0 -48 19.5t-19 48.5zM233 180q0 27 19.5 46.5t48.5 19.5q27 0 46.5 -18.5t19.5 -47 t-19.5 -48t-46.5 -19.5t-47.5 19t-20.5 48zM233 905q0 27 19.5 46.5t48.5 19.5q27 0 46.5 -18.5t19.5 -47t-19.5 -48t-46.5 -19.5t-47.5 19t-20.5 48zM354 542.5q0 26.5 19.5 46t48.5 19.5t47 -19.5t18 -45.5q0 -29 -19 -48.5t-46 -19.5q-29 0 -48.5 20.5t-19.5 47z M475 59.5q0 26.5 19.5 46t48.5 19.5q27 0 46 -19.5t19 -46.5q0 -29 -19.5 -48t-46 -19t-47 20.5t-20.5 47zM475 1026q0 27 19.5 46.5t48.5 19.5q27 0 46 -19.5t19 -46.5q0 -29 -19.5 -48.5t-46 -19.5t-47 20.5t-20.5 47.5zM596 542.5q0 26.5 19.5 46t48 19.5t47 -19.5 t18.5 -45.5q0 -29 -19.5 -48.5t-45.5 -19.5q-29 0 -48.5 20.5t-19.5 47zM717 59.5q0 26.5 19.5 46t47.5 19.5q27 0 46.5 -19.5t19.5 -46.5q0 -29 -19.5 -48t-46 -19t-47 20.5t-20.5 47zM717 1026q0 27 19.5 46.5t47.5 19.5q27 0 46.5 -19.5t19.5 -46.5q0 -29 -19.5 -48.5 t-46 -19.5t-47 20.5t-20.5 47.5zM838 542.5q0 26.5 19.5 46t48 19.5t47 -19.5t18.5 -45.5q0 -29 -19.5 -48.5t-46.5 -19.5q-29 0 -48 20.5t-19 47zM958 180q0 27 19.5 46.5t48.5 19.5q27 0 46.5 -18.5t19.5 -47t-19.5 -48t-46.5 -19.5t-47.5 19t-20.5 48zM958 905 q0 27 19.5 46.5t48.5 19.5q27 0 46.5 -18.5t19.5 -47t-19.5 -48t-46.5 -19.5t-47.5 19t-20.5 48zM1079 664q0 27 19.5 46t48.5 19t47 -18.5t18 -47t-19 -48t-46 -19.5q-29 0 -48.5 19.5t-19.5 48.5z" />
<glyph unicode="f" horiz-adv-x="724" d="M113 -182.5q0 26.5 19.5 46t48 19.5t47 -19.5t18.5 -45.5q0 -29 -19.5 -48.5t-46.5 -19.5q-29 0 -48 20.5t-19 47zM233 59.5q0 26.5 19.5 46t48.5 19.5q27 0 46.5 -19.5t19.5 -46.5q0 -29 -19.5 -48t-46.5 -19t-47.5 20.5t-20.5 47zM233 301q0 27 19.5 46.5t48.5 19.5 q27 0 46.5 -19.5t19.5 -46.5q0 -29 -19.5 -48.5t-46.5 -19.5t-47.5 20.5t-20.5 47.5zM233 542.5q0 26.5 19.5 46t48.5 19.5q27 0 46.5 -19.5t19.5 -45.5q0 -29 -19.5 -48.5t-46.5 -19.5t-47.5 20.5t-20.5 47zM233 784.5q0 26.5 19.5 46t48.5 19.5q27 0 46.5 -19.5 t19.5 -46.5q0 -29 -19.5 -48t-46.5 -19t-47.5 20.5t-20.5 47zM233 1026q0 27 19.5 46.5t48.5 19.5q27 0 46.5 -19.5t19.5 -46.5q0 -29 -19.5 -48.5t-46.5 -19.5t-47.5 20.5t-20.5 47.5zM233 1267.5q0 26.5 19.5 46t48.5 19.5q27 0 46.5 -19.5t19.5 -45.5q0 -29 -19.5 -48.5 t-46.5 -19.5t-47.5 20.5t-20.5 47zM475 1026q0 27 19.5 46.5t48.5 19.5q27 0 46 -19.5t19 -46.5q0 -29 -19.5 -48.5t-46 -19.5t-47 20.5t-20.5 47.5zM475 1389q0 27 19.5 46t48.5 19q27 0 46 -18.5t19 -47t-19.5 -48t-46 -19.5t-47 19.5t-20.5 48.5z" />
<glyph unicode="g" d="M113 422q0 27 19.5 46t48 19t47 -18t18.5 -47t-19.5 -48.5t-46.5 -19.5q-29 0 -48 19.5t-19 48.5zM113 664q0 27 19.5 46t48 19t47 -18.5t18.5 -47t-19.5 -48t-46.5 -19.5q-29 0 -48 19.5t-19 48.5zM233 180q0 27 19.5 46.5t48.5 19.5q27 0 46.5 -18.5t19.5 -47 t-19.5 -48t-46.5 -19.5t-47.5 19t-20.5 48zM233 905q0 27 19.5 46.5t48.5 19.5q27 0 46.5 -18.5t19.5 -47t-19.5 -48t-46.5 -19.5t-47.5 19t-20.5 48zM354 -303q0 27 19.5 46t48.5 19t47 -18t18 -47t-19 -48.5t-46 -19.5q-29 0 -48.5 19.5t-19.5 48.5zM475 59.5 q0 26.5 19.5 46t48.5 19.5q27 0 46 -19.5t19 -46.5q0 -29 -19.5 -48t-46 -19t-47 20.5t-20.5 47zM475 1026q0 27 19.5 46.5t48.5 19.5q27 0 46 -19.5t19 -46.5q0 -29 -19.5 -48.5t-46 -19.5t-47 20.5t-20.5 47.5zM596 -303q0 27 19.5 46t48 19t47 -18t18.5 -47t-19.5 -48.5 t-45.5 -19.5q-29 0 -48.5 19.5t-19.5 48.5zM717 59.5q0 26.5 19.5 46t47.5 19.5q27 0 46.5 -19.5t19.5 -46.5q0 -29 -19.5 -48t-46 -19t-47 20.5t-20.5 47zM717 1026q0 27 19.5 46.5t47.5 19.5q27 0 46.5 -19.5t19.5 -46.5q0 -29 -19.5 -48.5t-46 -19.5t-47 20.5t-20.5 47.5 zM838 -303q0 27 19.5 46t48 19t47 -18t18.5 -47t-19.5 -48.5t-46.5 -19.5q-29 0 -48 19.5t-19 48.5zM958 905q0 27 19.5 46.5t48.5 19.5q27 0 46.5 -18.5t19.5 -47t-19.5 -48t-46.5 -19.5t-47.5 19t-20.5 48zM1079 -61q0 27 19.5 46t48.5 19t47 -18.5t18 -47t-19 -48 t-46 -19.5q-29 0 -48.5 19.5t-19.5 48.5zM1079 180q0 27 19.5 46.5t48.5 19.5t47 -18.5t18 -47t-19 -48t-46 -19.5q-29 0 -48.5 19t-19.5 48zM1079 422q0 27 19.5 46t48.5 19t47 -18t18 -47t-19 -48.5t-46 -19.5q-29 0 -48.5 19.5t-19.5 48.5zM1079 664q0 27 19.5 46 t48.5 19t47 -18.5t18 -47t-19 -48t-46 -19.5q-29 0 -48.5 19.5t-19.5 48.5zM1079 1147q0 27 19.5 46t48.5 19t47 -18t18 -47t-19 -48.5t-46 -19.5q-29 0 -48.5 19.5t-19.5 48.5z" />
<glyph unicode="h" d="M113 59.5q0 26.5 19.5 46t48 19.5t47 -19.5t18.5 -46.5q0 -29 -19.5 -48t-46.5 -19q-29 0 -48 20.5t-19 47zM113 301q0 27 19.5 46.5t48 19.5t47 -19.5t18.5 -46.5q0 -29 -19.5 -48.5t-46.5 -19.5q-29 0 -48 20.5t-19 47.5zM113 542.5q0 26.5 19.5 46t48 19.5t47 -19.5 t18.5 -45.5q0 -29 -19.5 -48.5t-46.5 -19.5q-29 0 -48 20.5t-19 47zM113 784.5q0 26.5 19.5 46t48 19.5t47 -19.5t18.5 -46.5q0 -29 -19.5 -48t-46.5 -19q-29 0 -48 20.5t-19 47zM113 1147q0 27 19.5 46t48 19t47 -18t18.5 -47t-19.5 -48.5t-46.5 -19.5q-29 0 -48 19.5 t-19 48.5zM113 1389q0 27 19.5 46t48 19t47 -18.5t18.5 -47t-19.5 -48t-46.5 -19.5q-29 0 -48 19.5t-19 48.5zM354 1026q0 27 19.5 46.5t48.5 19.5t47 -19.5t18 -46.5q0 -29 -19 -48.5t-46 -19.5q-29 0 -48.5 20.5t-19.5 47.5zM596 1026q0 27 19.5 46.5t48 19.5t47 -19.5 t18.5 -46.5q0 -29 -19.5 -48.5t-45.5 -19.5q-29 0 -48.5 20.5t-19.5 47.5zM838 1026q0 27 19.5 46.5t48 19.5t47 -19.5t18.5 -46.5q0 -29 -19.5 -48.5t-46.5 -19.5q-29 0 -48 20.5t-19 47.5zM1079 59.5q0 26.5 19.5 46t48.5 19.5t47 -19.5t18 -46.5q0 -29 -19 -48t-46 -19 q-29 0 -48.5 20.5t-19.5 47zM1079 301q0 27 19.5 46.5t48.5 19.5t47 -19.5t18 -46.5q0 -29 -19 -48.5t-46 -19.5q-29 0 -48.5 20.5t-19.5 47.5zM1079 542.5q0 26.5 19.5 46t48.5 19.5t47 -19.5t18 -45.5q0 -29 -19 -48.5t-46 -19.5q-29 0 -48.5 20.5t-19.5 47zM1079 784.5 q0 26.5 19.5 46t48.5 19.5t47 -19.5t18 -46.5q0 -29 -19 -48t-46 -19q-29 0 -48.5 20.5t-19.5 47z" />
<glyph unicode="i" horiz-adv-x="362" d="M113 59.5q0 26.5 19.5 46t48 19.5t47 -19.5t18.5 -46.5q0 -29 -19.5 -48t-46.5 -19q-29 0 -48 20.5t-19 47zM113 301q0 27 19.5 46.5t48 19.5t47 -19.5t18.5 -46.5q0 -29 -19.5 -48.5t-46.5 -19.5q-29 0 -48 20.5t-19 47.5zM113 542.5q0 26.5 19.5 46t48 19.5t47 -19.5 t18.5 -45.5q0 -29 -19.5 -48.5t-46.5 -19.5q-29 0 -48 20.5t-19 47zM113 784.5q0 26.5 19.5 46t48 19.5t47 -19.5t18.5 -46.5q0 -29 -19.5 -48t-46.5 -19q-29 0 -48 20.5t-19 47zM113 1026q0 27 19.5 46.5t48 19.5t47 -19.5t18.5 -46.5q0 -29 -19.5 -48.5t-46.5 -19.5 q-29 0 -48 20.5t-19 47.5zM113 1389q0 27 19.5 46t48 19t47 -18.5t18.5 -47t-19.5 -48t-46.5 -19.5q-29 0 -48 19.5t-19 48.5z" />
<glyph unicode="j" horiz-adv-x="362" d="M-8 -182.5q0 26.5 19.5 46t47.5 19.5q27 0 46.5 -19.5t19.5 -45.5q0 -29 -19.5 -48.5t-46 -19.5t-47 20.5t-20.5 47zM113 59.5q0 26.5 19.5 46t48 19.5t47 -19.5t18.5 -46.5q0 -29 -19.5 -48t-46.5 -19q-29 0 -48 20.5t-19 47zM113 301q0 27 19.5 46.5t48 19.5t47 -19.5 t18.5 -46.5q0 -29 -19.5 -48.5t-46.5 -19.5q-29 0 -48 20.5t-19 47.5zM113 542.5q0 26.5 19.5 46t48 19.5t47 -19.5t18.5 -45.5q0 -29 -19.5 -48.5t-46.5 -19.5q-29 0 -48 20.5t-19 47zM113 784.5q0 26.5 19.5 46t48 19.5t47 -19.5t18.5 -46.5q0 -29 -19.5 -48t-46.5 -19 q-29 0 -48 20.5t-19 47zM113 1026q0 27 19.5 46.5t48 19.5t47 -19.5t18.5 -46.5q0 -29 -19.5 -48.5t-46.5 -19.5q-29 0 -48 20.5t-19 47.5zM113 1389q0 27 19.5 46t48 19t47 -18.5t18.5 -47t-19.5 -48t-46.5 -19.5q-29 0 -48 19.5t-19 48.5z" />
<glyph unicode="k" d="M113 59.5q0 26.5 19.5 46t48 19.5t47 -19.5t18.5 -46.5q0 -29 -19.5 -48t-46.5 -19q-29 0 -48 20.5t-19 47zM113 301q0 27 19.5 46.5t48 19.5t47 -19.5t18.5 -46.5q0 -29 -19.5 -48.5t-46.5 -19.5q-29 0 -48 20.5t-19 47.5zM113 542.5q0 26.5 19.5 46t48 19.5t47 -19.5 t18.5 -45.5q0 -29 -19.5 -48.5t-46.5 -19.5q-29 0 -48 20.5t-19 47zM113 784.5q0 26.5 19.5 46t48 19.5t47 -19.5t18.5 -46.5q0 -29 -19.5 -48t-46.5 -19q-29 0 -48 20.5t-19 47zM113 1026q0 27 19.5 46.5t48 19.5t47 -19.5t18.5 -46.5q0 -29 -19.5 -48.5t-46.5 -19.5 q-29 0 -48 20.5t-19 47.5zM354 542.5q0 26.5 19.5 46t48.5 19.5t47 -19.5t18 -45.5q0 -29 -19 -48.5t-46 -19.5q-29 0 -48.5 20.5t-19.5 47zM596 542.5q0 26.5 19.5 46t48 19.5t47 -19.5t18.5 -45.5q0 -29 -19.5 -48.5t-45.5 -19.5q-29 0 -48.5 20.5t-19.5 47zM838 301 q0 27 19.5 46.5t48 19.5t47 -19.5t18.5 -46.5q0 -29 -19.5 -48.5t-46.5 -19.5q-29 0 -48 20.5t-19 47.5zM838 784.5q0 26.5 19.5 46t48 19.5t47 -19.5t18.5 -46.5q0 -29 -19.5 -48t-46.5 -19q-29 0 -48 20.5t-19 47zM1079 59.5q0 26.5 19.5 46t48.5 19.5t47 -19.5t18 -46.5 q0 -29 -19 -48t-46 -19q-29 0 -48.5 20.5t-19.5 47zM1079 1026q0 27 19.5 46.5t48.5 19.5t47 -19.5t18 -46.5q0 -29 -19 -48.5t-46 -19.5q-29 0 -48.5 20.5t-19.5 47.5z" />
<glyph unicode="l" horiz-adv-x="604" d="M113 180q0 27 19.5 46.5t48 19.5t47 -18.5t18.5 -47t-19.5 -48t-46.5 -19.5q-29 0 -48 19t-19 48zM113 422q0 27 19.5 46t48 19t47 -18t18.5 -47t-19.5 -48.5t-46.5 -19.5q-29 0 -48 19.5t-19 48.5zM113 664q0 27 19.5 46t48 19t47 -18.5t18.5 -47t-19.5 -48t-46.5 -19.5 q-29 0 -48 19.5t-19 48.5zM113 905q0 27 19.5 46.5t48 19.5t47 -18.5t18.5 -47t-19.5 -48t-46.5 -19.5q-29 0 -48 19t-19 48zM113 1147q0 27 19.5 46t48 19t47 -18t18.5 -47t-19.5 -48.5t-46.5 -19.5q-29 0 -48 19.5t-19 48.5zM113 1389q0 27 19.5 46t48 19t47 -18.5 t18.5 -47t-19.5 -48t-46.5 -19.5q-29 0 -48 19.5t-19 48.5zM354 59.5q0 26.5 19.5 46t48.5 19.5t47 -19.5t18 -46.5q0 -29 -19 -48t-46 -19q-29 0 -48.5 20.5t-19.5 47z" />
<glyph unicode="m" horiz-adv-x="1812" d="M113 59.5q0 26.5 19.5 46t48 19.5t47 -19.5t18.5 -46.5q0 -29 -19.5 -48t-46.5 -19q-29 0 -48 20.5t-19 47zM113 301q0 27 19.5 46.5t48 19.5t47 -19.5t18.5 -46.5q0 -29 -19.5 -48.5t-46.5 -19.5q-29 0 -48 20.5t-19 47.5zM113 542.5q0 26.5 19.5 46t48 19.5t47 -19.5 t18.5 -45.5q0 -29 -19.5 -48.5t-46.5 -19.5q-29 0 -48 20.5t-19 47zM113 784.5q0 26.5 19.5 46t48 19.5t47 -19.5t18.5 -46.5q0 -29 -19.5 -48t-46.5 -19q-29 0 -48 20.5t-19 47zM354 1026q0 27 19.5 46.5t48.5 19.5t47 -19.5t18 -46.5q0 -29 -19 -48.5t-46 -19.5 q-29 0 -48.5 20.5t-19.5 47.5zM596 1026q0 27 19.5 46.5t48 19.5t47 -19.5t18.5 -46.5q0 -29 -19.5 -48.5t-45.5 -19.5q-29 0 -48.5 20.5t-19.5 47.5zM838 59.5q0 26.5 19.5 46t48 19.5t47 -19.5t18.5 -46.5q0 -29 -19.5 -48t-46.5 -19q-29 0 -48 20.5t-19 47zM838 301 q0 27 19.5 46.5t48 19.5t47 -19.5t18.5 -46.5q0 -29 -19.5 -48.5t-46.5 -19.5q-29 0 -48 20.5t-19 47.5zM838 542.5q0 26.5 19.5 46t48 19.5t47 -19.5t18.5 -45.5q0 -29 -19.5 -48.5t-46.5 -19.5q-29 0 -48 20.5t-19 47zM838 784.5q0 26.5 19.5 46t48 19.5t47 -19.5 t18.5 -46.5q0 -29 -19.5 -48t-46.5 -19q-29 0 -48 20.5t-19 47zM1079 1026q0 27 19.5 46.5t48.5 19.5t47 -19.5t18 -46.5q0 -29 -19 -48.5t-46 -19.5q-29 0 -48.5 20.5t-19.5 47.5zM1321 1026q0 27 19.5 46.5t48 19.5t47 -19.5t18.5 -46.5q0 -29 -19.5 -48.5t-45.5 -19.5 q-29 0 -48.5 20.5t-19.5 47.5zM1563 59.5q0 26.5 19.5 46t48 19.5t47 -19.5t18.5 -46.5q0 -29 -19.5 -48t-46.5 -19q-29 0 -48 20.5t-19 47zM1563 301q0 27 19.5 46.5t48 19.5t47 -19.5t18.5 -46.5q0 -29 -19.5 -48.5t-46.5 -19.5q-29 0 -48 20.5t-19 47.5zM1563 542.5 q0 26.5 19.5 46t48 19.5t47 -19.5t18.5 -45.5q0 -29 -19.5 -48.5t-46.5 -19.5q-29 0 -48 20.5t-19 47zM1563 784.5q0 26.5 19.5 46t48 19.5t47 -19.5t18.5 -46.5q0 -29 -19.5 -48t-46.5 -19q-29 0 -48 20.5t-19 47z" />
<glyph unicode="n" d="M113 59.5q0 26.5 19.5 46t48 19.5t47 -19.5t18.5 -46.5q0 -29 -19.5 -48t-46.5 -19q-29 0 -48 20.5t-19 47zM113 301q0 27 19.5 46.5t48 19.5t47 -19.5t18.5 -46.5q0 -29 -19.5 -48.5t-46.5 -19.5q-29 0 -48 20.5t-19 47.5zM113 542.5q0 26.5 19.5 46t48 19.5t47 -19.5 t18.5 -45.5q0 -29 -19.5 -48.5t-46.5 -19.5q-29 0 -48 20.5t-19 47zM113 784.5q0 26.5 19.5 46t48 19.5t47 -19.5t18.5 -46.5q0 -29 -19.5 -48t-46.5 -19q-29 0 -48 20.5t-19 47zM354 1026q0 27 19.5 46.5t48.5 19.5t47 -19.5t18 -46.5q0 -29 -19 -48.5t-46 -19.5 q-29 0 -48.5 20.5t-19.5 47.5zM596 1026q0 27 19.5 46.5t48 19.5t47 -19.5t18.5 -46.5q0 -29 -19.5 -48.5t-45.5 -19.5q-29 0 -48.5 20.5t-19.5 47.5zM838 1026q0 27 19.5 46.5t48 19.5t47 -19.5t18.5 -46.5q0 -29 -19.5 -48.5t-46.5 -19.5q-29 0 -48 20.5t-19 47.5z M1079 59.5q0 26.5 19.5 46t48.5 19.5t47 -19.5t18 -46.5q0 -29 -19 -48t-46 -19q-29 0 -48.5 20.5t-19.5 47zM1079 301q0 27 19.5 46.5t48.5 19.5t47 -19.5t18 -46.5q0 -29 -19 -48.5t-46 -19.5q-29 0 -48.5 20.5t-19.5 47.5zM1079 542.5q0 26.5 19.5 46t48.5 19.5t47 -19.5 t18 -45.5q0 -29 -19 -48.5t-46 -19.5q-29 0 -48.5 20.5t-19.5 47zM1079 784.5q0 26.5 19.5 46t48.5 19.5t47 -19.5t18 -46.5q0 -29 -19 -48t-46 -19q-29 0 -48.5 20.5t-19.5 47z" />
<glyph unicode="o" d="M113 422q0 27 19.5 46t48 19t47 -18t18.5 -47t-19.5 -48.5t-46.5 -19.5q-29 0 -48 19.5t-19 48.5zM113 664q0 27 19.5 46t48 19t47 -18.5t18.5 -47t-19.5 -48t-46.5 -19.5q-29 0 -48 19.5t-19 48.5zM233 180q0 27 19.5 46.5t48.5 19.5q27 0 46.5 -18.5t19.5 -47 t-19.5 -48t-46.5 -19.5t-47.5 19t-20.5 48zM233 905q0 27 19.5 46.5t48.5 19.5q27 0 46.5 -18.5t19.5 -47t-19.5 -48t-46.5 -19.5t-47.5 19t-20.5 48zM475 59.5q0 26.5 19.5 46t48.5 19.5q27 0 46 -19.5t19 -46.5q0 -29 -19.5 -48t-46 -19t-47 20.5t-20.5 47zM475 1026 q0 27 19.5 46.5t48.5 19.5q27 0 46 -19.5t19 -46.5q0 -29 -19.5 -48.5t-46 -19.5t-47 20.5t-20.5 47.5zM717 59.5q0 26.5 19.5 46t47.5 19.5q27 0 46.5 -19.5t19.5 -46.5q0 -29 -19.5 -48t-46 -19t-47 20.5t-20.5 47zM717 1026q0 27 19.5 46.5t47.5 19.5q27 0 46.5 -19.5 t19.5 -46.5q0 -29 -19.5 -48.5t-46 -19.5t-47 20.5t-20.5 47.5zM958 180q0 27 19.5 46.5t48.5 19.5q27 0 46.5 -18.5t19.5 -47t-19.5 -48t-46.5 -19.5t-47.5 19t-20.5 48zM958 905q0 27 19.5 46.5t48.5 19.5q27 0 46.5 -18.5t19.5 -47t-19.5 -48t-46.5 -19.5t-47.5 19 t-20.5 48zM1079 422q0 27 19.5 46t48.5 19t47 -18t18 -47t-19 -48.5t-46 -19.5q-29 0 -48.5 19.5t-19.5 48.5zM1079 664q0 27 19.5 46t48.5 19t47 -18.5t18 -47t-19 -48t-46 -19.5q-29 0 -48.5 19.5t-19.5 48.5z" />
<glyph unicode="p" d="M113 59.5q0 26.5 19.5 46t48 19.5t47 -19.5t18.5 -46.5q0 -29 -19.5 -48t-46.5 -19q-29 0 -48 20.5t-19 47zM113 301q0 27 19.5 46.5t48 19.5t47 -19.5t18.5 -46.5q0 -29 -19.5 -48.5t-46.5 -19.5q-29 0 -48 20.5t-19 47.5zM113 542.5q0 26.5 19.5 46t48 19.5t47 -19.5 t18.5 -45.5q0 -29 -19.5 -48.5t-46.5 -19.5q-29 0 -48 20.5t-19 47zM113 784.5q0 26.5 19.5 46t48 19.5t47 -19.5t18.5 -46.5q0 -29 -19.5 -48t-46.5 -19q-29 0 -48 20.5t-19 47zM354 301q0 27 19.5 46.5t48.5 19.5t47 -19.5t18 -46.5q0 -29 -19 -48.5t-46 -19.5 q-29 0 -48.5 20.5t-19.5 47.5zM354 1026q0 27 19.5 46.5t48.5 19.5t47 -19.5t18 -46.5q0 -29 -19 -48.5t-46 -19.5q-29 0 -48.5 20.5t-19.5 47.5zM596 301q0 27 19.5 46.5t48 19.5t47 -19.5t18.5 -46.5q0 -29 -19.5 -48.5t-45.5 -19.5q-29 0 -48.5 20.5t-19.5 47.5z M596 1026q0 27 19.5 46.5t48 19.5t47 -19.5t18.5 -46.5q0 -29 -19.5 -48.5t-45.5 -19.5q-29 0 -48.5 20.5t-19.5 47.5zM838 301q0 27 19.5 46.5t48 19.5t47 -19.5t18.5 -46.5q0 -29 -19.5 -48.5t-46.5 -19.5q-29 0 -48 20.5t-19 47.5zM838 1026q0 27 19.5 46.5t48 19.5 t47 -19.5t18.5 -46.5q0 -29 -19.5 -48.5t-46.5 -19.5q-29 0 -48 20.5t-19 47.5zM1079 542.5q0 26.5 19.5 46t48.5 19.5t47 -19.5t18 -45.5q0 -29 -19 -48.5t-46 -19.5q-29 0 -48.5 20.5t-19.5 47zM1079 784.5q0 26.5 19.5 46t48.5 19.5t47 -19.5t18 -46.5q0 -29 -19 -48 t-46 -19q-29 0 -48.5 20.5t-19.5 47z" />
<glyph unicode="q" horiz-adv-x="1449" d="M113 422q0 27 19.5 46t48 19t47 -18t18.5 -47t-19.5 -48.5t-46.5 -19.5q-29 0 -48 19.5t-19 48.5zM113 664q0 27 19.5 46t48 19t47 -18.5t18.5 -47t-19.5 -48t-46.5 -19.5q-29 0 -48 19.5t-19 48.5zM233 180q0 27 19.5 46.5t48.5 19.5q27 0 46.5 -18.5t19.5 -47 t-19.5 -48t-46.5 -19.5t-47.5 19t-20.5 48zM233 905q0 27 19.5 46.5t48.5 19.5q27 0 46.5 -18.5t19.5 -47t-19.5 -48t-46.5 -19.5t-47.5 19t-20.5 48zM475 59.5q0 26.5 19.5 46t48.5 19.5q27 0 46 -19.5t19 -46.5q0 -29 -19.5 -48t-46 -19t-47 20.5t-20.5 47zM475 1026 q0 27 19.5 46.5t48.5 19.5q27 0 46 -19.5t19 -46.5q0 -29 -19.5 -48.5t-46 -19.5t-47 20.5t-20.5 47.5zM717 59.5q0 26.5 19.5 46t47.5 19.5q27 0 46.5 -19.5t19.5 -46.5q0 -29 -19.5 -48t-46 -19t-47 20.5t-20.5 47zM717 1026q0 27 19.5 46.5t47.5 19.5q27 0 46.5 -19.5 t19.5 -46.5q0 -29 -19.5 -48.5t-46 -19.5t-47 20.5t-20.5 47.5zM958 180q0 27 19.5 46.5t48.5 19.5q27 0 46.5 -18.5t19.5 -47t-19.5 -48t-46.5 -19.5t-47.5 19t-20.5 48zM958 905q0 27 19.5 46.5t48.5 19.5q27 0 46.5 -18.5t19.5 -47t-19.5 -48t-46.5 -19.5t-47.5 19 t-20.5 48zM1079 -61q0 27 19.5 46t48.5 19t47 -18.5t18 -47t-19 -48t-46 -19.5q-29 0 -48.5 19.5t-19.5 48.5zM1079 -303q0 27 19.5 46t48.5 19t47 -18t18 -47t-19 -48.5t-46 -19.5q-29 0 -48.5 19.5t-19.5 48.5zM1079 422q0 27 19.5 46t48.5 19t47 -18t18 -47t-19 -48.5 t-46 -19.5q-29 0 -48.5 19.5t-19.5 48.5zM1079 664q0 27 19.5 46t48.5 19t47 -18.5t18 -47t-19 -48t-46 -19.5q-29 0 -48.5 19.5t-19.5 48.5zM1200 1026q0 27 19.5 46.5t48.5 19.5q27 0 46 -19.5t19 -46.5q0 -29 -19.5 -48.5t-46 -19.5t-47 20.5t-20.5 47.5z" />
<glyph unicode="r" horiz-adv-x="845" d="M113 59.5q0 26.5 19.5 46t48 19.5t47 -19.5t18.5 -46.5q0 -29 -19.5 -48t-46.5 -19q-29 0 -48 20.5t-19 47zM113 301q0 27 19.5 46.5t48 19.5t47 -19.5t18.5 -46.5q0 -29 -19.5 -48.5t-46.5 -19.5q-29 0 -48 20.5t-19 47.5zM113 542.5q0 26.5 19.5 46t48 19.5t47 -19.5 t18.5 -45.5q0 -29 -19.5 -48.5t-46.5 -19.5q-29 0 -48 20.5t-19 47zM113 784.5q0 26.5 19.5 46t48 19.5t47 -19.5t18.5 -46.5q0 -29 -19.5 -48t-46.5 -19q-29 0 -48 20.5t-19 47zM354 1026q0 27 19.5 46.5t48.5 19.5t47 -19.5t18 -46.5q0 -29 -19 -48.5t-46 -19.5 q-29 0 -48.5 20.5t-19.5 47.5zM596 1026q0 27 19.5 46.5t48 19.5t47 -19.5t18.5 -46.5q0 -29 -19.5 -48.5t-45.5 -19.5q-29 0 -48.5 20.5t-19.5 47.5z" />
<glyph unicode="s" horiz-adv-x="1087" d="M113 59.5q0 26.5 19.5 46t48 19.5t47 -19.5t18.5 -46.5q0 -29 -19.5 -48t-46.5 -19q-29 0 -48 20.5t-19 47zM354 59.5q0 26.5 19.5 46t48.5 19.5t47 -19.5t18 -46.5q0 -29 -19 -48t-46 -19q-29 0 -48.5 20.5t-19.5 47zM475 301q0 27 19.5 46.5t48.5 19.5q27 0 46 -19.5 t19 -46.5q0 -29 -19.5 -48.5t-46 -19.5t-47 20.5t-20.5 47.5zM475 542.5q0 26.5 19.5 46t48.5 19.5q27 0 46 -19.5t19 -45.5q0 -29 -19.5 -48.5t-46 -19.5t-47 20.5t-20.5 47zM475 784.5q0 26.5 19.5 46t48.5 19.5q27 0 46 -19.5t19 -46.5q0 -29 -19.5 -48t-46 -19t-47 20.5 t-20.5 47zM596 1026q0 27 19.5 46.5t48 19.5t47 -19.5t18.5 -46.5q0 -29 -19.5 -48.5t-45.5 -19.5q-29 0 -48.5 20.5t-19.5 47.5zM838 1026q0 27 19.5 46.5t48 19.5t47 -19.5t18.5 -46.5q0 -29 -19.5 -48.5t-46.5 -19.5q-29 0 -48 20.5t-19 47.5z" />
<glyph unicode="t" horiz-adv-x="604" d="M113 180q0 27 19.5 46.5t48 19.5t47 -18.5t18.5 -47t-19.5 -48t-46.5 -19.5q-29 0 -48 19t-19 48zM113 422q0 27 19.5 46t48 19t47 -18t18.5 -47t-19.5 -48.5t-46.5 -19.5q-29 0 -48 19.5t-19 48.5zM113 664q0 27 19.5 46t48 19t47 -18.5t18.5 -47t-19.5 -48t-46.5 -19.5 q-29 0 -48 19.5t-19 48.5zM113 905q0 27 19.5 46.5t48 19.5t47 -18.5t18.5 -47t-19.5 -48t-46.5 -19.5q-29 0 -48 19t-19 48zM113 1147q0 27 19.5 46t48 19t47 -18t18.5 -47t-19.5 -48.5t-46.5 -19.5q-29 0 -48 19.5t-19 48.5zM113 1389q0 27 19.5 46t48 19t47 -18.5 t18.5 -47t-19.5 -48t-46.5 -19.5q-29 0 -48 19.5t-19 48.5zM354 59.5q0 26.5 19.5 46t48.5 19.5t47 -19.5t18 -46.5q0 -29 -19 -48t-46 -19q-29 0 -48.5 20.5t-19.5 47zM354 1026q0 27 19.5 46.5t48.5 19.5t47 -19.5t18 -46.5q0 -29 -19 -48.5t-46 -19.5q-29 0 -48.5 20.5 t-19.5 47.5z" />
<glyph unicode="u" d="M113 301q0 27 19.5 46.5t48 19.5t47 -19.5t18.5 -46.5q0 -29 -19.5 -48.5t-46.5 -19.5q-29 0 -48 20.5t-19 47.5zM113 542.5q0 26.5 19.5 46t48 19.5t47 -19.5t18.5 -45.5q0 -29 -19.5 -48.5t-46.5 -19.5q-29 0 -48 20.5t-19 47zM113 784.5q0 26.5 19.5 46t48 19.5 t47 -19.5t18.5 -46.5q0 -29 -19.5 -48t-46.5 -19q-29 0 -48 20.5t-19 47zM113 1026q0 27 19.5 46.5t48 19.5t47 -19.5t18.5 -46.5q0 -29 -19.5 -48.5t-46.5 -19.5q-29 0 -48 20.5t-19 47.5zM354 59.5q0 26.5 19.5 46t48.5 19.5t47 -19.5t18 -46.5q0 -29 -19 -48t-46 -19 q-29 0 -48.5 20.5t-19.5 47zM596 59.5q0 26.5 19.5 46t48 19.5t47 -19.5t18.5 -46.5q0 -29 -19.5 -48t-45.5 -19q-29 0 -48.5 20.5t-19.5 47zM838 59.5q0 26.5 19.5 46t48 19.5t47 -19.5t18.5 -46.5q0 -29 -19.5 -48t-46.5 -19q-29 0 -48 20.5t-19 47zM1079 301 q0 27 19.5 46.5t48.5 19.5t47 -19.5t18 -46.5q0 -29 -19 -48.5t-46 -19.5q-29 0 -48.5 20.5t-19.5 47.5zM1079 542.5q0 26.5 19.5 46t48.5 19.5t47 -19.5t18 -45.5q0 -29 -19 -48.5t-46 -19.5q-29 0 -48.5 20.5t-19.5 47zM1079 784.5q0 26.5 19.5 46t48.5 19.5t47 -19.5 t18 -46.5q0 -29 -19 -48t-46 -19q-29 0 -48.5 20.5t-19.5 47zM1079 1026q0 27 19.5 46.5t48.5 19.5t47 -19.5t18 -46.5q0 -29 -19 -48.5t-46 -19.5q-29 0 -48.5 20.5t-19.5 47.5z" />
<glyph unicode="v" d="M113 542.5q0 26.5 19.5 46t48 19.5t47 -19.5t18.5 -45.5q0 -29 -19.5 -48.5t-46.5 -19.5q-29 0 -48 20.5t-19 47zM113 784.5q0 26.5 19.5 46t48 19.5t47 -19.5t18.5 -46.5q0 -29 -19.5 -48t-46.5 -19q-29 0 -48 20.5t-19 47zM113 1026q0 27 19.5 46.5t48 19.5t47 -19.5 t18.5 -46.5q0 -29 -19.5 -48.5t-46.5 -19.5q-29 0 -48 20.5t-19 47.5zM354 301q0 27 19.5 46.5t48.5 19.5t47 -19.5t18 -46.5q0 -29 -19 -48.5t-46 -19.5q-29 0 -48.5 20.5t-19.5 47.5zM596 59.5q0 26.5 19.5 46t48 19.5t47 -19.5t18.5 -46.5q0 -29 -19.5 -48t-45.5 -19 q-29 0 -48.5 20.5t-19.5 47zM838 301q0 27 19.5 46.5t48 19.5t47 -19.5t18.5 -46.5q0 -29 -19.5 -48.5t-46.5 -19.5q-29 0 -48 20.5t-19 47.5zM1079 542.5q0 26.5 19.5 46t48.5 19.5t47 -19.5t18 -45.5q0 -29 -19 -48.5t-46 -19.5q-29 0 -48.5 20.5t-19.5 47zM1079 784.5 q0 26.5 19.5 46t48.5 19.5t47 -19.5t18 -46.5q0 -29 -19 -48t-46 -19q-29 0 -48.5 20.5t-19.5 47zM1079 1026q0 27 19.5 46.5t48.5 19.5t47 -19.5t18 -46.5q0 -29 -19 -48.5t-46 -19.5q-29 0 -48.5 20.5t-19.5 47.5z" />
<glyph unicode="w" horiz-adv-x="1812" d="M113 301q0 27 19.5 46.5t48 19.5t47 -19.5t18.5 -46.5q0 -29 -19.5 -48.5t-46.5 -19.5q-29 0 -48 20.5t-19 47.5zM113 542.5q0 26.5 19.5 46t48 19.5t47 -19.5t18.5 -45.5q0 -29 -19.5 -48.5t-46.5 -19.5q-29 0 -48 20.5t-19 47zM113 784.5q0 26.5 19.5 46t48 19.5 t47 -19.5t18.5 -46.5q0 -29 -19.5 -48t-46.5 -19q-29 0 -48 20.5t-19 47zM113 1026q0 27 19.5 46.5t48 19.5t47 -19.5t18.5 -46.5q0 -29 -19.5 -48.5t-46.5 -19.5q-29 0 -48 20.5t-19 47.5zM354 59.5q0 26.5 19.5 46t48.5 19.5t47 -19.5t18 -46.5q0 -29 -19 -48t-46 -19 q-29 0 -48.5 20.5t-19.5 47zM596 59.5q0 26.5 19.5 46t48 19.5t47 -19.5t18.5 -46.5q0 -29 -19.5 -48t-45.5 -19q-29 0 -48.5 20.5t-19.5 47zM838 301q0 27 19.5 46.5t48 19.5t47 -19.5t18.5 -46.5q0 -29 -19.5 -48.5t-46.5 -19.5q-29 0 -48 20.5t-19 47.5zM838 542.5 q0 26.5 19.5 46t48 19.5t47 -19.5t18.5 -45.5q0 -29 -19.5 -48.5t-46.5 -19.5q-29 0 -48 20.5t-19 47zM838 784.5q0 26.5 19.5 46t48 19.5t47 -19.5t18.5 -46.5q0 -29 -19.5 -48t-46.5 -19q-29 0 -48 20.5t-19 47zM838 1026q0 27 19.5 46.5t48 19.5t47 -19.5t18.5 -46.5 q0 -29 -19.5 -48.5t-46.5 -19.5q-29 0 -48 20.5t-19 47.5zM1079 59.5q0 26.5 19.5 46t48.5 19.5t47 -19.5t18 -46.5q0 -29 -19 -48t-46 -19q-29 0 -48.5 20.5t-19.5 47zM1321 59.5q0 26.5 19.5 46t48 19.5t47 -19.5t18.5 -46.5q0 -29 -19.5 -48t-45.5 -19q-29 0 -48.5 20.5 t-19.5 47zM1563 301q0 27 19.5 46.5t48 19.5t47 -19.5t18.5 -46.5q0 -29 -19.5 -48.5t-46.5 -19.5q-29 0 -48 20.5t-19 47.5zM1563 542.5q0 26.5 19.5 46t48 19.5t47 -19.5t18.5 -45.5q0 -29 -19.5 -48.5t-46.5 -19.5q-29 0 -48 20.5t-19 47zM1563 784.5q0 26.5 19.5 46 t48 19.5t47 -19.5t18.5 -46.5q0 -29 -19.5 -48t-46.5 -19q-29 0 -48 20.5t-19 47zM1563 1026q0 27 19.5 46.5t48 19.5t47 -19.5t18.5 -46.5q0 -29 -19.5 -48.5t-46.5 -19.5q-29 0 -48 20.5t-19 47.5z" />
<glyph unicode="x" d="M113 59.5q0 26.5 19.5 46t48 19.5t47 -19.5t18.5 -46.5q0 -29 -19.5 -48t-46.5 -19q-29 0 -48 20.5t-19 47zM113 1026q0 27 19.5 46.5t48 19.5t47 -19.5t18.5 -46.5q0 -29 -19.5 -48.5t-46.5 -19.5q-29 0 -48 20.5t-19 47.5zM354 301q0 27 19.5 46.5t48.5 19.5t47 -19.5 t18 -46.5q0 -29 -19 -48.5t-46 -19.5q-29 0 -48.5 20.5t-19.5 47.5zM354 784.5q0 26.5 19.5 46t48.5 19.5t47 -19.5t18 -46.5q0 -29 -19 -48t-46 -19q-29 0 -48.5 20.5t-19.5 47zM596 542.5q0 26.5 19.5 46t48 19.5t47 -19.5t18.5 -45.5q0 -29 -19.5 -48.5t-45.5 -19.5 q-29 0 -48.5 20.5t-19.5 47zM838 301q0 27 19.5 46.5t48 19.5t47 -19.5t18.5 -46.5q0 -29 -19.5 -48.5t-46.5 -19.5q-29 0 -48 20.5t-19 47.5zM838 784.5q0 26.5 19.5 46t48 19.5t47 -19.5t18.5 -46.5q0 -29 -19.5 -48t-46.5 -19q-29 0 -48 20.5t-19 47zM1079 59.5 q0 26.5 19.5 46t48.5 19.5t47 -19.5t18 -46.5q0 -29 -19 -48t-46 -19q-29 0 -48.5 20.5t-19.5 47zM1079 1026q0 27 19.5 46.5t48.5 19.5t47 -19.5t18 -46.5q0 -29 -19 -48.5t-46 -19.5q-29 0 -48.5 20.5t-19.5 47.5z" />
<glyph unicode="y" d="M113 542.5q0 26.5 19.5 46t48 19.5t47 -19.5t18.5 -45.5q0 -29 -19.5 -48.5t-46.5 -19.5q-29 0 -48 20.5t-19 47zM113 784.5q0 26.5 19.5 46t48 19.5t47 -19.5t18.5 -46.5q0 -29 -19.5 -48t-46.5 -19q-29 0 -48 20.5t-19 47zM113 1026q0 27 19.5 46.5t48 19.5t47 -19.5 t18.5 -46.5q0 -29 -19.5 -48.5t-46.5 -19.5q-29 0 -48 20.5t-19 47.5zM354 301q0 27 19.5 46.5t48.5 19.5t47 -19.5t18 -46.5q0 -29 -19 -48.5t-46 -19.5q-29 0 -48.5 20.5t-19.5 47.5zM596 59.5q0 26.5 19.5 46t48 19.5t47 -19.5t18.5 -46.5q0 -29 -19.5 -48t-45.5 -19 q-29 0 -48.5 20.5t-19.5 47zM596 -182.5q0 26.5 19.5 46t48 19.5t47 -19.5t18.5 -45.5q0 -29 -19.5 -48.5t-45.5 -19.5q-29 0 -48.5 20.5t-19.5 47zM838 301q0 27 19.5 46.5t48 19.5t47 -19.5t18.5 -46.5q0 -29 -19.5 -48.5t-46.5 -19.5q-29 0 -48 20.5t-19 47.5z M1079 542.5q0 26.5 19.5 46t48.5 19.5t47 -19.5t18 -45.5q0 -29 -19 -48.5t-46 -19.5q-29 0 -48.5 20.5t-19.5 47zM1079 784.5q0 26.5 19.5 46t48.5 19.5t47 -19.5t18 -46.5q0 -29 -19 -48t-46 -19q-29 0 -48.5 20.5t-19.5 47zM1079 1026q0 27 19.5 46.5t48.5 19.5t47 -19.5 t18 -46.5q0 -29 -19 -48.5t-46 -19.5q-29 0 -48.5 20.5t-19.5 47.5z" />
<glyph unicode="z" horiz-adv-x="1087" d="M113 59.5q0 26.5 19.5 46t48 19.5t47 -19.5t18.5 -46.5q0 -29 -19.5 -48t-46.5 -19q-29 0 -48 20.5t-19 47zM113 1026q0 27 19.5 46.5t48 19.5t47 -19.5t18.5 -46.5q0 -29 -19.5 -48.5t-46.5 -19.5q-29 0 -48 20.5t-19 47.5zM354 59.5q0 26.5 19.5 46t48.5 19.5t47 -19.5 t18 -46.5q0 -29 -19 -48t-46 -19q-29 0 -48.5 20.5t-19.5 47zM354 422q0 27 19.5 46t48.5 19t47 -18t18 -47t-19 -48.5t-46 -19.5q-29 0 -48.5 19.5t-19.5 48.5zM354 1026q0 27 19.5 46.5t48.5 19.5t47 -19.5t18 -46.5q0 -29 -19 -48.5t-46 -19.5q-29 0 -48.5 20.5 t-19.5 47.5zM596 59.5q0 26.5 19.5 46t48 19.5t47 -19.5t18.5 -46.5q0 -29 -19.5 -48t-45.5 -19q-29 0 -48.5 20.5t-19.5 47zM596 664q0 27 19.5 46t48 19t47 -18.5t18.5 -47t-19.5 -48t-45.5 -19.5q-29 0 -48.5 19.5t-19.5 48.5zM596 1026q0 27 19.5 46.5t48 19.5t47 -19.5 t18.5 -46.5q0 -29 -19.5 -48.5t-45.5 -19.5q-29 0 -48.5 20.5t-19.5 47.5zM838 59.5q0 26.5 19.5 46t48 19.5t47 -19.5t18.5 -46.5q0 -29 -19.5 -48t-46.5 -19q-29 0 -48 20.5t-19 47zM838 1026q0 27 19.5 46.5t48 19.5t47 -19.5t18.5 -46.5q0 -29 -19.5 -48.5t-46.5 -19.5 q-29 0 -48 20.5t-19 47.5z" />
<glyph unicode="{" horiz-adv-x="724" d="M-8 542.5q0 26.5 19.5 46t47.5 19.5q27 0 46.5 -19.5t19.5 -45.5q0 -29 -19.5 -48.5t-46 -19.5t-47 20.5t-20.5 47zM233 301q0 27 19.5 46.5t48.5 19.5q27 0 46.5 -19.5t19.5 -46.5q0 -29 -19.5 -48.5t-46.5 -19.5t-47.5 20.5t-20.5 47.5zM233 542.5q0 26.5 19.5 46 t48.5 19.5q27 0 46.5 -19.5t19.5 -45.5q0 -29 -19.5 -48.5t-46.5 -19.5t-47.5 20.5t-20.5 47zM233 784.5q0 26.5 19.5 46t48.5 19.5q27 0 46.5 -19.5t19.5 -46.5q0 -29 -19.5 -48t-46.5 -19t-47.5 20.5t-20.5 47zM354 59.5q0 26.5 19.5 46t48.5 19.5t47 -19.5t18 -46.5 q0 -29 -19 -48t-46 -19q-29 0 -48.5 20.5t-19.5 47zM354 -182.5q0 26.5 19.5 46t48.5 19.5t47 -19.5t18 -45.5q0 -29 -19 -48.5t-46 -19.5q-29 0 -48.5 20.5t-19.5 47zM354 1026q0 27 19.5 46.5t48.5 19.5t47 -19.5t18 -46.5q0 -29 -19 -48.5t-46 -19.5q-29 0 -48.5 20.5 t-19.5 47.5zM354 1267.5q0 26.5 19.5 46t48.5 19.5t47 -19.5t18 -45.5q0 -29 -19 -48.5t-46 -19.5q-29 0 -48.5 20.5t-19.5 47z" />
<glyph unicode="|" horiz-adv-x="362" d="M113 -61q0 27 19.5 46t48 19t47 -18.5t18.5 -47t-19.5 -48t-46.5 -19.5q-29 0 -48 19.5t-19 48.5zM113 180q0 27 19.5 46.5t48 19.5t47 -18.5t18.5 -47t-19.5 -48t-46.5 -19.5q-29 0 -48 19t-19 48zM113 -303q0 27 19.5 46t48 19t47 -18t18.5 -47t-19.5 -48.5 t-46.5 -19.5q-29 0 -48 19.5t-19 48.5zM113 422q0 27 19.5 46t48 19t47 -18t18.5 -47t-19.5 -48.5t-46.5 -19.5q-29 0 -48 19.5t-19 48.5zM113 664q0 27 19.5 46t48 19t47 -18.5t18.5 -47t-19.5 -48t-46.5 -19.5q-29 0 -48 19.5t-19 48.5zM113 905q0 27 19.5 46.5t48 19.5 t47 -18.5t18.5 -47t-19.5 -48t-46.5 -19.5q-29 0 -48 19t-19 48zM113 1147q0 27 19.5 46t48 19t47 -18t18.5 -47t-19.5 -48.5t-46.5 -19.5q-29 0 -48 19.5t-19 48.5zM113 1389q0 27 19.5 46t48 19t47 -18.5t18.5 -47t-19.5 -48t-46.5 -19.5q-29 0 -48 19.5t-19 48.5z" />
<glyph unicode="}" horiz-adv-x="724" d="M233 59.5q0 26.5 19.5 46t48.5 19.5q27 0 46.5 -19.5t19.5 -46.5q0 -29 -19.5 -48t-46.5 -19t-47.5 20.5t-20.5 47zM233 -182.5q0 26.5 19.5 46t48.5 19.5q27 0 46.5 -19.5t19.5 -45.5q0 -29 -19.5 -48.5t-46.5 -19.5t-47.5 20.5t-20.5 47zM233 1026q0 27 19.5 46.5 t48.5 19.5q27 0 46.5 -19.5t19.5 -46.5q0 -29 -19.5 -48.5t-46.5 -19.5t-47.5 20.5t-20.5 47.5zM233 1267.5q0 26.5 19.5 46t48.5 19.5q27 0 46.5 -19.5t19.5 -45.5q0 -29 -19.5 -48.5t-46.5 -19.5t-47.5 20.5t-20.5 47zM354 301q0 27 19.5 46.5t48.5 19.5t47 -19.5 t18 -46.5q0 -29 -19 -48.5t-46 -19.5q-29 0 -48.5 20.5t-19.5 47.5zM354 542.5q0 26.5 19.5 46t48.5 19.5t47 -19.5t18 -45.5q0 -29 -19 -48.5t-46 -19.5q-29 0 -48.5 20.5t-19.5 47zM354 784.5q0 26.5 19.5 46t48.5 19.5t47 -19.5t18 -46.5q0 -29 -19 -48t-46 -19 q-29 0 -48.5 20.5t-19.5 47zM596 542.5q0 26.5 19.5 46t48 19.5t47 -19.5t18.5 -45.5q0 -29 -19.5 -48.5t-45.5 -19.5q-29 0 -48.5 20.5t-19.5 47z" />
<glyph unicode="~" horiz-adv-x="1087" d="M113 542.5q0 26.5 19.5 46t48 19.5t47 -19.5t18.5 -45.5q0 -29 -19.5 -48.5t-46.5 -19.5q-29 0 -48 20.5t-19 47zM354 784.5q0 26.5 19.5 46t48.5 19.5t47 -19.5t18 -46.5q0 -29 -19 -48t-46 -19q-29 0 -48.5 20.5t-19.5 47zM596 542.5q0 26.5 19.5 46t48 19.5t47 -19.5 t18.5 -45.5q0 -29 -19.5 -48.5t-45.5 -19.5q-29 0 -48.5 20.5t-19.5 47zM838 784.5q0 26.5 19.5 46t48 19.5t47 -19.5t18.5 -46.5q0 -29 -19.5 -48t-46.5 -19q-29 0 -48 20.5t-19 47z" />
<glyph unicode="&#xa1;" horiz-adv-x="362" d="M113 59.5q0 26.5 19.5 46t48 19.5t47 -19.5t18.5 -46.5q0 -29 -19.5 -48t-46.5 -19q-29 0 -48 20.5t-19 47zM113 -182.5q0 26.5 19.5 46t48 19.5t47 -19.5t18.5 -45.5q0 -29 -19.5 -48.5t-46.5 -19.5q-29 0 -48 20.5t-19 47zM113 301q0 27 19.5 46.5t48 19.5t47 -19.5 t18.5 -46.5q0 -29 -19.5 -48.5t-46.5 -19.5q-29 0 -48 20.5t-19 47.5zM113 542.5q0 26.5 19.5 46t48 19.5t47 -19.5t18.5 -45.5q0 -29 -19.5 -48.5t-46.5 -19.5q-29 0 -48 20.5t-19 47zM113 905q0 27 19.5 46.5t48 19.5t47 -18.5t18.5 -47t-19.5 -48t-46.5 -19.5 q-29 0 -48 19t-19 48z" />
<glyph unicode="&#xa2;" horiz-adv-x="1208" d="M113 422q0 27 19.5 46t48 19t47 -18t18.5 -47t-19.5 -48.5t-46.5 -19.5q-29 0 -48 19.5t-19 48.5zM113 664q0 27 19.5 46t48 19t47 -18.5t18.5 -47t-19.5 -48t-46.5 -19.5q-29 0 -48 19.5t-19 48.5zM233 180q0 27 19.5 46.5t48.5 19.5q27 0 46.5 -18.5t19.5 -47 t-19.5 -48t-46.5 -19.5t-47.5 19t-20.5 48zM233 905q0 27 19.5 46.5t48.5 19.5q27 0 46.5 -18.5t19.5 -47t-19.5 -48t-46.5 -19.5t-47.5 19t-20.5 48zM475 59.5q0 26.5 19.5 46t48.5 19.5q27 0 46 -19.5t19 -46.5q0 -29 -19.5 -48t-46 -19t-47 20.5t-20.5 47zM475 1026 q0 27 19.5 46.5t48.5 19.5q27 0 46 -19.5t19 -46.5q0 -29 -19.5 -48.5t-46 -19.5t-47 20.5t-20.5 47.5zM596 -182.5q0 26.5 19.5 46t48 19.5t47 -19.5t18.5 -45.5q0 -29 -19.5 -48.5t-45.5 -19.5q-29 0 -48.5 20.5t-19.5 47zM596 301q0 27 19.5 46.5t48 19.5t47 -19.5 t18.5 -46.5q0 -29 -19.5 -48.5t-45.5 -19.5q-29 0 -48.5 20.5t-19.5 47.5zM596 542.5q0 26.5 19.5 46t48 19.5t47 -19.5t18.5 -45.5q0 -29 -19.5 -48.5t-45.5 -19.5q-29 0 -48.5 20.5t-19.5 47zM596 784.5q0 26.5 19.5 46t48 19.5t47 -19.5t18.5 -46.5q0 -29 -19.5 -48 t-45.5 -19q-29 0 -48.5 20.5t-19.5 47zM596 1267.5q0 26.5 19.5 46t48 19.5t47 -19.5t18.5 -45.5q0 -29 -19.5 -48.5t-45.5 -19.5q-29 0 -48.5 20.5t-19.5 47zM717 59.5q0 26.5 19.5 46t47.5 19.5q27 0 46.5 -19.5t19.5 -46.5q0 -29 -19.5 -48t-46 -19t-47 20.5t-20.5 47z M717 1026q0 27 19.5 46.5t47.5 19.5q27 0 46.5 -19.5t19.5 -46.5q0 -29 -19.5 -48.5t-46 -19.5t-47 20.5t-20.5 47.5zM958 180q0 27 19.5 46.5t48.5 19.5q27 0 46.5 -18.5t19.5 -47t-19.5 -48t-46.5 -19.5t-47.5 19t-20.5 48zM958 905q0 27 19.5 46.5t48.5 19.5 q27 0 46.5 -18.5t19.5 -47t-19.5 -48t-46.5 -19.5t-47.5 19t-20.5 48z" />
<glyph unicode="&#xa3;" d="M113 542.5q0 26.5 19.5 46t48 19.5t47 -19.5t18.5 -45.5q0 -29 -19.5 -48.5t-46.5 -19.5q-29 0 -48 20.5t-19 47zM354 59.5q0 26.5 19.5 46t48.5 19.5t47 -19.5t18 -46.5q0 -29 -19 -48t-46 -19q-29 0 -48.5 20.5t-19.5 47zM354 301q0 27 19.5 46.5t48.5 19.5t47 -19.5 t18 -46.5q0 -29 -19 -48.5t-46 -19.5q-29 0 -48.5 20.5t-19.5 47.5zM354 542.5q0 26.5 19.5 46t48.5 19.5t47 -19.5t18 -45.5q0 -29 -19 -48.5t-46 -19.5q-29 0 -48.5 20.5t-19.5 47zM354 784.5q0 26.5 19.5 46t48.5 19.5t47 -19.5t18 -46.5q0 -29 -19 -48t-46 -19 q-29 0 -48.5 20.5t-19.5 47zM475 1026q0 27 19.5 46.5t48.5 19.5q27 0 46 -19.5t19 -46.5q0 -29 -19.5 -48.5t-46 -19.5t-47 20.5t-20.5 47.5zM596 180q0 27 19.5 46.5t48 19.5t47 -18.5t18.5 -47t-19.5 -48t-45.5 -19.5q-29 0 -48.5 19t-19.5 48zM596 542.5q0 26.5 19.5 46 t48 19.5t47 -19.5t18.5 -45.5q0 -29 -19.5 -48.5t-45.5 -19.5q-29 0 -48.5 20.5t-19.5 47zM717 1026q0 27 19.5 46.5t47.5 19.5q27 0 46.5 -19.5t19.5 -46.5q0 -29 -19.5 -48.5t-46 -19.5t-47 20.5t-20.5 47.5zM838 59.5q0 26.5 19.5 46t48 19.5t47 -19.5t18.5 -46.5 q0 -29 -19.5 -48t-46.5 -19q-29 0 -48 20.5t-19 47zM958 784.5q0 26.5 19.5 46t48.5 19.5q27 0 46.5 -19.5t19.5 -46.5q0 -29 -19.5 -48t-46.5 -19t-47.5 20.5t-20.5 47zM1079 180q0 27 19.5 46.5t48.5 19.5t47 -18.5t18 -47t-19 -48t-46 -19.5q-29 0 -48.5 19t-19.5 48z " />
<glyph unicode="&#xa4;" horiz-adv-x="1087" d="M113 59.5q0 26.5 19.5 46t48 19.5t47 -19.5t18.5 -46.5q0 -29 -19.5 -48t-46.5 -19q-29 0 -48 20.5t-19 47zM113 542.5q0 26.5 19.5 46t48 19.5t47 -19.5t18.5 -45.5q0 -29 -19.5 -48.5t-46.5 -19.5q-29 0 -48 20.5t-19 47zM113 1026q0 27 19.5 46.5t48 19.5t47 -19.5 t18.5 -46.5q0 -29 -19.5 -48.5t-46.5 -19.5q-29 0 -48 20.5t-19 47.5zM233 301q0 27 19.5 46.5t48.5 19.5q27 0 46.5 -19.5t19.5 -46.5q0 -29 -19.5 -48.5t-46.5 -19.5t-47.5 20.5t-20.5 47.5zM233 784.5q0 26.5 19.5 46t48.5 19.5q27 0 46.5 -19.5t19.5 -46.5 q0 -29 -19.5 -48t-46.5 -19t-47.5 20.5t-20.5 47zM475 180q0 27 19.5 46.5t48.5 19.5q27 0 46 -18.5t19 -47t-19.5 -48t-46 -19.5t-47 19t-20.5 48zM475 905q0 27 19.5 46.5t48.5 19.5q27 0 46 -18.5t19 -47t-19.5 -48t-46 -19.5t-47 19t-20.5 48zM717 301q0 27 19.5 46.5 t47.5 19.5q27 0 46.5 -19.5t19.5 -46.5q0 -29 -19.5 -48.5t-46 -19.5t-47 20.5t-20.5 47.5zM717 784.5q0 26.5 19.5 46t47.5 19.5q27 0 46.5 -19.5t19.5 -46.5q0 -29 -19.5 -48t-46 -19t-47 20.5t-20.5 47zM838 59.5q0 26.5 19.5 46t48 19.5t47 -19.5t18.5 -46.5 q0 -29 -19.5 -48t-46.5 -19q-29 0 -48 20.5t-19 47zM838 542.5q0 26.5 19.5 46t48 19.5t47 -19.5t18.5 -45.5q0 -29 -19.5 -48.5t-46.5 -19.5q-29 0 -48 20.5t-19 47zM838 1026q0 27 19.5 46.5t48 19.5t47 -19.5t18.5 -46.5q0 -29 -19.5 -48.5t-46.5 -19.5q-29 0 -48 20.5 t-19 47.5z" />
<glyph unicode="&#xa5;" d="M113 1026q0 27 19.5 46.5t48 19.5t47 -19.5t18.5 -46.5q0 -29 -19.5 -48.5t-46.5 -19.5q-29 0 -48 20.5t-19 47.5zM354 301q0 27 19.5 46.5t48.5 19.5t47 -19.5t18 -46.5q0 -29 -19 -48.5t-46 -19.5q-29 0 -48.5 20.5t-19.5 47.5zM354 542.5q0 26.5 19.5 46t48.5 19.5 t47 -19.5t18 -45.5q0 -29 -19 -48.5t-46 -19.5q-29 0 -48.5 20.5t-19.5 47zM354 784.5q0 26.5 19.5 46t48.5 19.5t47 -19.5t18 -46.5q0 -29 -19 -48t-46 -19q-29 0 -48.5 20.5t-19.5 47zM596 59.5q0 26.5 19.5 46t48 19.5t47 -19.5t18.5 -46.5q0 -29 -19.5 -48t-45.5 -19 q-29 0 -48.5 20.5t-19.5 47zM596 301q0 27 19.5 46.5t48 19.5t47 -19.5t18.5 -46.5q0 -29 -19.5 -48.5t-45.5 -19.5q-29 0 -48.5 20.5t-19.5 47.5zM596 542.5q0 26.5 19.5 46t48 19.5t47 -19.5t18.5 -45.5q0 -29 -19.5 -48.5t-45.5 -19.5q-29 0 -48.5 20.5t-19.5 47z M838 301q0 27 19.5 46.5t48 19.5t47 -19.5t18.5 -46.5q0 -29 -19.5 -48.5t-46.5 -19.5q-29 0 -48 20.5t-19 47.5zM838 542.5q0 26.5 19.5 46t48 19.5t47 -19.5t18.5 -45.5q0 -29 -19.5 -48.5t-46.5 -19.5q-29 0 -48 20.5t-19 47zM838 784.5q0 26.5 19.5 46t48 19.5t47 -19.5 t18.5 -46.5q0 -29 -19.5 -48t-46.5 -19q-29 0 -48 20.5t-19 47zM1079 1026q0 27 19.5 46.5t48.5 19.5t47 -19.5t18 -46.5q0 -29 -19 -48.5t-46 -19.5q-29 0 -48.5 20.5t-19.5 47.5z" />
<glyph unicode="&#xa6;" horiz-adv-x="362" d="M113 -61q0 27 19.5 46t48 19t47 -18.5t18.5 -47t-19.5 -48t-46.5 -19.5q-29 0 -48 19.5t-19 48.5zM113 180q0 27 19.5 46.5t48 19.5t47 -18.5t18.5 -47t-19.5 -48t-46.5 -19.5q-29 0 -48 19t-19 48zM113 -303q0 27 19.5 46t48 19t47 -18t18.5 -47t-19.5 -48.5 t-46.5 -19.5q-29 0 -48 19.5t-19 48.5zM113 905q0 27 19.5 46.5t48 19.5t47 -18.5t18.5 -47t-19.5 -48t-46.5 -19.5q-29 0 -48 19t-19 48zM113 1147q0 27 19.5 46t48 19t47 -18t18.5 -47t-19.5 -48.5t-46.5 -19.5q-29 0 -48 19.5t-19 48.5zM113 1389q0 27 19.5 46t48 19 t47 -18.5t18.5 -47t-19.5 -48t-46.5 -19.5q-29 0 -48 19.5t-19 48.5z" />
<glyph unicode="&#xa7;" horiz-adv-x="1087" d="M113 905q0 27 19.5 46.5t48 19.5t47 -18.5t18.5 -47t-19.5 -48t-46.5 -19.5q-29 0 -48 19t-19 48zM233 -303q0 27 19.5 46t48.5 19q27 0 46.5 -18t19.5 -47t-19.5 -48.5t-46.5 -19.5t-47.5 19.5t-20.5 48.5zM233 422q0 27 19.5 46t48.5 19q27 0 46.5 -18t19.5 -47 t-19.5 -48.5t-46.5 -19.5t-47.5 19.5t-20.5 48.5zM354 180q0 27 19.5 46.5t48.5 19.5t47 -18.5t18 -47t-19 -48t-46 -19.5q-29 0 -48.5 19t-19.5 48zM354 664q0 27 19.5 46t48.5 19t47 -18.5t18 -47t-19 -48t-46 -19.5q-29 0 -48.5 19.5t-19.5 48.5zM354 1026 q0 27 19.5 46.5t48.5 19.5t47 -19.5t18 -46.5q0 -29 -19 -48.5t-46 -19.5q-29 0 -48.5 20.5t-19.5 47.5zM596 59.5q0 26.5 19.5 46t48 19.5t47 -19.5t18.5 -46.5q0 -29 -19.5 -48t-45.5 -19q-29 0 -48.5 20.5t-19.5 47zM596 -303q0 27 19.5 46t48 19t47 -18t18.5 -47 t-19.5 -48.5t-45.5 -19.5q-29 0 -48.5 19.5t-19.5 48.5zM596 422q0 27 19.5 46t48 19t47 -18t18.5 -47t-19.5 -48.5t-45.5 -19.5q-29 0 -48.5 19.5t-19.5 48.5zM596 1026q0 27 19.5 46.5t48 19.5t47 -19.5t18.5 -46.5q0 -29 -19.5 -48.5t-45.5 -19.5q-29 0 -48.5 20.5 t-19.5 47.5zM838 180q0 27 19.5 46.5t48 19.5t47 -18.5t18.5 -47t-19.5 -48t-46.5 -19.5q-29 0 -48 19t-19 48zM838 -182.5q0 26.5 19.5 46t48 19.5t47 -19.5t18.5 -45.5q0 -29 -19.5 -48.5t-46.5 -19.5q-29 0 -48 20.5t-19 47zM838 1026q0 27 19.5 46.5t48 19.5t47 -19.5 t18.5 -46.5q0 -29 -19.5 -48.5t-46.5 -19.5q-29 0 -48 20.5t-19 47.5z" />
<glyph unicode="&#xa8;" horiz-adv-x="604" d="M113 1026q0 27 19.5 46.5t48 19.5t47 -19.5t18.5 -46.5q0 -29 -19.5 -48.5t-46.5 -19.5q-29 0 -48 20.5t-19 47.5zM354 1026q0 27 19.5 46.5t48.5 19.5t47 -19.5t18 -46.5q0 -29 -19 -48.5t-46 -19.5q-29 0 -48.5 20.5t-19.5 47.5z" />
<glyph unicode="&#xa9;" d="M113 422q0 27 19.5 46t48 19t47 -18t18.5 -47t-19.5 -48.5t-46.5 -19.5q-29 0 -48 19.5t-19 48.5zM113 664q0 27 19.5 46t48 19t47 -18.5t18.5 -47t-19.5 -48t-46.5 -19.5q-29 0 -48 19.5t-19 48.5zM233 180q0 27 19.5 46.5t48.5 19.5q27 0 46.5 -18.5t19.5 -47 t-19.5 -48t-46.5 -19.5t-47.5 19t-20.5 48zM233 905q0 27 19.5 46.5t48.5 19.5q27 0 46.5 -18.5t19.5 -47t-19.5 -48t-46.5 -19.5t-47.5 19t-20.5 48zM354 422q0 27 19.5 46t48.5 19t47 -18t18 -47t-19 -48.5t-46 -19.5q-29 0 -48.5 19.5t-19.5 48.5zM354 664q0 27 19.5 46 t48.5 19t47 -18.5t18 -47t-19 -48t-46 -19.5q-29 0 -48.5 19.5t-19.5 48.5zM475 59.5q0 26.5 19.5 46t48.5 19.5q27 0 46 -19.5t19 -46.5q0 -29 -19.5 -48t-46 -19t-47 20.5t-20.5 47zM475 1026q0 27 19.5 46.5t48.5 19.5q27 0 46 -19.5t19 -46.5q0 -29 -19.5 -48.5 t-46 -19.5t-47 20.5t-20.5 47.5zM596 301q0 27 19.5 46.5t48 19.5t47 -19.5t18.5 -46.5q0 -29 -19.5 -48.5t-45.5 -19.5q-29 0 -48.5 20.5t-19.5 47.5zM596 784.5q0 26.5 19.5 46t48 19.5t47 -19.5t18.5 -46.5q0 -29 -19.5 -48t-45.5 -19q-29 0 -48.5 20.5t-19.5 47z M717 59.5q0 26.5 19.5 46t47.5 19.5q27 0 46.5 -19.5t19.5 -46.5q0 -29 -19.5 -48t-46 -19t-47 20.5t-20.5 47zM717 1026q0 27 19.5 46.5t47.5 19.5q27 0 46.5 -19.5t19.5 -46.5q0 -29 -19.5 -48.5t-46 -19.5t-47 20.5t-20.5 47.5zM838 422q0 27 19.5 46t48 19t47 -18 t18.5 -47t-19.5 -48.5t-46.5 -19.5q-29 0 -48 19.5t-19 48.5zM838 664q0 27 19.5 46t48 19t47 -18.5t18.5 -47t-19.5 -48t-46.5 -19.5q-29 0 -48 19.5t-19 48.5zM958 180q0 27 19.5 46.5t48.5 19.5q27 0 46.5 -18.5t19.5 -47t-19.5 -48t-46.5 -19.5t-47.5 19t-20.5 48z M958 905q0 27 19.5 46.5t48.5 19.5q27 0 46.5 -18.5t19.5 -47t-19.5 -48t-46.5 -19.5t-47.5 19t-20.5 48zM1079 422q0 27 19.5 46t48.5 19t47 -18t18 -47t-19 -48.5t-46 -19.5q-29 0 -48.5 19.5t-19.5 48.5zM1079 664q0 27 19.5 46t48.5 19t47 -18.5t18 -47t-19 -48 t-46 -19.5q-29 0 -48.5 19.5t-19.5 48.5z" />
<glyph unicode="&#xaa;" horiz-adv-x="966" d="M113 784.5q0 26.5 19.5 46t48 19.5t47 -19.5t18.5 -46.5q0 -29 -19.5 -48t-46.5 -19q-29 0 -48 20.5t-19 47zM233 542.5q0 26.5 19.5 46t48.5 19.5q27 0 46.5 -19.5t19.5 -45.5q0 -29 -19.5 -48.5t-46.5 -19.5t-47.5 20.5t-20.5 47zM233 1026q0 27 19.5 46.5t48.5 19.5 q27 0 46.5 -19.5t19.5 -46.5q0 -29 -19.5 -48.5t-46.5 -19.5t-47.5 20.5t-20.5 47.5zM475 542.5q0 26.5 19.5 46t48.5 19.5q27 0 46 -19.5t19 -45.5q0 -29 -19.5 -48.5t-46 -19.5t-47 20.5t-20.5 47zM475 1026q0 27 19.5 46.5t48.5 19.5q27 0 46 -19.5t19 -46.5 q0 -29 -19.5 -48.5t-46 -19.5t-47 20.5t-20.5 47.5zM596 784.5q0 26.5 19.5 46t48 19.5t47 -19.5t18.5 -46.5q0 -29 -19.5 -48t-45.5 -19q-29 0 -48.5 20.5t-19.5 47zM717 542.5q0 26.5 19.5 46t47.5 19.5q27 0 46.5 -19.5t19.5 -45.5q0 -29 -19.5 -48.5t-46 -19.5t-47 20.5 t-20.5 47z" />
<glyph unicode="&#xab;" horiz-adv-x="1449" d="M113 542.5q0 26.5 19.5 46t48 19.5t47 -19.5t18.5 -45.5q0 -29 -19.5 -48.5t-46.5 -19.5q-29 0 -48 20.5t-19 47zM354 301q0 27 19.5 46.5t48.5 19.5t47 -19.5t18 -46.5q0 -29 -19 -48.5t-46 -19.5q-29 0 -48.5 20.5t-19.5 47.5zM354 784.5q0 26.5 19.5 46t48.5 19.5 t47 -19.5t18 -46.5q0 -29 -19 -48t-46 -19q-29 0 -48.5 20.5t-19.5 47zM596 59.5q0 26.5 19.5 46t48 19.5t47 -19.5t18.5 -46.5q0 -29 -19.5 -48t-45.5 -19q-29 0 -48.5 20.5t-19.5 47zM596 1026q0 27 19.5 46.5t48 19.5t47 -19.5t18.5 -46.5q0 -29 -19.5 -48.5t-45.5 -19.5 q-29 0 -48.5 20.5t-19.5 47.5zM717 542.5q0 26.5 19.5 46t47.5 19.5q27 0 46.5 -19.5t19.5 -45.5q0 -29 -19.5 -48.5t-46 -19.5t-47 20.5t-20.5 47zM958 301q0 27 19.5 46.5t48.5 19.5q27 0 46.5 -19.5t19.5 -46.5q0 -29 -19.5 -48.5t-46.5 -19.5t-47.5 20.5t-20.5 47.5z M958 784.5q0 26.5 19.5 46t48.5 19.5q27 0 46.5 -19.5t19.5 -46.5q0 -29 -19.5 -48t-46.5 -19t-47.5 20.5t-20.5 47zM1200 59.5q0 26.5 19.5 46t48.5 19.5q27 0 46 -19.5t19 -46.5q0 -29 -19.5 -48t-46 -19t-47 20.5t-20.5 47zM1200 1026q0 27 19.5 46.5t48.5 19.5 q27 0 46 -19.5t19 -46.5q0 -29 -19.5 -48.5t-46 -19.5t-47 20.5t-20.5 47.5z" />
<glyph unicode="&#xac;" horiz-adv-x="966" d="M113 664q0 27 19.5 46t48 19t47 -18.5t18.5 -47t-19.5 -48t-46.5 -19.5q-29 0 -48 19.5t-19 48.5zM354 664q0 27 19.5 46t48.5 19t47 -18.5t18 -47t-19 -48t-46 -19.5q-29 0 -48.5 19.5t-19.5 48.5zM596 664q0 27 19.5 46t48 19t47 -18.5t18.5 -47t-19.5 -48t-45.5 -19.5 q-29 0 -48.5 19.5t-19.5 48.5zM717 422q0 27 19.5 46t47.5 19q27 0 46.5 -18t19.5 -47t-19.5 -48.5t-46 -19.5t-47 19.5t-20.5 48.5z" />
<glyph unicode="&#xad;" horiz-adv-x="1087" d="M113 542.5q0 26.5 19.5 46t48 19.5t47 -19.5t18.5 -45.5q0 -29 -19.5 -48.5t-46.5 -19.5q-29 0 -48 20.5t-19 47zM354 542.5q0 26.5 19.5 46t48.5 19.5t47 -19.5t18 -45.5q0 -29 -19 -48.5t-46 -19.5q-29 0 -48.5 20.5t-19.5 47zM596 542.5q0 26.5 19.5 46t48 19.5 t47 -19.5t18.5 -45.5q0 -29 -19.5 -48.5t-45.5 -19.5q-29 0 -48.5 20.5t-19.5 47zM838 542.5q0 26.5 19.5 46t48 19.5t47 -19.5t18.5 -45.5q0 -29 -19.5 -48.5t-46.5 -19.5q-29 0 -48 20.5t-19 47z" />
<glyph unicode="&#xae;" d="M113 422q0 27 19.5 46t48 19t47 -18t18.5 -47t-19.5 -48.5t-46.5 -19.5q-29 0 -48 19.5t-19 48.5zM113 664q0 27 19.5 46t48 19t47 -18.5t18.5 -47t-19.5 -48t-46.5 -19.5q-29 0 -48 19.5t-19 48.5zM233 180q0 27 19.5 46.5t48.5 19.5q27 0 46.5 -18.5t19.5 -47 t-19.5 -48t-46.5 -19.5t-47.5 19t-20.5 48zM233 905q0 27 19.5 46.5t48.5 19.5q27 0 46.5 -18.5t19.5 -47t-19.5 -48t-46.5 -19.5t-47.5 19t-20.5 48zM475 59.5q0 26.5 19.5 46t48.5 19.5q27 0 46 -19.5t19 -46.5q0 -29 -19.5 -48t-46 -19t-47 20.5t-20.5 47zM475 301 q0 27 19.5 46.5t48.5 19.5q27 0 46 -19.5t19 -46.5q0 -29 -19.5 -48.5t-46 -19.5t-47 20.5t-20.5 47.5zM475 542.5q0 26.5 19.5 46t48.5 19.5q27 0 46 -19.5t19 -45.5q0 -29 -19.5 -48.5t-46 -19.5t-47 20.5t-20.5 47zM475 784.5q0 26.5 19.5 46t48.5 19.5q27 0 46 -19.5 t19 -46.5q0 -29 -19.5 -48t-46 -19t-47 20.5t-20.5 47zM475 1026q0 27 19.5 46.5t48.5 19.5q27 0 46 -19.5t19 -46.5q0 -29 -19.5 -48.5t-46 -19.5t-47 20.5t-20.5 47.5zM717 59.5q0 26.5 19.5 46t47.5 19.5q27 0 46.5 -19.5t19.5 -46.5q0 -29 -19.5 -48t-46 -19t-47 20.5 t-20.5 47zM717 542.5q0 26.5 19.5 46t47.5 19.5q27 0 46.5 -19.5t19.5 -45.5q0 -29 -19.5 -48.5t-46 -19.5t-47 20.5t-20.5 47zM717 784.5q0 26.5 19.5 46t47.5 19.5q27 0 46.5 -19.5t19.5 -46.5q0 -29 -19.5 -48t-46 -19t-47 20.5t-20.5 47zM717 1026q0 27 19.5 46.5 t47.5 19.5q27 0 46.5 -19.5t19.5 -46.5q0 -29 -19.5 -48.5t-46 -19.5t-47 20.5t-20.5 47.5zM838 422q0 27 19.5 46t48 19t47 -18t18.5 -47t-19.5 -48.5t-46.5 -19.5q-29 0 -48 19.5t-19 48.5zM958 180q0 27 19.5 46.5t48.5 19.5q27 0 46.5 -18.5t19.5 -47t-19.5 -48 t-46.5 -19.5t-47.5 19t-20.5 48zM958 905q0 27 19.5 46.5t48.5 19.5q27 0 46.5 -18.5t19.5 -47t-19.5 -48t-46.5 -19.5t-47.5 19t-20.5 48zM1079 422q0 27 19.5 46t48.5 19t47 -18t18 -47t-19 -48.5t-46 -19.5q-29 0 -48.5 19.5t-19.5 48.5zM1079 664q0 27 19.5 46t48.5 19 t47 -18.5t18 -47t-19 -48t-46 -19.5q-29 0 -48.5 19.5t-19.5 48.5z" />
<glyph unicode="&#xaf;" horiz-adv-x="845" d="M113 1026q0 27 19.5 46.5t48 19.5t47 -19.5t18.5 -46.5q0 -29 -19.5 -48.5t-46.5 -19.5q-29 0 -48 20.5t-19 47.5zM354 1026q0 27 19.5 46.5t48.5 19.5t47 -19.5t18 -46.5q0 -29 -19 -48.5t-46 -19.5q-29 0 -48.5 20.5t-19.5 47.5zM596 1026q0 27 19.5 46.5t48 19.5 t47 -19.5t18.5 -46.5q0 -29 -19.5 -48.5t-45.5 -19.5q-29 0 -48.5 20.5t-19.5 47.5z" />
<glyph unicode="&#xb0;" horiz-adv-x="966" d="M113 784.5q0 26.5 19.5 46t48 19.5t47 -19.5t18.5 -46.5q0 -29 -19.5 -48t-46.5 -19q-29 0 -48 20.5t-19 47zM233 542.5q0 26.5 19.5 46t48.5 19.5q27 0 46.5 -19.5t19.5 -45.5q0 -29 -19.5 -48.5t-46.5 -19.5t-47.5 20.5t-20.5 47zM233 1026q0 27 19.5 46.5t48.5 19.5 q27 0 46.5 -19.5t19.5 -46.5q0 -29 -19.5 -48.5t-46.5 -19.5t-47.5 20.5t-20.5 47.5zM475 542.5q0 26.5 19.5 46t48.5 19.5q27 0 46 -19.5t19 -45.5q0 -29 -19.5 -48.5t-46 -19.5t-47 20.5t-20.5 47zM475 1026q0 27 19.5 46.5t48.5 19.5q27 0 46 -19.5t19 -46.5 q0 -29 -19.5 -48.5t-46 -19.5t-47 20.5t-20.5 47.5zM596 784.5q0 26.5 19.5 46t48 19.5t47 -19.5t18.5 -46.5q0 -29 -19.5 -48t-45.5 -19q-29 0 -48.5 20.5t-19.5 47z" />
<glyph unicode="&#xb1;" horiz-adv-x="845" d="M113 180q0 27 19.5 46.5t48 19.5t47 -18.5t18.5 -47t-19.5 -48t-46.5 -19.5q-29 0 -48 19t-19 48zM113 664q0 27 19.5 46t48 19t47 -18.5t18.5 -47t-19.5 -48t-46.5 -19.5q-29 0 -48 19.5t-19 48.5zM354 180q0 27 19.5 46.5t48.5 19.5t47 -18.5t18 -47t-19 -48t-46 -19.5 q-29 0 -48.5 19t-19.5 48zM354 422q0 27 19.5 46t48.5 19t47 -18t18 -47t-19 -48.5t-46 -19.5q-29 0 -48.5 19.5t-19.5 48.5zM354 664q0 27 19.5 46t48.5 19t47 -18.5t18 -47t-19 -48t-46 -19.5q-29 0 -48.5 19.5t-19.5 48.5zM354 905q0 27 19.5 46.5t48.5 19.5t47 -18.5 t18 -47t-19 -48t-46 -19.5q-29 0 -48.5 19t-19.5 48zM596 180q0 27 19.5 46.5t48 19.5t47 -18.5t18.5 -47t-19.5 -48t-45.5 -19.5q-29 0 -48.5 19t-19.5 48zM596 664q0 27 19.5 46t48 19t47 -18.5t18.5 -47t-19.5 -48t-45.5 -19.5q-29 0 -48.5 19.5t-19.5 48.5z" />
<glyph unicode="&#xb2;" horiz-adv-x="966" d="M113 542.5q0 26.5 19.5 46t48 19.5t47 -19.5t18.5 -45.5q0 -29 -19.5 -48.5t-46.5 -19.5q-29 0 -48 20.5t-19 47zM113 905q0 27 19.5 46.5t48 19.5t47 -18.5t18.5 -47t-19.5 -48t-46.5 -19.5q-29 0 -48 19t-19 48zM354 542.5q0 26.5 19.5 46t48.5 19.5t47 -19.5t18 -45.5 q0 -29 -19 -48.5t-46 -19.5q-29 0 -48.5 20.5t-19.5 47zM354 784.5q0 26.5 19.5 46t48.5 19.5t47 -19.5t18 -46.5q0 -29 -19 -48t-46 -19q-29 0 -48.5 20.5t-19.5 47zM354 1026q0 27 19.5 46.5t48.5 19.5t47 -19.5t18 -46.5q0 -29 -19 -48.5t-46 -19.5q-29 0 -48.5 20.5 t-19.5 47.5zM596 542.5q0 26.5 19.5 46t48 19.5t47 -19.5t18.5 -45.5q0 -29 -19.5 -48.5t-45.5 -19.5q-29 0 -48.5 20.5t-19.5 47zM596 905q0 27 19.5 46.5t48 19.5t47 -18.5t18.5 -47t-19.5 -48t-45.5 -19.5q-29 0 -48.5 19t-19.5 48z" />
<glyph unicode="&#xb3;" horiz-adv-x="845" d="M113 542.5q0 26.5 19.5 46t48 19.5t47 -19.5t18.5 -45.5q0 -29 -19.5 -48.5t-46.5 -19.5q-29 0 -48 20.5t-19 47zM113 1026q0 27 19.5 46.5t48 19.5t47 -19.5t18.5 -46.5q0 -29 -19.5 -48.5t-46.5 -19.5q-29 0 -48 20.5t-19 47.5zM354 542.5q0 26.5 19.5 46t48.5 19.5 t47 -19.5t18 -45.5q0 -29 -19 -48.5t-46 -19.5q-29 0 -48.5 20.5t-19.5 47zM354 784.5q0 26.5 19.5 46t48.5 19.5t47 -19.5t18 -46.5q0 -29 -19 -48t-46 -19q-29 0 -48.5 20.5t-19.5 47zM354 1026q0 27 19.5 46.5t48.5 19.5t47 -19.5t18 -46.5q0 -29 -19 -48.5t-46 -19.5 q-29 0 -48.5 20.5t-19.5 47.5zM596 664q0 27 19.5 46t48 19t47 -18.5t18.5 -47t-19.5 -48t-45.5 -19.5q-29 0 -48.5 19.5t-19.5 48.5zM596 905q0 27 19.5 46.5t48 19.5t47 -18.5t18.5 -47t-19.5 -48t-45.5 -19.5q-29 0 -48.5 19t-19.5 48z" />
<glyph unicode="&#xb4;" horiz-adv-x="604" d="M113 905q0 27 19.5 46.5t48 19.5t47 -18.5t18.5 -47t-19.5 -48t-46.5 -19.5q-29 0 -48 19t-19 48zM354 1026q0 27 19.5 46.5t48.5 19.5t47 -19.5t18 -46.5q0 -29 -19 -48.5t-46 -19.5q-29 0 -48.5 20.5t-19.5 47.5z" />
<glyph unicode="&#xb5;" d="M113 59.5q0 26.5 19.5 46t48 19.5t47 -19.5t18.5 -46.5q0 -29 -19.5 -48t-46.5 -19q-29 0 -48 20.5t-19 47zM113 -182.5q0 26.5 19.5 46t48 19.5t47 -19.5t18.5 -45.5q0 -29 -19.5 -48.5t-46.5 -19.5q-29 0 -48 20.5t-19 47zM113 301q0 27 19.5 46.5t48 19.5t47 -19.5 t18.5 -46.5q0 -29 -19.5 -48.5t-46.5 -19.5q-29 0 -48 20.5t-19 47.5zM113 542.5q0 26.5 19.5 46t48 19.5t47 -19.5t18.5 -45.5q0 -29 -19.5 -48.5t-46.5 -19.5q-29 0 -48 20.5t-19 47zM113 784.5q0 26.5 19.5 46t48 19.5t47 -19.5t18.5 -46.5q0 -29 -19.5 -48t-46.5 -19 q-29 0 -48 20.5t-19 47zM113 1026q0 27 19.5 46.5t48 19.5t47 -19.5t18.5 -46.5q0 -29 -19.5 -48.5t-46.5 -19.5q-29 0 -48 20.5t-19 47.5zM354 180q0 27 19.5 46.5t48.5 19.5t47 -18.5t18 -47t-19 -48t-46 -19.5q-29 0 -48.5 19t-19.5 48zM596 59.5q0 26.5 19.5 46t48 19.5 t47 -19.5t18.5 -46.5q0 -29 -19.5 -48t-45.5 -19q-29 0 -48.5 20.5t-19.5 47zM838 180q0 27 19.5 46.5t48 19.5t47 -18.5t18.5 -47t-19.5 -48t-46.5 -19.5q-29 0 -48 19t-19 48zM1079 59.5q0 26.5 19.5 46t48.5 19.5t47 -19.5t18 -46.5q0 -29 -19 -48t-46 -19 q-29 0 -48.5 20.5t-19.5 47zM1079 301q0 27 19.5 46.5t48.5 19.5t47 -19.5t18 -46.5q0 -29 -19 -48.5t-46 -19.5q-29 0 -48.5 20.5t-19.5 47.5zM1079 542.5q0 26.5 19.5 46t48.5 19.5t47 -19.5t18 -45.5q0 -29 -19 -48.5t-46 -19.5q-29 0 -48.5 20.5t-19.5 47zM1079 784.5 q0 26.5 19.5 46t48.5 19.5t47 -19.5t18 -46.5q0 -29 -19 -48t-46 -19q-29 0 -48.5 20.5t-19.5 47zM1079 1026q0 27 19.5 46.5t48.5 19.5t47 -19.5t18 -46.5q0 -29 -19 -48.5t-46 -19.5q-29 0 -48.5 20.5t-19.5 47.5z" />
<glyph unicode="&#x3bc;" d="M113 59.5q0 26.5 19.5 46t48 19.5t47 -19.5t18.5 -46.5q0 -29 -19.5 -48t-46.5 -19q-29 0 -48 20.5t-19 47zM113 -182.5q0 26.5 19.5 46t48 19.5t47 -19.5t18.5 -45.5q0 -29 -19.5 -48.5t-46.5 -19.5q-29 0 -48 20.5t-19 47zM113 301q0 27 19.5 46.5t48 19.5t47 -19.5 t18.5 -46.5q0 -29 -19.5 -48.5t-46.5 -19.5q-29 0 -48 20.5t-19 47.5zM113 542.5q0 26.5 19.5 46t48 19.5t47 -19.5t18.5 -45.5q0 -29 -19.5 -48.5t-46.5 -19.5q-29 0 -48 20.5t-19 47zM113 784.5q0 26.5 19.5 46t48 19.5t47 -19.5t18.5 -46.5q0 -29 -19.5 -48t-46.5 -19 q-29 0 -48 20.5t-19 47zM113 1026q0 27 19.5 46.5t48 19.5t47 -19.5t18.5 -46.5q0 -29 -19.5 -48.5t-46.5 -19.5q-29 0 -48 20.5t-19 47.5zM354 180q0 27 19.5 46.5t48.5 19.5t47 -18.5t18 -47t-19 -48t-46 -19.5q-29 0 -48.5 19t-19.5 48zM596 59.5q0 26.5 19.5 46t48 19.5 t47 -19.5t18.5 -46.5q0 -29 -19.5 -48t-45.5 -19q-29 0 -48.5 20.5t-19.5 47zM838 180q0 27 19.5 46.5t48 19.5t47 -18.5t18.5 -47t-19.5 -48t-46.5 -19.5q-29 0 -48 19t-19 48zM1079 59.5q0 26.5 19.5 46t48.5 19.5t47 -19.5t18 -46.5q0 -29 -19 -48t-46 -19 q-29 0 -48.5 20.5t-19.5 47zM1079 301q0 27 19.5 46.5t48.5 19.5t47 -19.5t18 -46.5q0 -29 -19 -48.5t-46 -19.5q-29 0 -48.5 20.5t-19.5 47.5zM1079 542.5q0 26.5 19.5 46t48.5 19.5t47 -19.5t18 -45.5q0 -29 -19 -48.5t-46 -19.5q-29 0 -48.5 20.5t-19.5 47zM1079 784.5 q0 26.5 19.5 46t48.5 19.5t47 -19.5t18 -46.5q0 -29 -19 -48t-46 -19q-29 0 -48.5 20.5t-19.5 47zM1079 1026q0 27 19.5 46.5t48.5 19.5t47 -19.5t18 -46.5q0 -29 -19 -48.5t-46 -19.5q-29 0 -48.5 20.5t-19.5 47.5z" />
<glyph unicode="&#xb6;" d="M113 664q0 27 19.5 46t48 19t47 -18.5t18.5 -47t-19.5 -48t-46.5 -19.5q-29 0 -48 19.5t-19 48.5zM113 905q0 27 19.5 46.5t48 19.5t47 -18.5t18.5 -47t-19.5 -48t-46.5 -19.5q-29 0 -48 19t-19 48zM354 542.5q0 26.5 19.5 46t48.5 19.5t47 -19.5t18 -45.5 q0 -29 -19 -48.5t-46 -19.5q-29 0 -48.5 20.5t-19.5 47zM354 1026q0 27 19.5 46.5t48.5 19.5t47 -19.5t18 -46.5q0 -29 -19 -48.5t-46 -19.5q-29 0 -48.5 20.5t-19.5 47.5zM596 59.5q0 26.5 19.5 46t48 19.5t47 -19.5t18.5 -46.5q0 -29 -19.5 -48t-45.5 -19 q-29 0 -48.5 20.5t-19.5 47zM596 -182.5q0 26.5 19.5 46t48 19.5t47 -19.5t18.5 -45.5q0 -29 -19.5 -48.5t-45.5 -19.5q-29 0 -48.5 20.5t-19.5 47zM596 301q0 27 19.5 46.5t48 19.5t47 -19.5t18.5 -46.5q0 -29 -19.5 -48.5t-45.5 -19.5q-29 0 -48.5 20.5t-19.5 47.5z M596 542.5q0 26.5 19.5 46t48 19.5t47 -19.5t18.5 -45.5q0 -29 -19.5 -48.5t-45.5 -19.5q-29 0 -48.5 20.5t-19.5 47zM596 784.5q0 26.5 19.5 46t48 19.5t47 -19.5t18.5 -46.5q0 -29 -19.5 -48t-45.5 -19q-29 0 -48.5 20.5t-19.5 47zM596 1026q0 27 19.5 46.5t48 19.5 t47 -19.5t18.5 -46.5q0 -29 -19.5 -48.5t-45.5 -19.5q-29 0 -48.5 20.5t-19.5 47.5zM838 59.5q0 26.5 19.5 46t48 19.5t47 -19.5t18.5 -46.5q0 -29 -19.5 -48t-46.5 -19q-29 0 -48 20.5t-19 47zM838 -182.5q0 26.5 19.5 46t48 19.5t47 -19.5t18.5 -45.5q0 -29 -19.5 -48.5 t-46.5 -19.5q-29 0 -48 20.5t-19 47zM838 301q0 27 19.5 46.5t48 19.5t47 -19.5t18.5 -46.5q0 -29 -19.5 -48.5t-46.5 -19.5q-29 0 -48 20.5t-19 47.5zM838 542.5q0 26.5 19.5 46t48 19.5t47 -19.5t18.5 -45.5q0 -29 -19.5 -48.5t-46.5 -19.5q-29 0 -48 20.5t-19 47z M838 784.5q0 26.5 19.5 46t48 19.5t47 -19.5t18.5 -46.5q0 -29 -19.5 -48t-46.5 -19q-29 0 -48 20.5t-19 47zM838 1026q0 27 19.5 46.5t48 19.5t47 -19.5t18.5 -46.5q0 -29 -19.5 -48.5t-46.5 -19.5q-29 0 -48 20.5t-19 47.5zM1079 1026q0 27 19.5 46.5t48.5 19.5t47 -19.5 t18 -46.5q0 -29 -19 -48.5t-46 -19.5q-29 0 -48.5 20.5t-19.5 47.5z" />
<glyph unicode="&#xb7;" horiz-adv-x="362" d="M113 542.5q0 26.5 19.5 46t48 19.5t47 -19.5t18.5 -45.5q0 -29 -19.5 -48.5t-46.5 -19.5q-29 0 -48 20.5t-19 47z" />
<glyph unicode="&#xb8;" horiz-adv-x="604" d="M113 -303q0 27 19.5 46t48 19t47 -18t18.5 -47t-19.5 -48.5t-46.5 -19.5q-29 0 -48 19.5t-19 48.5zM354 -182.5q0 26.5 19.5 46t48.5 19.5t47 -19.5t18 -45.5q0 -29 -19 -48.5t-46 -19.5q-29 0 -48.5 20.5t-19.5 47z" />
<glyph unicode="&#xb9;" horiz-adv-x="845" d="M113 542.5q0 26.5 19.5 46t48 19.5t47 -19.5t18.5 -45.5q0 -29 -19.5 -48.5t-46.5 -19.5q-29 0 -48 20.5t-19 47zM113 905q0 27 19.5 46.5t48 19.5t47 -18.5t18.5 -47t-19.5 -48t-46.5 -19.5q-29 0 -48 19t-19 48zM354 542.5q0 26.5 19.5 46t48.5 19.5t47 -19.5t18 -45.5 q0 -29 -19 -48.5t-46 -19.5q-29 0 -48.5 20.5t-19.5 47zM354 784.5q0 26.5 19.5 46t48.5 19.5t47 -19.5t18 -46.5q0 -29 -19 -48t-46 -19q-29 0 -48.5 20.5t-19.5 47zM354 1026q0 27 19.5 46.5t48.5 19.5t47 -19.5t18 -46.5q0 -29 -19 -48.5t-46 -19.5q-29 0 -48.5 20.5 t-19.5 47.5zM596 542.5q0 26.5 19.5 46t48 19.5t47 -19.5t18.5 -45.5q0 -29 -19.5 -48.5t-45.5 -19.5q-29 0 -48.5 20.5t-19.5 47z" />
<glyph unicode="&#xba;" horiz-adv-x="845" d="M113 784.5q0 26.5 19.5 46t48 19.5t47 -19.5t18.5 -46.5q0 -29 -19.5 -48t-46.5 -19q-29 0 -48 20.5t-19 47zM233 542.5q0 26.5 19.5 46t48.5 19.5q27 0 46.5 -19.5t19.5 -45.5q0 -29 -19.5 -48.5t-46.5 -19.5t-47.5 20.5t-20.5 47zM233 1026q0 27 19.5 46.5t48.5 19.5 q27 0 46.5 -19.5t19.5 -46.5q0 -29 -19.5 -48.5t-46.5 -19.5t-47.5 20.5t-20.5 47.5zM475 542.5q0 26.5 19.5 46t48.5 19.5q27 0 46 -19.5t19 -45.5q0 -29 -19.5 -48.5t-46 -19.5t-47 20.5t-20.5 47zM475 1026q0 27 19.5 46.5t48.5 19.5q27 0 46 -19.5t19 -46.5 q0 -29 -19.5 -48.5t-46 -19.5t-47 20.5t-20.5 47.5zM596 784.5q0 26.5 19.5 46t48 19.5t47 -19.5t18.5 -46.5q0 -29 -19.5 -48t-45.5 -19q-29 0 -48.5 20.5t-19.5 47z" />
<glyph unicode="&#xbb;" horiz-adv-x="1449" d="M113 59.5q0 26.5 19.5 46t48 19.5t47 -19.5t18.5 -46.5q0 -29 -19.5 -48t-46.5 -19q-29 0 -48 20.5t-19 47zM113 1026q0 27 19.5 46.5t48 19.5t47 -19.5t18.5 -46.5q0 -29 -19.5 -48.5t-46.5 -19.5q-29 0 -48 20.5t-19 47.5zM354 301q0 27 19.5 46.5t48.5 19.5t47 -19.5 t18 -46.5q0 -29 -19 -48.5t-46 -19.5q-29 0 -48.5 20.5t-19.5 47.5zM354 784.5q0 26.5 19.5 46t48.5 19.5t47 -19.5t18 -46.5q0 -29 -19 -48t-46 -19q-29 0 -48.5 20.5t-19.5 47zM596 542.5q0 26.5 19.5 46t48 19.5t47 -19.5t18.5 -45.5q0 -29 -19.5 -48.5t-45.5 -19.5 q-29 0 -48.5 20.5t-19.5 47zM717 59.5q0 26.5 19.5 46t47.5 19.5q27 0 46.5 -19.5t19.5 -46.5q0 -29 -19.5 -48t-46 -19t-47 20.5t-20.5 47zM717 1026q0 27 19.5 46.5t47.5 19.5q27 0 46.5 -19.5t19.5 -46.5q0 -29 -19.5 -48.5t-46 -19.5t-47 20.5t-20.5 47.5zM958 301 q0 27 19.5 46.5t48.5 19.5q27 0 46.5 -19.5t19.5 -46.5q0 -29 -19.5 -48.5t-46.5 -19.5t-47.5 20.5t-20.5 47.5zM958 784.5q0 26.5 19.5 46t48.5 19.5q27 0 46.5 -19.5t19.5 -46.5q0 -29 -19.5 -48t-46.5 -19t-47.5 20.5t-20.5 47zM1200 542.5q0 26.5 19.5 46t48.5 19.5 q27 0 46 -19.5t19 -45.5q0 -29 -19.5 -48.5t-46 -19.5t-47 20.5t-20.5 47z" />
<glyph unicode="&#xbc;" horiz-adv-x="1933" d="M113 542.5q0 26.5 19.5 46t48 19.5t47 -19.5t18.5 -45.5q0 -29 -19.5 -48.5t-46.5 -19.5q-29 0 -48 20.5t-19 47zM113 905q0 27 19.5 46.5t48 19.5t47 -18.5t18.5 -47t-19.5 -48t-46.5 -19.5q-29 0 -48 19t-19 48zM354 59.5q0 26.5 19.5 46t48.5 19.5t47 -19.5t18 -46.5 q0 -29 -19 -48t-46 -19q-29 0 -48.5 20.5t-19.5 47zM354 542.5q0 26.5 19.5 46t48.5 19.5t47 -19.5t18 -45.5q0 -29 -19 -48.5t-46 -19.5q-29 0 -48.5 20.5t-19.5 47zM354 784.5q0 26.5 19.5 46t48.5 19.5t47 -19.5t18 -46.5q0 -29 -19 -48t-46 -19q-29 0 -48.5 20.5 t-19.5 47zM354 1026q0 27 19.5 46.5t48.5 19.5t47 -19.5t18 -46.5q0 -29 -19 -48.5t-46 -19.5q-29 0 -48.5 20.5t-19.5 47.5zM596 301q0 27 19.5 46.5t48 19.5t47 -19.5t18.5 -46.5q0 -29 -19.5 -48.5t-45.5 -19.5q-29 0 -48.5 20.5t-19.5 47.5zM596 542.5q0 26.5 19.5 46 t48 19.5t47 -19.5t18.5 -45.5q0 -29 -19.5 -48.5t-45.5 -19.5q-29 0 -48.5 20.5t-19.5 47zM838 542.5q0 26.5 19.5 46t48 19.5t47 -19.5t18.5 -45.5q0 -29 -19.5 -48.5t-46.5 -19.5q-29 0 -48 20.5t-19 47zM1079 59.5q0 26.5 19.5 46t48.5 19.5t47 -19.5t18 -46.5 q0 -29 -19 -48t-46 -19q-29 0 -48.5 20.5t-19.5 47zM1079 784.5q0 26.5 19.5 46t48.5 19.5t47 -19.5t18 -46.5q0 -29 -19 -48t-46 -19q-29 0 -48.5 20.5t-19.5 47zM1200 301q0 27 19.5 46.5t48.5 19.5q27 0 46 -19.5t19 -46.5q0 -29 -19.5 -48.5t-46 -19.5t-47 20.5 t-20.5 47.5zM1321 1026q0 27 19.5 46.5t48 19.5t47 -19.5t18.5 -46.5q0 -29 -19.5 -48.5t-45.5 -19.5q-29 0 -48.5 20.5t-19.5 47.5zM1442 59.5q0 26.5 19.5 46t47.5 19.5q27 0 46.5 -19.5t19.5 -46.5q0 -29 -19.5 -48t-46 -19t-47 20.5t-20.5 47zM1442 -182.5 q0 26.5 19.5 46t47.5 19.5q27 0 46.5 -19.5t19.5 -45.5q0 -29 -19.5 -48.5t-46 -19.5t-47 20.5t-20.5 47zM1442 301q0 27 19.5 46.5t47.5 19.5q27 0 46.5 -19.5t19.5 -46.5q0 -29 -19.5 -48.5t-46 -19.5t-47 20.5t-20.5 47.5zM1442 542.5q0 26.5 19.5 46t47.5 19.5 q27 0 46.5 -19.5t19.5 -45.5q0 -29 -19.5 -48.5t-46 -19.5t-47 20.5t-20.5 47zM1683 59.5q0 26.5 19.5 46t48.5 19.5q27 0 46.5 -19.5t19.5 -46.5q0 -29 -19.5 -48t-46.5 -19t-47.5 20.5t-20.5 47z" />
<glyph unicode="&#xbd;" horiz-adv-x="1812" d="M113 542.5q0 26.5 19.5 46t48 19.5t47 -19.5t18.5 -45.5q0 -29 -19.5 -48.5t-46.5 -19.5q-29 0 -48 20.5t-19 47zM113 905q0 27 19.5 46.5t48 19.5t47 -18.5t18.5 -47t-19.5 -48t-46.5 -19.5q-29 0 -48 19t-19 48zM354 59.5q0 26.5 19.5 46t48.5 19.5t47 -19.5t18 -46.5 q0 -29 -19 -48t-46 -19q-29 0 -48.5 20.5t-19.5 47zM354 542.5q0 26.5 19.5 46t48.5 19.5t47 -19.5t18 -45.5q0 -29 -19 -48.5t-46 -19.5q-29 0 -48.5 20.5t-19.5 47zM354 784.5q0 26.5 19.5 46t48.5 19.5t47 -19.5t18 -46.5q0 -29 -19 -48t-46 -19q-29 0 -48.5 20.5 t-19.5 47zM354 1026q0 27 19.5 46.5t48.5 19.5t47 -19.5t18 -46.5q0 -29 -19 -48.5t-46 -19.5q-29 0 -48.5 20.5t-19.5 47.5zM596 301q0 27 19.5 46.5t48 19.5t47 -19.5t18.5 -46.5q0 -29 -19.5 -48.5t-45.5 -19.5q-29 0 -48.5 20.5t-19.5 47.5zM596 542.5q0 26.5 19.5 46 t48 19.5t47 -19.5t18.5 -45.5q0 -29 -19.5 -48.5t-45.5 -19.5q-29 0 -48.5 20.5t-19.5 47zM838 542.5q0 26.5 19.5 46t48 19.5t47 -19.5t18.5 -45.5q0 -29 -19.5 -48.5t-46.5 -19.5q-29 0 -48 20.5t-19 47zM1079 59.5q0 26.5 19.5 46t48.5 19.5t47 -19.5t18 -46.5 q0 -29 -19 -48t-46 -19q-29 0 -48.5 20.5t-19.5 47zM1079 422q0 27 19.5 46t48.5 19t47 -18t18 -47t-19 -48.5t-46 -19.5q-29 0 -48.5 19.5t-19.5 48.5zM1079 784.5q0 26.5 19.5 46t48.5 19.5t47 -19.5t18 -46.5q0 -29 -19 -48t-46 -19q-29 0 -48.5 20.5t-19.5 47z M1321 59.5q0 26.5 19.5 46t48 19.5t47 -19.5t18.5 -46.5q0 -29 -19.5 -48t-45.5 -19q-29 0 -48.5 20.5t-19.5 47zM1321 301q0 27 19.5 46.5t48 19.5t47 -19.5t18.5 -46.5q0 -29 -19.5 -48.5t-45.5 -19.5q-29 0 -48.5 20.5t-19.5 47.5zM1321 542.5q0 26.5 19.5 46t48 19.5 t47 -19.5t18.5 -45.5q0 -29 -19.5 -48.5t-45.5 -19.5q-29 0 -48.5 20.5t-19.5 47zM1321 1026q0 27 19.5 46.5t48 19.5t47 -19.5t18.5 -46.5q0 -29 -19.5 -48.5t-45.5 -19.5q-29 0 -48.5 20.5t-19.5 47.5zM1563 59.5q0 26.5 19.5 46t48 19.5t47 -19.5t18.5 -46.5 q0 -29 -19.5 -48t-46.5 -19q-29 0 -48 20.5t-19 47zM1563 422q0 27 19.5 46t48 19t47 -18t18.5 -47t-19.5 -48.5t-46.5 -19.5q-29 0 -48 19.5t-19 48.5z" />
<glyph unicode="&#xbe;" horiz-adv-x="2054" d="M233 542.5q0 26.5 19.5 46t48.5 19.5q27 0 46.5 -19.5t19.5 -45.5q0 -29 -19.5 -48.5t-46.5 -19.5t-47.5 20.5t-20.5 47zM233 1026q0 27 19.5 46.5t48.5 19.5q27 0 46.5 -19.5t19.5 -46.5q0 -29 -19.5 -48.5t-46.5 -19.5t-47.5 20.5t-20.5 47.5zM475 59.5q0 26.5 19.5 46 t48.5 19.5q27 0 46 -19.5t19 -46.5q0 -29 -19.5 -48t-46 -19t-47 20.5t-20.5 47zM475 542.5q0 26.5 19.5 46t48.5 19.5q27 0 46 -19.5t19 -45.5q0 -29 -19.5 -48.5t-46 -19.5t-47 20.5t-20.5 47zM475 784.5q0 26.5 19.5 46t48.5 19.5q27 0 46 -19.5t19 -46.5 q0 -29 -19.5 -48t-46 -19t-47 20.5t-20.5 47zM475 1026q0 27 19.5 46.5t48.5 19.5q27 0 46 -19.5t19 -46.5q0 -29 -19.5 -48.5t-46 -19.5t-47 20.5t-20.5 47.5zM717 301q0 27 19.5 46.5t47.5 19.5q27 0 46.5 -19.5t19.5 -46.5q0 -29 -19.5 -48.5t-46 -19.5t-47 20.5 t-20.5 47.5zM717 664q0 27 19.5 46t47.5 19q27 0 46.5 -18.5t19.5 -47t-19.5 -48t-46 -19.5t-47 19.5t-20.5 48.5zM717 905q0 27 19.5 46.5t47.5 19.5q27 0 46.5 -18.5t19.5 -47t-19.5 -48t-46 -19.5t-47 19t-20.5 48zM958 542.5q0 26.5 19.5 46t48.5 19.5q27 0 46.5 -19.5 t19.5 -45.5q0 -29 -19.5 -48.5t-46.5 -19.5t-47.5 20.5t-20.5 47zM1200 59.5q0 26.5 19.5 46t48.5 19.5q27 0 46 -19.5t19 -46.5q0 -29 -19.5 -48t-46 -19t-47 20.5t-20.5 47zM1200 784.5q0 26.5 19.5 46t48.5 19.5q27 0 46 -19.5t19 -46.5q0 -29 -19.5 -48t-46 -19 t-47 20.5t-20.5 47zM1321 301q0 27 19.5 46.5t48 19.5t47 -19.5t18.5 -46.5q0 -29 -19.5 -48.5t-45.5 -19.5q-29 0 -48.5 20.5t-19.5 47.5zM1442 1026q0 27 19.5 46.5t47.5 19.5q27 0 46.5 -19.5t19.5 -46.5q0 -29 -19.5 -48.5t-46 -19.5t-47 20.5t-20.5 47.5zM1563 59.5 q0 26.5 19.5 46t48 19.5t47 -19.5t18.5 -46.5q0 -29 -19.5 -48t-46.5 -19q-29 0 -48 20.5t-19 47zM1563 -182.5q0 26.5 19.5 46t48 19.5t47 -19.5t18.5 -45.5q0 -29 -19.5 -48.5t-46.5 -19.5q-29 0 -48 20.5t-19 47zM1563 301q0 27 19.5 46.5t48 19.5t47 -19.5t18.5 -46.5 q0 -29 -19.5 -48.5t-46.5 -19.5q-29 0 -48 20.5t-19 47.5zM1563 542.5q0 26.5 19.5 46t48 19.5t47 -19.5t18.5 -45.5q0 -29 -19.5 -48.5t-46.5 -19.5q-29 0 -48 20.5t-19 47zM1804 59.5q0 26.5 19.5 46t48.5 19.5t47 -19.5t18 -46.5q0 -29 -19.5 -48t-45.5 -19 q-29 0 -48.5 20.5t-19.5 47z" />
<glyph unicode="&#xbf;" horiz-adv-x="845" d="M113 -61q0 27 19.5 46t48 19t47 -18.5t18.5 -47t-19.5 -48t-46.5 -19.5q-29 0 -48 19.5t-19 48.5zM113 180q0 27 19.5 46.5t48 19.5t47 -18.5t18.5 -47t-19.5 -48t-46.5 -19.5q-29 0 -48 19t-19 48zM354 -182.5q0 26.5 19.5 46t48.5 19.5t47 -19.5t18 -45.5 q0 -29 -19 -48.5t-46 -19.5q-29 0 -48.5 20.5t-19.5 47zM354 422q0 27 19.5 46t48.5 19t47 -18t18 -47t-19 -48.5t-46 -19.5q-29 0 -48.5 19.5t-19.5 48.5zM354 784.5q0 26.5 19.5 46t48.5 19.5t47 -19.5t18 -46.5q0 -29 -19 -48t-46 -19q-29 0 -48.5 20.5t-19.5 47z M596 -61q0 27 19.5 46t48 19t47 -18.5t18.5 -47t-19.5 -48t-45.5 -19.5q-29 0 -48.5 19.5t-19.5 48.5z" />
<glyph unicode="&#xc0;" d="M113 59.5q0 26.5 19.5 46t48 19.5t47 -19.5t18.5 -46.5q0 -29 -19.5 -48t-46.5 -19q-29 0 -48 20.5t-19 47zM113 301q0 27 19.5 46.5t48 19.5t47 -19.5t18.5 -46.5q0 -29 -19.5 -48.5t-46.5 -19.5q-29 0 -48 20.5t-19 47.5zM113 542.5q0 26.5 19.5 46t48 19.5t47 -19.5 t18.5 -45.5q0 -29 -19.5 -48.5t-46.5 -19.5q-29 0 -48 20.5t-19 47zM113 784.5q0 26.5 19.5 46t48 19.5t47 -19.5t18.5 -46.5q0 -29 -19.5 -48t-46.5 -19q-29 0 -48 20.5t-19 47zM354 422q0 27 19.5 46t48.5 19t47 -18t18 -47t-19 -48.5t-46 -19.5q-29 0 -48.5 19.5 t-19.5 48.5zM354 1026q0 27 19.5 46.5t48.5 19.5t47 -19.5t18 -46.5q0 -29 -19 -48.5t-46 -19.5q-29 0 -48.5 20.5t-19.5 47.5zM475 1389q0 27 19.5 46t48.5 19q27 0 46 -18.5t19 -47t-19.5 -48t-46 -19.5t-47 19.5t-20.5 48.5zM596 422q0 27 19.5 46t48 19t47 -18t18.5 -47 t-19.5 -48.5t-45.5 -19.5q-29 0 -48.5 19.5t-19.5 48.5zM596 1026q0 27 19.5 46.5t48 19.5t47 -19.5t18.5 -46.5q0 -29 -19.5 -48.5t-45.5 -19.5q-29 0 -48.5 20.5t-19.5 47.5zM717 1267.5q0 26.5 19.5 46t47.5 19.5q27 0 46.5 -19.5t19.5 -45.5q0 -29 -19.5 -48.5 t-46 -19.5t-47 20.5t-20.5 47zM838 422q0 27 19.5 46t48 19t47 -18t18.5 -47t-19.5 -48.5t-46.5 -19.5q-29 0 -48 19.5t-19 48.5zM838 1026q0 27 19.5 46.5t48 19.5t47 -19.5t18.5 -46.5q0 -29 -19.5 -48.5t-46.5 -19.5q-29 0 -48 20.5t-19 47.5zM1079 59.5q0 26.5 19.5 46 t48.5 19.5t47 -19.5t18 -46.5q0 -29 -19 -48t-46 -19q-29 0 -48.5 20.5t-19.5 47zM1079 301q0 27 19.5 46.5t48.5 19.5t47 -19.5t18 -46.5q0 -29 -19 -48.5t-46 -19.5q-29 0 -48.5 20.5t-19.5 47.5zM1079 542.5q0 26.5 19.5 46t48.5 19.5t47 -19.5t18 -45.5q0 -29 -19 -48.5 t-46 -19.5q-29 0 -48.5 20.5t-19.5 47zM1079 784.5q0 26.5 19.5 46t48.5 19.5t47 -19.5t18 -46.5q0 -29 -19 -48t-46 -19q-29 0 -48.5 20.5t-19.5 47z" />
<glyph unicode="&#xc1;" d="M113 59.5q0 26.5 19.5 46t48 19.5t47 -19.5t18.5 -46.5q0 -29 -19.5 -48t-46.5 -19q-29 0 -48 20.5t-19 47zM113 301q0 27 19.5 46.5t48 19.5t47 -19.5t18.5 -46.5q0 -29 -19.5 -48.5t-46.5 -19.5q-29 0 -48 20.5t-19 47.5zM113 542.5q0 26.5 19.5 46t48 19.5t47 -19.5 t18.5 -45.5q0 -29 -19.5 -48.5t-46.5 -19.5q-29 0 -48 20.5t-19 47zM113 784.5q0 26.5 19.5 46t48 19.5t47 -19.5t18.5 -46.5q0 -29 -19.5 -48t-46.5 -19q-29 0 -48 20.5t-19 47zM354 422q0 27 19.5 46t48.5 19t47 -18t18 -47t-19 -48.5t-46 -19.5q-29 0 -48.5 19.5 t-19.5 48.5zM354 1026q0 27 19.5 46.5t48.5 19.5t47 -19.5t18 -46.5q0 -29 -19 -48.5t-46 -19.5q-29 0 -48.5 20.5t-19.5 47.5zM475 1267.5q0 26.5 19.5 46t48.5 19.5q27 0 46 -19.5t19 -45.5q0 -29 -19.5 -48.5t-46 -19.5t-47 20.5t-20.5 47zM596 422q0 27 19.5 46t48 19 t47 -18t18.5 -47t-19.5 -48.5t-45.5 -19.5q-29 0 -48.5 19.5t-19.5 48.5zM596 1026q0 27 19.5 46.5t48 19.5t47 -19.5t18.5 -46.5q0 -29 -19.5 -48.5t-45.5 -19.5q-29 0 -48.5 20.5t-19.5 47.5zM717 1389q0 27 19.5 46t47.5 19q27 0 46.5 -18.5t19.5 -47t-19.5 -48 t-46 -19.5t-47 19.5t-20.5 48.5zM838 422q0 27 19.5 46t48 19t47 -18t18.5 -47t-19.5 -48.5t-46.5 -19.5q-29 0 -48 19.5t-19 48.5zM838 1026q0 27 19.5 46.5t48 19.5t47 -19.5t18.5 -46.5q0 -29 -19.5 -48.5t-46.5 -19.5q-29 0 -48 20.5t-19 47.5zM1079 59.5 q0 26.5 19.5 46t48.5 19.5t47 -19.5t18 -46.5q0 -29 -19 -48t-46 -19q-29 0 -48.5 20.5t-19.5 47zM1079 301q0 27 19.5 46.5t48.5 19.5t47 -19.5t18 -46.5q0 -29 -19 -48.5t-46 -19.5q-29 0 -48.5 20.5t-19.5 47.5zM1079 542.5q0 26.5 19.5 46t48.5 19.5t47 -19.5t18 -45.5 q0 -29 -19 -48.5t-46 -19.5q-29 0 -48.5 20.5t-19.5 47zM1079 784.5q0 26.5 19.5 46t48.5 19.5t47 -19.5t18 -46.5q0 -29 -19 -48t-46 -19q-29 0 -48.5 20.5t-19.5 47z" />
<glyph unicode="&#xc2;" d="M113 59.5q0 26.5 19.5 46t48 19.5t47 -19.5t18.5 -46.5q0 -29 -19.5 -48t-46.5 -19q-29 0 -48 20.5t-19 47zM113 301q0 27 19.5 46.5t48 19.5t47 -19.5t18.5 -46.5q0 -29 -19.5 -48.5t-46.5 -19.5q-29 0 -48 20.5t-19 47.5zM113 542.5q0 26.5 19.5 46t48 19.5t47 -19.5 t18.5 -45.5q0 -29 -19.5 -48.5t-46.5 -19.5q-29 0 -48 20.5t-19 47zM113 784.5q0 26.5 19.5 46t48 19.5t47 -19.5t18.5 -46.5q0 -29 -19.5 -48t-46.5 -19q-29 0 -48 20.5t-19 47zM354 422q0 27 19.5 46t48.5 19t47 -18t18 -47t-19 -48.5t-46 -19.5q-29 0 -48.5 19.5 t-19.5 48.5zM354 1026q0 27 19.5 46.5t48.5 19.5t47 -19.5t18 -46.5q0 -29 -19 -48.5t-46 -19.5q-29 0 -48.5 20.5t-19.5 47.5zM354 1267.5q0 26.5 19.5 46t48.5 19.5t47 -19.5t18 -45.5q0 -29 -19 -48.5t-46 -19.5q-29 0 -48.5 20.5t-19.5 47zM596 422q0 27 19.5 46t48 19 t47 -18t18.5 -47t-19.5 -48.5t-45.5 -19.5q-29 0 -48.5 19.5t-19.5 48.5zM596 1026q0 27 19.5 46.5t48 19.5t47 -19.5t18.5 -46.5q0 -29 -19.5 -48.5t-45.5 -19.5q-29 0 -48.5 20.5t-19.5 47.5zM596 1389q0 27 19.5 46t48 19t47 -18.5t18.5 -47t-19.5 -48t-45.5 -19.5 q-29 0 -48.5 19.5t-19.5 48.5zM838 422q0 27 19.5 46t48 19t47 -18t18.5 -47t-19.5 -48.5t-46.5 -19.5q-29 0 -48 19.5t-19 48.5zM838 1026q0 27 19.5 46.5t48 19.5t47 -19.5t18.5 -46.5q0 -29 -19.5 -48.5t-46.5 -19.5q-29 0 -48 20.5t-19 47.5zM838 1267.5q0 26.5 19.5 46 t48 19.5t47 -19.5t18.5 -45.5q0 -29 -19.5 -48.5t-46.5 -19.5q-29 0 -48 20.5t-19 47zM1079 59.5q0 26.5 19.5 46t48.5 19.5t47 -19.5t18 -46.5q0 -29 -19 -48t-46 -19q-29 0 -48.5 20.5t-19.5 47zM1079 301q0 27 19.5 46.5t48.5 19.5t47 -19.5t18 -46.5q0 -29 -19 -48.5 t-46 -19.5q-29 0 -48.5 20.5t-19.5 47.5zM1079 542.5q0 26.5 19.5 46t48.5 19.5t47 -19.5t18 -45.5q0 -29 -19 -48.5t-46 -19.5q-29 0 -48.5 20.5t-19.5 47zM1079 784.5q0 26.5 19.5 46t48.5 19.5t47 -19.5t18 -46.5q0 -29 -19 -48t-46 -19q-29 0 -48.5 20.5t-19.5 47z" />
<glyph unicode="&#xc3;" d="M113 59.5q0 26.5 19.5 46t48 19.5t47 -19.5t18.5 -46.5q0 -29 -19.5 -48t-46.5 -19q-29 0 -48 20.5t-19 47zM113 301q0 27 19.5 46.5t48 19.5t47 -19.5t18.5 -46.5q0 -29 -19.5 -48.5t-46.5 -19.5q-29 0 -48 20.5t-19 47.5zM113 542.5q0 26.5 19.5 46t48 19.5t47 -19.5 t18.5 -45.5q0 -29 -19.5 -48.5t-46.5 -19.5q-29 0 -48 20.5t-19 47zM113 784.5q0 26.5 19.5 46t48 19.5t47 -19.5t18.5 -46.5q0 -29 -19.5 -48t-46.5 -19q-29 0 -48 20.5t-19 47zM354 422q0 27 19.5 46t48.5 19t47 -18t18 -47t-19 -48.5t-46 -19.5q-29 0 -48.5 19.5 t-19.5 48.5zM354 1026q0 27 19.5 46.5t48.5 19.5t47 -19.5t18 -46.5q0 -29 -19 -48.5t-46 -19.5q-29 0 -48.5 20.5t-19.5 47.5zM354 1267.5q0 26.5 19.5 46t48.5 19.5t47 -19.5t18 -45.5q0 -29 -19 -48.5t-46 -19.5q-29 0 -48.5 20.5t-19.5 47zM475 1389q0 27 19.5 46 t48.5 19q27 0 46 -18.5t19 -47t-19.5 -48t-46 -19.5t-47 19.5t-20.5 48.5zM596 422q0 27 19.5 46t48 19t47 -18t18.5 -47t-19.5 -48.5t-45.5 -19.5q-29 0 -48.5 19.5t-19.5 48.5zM596 1026q0 27 19.5 46.5t48 19.5t47 -19.5t18.5 -46.5q0 -29 -19.5 -48.5t-45.5 -19.5 q-29 0 -48.5 20.5t-19.5 47.5zM596 1267.5q0 26.5 19.5 46t48 19.5t47 -19.5t18.5 -45.5q0 -29 -19.5 -48.5t-45.5 -19.5q-29 0 -48.5 20.5t-19.5 47zM717 1389q0 27 19.5 46t47.5 19q27 0 46.5 -18.5t19.5 -47t-19.5 -48t-46 -19.5t-47 19.5t-20.5 48.5zM838 422 q0 27 19.5 46t48 19t47 -18t18.5 -47t-19.5 -48.5t-46.5 -19.5q-29 0 -48 19.5t-19 48.5zM838 1026q0 27 19.5 46.5t48 19.5t47 -19.5t18.5 -46.5q0 -29 -19.5 -48.5t-46.5 -19.5q-29 0 -48 20.5t-19 47.5zM1079 59.5q0 26.5 19.5 46t48.5 19.5t47 -19.5t18 -46.5 q0 -29 -19 -48t-46 -19q-29 0 -48.5 20.5t-19.5 47zM1079 301q0 27 19.5 46.5t48.5 19.5t47 -19.5t18 -46.5q0 -29 -19 -48.5t-46 -19.5q-29 0 -48.5 20.5t-19.5 47.5zM1079 542.5q0 26.5 19.5 46t48.5 19.5t47 -19.5t18 -45.5q0 -29 -19 -48.5t-46 -19.5q-29 0 -48.5 20.5 t-19.5 47zM1079 784.5q0 26.5 19.5 46t48.5 19.5t47 -19.5t18 -46.5q0 -29 -19 -48t-46 -19q-29 0 -48.5 20.5t-19.5 47z" />
<glyph unicode="&#xc4;" d="M113 59.5q0 26.5 19.5 46t48 19.5t47 -19.5t18.5 -46.5q0 -29 -19.5 -48t-46.5 -19q-29 0 -48 20.5t-19 47zM113 301q0 27 19.5 46.5t48 19.5t47 -19.5t18.5 -46.5q0 -29 -19.5 -48.5t-46.5 -19.5q-29 0 -48 20.5t-19 47.5zM113 542.5q0 26.5 19.5 46t48 19.5t47 -19.5 t18.5 -45.5q0 -29 -19.5 -48.5t-46.5 -19.5q-29 0 -48 20.5t-19 47zM113 784.5q0 26.5 19.5 46t48 19.5t47 -19.5t18.5 -46.5q0 -29 -19.5 -48t-46.5 -19q-29 0 -48 20.5t-19 47zM354 422q0 27 19.5 46t48.5 19t47 -18t18 -47t-19 -48.5t-46 -19.5q-29 0 -48.5 19.5 t-19.5 48.5zM354 1026q0 27 19.5 46.5t48.5 19.5t47 -19.5t18 -46.5q0 -29 -19 -48.5t-46 -19.5q-29 0 -48.5 20.5t-19.5 47.5zM475 1389q0 27 19.5 46t48.5 19q27 0 46 -18.5t19 -47t-19.5 -48t-46 -19.5t-47 19.5t-20.5 48.5zM596 422q0 27 19.5 46t48 19t47 -18t18.5 -47 t-19.5 -48.5t-45.5 -19.5q-29 0 -48.5 19.5t-19.5 48.5zM596 1026q0 27 19.5 46.5t48 19.5t47 -19.5t18.5 -46.5q0 -29 -19.5 -48.5t-45.5 -19.5q-29 0 -48.5 20.5t-19.5 47.5zM717 1389q0 27 19.5 46t47.5 19q27 0 46.5 -18.5t19.5 -47t-19.5 -48t-46 -19.5t-47 19.5 t-20.5 48.5zM838 422q0 27 19.5 46t48 19t47 -18t18.5 -47t-19.5 -48.5t-46.5 -19.5q-29 0 -48 19.5t-19 48.5zM838 1026q0 27 19.5 46.5t48 19.5t47 -19.5t18.5 -46.5q0 -29 -19.5 -48.5t-46.5 -19.5q-29 0 -48 20.5t-19 47.5zM1079 59.5q0 26.5 19.5 46t48.5 19.5 t47 -19.5t18 -46.5q0 -29 -19 -48t-46 -19q-29 0 -48.5 20.5t-19.5 47zM1079 301q0 27 19.5 46.5t48.5 19.5t47 -19.5t18 -46.5q0 -29 -19 -48.5t-46 -19.5q-29 0 -48.5 20.5t-19.5 47.5zM1079 542.5q0 26.5 19.5 46t48.5 19.5t47 -19.5t18 -45.5q0 -29 -19 -48.5t-46 -19.5 q-29 0 -48.5 20.5t-19.5 47zM1079 784.5q0 26.5 19.5 46t48.5 19.5t47 -19.5t18 -46.5q0 -29 -19 -48t-46 -19q-29 0 -48.5 20.5t-19.5 47z" />
<glyph unicode="&#xc5;" d="M113 59.5q0 26.5 19.5 46t48 19.5t47 -19.5t18.5 -46.5q0 -29 -19.5 -48t-46.5 -19q-29 0 -48 20.5t-19 47zM113 301q0 27 19.5 46.5t48 19.5t47 -19.5t18.5 -46.5q0 -29 -19.5 -48.5t-46.5 -19.5q-29 0 -48 20.5t-19 47.5zM113 542.5q0 26.5 19.5 46t48 19.5t47 -19.5 t18.5 -45.5q0 -29 -19.5 -48.5t-46.5 -19.5q-29 0 -48 20.5t-19 47zM113 784.5q0 26.5 19.5 46t48 19.5t47 -19.5t18.5 -46.5q0 -29 -19.5 -48t-46.5 -19q-29 0 -48 20.5t-19 47zM354 422q0 27 19.5 46t48.5 19t47 -18t18 -47t-19 -48.5t-46 -19.5q-29 0 -48.5 19.5 t-19.5 48.5zM354 1026q0 27 19.5 46.5t48.5 19.5t47 -19.5t18 -46.5q0 -29 -19 -48.5t-46 -19.5q-29 0 -48.5 20.5t-19.5 47.5zM475 1267.5q0 26.5 19.5 46t48.5 19.5q27 0 46 -19.5t19 -45.5q0 -29 -19.5 -48.5t-46 -19.5t-47 20.5t-20.5 47zM596 422q0 27 19.5 46t48 19 t47 -18t18.5 -47t-19.5 -48.5t-45.5 -19.5q-29 0 -48.5 19.5t-19.5 48.5zM596 1147q0 27 19.5 46t48 19t47 -18t18.5 -47t-19.5 -48.5t-45.5 -19.5q-29 0 -48.5 19.5t-19.5 48.5zM596 1389q0 27 19.5 46t48 19t47 -18.5t18.5 -47t-19.5 -48t-45.5 -19.5q-29 0 -48.5 19.5 t-19.5 48.5zM717 1267.5q0 26.5 19.5 46t47.5 19.5q27 0 46.5 -19.5t19.5 -45.5q0 -29 -19.5 -48.5t-46 -19.5t-47 20.5t-20.5 47zM838 422q0 27 19.5 46t48 19t47 -18t18.5 -47t-19.5 -48.5t-46.5 -19.5q-29 0 -48 19.5t-19 48.5zM838 1026q0 27 19.5 46.5t48 19.5 t47 -19.5t18.5 -46.5q0 -29 -19.5 -48.5t-46.5 -19.5q-29 0 -48 20.5t-19 47.5zM1079 59.5q0 26.5 19.5 46t48.5 19.5t47 -19.5t18 -46.5q0 -29 -19 -48t-46 -19q-29 0 -48.5 20.5t-19.5 47zM1079 301q0 27 19.5 46.5t48.5 19.5t47 -19.5t18 -46.5q0 -29 -19 -48.5 t-46 -19.5q-29 0 -48.5 20.5t-19.5 47.5zM1079 542.5q0 26.5 19.5 46t48.5 19.5t47 -19.5t18 -45.5q0 -29 -19 -48.5t-46 -19.5q-29 0 -48.5 20.5t-19.5 47zM1079 784.5q0 26.5 19.5 46t48.5 19.5t47 -19.5t18 -46.5q0 -29 -19 -48t-46 -19q-29 0 -48.5 20.5t-19.5 47z" />
<glyph unicode="&#xc6;" horiz-adv-x="2295" d="M113 59.5q0 26.5 19.5 46t48 19.5t47 -19.5t18.5 -46.5q0 -29 -19.5 -48t-46.5 -19q-29 0 -48 20.5t-19 47zM113 301q0 27 19.5 46.5t48 19.5t47 -19.5t18.5 -46.5q0 -29 -19.5 -48.5t-46.5 -19.5q-29 0 -48 20.5t-19 47.5zM113 542.5q0 26.5 19.5 46t48 19.5t47 -19.5 t18.5 -45.5q0 -29 -19.5 -48.5t-46.5 -19.5q-29 0 -48 20.5t-19 47zM113 784.5q0 26.5 19.5 46t48 19.5t47 -19.5t18.5 -46.5q0 -29 -19.5 -48t-46.5 -19q-29 0 -48 20.5t-19 47zM354 422q0 27 19.5 46t48.5 19t47 -18t18 -47t-19 -48.5t-46 -19.5q-29 0 -48.5 19.5 t-19.5 48.5zM354 1026q0 27 19.5 46.5t48.5 19.5t47 -19.5t18 -46.5q0 -29 -19 -48.5t-46 -19.5q-29 0 -48.5 20.5t-19.5 47.5zM596 422q0 27 19.5 46t48 19t47 -18t18.5 -47t-19.5 -48.5t-45.5 -19.5q-29 0 -48.5 19.5t-19.5 48.5zM596 1026q0 27 19.5 46.5t48 19.5 t47 -19.5t18.5 -46.5q0 -29 -19.5 -48.5t-45.5 -19.5q-29 0 -48.5 20.5t-19.5 47.5zM838 422q0 27 19.5 46t48 19t47 -18t18.5 -47t-19.5 -48.5t-46.5 -19.5q-29 0 -48 19.5t-19 48.5zM838 1026q0 27 19.5 46.5t48 19.5t47 -19.5t18.5 -46.5q0 -29 -19.5 -48.5t-46.5 -19.5 q-29 0 -48 20.5t-19 47.5zM1079 301q0 27 19.5 46.5t48.5 19.5t47 -19.5t18 -46.5q0 -29 -19 -48.5t-46 -19.5q-29 0 -48.5 20.5t-19.5 47.5zM1079 542.5q0 26.5 19.5 46t48.5 19.5t47 -19.5t18 -45.5q0 -29 -19 -48.5t-46 -19.5q-29 0 -48.5 20.5t-19.5 47zM1079 784.5 q0 26.5 19.5 46t48.5 19.5t47 -19.5t18 -46.5q0 -29 -19 -48t-46 -19q-29 0 -48.5 20.5t-19.5 47zM1321 59.5q0 26.5 19.5 46t48 19.5t47 -19.5t18.5 -46.5q0 -29 -19.5 -48t-45.5 -19q-29 0 -48.5 20.5t-19.5 47zM1321 542.5q0 26.5 19.5 46t48 19.5t47 -19.5t18.5 -45.5 q0 -29 -19.5 -48.5t-45.5 -19.5q-29 0 -48.5 20.5t-19.5 47zM1321 1026q0 27 19.5 46.5t48 19.5t47 -19.5t18.5 -46.5q0 -29 -19.5 -48.5t-45.5 -19.5q-29 0 -48.5 20.5t-19.5 47.5zM1563 59.5q0 26.5 19.5 46t48 19.5t47 -19.5t18.5 -46.5q0 -29 -19.5 -48t-46.5 -19 q-29 0 -48 20.5t-19 47zM1563 542.5q0 26.5 19.5 46t48 19.5t47 -19.5t18.5 -45.5q0 -29 -19.5 -48.5t-46.5 -19.5q-29 0 -48 20.5t-19 47zM1563 1026q0 27 19.5 46.5t48 19.5t47 -19.5t18.5 -46.5q0 -29 -19.5 -48.5t-46.5 -19.5q-29 0 -48 20.5t-19 47.5zM1804 59.5 q0 26.5 19.5 46t48.5 19.5t47 -19.5t18 -46.5q0 -29 -19.5 -48t-45.5 -19q-29 0 -48.5 20.5t-19.5 47zM1804 542.5q0 26.5 19.5 46t48.5 19.5t47 -19.5t18 -45.5q0 -29 -19.5 -48.5t-45.5 -19.5q-29 0 -48.5 20.5t-19.5 47zM1804 1026q0 27 19.5 46.5t48.5 19.5t47 -19.5 t18 -46.5q0 -29 -19.5 -48.5t-45.5 -19.5q-29 0 -48.5 20.5t-19.5 47.5zM2046 59.5q0 26.5 19.5 46t48 19.5t47 -19.5t18.5 -46.5q0 -29 -19.5 -48t-45.5 -19q-29 0 -48.5 20.5t-19.5 47zM2046 1026q0 27 19.5 46.5t48 19.5t47 -19.5t18.5 -46.5q0 -29 -19.5 -48.5 t-45.5 -19.5q-29 0 -48.5 20.5t-19.5 47.5z" />
<glyph unicode="&#xc7;" horiz-adv-x="1208" d="M113 422q0 27 19.5 46t48 19t47 -18t18.5 -47t-19.5 -48.5t-46.5 -19.5q-29 0 -48 19.5t-19 48.5zM113 664q0 27 19.5 46t48 19t47 -18.5t18.5 -47t-19.5 -48t-46.5 -19.5q-29 0 -48 19.5t-19 48.5zM233 180q0 27 19.5 46.5t48.5 19.5q27 0 46.5 -18.5t19.5 -47 t-19.5 -48t-46.5 -19.5t-47.5 19t-20.5 48zM233 905q0 27 19.5 46.5t48.5 19.5q27 0 46.5 -18.5t19.5 -47t-19.5 -48t-46.5 -19.5t-47.5 19t-20.5 48zM354 -303q0 27 19.5 46t48.5 19t47 -18t18 -47t-19 -48.5t-46 -19.5q-29 0 -48.5 19.5t-19.5 48.5zM475 59.5 q0 26.5 19.5 46t48.5 19.5q27 0 46 -19.5t19 -46.5q0 -29 -19.5 -48t-46 -19t-47 20.5t-20.5 47zM475 1026q0 27 19.5 46.5t48.5 19.5q27 0 46 -19.5t19 -46.5q0 -29 -19.5 -48.5t-46 -19.5t-47 20.5t-20.5 47.5zM596 -182.5q0 26.5 19.5 46t48 19.5t47 -19.5t18.5 -45.5 q0 -29 -19.5 -48.5t-45.5 -19.5q-29 0 -48.5 20.5t-19.5 47zM717 59.5q0 26.5 19.5 46t47.5 19.5q27 0 46.5 -19.5t19.5 -46.5q0 -29 -19.5 -48t-46 -19t-47 20.5t-20.5 47zM717 1026q0 27 19.5 46.5t47.5 19.5q27 0 46.5 -19.5t19.5 -46.5q0 -29 -19.5 -48.5t-46 -19.5 t-47 20.5t-20.5 47.5zM958 180q0 27 19.5 46.5t48.5 19.5q27 0 46.5 -18.5t19.5 -47t-19.5 -48t-46.5 -19.5t-47.5 19t-20.5 48zM958 905q0 27 19.5 46.5t48.5 19.5q27 0 46.5 -18.5t19.5 -47t-19.5 -48t-46.5 -19.5t-47.5 19t-20.5 48z" />
<glyph unicode="&#xc8;" d="M113 301q0 27 19.5 46.5t48 19.5t47 -19.5t18.5 -46.5q0 -29 -19.5 -48.5t-46.5 -19.5q-29 0 -48 20.5t-19 47.5zM113 542.5q0 26.5 19.5 46t48 19.5t47 -19.5t18.5 -45.5q0 -29 -19.5 -48.5t-46.5 -19.5q-29 0 -48 20.5t-19 47zM113 784.5q0 26.5 19.5 46t48 19.5 t47 -19.5t18.5 -46.5q0 -29 -19.5 -48t-46.5 -19q-29 0 -48 20.5t-19 47zM354 59.5q0 26.5 19.5 46t48.5 19.5t47 -19.5t18 -46.5q0 -29 -19 -48t-46 -19q-29 0 -48.5 20.5t-19.5 47zM354 542.5q0 26.5 19.5 46t48.5 19.5t47 -19.5t18 -45.5q0 -29 -19 -48.5t-46 -19.5 q-29 0 -48.5 20.5t-19.5 47zM354 1026q0 27 19.5 46.5t48.5 19.5t47 -19.5t18 -46.5q0 -29 -19 -48.5t-46 -19.5q-29 0 -48.5 20.5t-19.5 47.5zM475 1389q0 27 19.5 46t48.5 19q27 0 46 -18.5t19 -47t-19.5 -48t-46 -19.5t-47 19.5t-20.5 48.5zM596 59.5q0 26.5 19.5 46 t48 19.5t47 -19.5t18.5 -46.5q0 -29 -19.5 -48t-45.5 -19q-29 0 -48.5 20.5t-19.5 47zM596 542.5q0 26.5 19.5 46t48 19.5t47 -19.5t18.5 -45.5q0 -29 -19.5 -48.5t-45.5 -19.5q-29 0 -48.5 20.5t-19.5 47zM596 1026q0 27 19.5 46.5t48 19.5t47 -19.5t18.5 -46.5 q0 -29 -19.5 -48.5t-45.5 -19.5q-29 0 -48.5 20.5t-19.5 47.5zM717 1267.5q0 26.5 19.5 46t47.5 19.5q27 0 46.5 -19.5t19.5 -45.5q0 -29 -19.5 -48.5t-46 -19.5t-47 20.5t-20.5 47zM838 59.5q0 26.5 19.5 46t48 19.5t47 -19.5t18.5 -46.5q0 -29 -19.5 -48t-46.5 -19 q-29 0 -48 20.5t-19 47zM838 542.5q0 26.5 19.5 46t48 19.5t47 -19.5t18.5 -45.5q0 -29 -19.5 -48.5t-46.5 -19.5q-29 0 -48 20.5t-19 47zM838 1026q0 27 19.5 46.5t48 19.5t47 -19.5t18.5 -46.5q0 -29 -19.5 -48.5t-46.5 -19.5q-29 0 -48 20.5t-19 47.5zM1079 59.5 q0 26.5 19.5 46t48.5 19.5t47 -19.5t18 -46.5q0 -29 -19 -48t-46 -19q-29 0 -48.5 20.5t-19.5 47zM1079 1026q0 27 19.5 46.5t48.5 19.5t47 -19.5t18 -46.5q0 -29 -19 -48.5t-46 -19.5q-29 0 -48.5 20.5t-19.5 47.5z" />
<glyph unicode="&#xc9;" d="M113 301q0 27 19.5 46.5t48 19.5t47 -19.5t18.5 -46.5q0 -29 -19.5 -48.5t-46.5 -19.5q-29 0 -48 20.5t-19 47.5zM113 542.5q0 26.5 19.5 46t48 19.5t47 -19.5t18.5 -45.5q0 -29 -19.5 -48.5t-46.5 -19.5q-29 0 -48 20.5t-19 47zM113 784.5q0 26.5 19.5 46t48 19.5 t47 -19.5t18.5 -46.5q0 -29 -19.5 -48t-46.5 -19q-29 0 -48 20.5t-19 47zM354 59.5q0 26.5 19.5 46t48.5 19.5t47 -19.5t18 -46.5q0 -29 -19 -48t-46 -19q-29 0 -48.5 20.5t-19.5 47zM354 542.5q0 26.5 19.5 46t48.5 19.5t47 -19.5t18 -45.5q0 -29 -19 -48.5t-46 -19.5 q-29 0 -48.5 20.5t-19.5 47zM354 1026q0 27 19.5 46.5t48.5 19.5t47 -19.5t18 -46.5q0 -29 -19 -48.5t-46 -19.5q-29 0 -48.5 20.5t-19.5 47.5zM596 59.5q0 26.5 19.5 46t48 19.5t47 -19.5t18.5 -46.5q0 -29 -19.5 -48t-45.5 -19q-29 0 -48.5 20.5t-19.5 47zM596 542.5 q0 26.5 19.5 46t48 19.5t47 -19.5t18.5 -45.5q0 -29 -19.5 -48.5t-45.5 -19.5q-29 0 -48.5 20.5t-19.5 47zM596 1026q0 27 19.5 46.5t48 19.5t47 -19.5t18.5 -46.5q0 -29 -19.5 -48.5t-45.5 -19.5q-29 0 -48.5 20.5t-19.5 47.5zM596 1267.5q0 26.5 19.5 46t48 19.5t47 -19.5 t18.5 -45.5q0 -29 -19.5 -48.5t-45.5 -19.5q-29 0 -48.5 20.5t-19.5 47zM838 59.5q0 26.5 19.5 46t48 19.5t47 -19.5t18.5 -46.5q0 -29 -19.5 -48t-46.5 -19q-29 0 -48 20.5t-19 47zM838 542.5q0 26.5 19.5 46t48 19.5t47 -19.5t18.5 -45.5q0 -29 -19.5 -48.5t-46.5 -19.5 q-29 0 -48 20.5t-19 47zM838 1026q0 27 19.5 46.5t48 19.5t47 -19.5t18.5 -46.5q0 -29 -19.5 -48.5t-46.5 -19.5q-29 0 -48 20.5t-19 47.5zM838 1389q0 27 19.5 46t48 19t47 -18.5t18.5 -47t-19.5 -48t-46.5 -19.5q-29 0 -48 19.5t-19 48.5zM1079 59.5q0 26.5 19.5 46 t48.5 19.5t47 -19.5t18 -46.5q0 -29 -19 -48t-46 -19q-29 0 -48.5 20.5t-19.5 47zM1079 1026q0 27 19.5 46.5t48.5 19.5t47 -19.5t18 -46.5q0 -29 -19 -48.5t-46 -19.5q-29 0 -48.5 20.5t-19.5 47.5z" />
<glyph unicode="&#xca;" d="M113 301q0 27 19.5 46.5t48 19.5t47 -19.5t18.5 -46.5q0 -29 -19.5 -48.5t-46.5 -19.5q-29 0 -48 20.5t-19 47.5zM113 542.5q0 26.5 19.5 46t48 19.5t47 -19.5t18.5 -45.5q0 -29 -19.5 -48.5t-46.5 -19.5q-29 0 -48 20.5t-19 47zM113 784.5q0 26.5 19.5 46t48 19.5 t47 -19.5t18.5 -46.5q0 -29 -19.5 -48t-46.5 -19q-29 0 -48 20.5t-19 47zM354 59.5q0 26.5 19.5 46t48.5 19.5t47 -19.5t18 -46.5q0 -29 -19 -48t-46 -19q-29 0 -48.5 20.5t-19.5 47zM354 542.5q0 26.5 19.5 46t48.5 19.5t47 -19.5t18 -45.5q0 -29 -19 -48.5t-46 -19.5 q-29 0 -48.5 20.5t-19.5 47zM354 1026q0 27 19.5 46.5t48.5 19.5t47 -19.5t18 -46.5q0 -29 -19 -48.5t-46 -19.5q-29 0 -48.5 20.5t-19.5 47.5zM475 1267.5q0 26.5 19.5 46t48.5 19.5q27 0 46 -19.5t19 -45.5q0 -29 -19.5 -48.5t-46 -19.5t-47 20.5t-20.5 47zM596 59.5 q0 26.5 19.5 46t48 19.5t47 -19.5t18.5 -46.5q0 -29 -19.5 -48t-45.5 -19q-29 0 -48.5 20.5t-19.5 47zM596 542.5q0 26.5 19.5 46t48 19.5t47 -19.5t18.5 -45.5q0 -29 -19.5 -48.5t-45.5 -19.5q-29 0 -48.5 20.5t-19.5 47zM596 1026q0 27 19.5 46.5t48 19.5t47 -19.5 t18.5 -46.5q0 -29 -19.5 -48.5t-45.5 -19.5q-29 0 -48.5 20.5t-19.5 47.5zM717 1389q0 27 19.5 46t47.5 19q27 0 46.5 -18.5t19.5 -47t-19.5 -48t-46 -19.5t-47 19.5t-20.5 48.5zM838 59.5q0 26.5 19.5 46t48 19.5t47 -19.5t18.5 -46.5q0 -29 -19.5 -48t-46.5 -19 q-29 0 -48 20.5t-19 47zM838 542.5q0 26.5 19.5 46t48 19.5t47 -19.5t18.5 -45.5q0 -29 -19.5 -48.5t-46.5 -19.5q-29 0 -48 20.5t-19 47zM838 1026q0 27 19.5 46.5t48 19.5t47 -19.5t18.5 -46.5q0 -29 -19.5 -48.5t-46.5 -19.5q-29 0 -48 20.5t-19 47.5zM958 1267.5 q0 26.5 19.5 46t48.5 19.5q27 0 46.5 -19.5t19.5 -45.5q0 -29 -19.5 -48.5t-46.5 -19.5t-47.5 20.5t-20.5 47zM1079 59.5q0 26.5 19.5 46t48.5 19.5t47 -19.5t18 -46.5q0 -29 -19 -48t-46 -19q-29 0 -48.5 20.5t-19.5 47zM1079 1026q0 27 19.5 46.5t48.5 19.5t47 -19.5 t18 -46.5q0 -29 -19 -48.5t-46 -19.5q-29 0 -48.5 20.5t-19.5 47.5z" />
<glyph unicode="&#xcb;" d="M113 301q0 27 19.5 46.5t48 19.5t47 -19.5t18.5 -46.5q0 -29 -19.5 -48.5t-46.5 -19.5q-29 0 -48 20.5t-19 47.5zM113 542.5q0 26.5 19.5 46t48 19.5t47 -19.5t18.5 -45.5q0 -29 -19.5 -48.5t-46.5 -19.5q-29 0 -48 20.5t-19 47zM113 784.5q0 26.5 19.5 46t48 19.5 t47 -19.5t18.5 -46.5q0 -29 -19.5 -48t-46.5 -19q-29 0 -48 20.5t-19 47zM354 59.5q0 26.5 19.5 46t48.5 19.5t47 -19.5t18 -46.5q0 -29 -19 -48t-46 -19q-29 0 -48.5 20.5t-19.5 47zM354 542.5q0 26.5 19.5 46t48.5 19.5t47 -19.5t18 -45.5q0 -29 -19 -48.5t-46 -19.5 q-29 0 -48.5 20.5t-19.5 47zM354 1026q0 27 19.5 46.5t48.5 19.5t47 -19.5t18 -46.5q0 -29 -19 -48.5t-46 -19.5q-29 0 -48.5 20.5t-19.5 47.5zM475 1389q0 27 19.5 46t48.5 19q27 0 46 -18.5t19 -47t-19.5 -48t-46 -19.5t-47 19.5t-20.5 48.5zM596 59.5q0 26.5 19.5 46 t48 19.5t47 -19.5t18.5 -46.5q0 -29 -19.5 -48t-45.5 -19q-29 0 -48.5 20.5t-19.5 47zM596 542.5q0 26.5 19.5 46t48 19.5t47 -19.5t18.5 -45.5q0 -29 -19.5 -48.5t-45.5 -19.5q-29 0 -48.5 20.5t-19.5 47zM596 1026q0 27 19.5 46.5t48 19.5t47 -19.5t18.5 -46.5 q0 -29 -19.5 -48.5t-45.5 -19.5q-29 0 -48.5 20.5t-19.5 47.5zM717 1389q0 27 19.5 46t47.5 19q27 0 46.5 -18.5t19.5 -47t-19.5 -48t-46 -19.5t-47 19.5t-20.5 48.5zM838 59.5q0 26.5 19.5 46t48 19.5t47 -19.5t18.5 -46.5q0 -29 -19.5 -48t-46.5 -19q-29 0 -48 20.5 t-19 47zM838 542.5q0 26.5 19.5 46t48 19.5t47 -19.5t18.5 -45.5q0 -29 -19.5 -48.5t-46.5 -19.5q-29 0 -48 20.5t-19 47zM838 1026q0 27 19.5 46.5t48 19.5t47 -19.5t18.5 -46.5q0 -29 -19.5 -48.5t-46.5 -19.5q-29 0 -48 20.5t-19 47.5zM1079 59.5q0 26.5 19.5 46 t48.5 19.5t47 -19.5t18 -46.5q0 -29 -19 -48t-46 -19q-29 0 -48.5 20.5t-19.5 47zM1079 1026q0 27 19.5 46.5t48.5 19.5t47 -19.5t18 -46.5q0 -29 -19 -48.5t-46 -19.5q-29 0 -48.5 20.5t-19.5 47.5z" />
<glyph unicode="&#xcc;" horiz-adv-x="483" d="M113 1389q0 27 19.5 46t48 19t47 -18.5t18.5 -47t-19.5 -48t-46.5 -19.5q-29 0 -48 19.5t-19 48.5zM233 59.5q0 26.5 19.5 46t48.5 19.5q27 0 46.5 -19.5t19.5 -46.5q0 -29 -19.5 -48t-46.5 -19t-47.5 20.5t-20.5 47zM233 301q0 27 19.5 46.5t48.5 19.5q27 0 46.5 -19.5 t19.5 -46.5q0 -29 -19.5 -48.5t-46.5 -19.5t-47.5 20.5t-20.5 47.5zM233 542.5q0 26.5 19.5 46t48.5 19.5q27 0 46.5 -19.5t19.5 -45.5q0 -29 -19.5 -48.5t-46.5 -19.5t-47.5 20.5t-20.5 47zM233 784.5q0 26.5 19.5 46t48.5 19.5q27 0 46.5 -19.5t19.5 -46.5 q0 -29 -19.5 -48t-46.5 -19t-47.5 20.5t-20.5 47zM233 1026q0 27 19.5 46.5t48.5 19.5q27 0 46.5 -19.5t19.5 -46.5q0 -29 -19.5 -48.5t-46.5 -19.5t-47.5 20.5t-20.5 47.5zM233 1267.5q0 26.5 19.5 46t48.5 19.5q27 0 46.5 -19.5t19.5 -45.5q0 -29 -19.5 -48.5t-46.5 -19.5 t-47.5 20.5t-20.5 47z" />
<glyph unicode="&#xcd;" horiz-adv-x="483" d="M113 59.5q0 26.5 19.5 46t48 19.5t47 -19.5t18.5 -46.5q0 -29 -19.5 -48t-46.5 -19q-29 0 -48 20.5t-19 47zM113 301q0 27 19.5 46.5t48 19.5t47 -19.5t18.5 -46.5q0 -29 -19.5 -48.5t-46.5 -19.5q-29 0 -48 20.5t-19 47.5zM113 542.5q0 26.5 19.5 46t48 19.5t47 -19.5 t18.5 -45.5q0 -29 -19.5 -48.5t-46.5 -19.5q-29 0 -48 20.5t-19 47zM113 784.5q0 26.5 19.5 46t48 19.5t47 -19.5t18.5 -46.5q0 -29 -19.5 -48t-46.5 -19q-29 0 -48 20.5t-19 47zM113 1026q0 27 19.5 46.5t48 19.5t47 -19.5t18.5 -46.5q0 -29 -19.5 -48.5t-46.5 -19.5 q-29 0 -48 20.5t-19 47.5zM113 1267.5q0 26.5 19.5 46t48 19.5t47 -19.5t18.5 -45.5q0 -29 -19.5 -48.5t-46.5 -19.5q-29 0 -48 20.5t-19 47zM233 1389q0 27 19.5 46t48.5 19q27 0 46.5 -18.5t19.5 -47t-19.5 -48t-46.5 -19.5t-47.5 19.5t-20.5 48.5z" />
<glyph unicode="&#xce;" horiz-adv-x="604" d="M113 1267.5q0 26.5 19.5 46t48 19.5t47 -19.5t18.5 -45.5q0 -29 -19.5 -48.5t-46.5 -19.5q-29 0 -48 20.5t-19 47zM233 59.5q0 26.5 19.5 46t48.5 19.5q27 0 46.5 -19.5t19.5 -46.5q0 -29 -19.5 -48t-46.5 -19t-47.5 20.5t-20.5 47zM233 301q0 27 19.5 46.5t48.5 19.5 q27 0 46.5 -19.5t19.5 -46.5q0 -29 -19.5 -48.5t-46.5 -19.5t-47.5 20.5t-20.5 47.5zM233 542.5q0 26.5 19.5 46t48.5 19.5q27 0 46.5 -19.5t19.5 -45.5q0 -29 -19.5 -48.5t-46.5 -19.5t-47.5 20.5t-20.5 47zM233 784.5q0 26.5 19.5 46t48.5 19.5q27 0 46.5 -19.5 t19.5 -46.5q0 -29 -19.5 -48t-46.5 -19t-47.5 20.5t-20.5 47zM233 1026q0 27 19.5 46.5t48.5 19.5q27 0 46.5 -19.5t19.5 -46.5q0 -29 -19.5 -48.5t-46.5 -19.5t-47.5 20.5t-20.5 47.5zM233 1389q0 27 19.5 46t48.5 19q27 0 46.5 -18.5t19.5 -47t-19.5 -48t-46.5 -19.5 t-47.5 19.5t-20.5 48.5zM354 1267.5q0 26.5 19.5 46t48.5 19.5t47 -19.5t18 -45.5q0 -29 -19 -48.5t-46 -19.5q-29 0 -48.5 20.5t-19.5 47z" />
<glyph unicode="&#xcf;" horiz-adv-x="362" d="M-8 1389q0 27 19.5 46t47.5 19q27 0 46.5 -18.5t19.5 -47t-19.5 -48t-46 -19.5t-47 19.5t-20.5 48.5zM113 59.5q0 26.5 19.5 46t48 19.5t47 -19.5t18.5 -46.5q0 -29 -19.5 -48t-46.5 -19q-29 0 -48 20.5t-19 47zM113 301q0 27 19.5 46.5t48 19.5t47 -19.5t18.5 -46.5 q0 -29 -19.5 -48.5t-46.5 -19.5q-29 0 -48 20.5t-19 47.5zM113 542.5q0 26.5 19.5 46t48 19.5t47 -19.5t18.5 -45.5q0 -29 -19.5 -48.5t-46.5 -19.5q-29 0 -48 20.5t-19 47zM113 784.5q0 26.5 19.5 46t48 19.5t47 -19.5t18.5 -46.5q0 -29 -19.5 -48t-46.5 -19 q-29 0 -48 20.5t-19 47zM113 1026q0 27 19.5 46.5t48 19.5t47 -19.5t18.5 -46.5q0 -29 -19.5 -48.5t-46.5 -19.5q-29 0 -48 20.5t-19 47.5zM233 1389q0 27 19.5 46t48.5 19q27 0 46.5 -18.5t19.5 -47t-19.5 -48t-46.5 -19.5t-47.5 19.5t-20.5 48.5z" />
<glyph unicode="&#xd0;" d="M-8 542.5q0 26.5 19.5 46t47.5 19.5q27 0 46.5 -19.5t19.5 -45.5q0 -29 -19.5 -48.5t-46 -19.5t-47 20.5t-20.5 47zM233 59.5q0 26.5 19.5 46t48.5 19.5q27 0 46.5 -19.5t19.5 -46.5q0 -29 -19.5 -48t-46.5 -19t-47.5 20.5t-20.5 47zM233 301q0 27 19.5 46.5t48.5 19.5 q27 0 46.5 -19.5t19.5 -46.5q0 -29 -19.5 -48.5t-46.5 -19.5t-47.5 20.5t-20.5 47.5zM233 542.5q0 26.5 19.5 46t48.5 19.5q27 0 46.5 -19.5t19.5 -45.5q0 -29 -19.5 -48.5t-46.5 -19.5t-47.5 20.5t-20.5 47zM233 784.5q0 26.5 19.5 46t48.5 19.5q27 0 46.5 -19.5 t19.5 -46.5q0 -29 -19.5 -48t-46.5 -19t-47.5 20.5t-20.5 47zM233 1026q0 27 19.5 46.5t48.5 19.5q27 0 46.5 -19.5t19.5 -46.5q0 -29 -19.5 -48.5t-46.5 -19.5t-47.5 20.5t-20.5 47.5zM475 59.5q0 26.5 19.5 46t48.5 19.5q27 0 46 -19.5t19 -46.5q0 -29 -19.5 -48t-46 -19 t-47 20.5t-20.5 47zM475 542.5q0 26.5 19.5 46t48.5 19.5q27 0 46 -19.5t19 -45.5q0 -29 -19.5 -48.5t-46 -19.5t-47 20.5t-20.5 47zM475 1026q0 27 19.5 46.5t48.5 19.5q27 0 46 -19.5t19 -46.5q0 -29 -19.5 -48.5t-46 -19.5t-47 20.5t-20.5 47.5zM717 59.5q0 26.5 19.5 46 t47.5 19.5q27 0 46.5 -19.5t19.5 -46.5q0 -29 -19.5 -48t-46 -19t-47 20.5t-20.5 47zM717 1026q0 27 19.5 46.5t47.5 19.5q27 0 46.5 -19.5t19.5 -46.5q0 -29 -19.5 -48.5t-46 -19.5t-47 20.5t-20.5 47.5zM958 180q0 27 19.5 46.5t48.5 19.5q27 0 46.5 -18.5t19.5 -47 t-19.5 -48t-46.5 -19.5t-47.5 19t-20.5 48zM958 905q0 27 19.5 46.5t48.5 19.5q27 0 46.5 -18.5t19.5 -47t-19.5 -48t-46.5 -19.5t-47.5 19t-20.5 48zM1079 422q0 27 19.5 46t48.5 19t47 -18t18 -47t-19 -48.5t-46 -19.5q-29 0 -48.5 19.5t-19.5 48.5zM1079 664 q0 27 19.5 46t48.5 19t47 -18.5t18 -47t-19 -48t-46 -19.5q-29 0 -48.5 19.5t-19.5 48.5z" />
<glyph unicode="&#xd1;" d="M113 59.5q0 26.5 19.5 46t48 19.5t47 -19.5t18.5 -46.5q0 -29 -19.5 -48t-46.5 -19q-29 0 -48 20.5t-19 47zM113 301q0 27 19.5 46.5t48 19.5t47 -19.5t18.5 -46.5q0 -29 -19.5 -48.5t-46.5 -19.5q-29 0 -48 20.5t-19 47.5zM113 542.5q0 26.5 19.5 46t48 19.5t47 -19.5 t18.5 -45.5q0 -29 -19.5 -48.5t-46.5 -19.5q-29 0 -48 20.5t-19 47zM113 784.5q0 26.5 19.5 46t48 19.5t47 -19.5t18.5 -46.5q0 -29 -19.5 -48t-46.5 -19q-29 0 -48 20.5t-19 47zM354 1026q0 27 19.5 46.5t48.5 19.5t47 -19.5t18 -46.5q0 -29 -19 -48.5t-46 -19.5 q-29 0 -48.5 20.5t-19.5 47.5zM354 1267.5q0 26.5 19.5 46t48.5 19.5t47 -19.5t18 -45.5q0 -29 -19 -48.5t-46 -19.5q-29 0 -48.5 20.5t-19.5 47zM475 1389q0 27 19.5 46t48.5 19q27 0 46 -18.5t19 -47t-19.5 -48t-46 -19.5t-47 19.5t-20.5 48.5zM596 1026q0 27 19.5 46.5 t48 19.5t47 -19.5t18.5 -46.5q0 -29 -19.5 -48.5t-45.5 -19.5q-29 0 -48.5 20.5t-19.5 47.5zM596 1267.5q0 26.5 19.5 46t48 19.5t47 -19.5t18.5 -45.5q0 -29 -19.5 -48.5t-45.5 -19.5q-29 0 -48.5 20.5t-19.5 47zM717 1389q0 27 19.5 46t47.5 19q27 0 46.5 -18.5t19.5 -47 t-19.5 -48t-46 -19.5t-47 19.5t-20.5 48.5zM838 1026q0 27 19.5 46.5t48 19.5t47 -19.5t18.5 -46.5q0 -29 -19.5 -48.5t-46.5 -19.5q-29 0 -48 20.5t-19 47.5zM1079 59.5q0 26.5 19.5 46t48.5 19.5t47 -19.5t18 -46.5q0 -29 -19 -48t-46 -19q-29 0 -48.5 20.5t-19.5 47z M1079 301q0 27 19.5 46.5t48.5 19.5t47 -19.5t18 -46.5q0 -29 -19 -48.5t-46 -19.5q-29 0 -48.5 20.5t-19.5 47.5zM1079 542.5q0 26.5 19.5 46t48.5 19.5t47 -19.5t18 -45.5q0 -29 -19 -48.5t-46 -19.5q-29 0 -48.5 20.5t-19.5 47zM1079 784.5q0 26.5 19.5 46t48.5 19.5 t47 -19.5t18 -46.5q0 -29 -19 -48t-46 -19q-29 0 -48.5 20.5t-19.5 47z" />
<glyph unicode="&#xd2;" d="M113 422q0 27 19.5 46t48 19t47 -18t18.5 -47t-19.5 -48.5t-46.5 -19.5q-29 0 -48 19.5t-19 48.5zM113 664q0 27 19.5 46t48 19t47 -18.5t18.5 -47t-19.5 -48t-46.5 -19.5q-29 0 -48 19.5t-19 48.5zM233 180q0 27 19.5 46.5t48.5 19.5q27 0 46.5 -18.5t19.5 -47 t-19.5 -48t-46.5 -19.5t-47.5 19t-20.5 48zM233 905q0 27 19.5 46.5t48.5 19.5q27 0 46.5 -18.5t19.5 -47t-19.5 -48t-46.5 -19.5t-47.5 19t-20.5 48zM475 59.5q0 26.5 19.5 46t48.5 19.5q27 0 46 -19.5t19 -46.5q0 -29 -19.5 -48t-46 -19t-47 20.5t-20.5 47zM475 1026 q0 27 19.5 46.5t48.5 19.5q27 0 46 -19.5t19 -46.5q0 -29 -19.5 -48.5t-46 -19.5t-47 20.5t-20.5 47.5zM475 1389q0 27 19.5 46t48.5 19q27 0 46 -18.5t19 -47t-19.5 -48t-46 -19.5t-47 19.5t-20.5 48.5zM717 59.5q0 26.5 19.5 46t47.5 19.5q27 0 46.5 -19.5t19.5 -46.5 q0 -29 -19.5 -48t-46 -19t-47 20.5t-20.5 47zM717 1026q0 27 19.5 46.5t47.5 19.5q27 0 46.5 -19.5t19.5 -46.5q0 -29 -19.5 -48.5t-46 -19.5t-47 20.5t-20.5 47.5zM717 1267.5q0 26.5 19.5 46t47.5 19.5q27 0 46.5 -19.5t19.5 -45.5q0 -29 -19.5 -48.5t-46 -19.5t-47 20.5 t-20.5 47zM958 180q0 27 19.5 46.5t48.5 19.5q27 0 46.5 -18.5t19.5 -47t-19.5 -48t-46.5 -19.5t-47.5 19t-20.5 48zM958 905q0 27 19.5 46.5t48.5 19.5q27 0 46.5 -18.5t19.5 -47t-19.5 -48t-46.5 -19.5t-47.5 19t-20.5 48zM1079 422q0 27 19.5 46t48.5 19t47 -18t18 -47 t-19 -48.5t-46 -19.5q-29 0 -48.5 19.5t-19.5 48.5zM1079 664q0 27 19.5 46t48.5 19t47 -18.5t18 -47t-19 -48t-46 -19.5q-29 0 -48.5 19.5t-19.5 48.5z" />
<glyph unicode="&#xd3;" d="M113 422q0 27 19.5 46t48 19t47 -18t18.5 -47t-19.5 -48.5t-46.5 -19.5q-29 0 -48 19.5t-19 48.5zM113 664q0 27 19.5 46t48 19t47 -18.5t18.5 -47t-19.5 -48t-46.5 -19.5q-29 0 -48 19.5t-19 48.5zM233 180q0 27 19.5 46.5t48.5 19.5q27 0 46.5 -18.5t19.5 -47 t-19.5 -48t-46.5 -19.5t-47.5 19t-20.5 48zM233 905q0 27 19.5 46.5t48.5 19.5q27 0 46.5 -18.5t19.5 -47t-19.5 -48t-46.5 -19.5t-47.5 19t-20.5 48zM475 59.5q0 26.5 19.5 46t48.5 19.5q27 0 46 -19.5t19 -46.5q0 -29 -19.5 -48t-46 -19t-47 20.5t-20.5 47zM475 1026 q0 27 19.5 46.5t48.5 19.5q27 0 46 -19.5t19 -46.5q0 -29 -19.5 -48.5t-46 -19.5t-47 20.5t-20.5 47.5zM475 1267.5q0 26.5 19.5 46t48.5 19.5q27 0 46 -19.5t19 -45.5q0 -29 -19.5 -48.5t-46 -19.5t-47 20.5t-20.5 47zM717 59.5q0 26.5 19.5 46t47.5 19.5q27 0 46.5 -19.5 t19.5 -46.5q0 -29 -19.5 -48t-46 -19t-47 20.5t-20.5 47zM717 1026q0 27 19.5 46.5t47.5 19.5q27 0 46.5 -19.5t19.5 -46.5q0 -29 -19.5 -48.5t-46 -19.5t-47 20.5t-20.5 47.5zM717 1389q0 27 19.5 46t47.5 19q27 0 46.5 -18.5t19.5 -47t-19.5 -48t-46 -19.5t-47 19.5 t-20.5 48.5zM958 180q0 27 19.5 46.5t48.5 19.5q27 0 46.5 -18.5t19.5 -47t-19.5 -48t-46.5 -19.5t-47.5 19t-20.5 48zM958 905q0 27 19.5 46.5t48.5 19.5q27 0 46.5 -18.5t19.5 -47t-19.5 -48t-46.5 -19.5t-47.5 19t-20.5 48zM1079 422q0 27 19.5 46t48.5 19t47 -18t18 -47 t-19 -48.5t-46 -19.5q-29 0 -48.5 19.5t-19.5 48.5zM1079 664q0 27 19.5 46t48.5 19t47 -18.5t18 -47t-19 -48t-46 -19.5q-29 0 -48.5 19.5t-19.5 48.5z" />
<glyph unicode="&#xd4;" d="M113 422q0 27 19.5 46t48 19t47 -18t18.5 -47t-19.5 -48.5t-46.5 -19.5q-29 0 -48 19.5t-19 48.5zM113 664q0 27 19.5 46t48 19t47 -18.5t18.5 -47t-19.5 -48t-46.5 -19.5q-29 0 -48 19.5t-19 48.5zM233 180q0 27 19.5 46.5t48.5 19.5q27 0 46.5 -18.5t19.5 -47 t-19.5 -48t-46.5 -19.5t-47.5 19t-20.5 48zM233 905q0 27 19.5 46.5t48.5 19.5q27 0 46.5 -18.5t19.5 -47t-19.5 -48t-46.5 -19.5t-47.5 19t-20.5 48zM354 1267.5q0 26.5 19.5 46t48.5 19.5t47 -19.5t18 -45.5q0 -29 -19 -48.5t-46 -19.5q-29 0 -48.5 20.5t-19.5 47z M475 59.5q0 26.5 19.5 46t48.5 19.5q27 0 46 -19.5t19 -46.5q0 -29 -19.5 -48t-46 -19t-47 20.5t-20.5 47zM475 1026q0 27 19.5 46.5t48.5 19.5q27 0 46 -19.5t19 -46.5q0 -29 -19.5 -48.5t-46 -19.5t-47 20.5t-20.5 47.5zM596 1389q0 27 19.5 46t48 19t47 -18.5t18.5 -47 t-19.5 -48t-45.5 -19.5q-29 0 -48.5 19.5t-19.5 48.5zM717 59.5q0 26.5 19.5 46t47.5 19.5q27 0 46.5 -19.5t19.5 -46.5q0 -29 -19.5 -48t-46 -19t-47 20.5t-20.5 47zM717 1026q0 27 19.5 46.5t47.5 19.5q27 0 46.5 -19.5t19.5 -46.5q0 -29 -19.5 -48.5t-46 -19.5t-47 20.5 t-20.5 47.5zM838 1267.5q0 26.5 19.5 46t48 19.5t47 -19.5t18.5 -45.5q0 -29 -19.5 -48.5t-46.5 -19.5q-29 0 -48 20.5t-19 47zM958 180q0 27 19.5 46.5t48.5 19.5q27 0 46.5 -18.5t19.5 -47t-19.5 -48t-46.5 -19.5t-47.5 19t-20.5 48zM958 905q0 27 19.5 46.5t48.5 19.5 q27 0 46.5 -18.5t19.5 -47t-19.5 -48t-46.5 -19.5t-47.5 19t-20.5 48zM1079 422q0 27 19.5 46t48.5 19t47 -18t18 -47t-19 -48.5t-46 -19.5q-29 0 -48.5 19.5t-19.5 48.5zM1079 664q0 27 19.5 46t48.5 19t47 -18.5t18 -47t-19 -48t-46 -19.5q-29 0 -48.5 19.5t-19.5 48.5z " />
<glyph unicode="&#xd5;" d="M113 422q0 27 19.5 46t48 19t47 -18t18.5 -47t-19.5 -48.5t-46.5 -19.5q-29 0 -48 19.5t-19 48.5zM113 664q0 27 19.5 46t48 19t47 -18.5t18.5 -47t-19.5 -48t-46.5 -19.5q-29 0 -48 19.5t-19 48.5zM233 180q0 27 19.5 46.5t48.5 19.5q27 0 46.5 -18.5t19.5 -47 t-19.5 -48t-46.5 -19.5t-47.5 19t-20.5 48zM233 905q0 27 19.5 46.5t48.5 19.5q27 0 46.5 -18.5t19.5 -47t-19.5 -48t-46.5 -19.5t-47.5 19t-20.5 48zM354 1267.5q0 26.5 19.5 46t48.5 19.5t47 -19.5t18 -45.5q0 -29 -19 -48.5t-46 -19.5q-29 0 -48.5 20.5t-19.5 47z M475 59.5q0 26.5 19.5 46t48.5 19.5q27 0 46 -19.5t19 -46.5q0 -29 -19.5 -48t-46 -19t-47 20.5t-20.5 47zM475 1026q0 27 19.5 46.5t48.5 19.5q27 0 46 -19.5t19 -46.5q0 -29 -19.5 -48.5t-46 -19.5t-47 20.5t-20.5 47.5zM475 1389q0 27 19.5 46t48.5 19q27 0 46 -18.5 t19 -47t-19.5 -48t-46 -19.5t-47 19.5t-20.5 48.5zM596 1267.5q0 26.5 19.5 46t48 19.5t47 -19.5t18.5 -45.5q0 -29 -19.5 -48.5t-45.5 -19.5q-29 0 -48.5 20.5t-19.5 47zM717 59.5q0 26.5 19.5 46t47.5 19.5q27 0 46.5 -19.5t19.5 -46.5q0 -29 -19.5 -48t-46 -19t-47 20.5 t-20.5 47zM717 1026q0 27 19.5 46.5t47.5 19.5q27 0 46.5 -19.5t19.5 -46.5q0 -29 -19.5 -48.5t-46 -19.5t-47 20.5t-20.5 47.5zM717 1389q0 27 19.5 46t47.5 19q27 0 46.5 -18.5t19.5 -47t-19.5 -48t-46 -19.5t-47 19.5t-20.5 48.5zM958 180q0 27 19.5 46.5t48.5 19.5 q27 0 46.5 -18.5t19.5 -47t-19.5 -48t-46.5 -19.5t-47.5 19t-20.5 48zM958 905q0 27 19.5 46.5t48.5 19.5q27 0 46.5 -18.5t19.5 -47t-19.5 -48t-46.5 -19.5t-47.5 19t-20.5 48zM1079 422q0 27 19.5 46t48.5 19t47 -18t18 -47t-19 -48.5t-46 -19.5q-29 0 -48.5 19.5 t-19.5 48.5zM1079 664q0 27 19.5 46t48.5 19t47 -18.5t18 -47t-19 -48t-46 -19.5q-29 0 -48.5 19.5t-19.5 48.5z" />
<glyph unicode="&#xd6;" d="M113 422q0 27 19.5 46t48 19t47 -18t18.5 -47t-19.5 -48.5t-46.5 -19.5q-29 0 -48 19.5t-19 48.5zM113 664q0 27 19.5 46t48 19t47 -18.5t18.5 -47t-19.5 -48t-46.5 -19.5q-29 0 -48 19.5t-19 48.5zM233 180q0 27 19.5 46.5t48.5 19.5q27 0 46.5 -18.5t19.5 -47 t-19.5 -48t-46.5 -19.5t-47.5 19t-20.5 48zM233 905q0 27 19.5 46.5t48.5 19.5q27 0 46.5 -18.5t19.5 -47t-19.5 -48t-46.5 -19.5t-47.5 19t-20.5 48zM475 59.5q0 26.5 19.5 46t48.5 19.5q27 0 46 -19.5t19 -46.5q0 -29 -19.5 -48t-46 -19t-47 20.5t-20.5 47zM475 1026 q0 27 19.5 46.5t48.5 19.5q27 0 46 -19.5t19 -46.5q0 -29 -19.5 -48.5t-46 -19.5t-47 20.5t-20.5 47.5zM475 1389q0 27 19.5 46t48.5 19q27 0 46 -18.5t19 -47t-19.5 -48t-46 -19.5t-47 19.5t-20.5 48.5zM717 59.5q0 26.5 19.5 46t47.5 19.5q27 0 46.5 -19.5t19.5 -46.5 q0 -29 -19.5 -48t-46 -19t-47 20.5t-20.5 47zM717 1026q0 27 19.5 46.5t47.5 19.5q27 0 46.5 -19.5t19.5 -46.5q0 -29 -19.5 -48.5t-46 -19.5t-47 20.5t-20.5 47.5zM717 1389q0 27 19.5 46t47.5 19q27 0 46.5 -18.5t19.5 -47t-19.5 -48t-46 -19.5t-47 19.5t-20.5 48.5z M958 180q0 27 19.5 46.5t48.5 19.5q27 0 46.5 -18.5t19.5 -47t-19.5 -48t-46.5 -19.5t-47.5 19t-20.5 48zM958 905q0 27 19.5 46.5t48.5 19.5q27 0 46.5 -18.5t19.5 -47t-19.5 -48t-46.5 -19.5t-47.5 19t-20.5 48zM1079 422q0 27 19.5 46t48.5 19t47 -18t18 -47t-19 -48.5 t-46 -19.5q-29 0 -48.5 19.5t-19.5 48.5zM1079 664q0 27 19.5 46t48.5 19t47 -18.5t18 -47t-19 -48t-46 -19.5q-29 0 -48.5 19.5t-19.5 48.5z" />
<glyph unicode="&#xd7;" horiz-adv-x="1087" d="M113 180q0 27 19.5 46.5t48 19.5t47 -18.5t18.5 -47t-19.5 -48t-46.5 -19.5q-29 0 -48 19t-19 48zM113 905q0 27 19.5 46.5t48 19.5t47 -18.5t18.5 -47t-19.5 -48t-46.5 -19.5q-29 0 -48 19t-19 48zM354 422q0 27 19.5 46t48.5 19t47 -18t18 -47t-19 -48.5t-46 -19.5 q-29 0 -48.5 19.5t-19.5 48.5zM354 664q0 27 19.5 46t48.5 19t47 -18.5t18 -47t-19 -48t-46 -19.5q-29 0 -48.5 19.5t-19.5 48.5zM596 422q0 27 19.5 46t48 19t47 -18t18.5 -47t-19.5 -48.5t-45.5 -19.5q-29 0 -48.5 19.5t-19.5 48.5zM596 664q0 27 19.5 46t48 19t47 -18.5 t18.5 -47t-19.5 -48t-45.5 -19.5q-29 0 -48.5 19.5t-19.5 48.5zM838 180q0 27 19.5 46.5t48 19.5t47 -18.5t18.5 -47t-19.5 -48t-46.5 -19.5q-29 0 -48 19t-19 48zM838 905q0 27 19.5 46.5t48 19.5t47 -18.5t18.5 -47t-19.5 -48t-46.5 -19.5q-29 0 -48 19t-19 48z" />
<glyph unicode="&#xd8;" d="M-8 -61q0 27 19.5 46t47.5 19q27 0 46.5 -18.5t19.5 -47t-19.5 -48t-46 -19.5t-47 19.5t-20.5 48.5zM113 422q0 27 19.5 46t48 19t47 -18t18.5 -47t-19.5 -48.5t-46.5 -19.5q-29 0 -48 19.5t-19 48.5zM113 664q0 27 19.5 46t48 19t47 -18.5t18.5 -47t-19.5 -48 t-46.5 -19.5q-29 0 -48 19.5t-19 48.5zM233 180q0 27 19.5 46.5t48.5 19.5q27 0 46.5 -18.5t19.5 -47t-19.5 -48t-46.5 -19.5t-47.5 19t-20.5 48zM233 905q0 27 19.5 46.5t48.5 19.5q27 0 46.5 -18.5t19.5 -47t-19.5 -48t-46.5 -19.5t-47.5 19t-20.5 48zM475 59.5 q0 26.5 19.5 46t48.5 19.5q27 0 46 -19.5t19 -46.5q0 -29 -19.5 -48t-46 -19t-47 20.5t-20.5 47zM475 422q0 27 19.5 46t48.5 19q27 0 46 -18t19 -47t-19.5 -48.5t-46 -19.5t-47 19.5t-20.5 48.5zM475 1026q0 27 19.5 46.5t48.5 19.5q27 0 46 -19.5t19 -46.5 q0 -29 -19.5 -48.5t-46 -19.5t-47 20.5t-20.5 47.5zM717 59.5q0 26.5 19.5 46t47.5 19.5q27 0 46.5 -19.5t19.5 -46.5q0 -29 -19.5 -48t-46 -19t-47 20.5t-20.5 47zM717 664q0 27 19.5 46t47.5 19q27 0 46.5 -18.5t19.5 -47t-19.5 -48t-46 -19.5t-47 19.5t-20.5 48.5z M717 1026q0 27 19.5 46.5t47.5 19.5q27 0 46.5 -19.5t19.5 -46.5q0 -29 -19.5 -48.5t-46 -19.5t-47 20.5t-20.5 47.5zM958 180q0 27 19.5 46.5t48.5 19.5q27 0 46.5 -18.5t19.5 -47t-19.5 -48t-46.5 -19.5t-47.5 19t-20.5 48zM958 905q0 27 19.5 46.5t48.5 19.5 q27 0 46.5 -18.5t19.5 -47t-19.5 -48t-46.5 -19.5t-47.5 19t-20.5 48zM1079 422q0 27 19.5 46t48.5 19t47 -18t18 -47t-19 -48.5t-46 -19.5q-29 0 -48.5 19.5t-19.5 48.5zM1079 664q0 27 19.5 46t48.5 19t47 -18.5t18 -47t-19 -48t-46 -19.5q-29 0 -48.5 19.5t-19.5 48.5z M1200 1147q0 27 19.5 46t48.5 19q27 0 46 -18t19 -47t-19.5 -48.5t-46 -19.5t-47 19.5t-20.5 48.5z" />
<glyph unicode="&#xd9;" d="M113 301q0 27 19.5 46.5t48 19.5t47 -19.5t18.5 -46.5q0 -29 -19.5 -48.5t-46.5 -19.5q-29 0 -48 20.5t-19 47.5zM113 542.5q0 26.5 19.5 46t48 19.5t47 -19.5t18.5 -45.5q0 -29 -19.5 -48.5t-46.5 -19.5q-29 0 -48 20.5t-19 47zM113 784.5q0 26.5 19.5 46t48 19.5 t47 -19.5t18.5 -46.5q0 -29 -19.5 -48t-46.5 -19q-29 0 -48 20.5t-19 47zM113 1026q0 27 19.5 46.5t48 19.5t47 -19.5t18.5 -46.5q0 -29 -19.5 -48.5t-46.5 -19.5q-29 0 -48 20.5t-19 47.5zM354 59.5q0 26.5 19.5 46t48.5 19.5t47 -19.5t18 -46.5q0 -29 -19 -48t-46 -19 q-29 0 -48.5 20.5t-19.5 47zM475 1389q0 27 19.5 46t48.5 19q27 0 46 -18.5t19 -47t-19.5 -48t-46 -19.5t-47 19.5t-20.5 48.5zM596 59.5q0 26.5 19.5 46t48 19.5t47 -19.5t18.5 -46.5q0 -29 -19.5 -48t-45.5 -19q-29 0 -48.5 20.5t-19.5 47zM717 1267.5q0 26.5 19.5 46 t47.5 19.5q27 0 46.5 -19.5t19.5 -45.5q0 -29 -19.5 -48.5t-46 -19.5t-47 20.5t-20.5 47zM838 59.5q0 26.5 19.5 46t48 19.5t47 -19.5t18.5 -46.5q0 -29 -19.5 -48t-46.5 -19q-29 0 -48 20.5t-19 47zM1079 301q0 27 19.5 46.5t48.5 19.5t47 -19.5t18 -46.5q0 -29 -19 -48.5 t-46 -19.5q-29 0 -48.5 20.5t-19.5 47.5zM1079 542.5q0 26.5 19.5 46t48.5 19.5t47 -19.5t18 -45.5q0 -29 -19 -48.5t-46 -19.5q-29 0 -48.5 20.5t-19.5 47zM1079 784.5q0 26.5 19.5 46t48.5 19.5t47 -19.5t18 -46.5q0 -29 -19 -48t-46 -19q-29 0 -48.5 20.5t-19.5 47z M1079 1026q0 27 19.5 46.5t48.5 19.5t47 -19.5t18 -46.5q0 -29 -19 -48.5t-46 -19.5q-29 0 -48.5 20.5t-19.5 47.5z" />
<glyph unicode="&#xda;" d="M113 301q0 27 19.5 46.5t48 19.5t47 -19.5t18.5 -46.5q0 -29 -19.5 -48.5t-46.5 -19.5q-29 0 -48 20.5t-19 47.5zM113 542.5q0 26.5 19.5 46t48 19.5t47 -19.5t18.5 -45.5q0 -29 -19.5 -48.5t-46.5 -19.5q-29 0 -48 20.5t-19 47zM113 784.5q0 26.5 19.5 46t48 19.5 t47 -19.5t18.5 -46.5q0 -29 -19.5 -48t-46.5 -19q-29 0 -48 20.5t-19 47zM113 1026q0 27 19.5 46.5t48 19.5t47 -19.5t18.5 -46.5q0 -29 -19.5 -48.5t-46.5 -19.5q-29 0 -48 20.5t-19 47.5zM354 59.5q0 26.5 19.5 46t48.5 19.5t47 -19.5t18 -46.5q0 -29 -19 -48t-46 -19 q-29 0 -48.5 20.5t-19.5 47zM475 1267.5q0 26.5 19.5 46t48.5 19.5q27 0 46 -19.5t19 -45.5q0 -29 -19.5 -48.5t-46 -19.5t-47 20.5t-20.5 47zM596 59.5q0 26.5 19.5 46t48 19.5t47 -19.5t18.5 -46.5q0 -29 -19.5 -48t-45.5 -19q-29 0 -48.5 20.5t-19.5 47zM717 1389 q0 27 19.5 46t47.5 19q27 0 46.5 -18.5t19.5 -47t-19.5 -48t-46 -19.5t-47 19.5t-20.5 48.5zM838 59.5q0 26.5 19.5 46t48 19.5t47 -19.5t18.5 -46.5q0 -29 -19.5 -48t-46.5 -19q-29 0 -48 20.5t-19 47zM1079 301q0 27 19.5 46.5t48.5 19.5t47 -19.5t18 -46.5 q0 -29 -19 -48.5t-46 -19.5q-29 0 -48.5 20.5t-19.5 47.5zM1079 542.5q0 26.5 19.5 46t48.5 19.5t47 -19.5t18 -45.5q0 -29 -19 -48.5t-46 -19.5q-29 0 -48.5 20.5t-19.5 47zM1079 784.5q0 26.5 19.5 46t48.5 19.5t47 -19.5t18 -46.5q0 -29 -19 -48t-46 -19 q-29 0 -48.5 20.5t-19.5 47zM1079 1026q0 27 19.5 46.5t48.5 19.5t47 -19.5t18 -46.5q0 -29 -19 -48.5t-46 -19.5q-29 0 -48.5 20.5t-19.5 47.5z" />
<glyph unicode="&#xdb;" d="M113 301q0 27 19.5 46.5t48 19.5t47 -19.5t18.5 -46.5q0 -29 -19.5 -48.5t-46.5 -19.5q-29 0 -48 20.5t-19 47.5zM113 542.5q0 26.5 19.5 46t48 19.5t47 -19.5t18.5 -45.5q0 -29 -19.5 -48.5t-46.5 -19.5q-29 0 -48 20.5t-19 47zM113 784.5q0 26.5 19.5 46t48 19.5 t47 -19.5t18.5 -46.5q0 -29 -19.5 -48t-46.5 -19q-29 0 -48 20.5t-19 47zM113 1026q0 27 19.5 46.5t48 19.5t47 -19.5t18.5 -46.5q0 -29 -19.5 -48.5t-46.5 -19.5q-29 0 -48 20.5t-19 47.5zM354 59.5q0 26.5 19.5 46t48.5 19.5t47 -19.5t18 -46.5q0 -29 -19 -48t-46 -19 q-29 0 -48.5 20.5t-19.5 47zM475 1267.5q0 26.5 19.5 46t48.5 19.5q27 0 46 -19.5t19 -45.5q0 -29 -19.5 -48.5t-46 -19.5t-47 20.5t-20.5 47zM596 59.5q0 26.5 19.5 46t48 19.5t47 -19.5t18.5 -46.5q0 -29 -19.5 -48t-45.5 -19q-29 0 -48.5 20.5t-19.5 47zM596 1389 q0 27 19.5 46t48 19t47 -18.5t18.5 -47t-19.5 -48t-45.5 -19.5q-29 0 -48.5 19.5t-19.5 48.5zM717 1267.5q0 26.5 19.5 46t47.5 19.5q27 0 46.5 -19.5t19.5 -45.5q0 -29 -19.5 -48.5t-46 -19.5t-47 20.5t-20.5 47zM838 59.5q0 26.5 19.5 46t48 19.5t47 -19.5t18.5 -46.5 q0 -29 -19.5 -48t-46.5 -19q-29 0 -48 20.5t-19 47zM1079 301q0 27 19.5 46.5t48.5 19.5t47 -19.5t18 -46.5q0 -29 -19 -48.5t-46 -19.5q-29 0 -48.5 20.5t-19.5 47.5zM1079 542.5q0 26.5 19.5 46t48.5 19.5t47 -19.5t18 -45.5q0 -29 -19 -48.5t-46 -19.5q-29 0 -48.5 20.5 t-19.5 47zM1079 784.5q0 26.5 19.5 46t48.5 19.5t47 -19.5t18 -46.5q0 -29 -19 -48t-46 -19q-29 0 -48.5 20.5t-19.5 47zM1079 1026q0 27 19.5 46.5t48.5 19.5t47 -19.5t18 -46.5q0 -29 -19 -48.5t-46 -19.5q-29 0 -48.5 20.5t-19.5 47.5z" />
<glyph unicode="&#xdc;" d="M113 301q0 27 19.5 46.5t48 19.5t47 -19.5t18.5 -46.5q0 -29 -19.5 -48.5t-46.5 -19.5q-29 0 -48 20.5t-19 47.5zM113 542.5q0 26.5 19.5 46t48 19.5t47 -19.5t18.5 -45.5q0 -29 -19.5 -48.5t-46.5 -19.5q-29 0 -48 20.5t-19 47zM113 784.5q0 26.5 19.5 46t48 19.5 t47 -19.5t18.5 -46.5q0 -29 -19.5 -48t-46.5 -19q-29 0 -48 20.5t-19 47zM113 1026q0 27 19.5 46.5t48 19.5t47 -19.5t18.5 -46.5q0 -29 -19.5 -48.5t-46.5 -19.5q-29 0 -48 20.5t-19 47.5zM354 59.5q0 26.5 19.5 46t48.5 19.5t47 -19.5t18 -46.5q0 -29 -19 -48t-46 -19 q-29 0 -48.5 20.5t-19.5 47zM475 1389q0 27 19.5 46t48.5 19q27 0 46 -18.5t19 -47t-19.5 -48t-46 -19.5t-47 19.5t-20.5 48.5zM596 59.5q0 26.5 19.5 46t48 19.5t47 -19.5t18.5 -46.5q0 -29 -19.5 -48t-45.5 -19q-29 0 -48.5 20.5t-19.5 47zM717 1389q0 27 19.5 46t47.5 19 q27 0 46.5 -18.5t19.5 -47t-19.5 -48t-46 -19.5t-47 19.5t-20.5 48.5zM838 59.5q0 26.5 19.5 46t48 19.5t47 -19.5t18.5 -46.5q0 -29 -19.5 -48t-46.5 -19q-29 0 -48 20.5t-19 47zM1079 301q0 27 19.5 46.5t48.5 19.5t47 -19.5t18 -46.5q0 -29 -19 -48.5t-46 -19.5 q-29 0 -48.5 20.5t-19.5 47.5zM1079 542.5q0 26.5 19.5 46t48.5 19.5t47 -19.5t18 -45.5q0 -29 -19 -48.5t-46 -19.5q-29 0 -48.5 20.5t-19.5 47zM1079 784.5q0 26.5 19.5 46t48.5 19.5t47 -19.5t18 -46.5q0 -29 -19 -48t-46 -19q-29 0 -48.5 20.5t-19.5 47zM1079 1026 q0 27 19.5 46.5t48.5 19.5t47 -19.5t18 -46.5q0 -29 -19 -48.5t-46 -19.5q-29 0 -48.5 20.5t-19.5 47.5z" />
<glyph unicode="&#xdd;" d="M113 1026q0 27 19.5 46.5t48 19.5t47 -19.5t18.5 -46.5q0 -29 -19.5 -48.5t-46.5 -19.5q-29 0 -48 20.5t-19 47.5zM354 784.5q0 26.5 19.5 46t48.5 19.5t47 -19.5t18 -46.5q0 -29 -19 -48t-46 -19q-29 0 -48.5 20.5t-19.5 47zM475 1267.5q0 26.5 19.5 46t48.5 19.5 q27 0 46 -19.5t19 -45.5q0 -29 -19.5 -48.5t-46 -19.5t-47 20.5t-20.5 47zM596 59.5q0 26.5 19.5 46t48 19.5t47 -19.5t18.5 -46.5q0 -29 -19.5 -48t-45.5 -19q-29 0 -48.5 20.5t-19.5 47zM596 301q0 27 19.5 46.5t48 19.5t47 -19.5t18.5 -46.5q0 -29 -19.5 -48.5 t-45.5 -19.5q-29 0 -48.5 20.5t-19.5 47.5zM596 542.5q0 26.5 19.5 46t48 19.5t47 -19.5t18.5 -45.5q0 -29 -19.5 -48.5t-45.5 -19.5q-29 0 -48.5 20.5t-19.5 47zM717 1389q0 27 19.5 46t47.5 19q27 0 46.5 -18.5t19.5 -47t-19.5 -48t-46 -19.5t-47 19.5t-20.5 48.5z M838 784.5q0 26.5 19.5 46t48 19.5t47 -19.5t18.5 -46.5q0 -29 -19.5 -48t-46.5 -19q-29 0 -48 20.5t-19 47zM1079 1026q0 27 19.5 46.5t48.5 19.5t47 -19.5t18 -46.5q0 -29 -19 -48.5t-46 -19.5q-29 0 -48.5 20.5t-19.5 47.5z" />
<glyph unicode="&#xde;" d="M113 59.5q0 26.5 19.5 46t48 19.5t47 -19.5t18.5 -46.5q0 -29 -19.5 -48t-46.5 -19q-29 0 -48 20.5t-19 47zM113 301q0 27 19.5 46.5t48 19.5t47 -19.5t18.5 -46.5q0 -29 -19.5 -48.5t-46.5 -19.5q-29 0 -48 20.5t-19 47.5zM113 542.5q0 26.5 19.5 46t48 19.5t47 -19.5 t18.5 -45.5q0 -29 -19.5 -48.5t-46.5 -19.5q-29 0 -48 20.5t-19 47zM113 784.5q0 26.5 19.5 46t48 19.5t47 -19.5t18.5 -46.5q0 -29 -19.5 -48t-46.5 -19q-29 0 -48 20.5t-19 47zM113 1026q0 27 19.5 46.5t48 19.5t47 -19.5t18.5 -46.5q0 -29 -19.5 -48.5t-46.5 -19.5 q-29 0 -48 20.5t-19 47.5zM354 180q0 27 19.5 46.5t48.5 19.5t47 -18.5t18 -47t-19 -48t-46 -19.5q-29 0 -48.5 19t-19.5 48zM354 905q0 27 19.5 46.5t48.5 19.5t47 -18.5t18 -47t-19 -48t-46 -19.5q-29 0 -48.5 19t-19.5 48zM596 180q0 27 19.5 46.5t48 19.5t47 -18.5 t18.5 -47t-19.5 -48t-45.5 -19.5q-29 0 -48.5 19t-19.5 48zM596 905q0 27 19.5 46.5t48 19.5t47 -18.5t18.5 -47t-19.5 -48t-45.5 -19.5q-29 0 -48.5 19t-19.5 48zM838 180q0 27 19.5 46.5t48 19.5t47 -18.5t18.5 -47t-19.5 -48t-46.5 -19.5q-29 0 -48 19t-19 48zM838 905 q0 27 19.5 46.5t48 19.5t47 -18.5t18.5 -47t-19.5 -48t-46.5 -19.5q-29 0 -48 19t-19 48zM1079 422q0 27 19.5 46t48.5 19t47 -18t18 -47t-19 -48.5t-46 -19.5q-29 0 -48.5 19.5t-19.5 48.5zM1079 664q0 27 19.5 46t48.5 19t47 -18.5t18 -47t-19 -48t-46 -19.5 q-29 0 -48.5 19.5t-19.5 48.5z" />
<glyph unicode="&#xdf;" d="M113 59.5q0 26.5 19.5 46t48 19.5t47 -19.5t18.5 -46.5q0 -29 -19.5 -48t-46.5 -19q-29 0 -48 20.5t-19 47zM113 301q0 27 19.5 46.5t48 19.5t47 -19.5t18.5 -46.5q0 -29 -19.5 -48.5t-46.5 -19.5q-29 0 -48 20.5t-19 47.5zM113 542.5q0 26.5 19.5 46t48 19.5t47 -19.5 t18.5 -45.5q0 -29 -19.5 -48.5t-46.5 -19.5q-29 0 -48 20.5t-19 47zM113 784.5q0 26.5 19.5 46t48 19.5t47 -19.5t18.5 -46.5q0 -29 -19.5 -48t-46.5 -19q-29 0 -48 20.5t-19 47zM354 180q0 27 19.5 46.5t48.5 19.5t47 -18.5t18 -47t-19 -48t-46 -19.5q-29 0 -48.5 19 t-19.5 48zM354 1026q0 27 19.5 46.5t48.5 19.5t47 -19.5t18 -46.5q0 -29 -19 -48.5t-46 -19.5q-29 0 -48.5 20.5t-19.5 47.5zM596 59.5q0 26.5 19.5 46t48 19.5t47 -19.5t18.5 -46.5q0 -29 -19.5 -48t-45.5 -19q-29 0 -48.5 20.5t-19.5 47zM596 542.5q0 26.5 19.5 46 t48 19.5t47 -19.5t18.5 -45.5q0 -29 -19.5 -48.5t-45.5 -19.5q-29 0 -48.5 20.5t-19.5 47zM596 1026q0 27 19.5 46.5t48 19.5t47 -19.5t18.5 -46.5q0 -29 -19.5 -48.5t-45.5 -19.5q-29 0 -48.5 20.5t-19.5 47.5zM838 59.5q0 26.5 19.5 46t48 19.5t47 -19.5t18.5 -46.5 q0 -29 -19.5 -48t-46.5 -19q-29 0 -48 20.5t-19 47zM838 542.5q0 26.5 19.5 46t48 19.5t47 -19.5t18.5 -45.5q0 -29 -19.5 -48.5t-46.5 -19.5q-29 0 -48 20.5t-19 47zM838 1026q0 27 19.5 46.5t48 19.5t47 -19.5t18.5 -46.5q0 -29 -19.5 -48.5t-46.5 -19.5q-29 0 -48 20.5 t-19 47.5zM958 784.5q0 26.5 19.5 46t48.5 19.5q27 0 46.5 -19.5t19.5 -46.5q0 -29 -19.5 -48t-46.5 -19t-47.5 20.5t-20.5 47zM1079 301q0 27 19.5 46.5t48.5 19.5t47 -19.5t18 -46.5q0 -29 -19 -48.5t-46 -19.5q-29 0 -48.5 20.5t-19.5 47.5zM1079 542.5q0 26.5 19.5 46 t48.5 19.5t47 -19.5t18 -45.5q0 -29 -19 -48.5t-46 -19.5q-29 0 -48.5 20.5t-19.5 47z" />
<glyph unicode="&#xe0;" horiz-adv-x="1449" d="M113 422q0 27 19.5 46t48 19t47 -18t18.5 -47t-19.5 -48.5t-46.5 -19.5q-29 0 -48 19.5t-19 48.5zM113 664q0 27 19.5 46t48 19t47 -18.5t18.5 -47t-19.5 -48t-46.5 -19.5q-29 0 -48 19.5t-19 48.5zM233 180q0 27 19.5 46.5t48.5 19.5q27 0 46.5 -18.5t19.5 -47 t-19.5 -48t-46.5 -19.5t-47.5 19t-20.5 48zM233 905q0 27 19.5 46.5t48.5 19.5q27 0 46.5 -18.5t19.5 -47t-19.5 -48t-46.5 -19.5t-47.5 19t-20.5 48zM475 59.5q0 26.5 19.5 46t48.5 19.5q27 0 46 -19.5t19 -46.5q0 -29 -19.5 -48t-46 -19t-47 20.5t-20.5 47zM475 1026 q0 27 19.5 46.5t48.5 19.5q27 0 46 -19.5t19 -46.5q0 -29 -19.5 -48.5t-46 -19.5t-47 20.5t-20.5 47.5zM475 1389q0 27 19.5 46t48.5 19q27 0 46 -18.5t19 -47t-19.5 -48t-46 -19.5t-47 19.5t-20.5 48.5zM717 59.5q0 26.5 19.5 46t47.5 19.5q27 0 46.5 -19.5t19.5 -46.5 q0 -29 -19.5 -48t-46 -19t-47 20.5t-20.5 47zM717 1026q0 27 19.5 46.5t47.5 19.5q27 0 46.5 -19.5t19.5 -46.5q0 -29 -19.5 -48.5t-46 -19.5t-47 20.5t-20.5 47.5zM717 1267.5q0 26.5 19.5 46t47.5 19.5q27 0 46.5 -19.5t19.5 -45.5q0 -29 -19.5 -48.5t-46 -19.5t-47 20.5 t-20.5 47zM958 1026q0 27 19.5 46.5t48.5 19.5q27 0 46.5 -19.5t19.5 -46.5q0 -29 -19.5 -48.5t-46.5 -19.5t-47.5 20.5t-20.5 47.5zM1079 301q0 27 19.5 46.5t48.5 19.5t47 -19.5t18 -46.5q0 -29 -19 -48.5t-46 -19.5q-29 0 -48.5 20.5t-19.5 47.5zM1079 542.5 q0 26.5 19.5 46t48.5 19.5t47 -19.5t18 -45.5q0 -29 -19 -48.5t-46 -19.5q-29 0 -48.5 20.5t-19.5 47zM1079 784.5q0 26.5 19.5 46t48.5 19.5t47 -19.5t18 -46.5q0 -29 -19 -48t-46 -19q-29 0 -48.5 20.5t-19.5 47zM1200 59.5q0 26.5 19.5 46t48.5 19.5q27 0 46 -19.5 t19 -46.5q0 -29 -19.5 -48t-46 -19t-47 20.5t-20.5 47z" />
<glyph unicode="&#xe1;" horiz-adv-x="1449" d="M113 422q0 27 19.5 46t48 19t47 -18t18.5 -47t-19.5 -48.5t-46.5 -19.5q-29 0 -48 19.5t-19 48.5zM113 664q0 27 19.5 46t48 19t47 -18.5t18.5 -47t-19.5 -48t-46.5 -19.5q-29 0 -48 19.5t-19 48.5zM233 180q0 27 19.5 46.5t48.5 19.5q27 0 46.5 -18.5t19.5 -47 t-19.5 -48t-46.5 -19.5t-47.5 19t-20.5 48zM233 905q0 27 19.5 46.5t48.5 19.5q27 0 46.5 -18.5t19.5 -47t-19.5 -48t-46.5 -19.5t-47.5 19t-20.5 48zM475 59.5q0 26.5 19.5 46t48.5 19.5q27 0 46 -19.5t19 -46.5q0 -29 -19.5 -48t-46 -19t-47 20.5t-20.5 47zM475 1026 q0 27 19.5 46.5t48.5 19.5q27 0 46 -19.5t19 -46.5q0 -29 -19.5 -48.5t-46 -19.5t-47 20.5t-20.5 47.5zM596 1267.5q0 26.5 19.5 46t48 19.5t47 -19.5t18.5 -45.5q0 -29 -19.5 -48.5t-45.5 -19.5q-29 0 -48.5 20.5t-19.5 47zM717 59.5q0 26.5 19.5 46t47.5 19.5 q27 0 46.5 -19.5t19.5 -46.5q0 -29 -19.5 -48t-46 -19t-47 20.5t-20.5 47zM717 1026q0 27 19.5 46.5t47.5 19.5q27 0 46.5 -19.5t19.5 -46.5q0 -29 -19.5 -48.5t-46 -19.5t-47 20.5t-20.5 47.5zM838 1389q0 27 19.5 46t48 19t47 -18.5t18.5 -47t-19.5 -48t-46.5 -19.5 q-29 0 -48 19.5t-19 48.5zM958 1026q0 27 19.5 46.5t48.5 19.5q27 0 46.5 -19.5t19.5 -46.5q0 -29 -19.5 -48.5t-46.5 -19.5t-47.5 20.5t-20.5 47.5zM1079 301q0 27 19.5 46.5t48.5 19.5t47 -19.5t18 -46.5q0 -29 -19 -48.5t-46 -19.5q-29 0 -48.5 20.5t-19.5 47.5z M1079 542.5q0 26.5 19.5 46t48.5 19.5t47 -19.5t18 -45.5q0 -29 -19 -48.5t-46 -19.5q-29 0 -48.5 20.5t-19.5 47zM1079 784.5q0 26.5 19.5 46t48.5 19.5t47 -19.5t18 -46.5q0 -29 -19 -48t-46 -19q-29 0 -48.5 20.5t-19.5 47zM1200 59.5q0 26.5 19.5 46t48.5 19.5 q27 0 46 -19.5t19 -46.5q0 -29 -19.5 -48t-46 -19t-47 20.5t-20.5 47z" />
<glyph unicode="&#xe2;" horiz-adv-x="1449" d="M113 422q0 27 19.5 46t48 19t47 -18t18.5 -47t-19.5 -48.5t-46.5 -19.5q-29 0 -48 19.5t-19 48.5zM113 664q0 27 19.5 46t48 19t47 -18.5t18.5 -47t-19.5 -48t-46.5 -19.5q-29 0 -48 19.5t-19 48.5zM233 180q0 27 19.5 46.5t48.5 19.5q27 0 46.5 -18.5t19.5 -47 t-19.5 -48t-46.5 -19.5t-47.5 19t-20.5 48zM233 905q0 27 19.5 46.5t48.5 19.5q27 0 46.5 -18.5t19.5 -47t-19.5 -48t-46.5 -19.5t-47.5 19t-20.5 48zM354 1267.5q0 26.5 19.5 46t48.5 19.5t47 -19.5t18 -45.5q0 -29 -19 -48.5t-46 -19.5q-29 0 -48.5 20.5t-19.5 47z M475 59.5q0 26.5 19.5 46t48.5 19.5q27 0 46 -19.5t19 -46.5q0 -29 -19.5 -48t-46 -19t-47 20.5t-20.5 47zM475 1026q0 27 19.5 46.5t48.5 19.5q27 0 46 -19.5t19 -46.5q0 -29 -19.5 -48.5t-46 -19.5t-47 20.5t-20.5 47.5zM596 1389q0 27 19.5 46t48 19t47 -18.5t18.5 -47 t-19.5 -48t-45.5 -19.5q-29 0 -48.5 19.5t-19.5 48.5zM717 59.5q0 26.5 19.5 46t47.5 19.5q27 0 46.5 -19.5t19.5 -46.5q0 -29 -19.5 -48t-46 -19t-47 20.5t-20.5 47zM717 1026q0 27 19.5 46.5t47.5 19.5q27 0 46.5 -19.5t19.5 -46.5q0 -29 -19.5 -48.5t-46 -19.5t-47 20.5 t-20.5 47.5zM838 1267.5q0 26.5 19.5 46t48 19.5t47 -19.5t18.5 -45.5q0 -29 -19.5 -48.5t-46.5 -19.5q-29 0 -48 20.5t-19 47zM958 1026q0 27 19.5 46.5t48.5 19.5q27 0 46.5 -19.5t19.5 -46.5q0 -29 -19.5 -48.5t-46.5 -19.5t-47.5 20.5t-20.5 47.5zM1079 301 q0 27 19.5 46.5t48.5 19.5t47 -19.5t18 -46.5q0 -29 -19 -48.5t-46 -19.5q-29 0 -48.5 20.5t-19.5 47.5zM1079 542.5q0 26.5 19.5 46t48.5 19.5t47 -19.5t18 -45.5q0 -29 -19 -48.5t-46 -19.5q-29 0 -48.5 20.5t-19.5 47zM1079 784.5q0 26.5 19.5 46t48.5 19.5t47 -19.5 t18 -46.5q0 -29 -19 -48t-46 -19q-29 0 -48.5 20.5t-19.5 47zM1200 59.5q0 26.5 19.5 46t48.5 19.5q27 0 46 -19.5t19 -46.5q0 -29 -19.5 -48t-46 -19t-47 20.5t-20.5 47z" />
<glyph unicode="&#xe3;" horiz-adv-x="1449" d="M113 422q0 27 19.5 46t48 19t47 -18t18.5 -47t-19.5 -48.5t-46.5 -19.5q-29 0 -48 19.5t-19 48.5zM113 664q0 27 19.5 46t48 19t47 -18.5t18.5 -47t-19.5 -48t-46.5 -19.5q-29 0 -48 19.5t-19 48.5zM233 180q0 27 19.5 46.5t48.5 19.5q27 0 46.5 -18.5t19.5 -47 t-19.5 -48t-46.5 -19.5t-47.5 19t-20.5 48zM233 905q0 27 19.5 46.5t48.5 19.5q27 0 46.5 -18.5t19.5 -47t-19.5 -48t-46.5 -19.5t-47.5 19t-20.5 48zM475 59.5q0 26.5 19.5 46t48.5 19.5q27 0 46 -19.5t19 -46.5q0 -29 -19.5 -48t-46 -19t-47 20.5t-20.5 47zM475 1026 q0 27 19.5 46.5t48.5 19.5q27 0 46 -19.5t19 -46.5q0 -29 -19.5 -48.5t-46 -19.5t-47 20.5t-20.5 47.5zM475 1267.5q0 26.5 19.5 46t48.5 19.5q27 0 46 -19.5t19 -45.5q0 -29 -19.5 -48.5t-46 -19.5t-47 20.5t-20.5 47zM596 1389q0 27 19.5 46t48 19t47 -18.5t18.5 -47 t-19.5 -48t-45.5 -19.5q-29 0 -48.5 19.5t-19.5 48.5zM717 59.5q0 26.5 19.5 46t47.5 19.5q27 0 46.5 -19.5t19.5 -46.5q0 -29 -19.5 -48t-46 -19t-47 20.5t-20.5 47zM717 1026q0 27 19.5 46.5t47.5 19.5q27 0 46.5 -19.5t19.5 -46.5q0 -29 -19.5 -48.5t-46 -19.5t-47 20.5 t-20.5 47.5zM717 1267.5q0 26.5 19.5 46t47.5 19.5q27 0 46.5 -19.5t19.5 -45.5q0 -29 -19.5 -48.5t-46 -19.5t-47 20.5t-20.5 47zM838 1389q0 27 19.5 46t48 19t47 -18.5t18.5 -47t-19.5 -48t-46.5 -19.5q-29 0 -48 19.5t-19 48.5zM958 1026q0 27 19.5 46.5t48.5 19.5 q27 0 46.5 -19.5t19.5 -46.5q0 -29 -19.5 -48.5t-46.5 -19.5t-47.5 20.5t-20.5 47.5zM1079 301q0 27 19.5 46.5t48.5 19.5t47 -19.5t18 -46.5q0 -29 -19 -48.5t-46 -19.5q-29 0 -48.5 20.5t-19.5 47.5zM1079 542.5q0 26.5 19.5 46t48.5 19.5t47 -19.5t18 -45.5 q0 -29 -19 -48.5t-46 -19.5q-29 0 -48.5 20.5t-19.5 47zM1079 784.5q0 26.5 19.5 46t48.5 19.5t47 -19.5t18 -46.5q0 -29 -19 -48t-46 -19q-29 0 -48.5 20.5t-19.5 47zM1200 59.5q0 26.5 19.5 46t48.5 19.5q27 0 46 -19.5t19 -46.5q0 -29 -19.5 -48t-46 -19t-47 20.5 t-20.5 47z" />
<glyph unicode="&#xe4;" horiz-adv-x="1449" d="M113 422q0 27 19.5 46t48 19t47 -18t18.5 -47t-19.5 -48.5t-46.5 -19.5q-29 0 -48 19.5t-19 48.5zM113 664q0 27 19.5 46t48 19t47 -18.5t18.5 -47t-19.5 -48t-46.5 -19.5q-29 0 -48 19.5t-19 48.5zM233 180q0 27 19.5 46.5t48.5 19.5q27 0 46.5 -18.5t19.5 -47 t-19.5 -48t-46.5 -19.5t-47.5 19t-20.5 48zM233 905q0 27 19.5 46.5t48.5 19.5q27 0 46.5 -18.5t19.5 -47t-19.5 -48t-46.5 -19.5t-47.5 19t-20.5 48zM475 59.5q0 26.5 19.5 46t48.5 19.5q27 0 46 -19.5t19 -46.5q0 -29 -19.5 -48t-46 -19t-47 20.5t-20.5 47zM475 1026 q0 27 19.5 46.5t48.5 19.5q27 0 46 -19.5t19 -46.5q0 -29 -19.5 -48.5t-46 -19.5t-47 20.5t-20.5 47.5zM475 1389q0 27 19.5 46t48.5 19q27 0 46 -18.5t19 -47t-19.5 -48t-46 -19.5t-47 19.5t-20.5 48.5zM717 59.5q0 26.5 19.5 46t47.5 19.5q27 0 46.5 -19.5t19.5 -46.5 q0 -29 -19.5 -48t-46 -19t-47 20.5t-20.5 47zM717 1026q0 27 19.5 46.5t47.5 19.5q27 0 46.5 -19.5t19.5 -46.5q0 -29 -19.5 -48.5t-46 -19.5t-47 20.5t-20.5 47.5zM717 1389q0 27 19.5 46t47.5 19q27 0 46.5 -18.5t19.5 -47t-19.5 -48t-46 -19.5t-47 19.5t-20.5 48.5z M958 1026q0 27 19.5 46.5t48.5 19.5q27 0 46.5 -19.5t19.5 -46.5q0 -29 -19.5 -48.5t-46.5 -19.5t-47.5 20.5t-20.5 47.5zM1079 301q0 27 19.5 46.5t48.5 19.5t47 -19.5t18 -46.5q0 -29 -19 -48.5t-46 -19.5q-29 0 -48.5 20.5t-19.5 47.5zM1079 542.5q0 26.5 19.5 46 t48.5 19.5t47 -19.5t18 -45.5q0 -29 -19 -48.5t-46 -19.5q-29 0 -48.5 20.5t-19.5 47zM1079 784.5q0 26.5 19.5 46t48.5 19.5t47 -19.5t18 -46.5q0 -29 -19 -48t-46 -19q-29 0 -48.5 20.5t-19.5 47zM1200 59.5q0 26.5 19.5 46t48.5 19.5q27 0 46 -19.5t19 -46.5 q0 -29 -19.5 -48t-46 -19t-47 20.5t-20.5 47z" />
<glyph unicode="&#xe5;" horiz-adv-x="1449" d="M113 422q0 27 19.5 46t48 19t47 -18t18.5 -47t-19.5 -48.5t-46.5 -19.5q-29 0 -48 19.5t-19 48.5zM113 664q0 27 19.5 46t48 19t47 -18.5t18.5 -47t-19.5 -48t-46.5 -19.5q-29 0 -48 19.5t-19 48.5zM233 180q0 27 19.5 46.5t48.5 19.5q27 0 46.5 -18.5t19.5 -47 t-19.5 -48t-46.5 -19.5t-47.5 19t-20.5 48zM233 905q0 27 19.5 46.5t48.5 19.5q27 0 46.5 -18.5t19.5 -47t-19.5 -48t-46.5 -19.5t-47.5 19t-20.5 48zM475 59.5q0 26.5 19.5 46t48.5 19.5q27 0 46 -19.5t19 -46.5q0 -29 -19.5 -48t-46 -19t-47 20.5t-20.5 47zM475 1026 q0 27 19.5 46.5t48.5 19.5q27 0 46 -19.5t19 -46.5q0 -29 -19.5 -48.5t-46 -19.5t-47 20.5t-20.5 47.5zM475 1267.5q0 26.5 19.5 46t48.5 19.5q27 0 46 -19.5t19 -45.5q0 -29 -19.5 -48.5t-46 -19.5t-47 20.5t-20.5 47zM596 1147q0 27 19.5 46t48 19t47 -18t18.5 -47 t-19.5 -48.5t-45.5 -19.5q-29 0 -48.5 19.5t-19.5 48.5zM596 1389q0 27 19.5 46t48 19t47 -18.5t18.5 -47t-19.5 -48t-45.5 -19.5q-29 0 -48.5 19.5t-19.5 48.5zM717 59.5q0 26.5 19.5 46t47.5 19.5q27 0 46.5 -19.5t19.5 -46.5q0 -29 -19.5 -48t-46 -19t-47 20.5t-20.5 47z M717 1026q0 27 19.5 46.5t47.5 19.5q27 0 46.5 -19.5t19.5 -46.5q0 -29 -19.5 -48.5t-46 -19.5t-47 20.5t-20.5 47.5zM717 1267.5q0 26.5 19.5 46t47.5 19.5q27 0 46.5 -19.5t19.5 -45.5q0 -29 -19.5 -48.5t-46 -19.5t-47 20.5t-20.5 47zM958 1026q0 27 19.5 46.5t48.5 19.5 q27 0 46.5 -19.5t19.5 -46.5q0 -29 -19.5 -48.5t-46.5 -19.5t-47.5 20.5t-20.5 47.5zM1079 301q0 27 19.5 46.5t48.5 19.5t47 -19.5t18 -46.5q0 -29 -19 -48.5t-46 -19.5q-29 0 -48.5 20.5t-19.5 47.5zM1079 542.5q0 26.5 19.5 46t48.5 19.5t47 -19.5t18 -45.5 q0 -29 -19 -48.5t-46 -19.5q-29 0 -48.5 20.5t-19.5 47zM1079 784.5q0 26.5 19.5 46t48.5 19.5t47 -19.5t18 -46.5q0 -29 -19 -48t-46 -19q-29 0 -48.5 20.5t-19.5 47zM1200 59.5q0 26.5 19.5 46t48.5 19.5q27 0 46 -19.5t19 -46.5q0 -29 -19.5 -48t-46 -19t-47 20.5 t-20.5 47z" />
<glyph unicode="&#xe6;" horiz-adv-x="2295" d="M113 422q0 27 19.5 46t48 19t47 -18t18.5 -47t-19.5 -48.5t-46.5 -19.5q-29 0 -48 19.5t-19 48.5zM113 664q0 27 19.5 46t48 19t47 -18.5t18.5 -47t-19.5 -48t-46.5 -19.5q-29 0 -48 19.5t-19 48.5zM233 180q0 27 19.5 46.5t48.5 19.5q27 0 46.5 -18.5t19.5 -47 t-19.5 -48t-46.5 -19.5t-47.5 19t-20.5 48zM233 905q0 27 19.5 46.5t48.5 19.5q27 0 46.5 -18.5t19.5 -47t-19.5 -48t-46.5 -19.5t-47.5 19t-20.5 48zM475 59.5q0 26.5 19.5 46t48.5 19.5q27 0 46 -19.5t19 -46.5q0 -29 -19.5 -48t-46 -19t-47 20.5t-20.5 47zM475 1026 q0 27 19.5 46.5t48.5 19.5q27 0 46 -19.5t19 -46.5q0 -29 -19.5 -48.5t-46 -19.5t-47 20.5t-20.5 47.5zM717 59.5q0 26.5 19.5 46t47.5 19.5q27 0 46.5 -19.5t19.5 -46.5q0 -29 -19.5 -48t-46 -19t-47 20.5t-20.5 47zM717 1026q0 27 19.5 46.5t47.5 19.5q27 0 46.5 -19.5 t19.5 -46.5q0 -29 -19.5 -48.5t-46 -19.5t-47 20.5t-20.5 47.5zM958 301q0 27 19.5 46.5t48.5 19.5q27 0 46.5 -19.5t19.5 -46.5q0 -29 -19.5 -48.5t-46.5 -19.5t-47.5 20.5t-20.5 47.5zM958 1026q0 27 19.5 46.5t48.5 19.5q27 0 46.5 -19.5t19.5 -46.5q0 -29 -19.5 -48.5 t-46.5 -19.5t-47.5 20.5t-20.5 47.5zM1079 664q0 27 19.5 46t48.5 19t47 -18.5t18 -47t-19 -48t-46 -19.5q-29 0 -48.5 19.5t-19.5 48.5zM1200 180q0 27 19.5 46.5t48.5 19.5q27 0 46 -18.5t19 -47t-19.5 -48t-46 -19.5t-47 19t-20.5 48zM1200 905q0 27 19.5 46.5t48.5 19.5 q27 0 46 -18.5t19 -47t-19.5 -48t-46 -19.5t-47 19t-20.5 48zM1321 542.5q0 26.5 19.5 46t48 19.5t47 -19.5t18.5 -45.5q0 -29 -19.5 -48.5t-45.5 -19.5q-29 0 -48.5 20.5t-19.5 47zM1442 59.5q0 26.5 19.5 46t47.5 19.5q27 0 46.5 -19.5t19.5 -46.5q0 -29 -19.5 -48 t-46 -19t-47 20.5t-20.5 47zM1442 1026q0 27 19.5 46.5t47.5 19.5q27 0 46.5 -19.5t19.5 -46.5q0 -29 -19.5 -48.5t-46 -19.5t-47 20.5t-20.5 47.5zM1563 542.5q0 26.5 19.5 46t48 19.5t47 -19.5t18.5 -45.5q0 -29 -19.5 -48.5t-46.5 -19.5q-29 0 -48 20.5t-19 47z M1683 59.5q0 26.5 19.5 46t48.5 19.5q27 0 46.5 -19.5t19.5 -46.5q0 -29 -19.5 -48t-46.5 -19t-47.5 20.5t-20.5 47zM1683 1026q0 27 19.5 46.5t48.5 19.5q27 0 46.5 -19.5t19.5 -46.5q0 -29 -19.5 -48.5t-46.5 -19.5t-47.5 20.5t-20.5 47.5zM1804 542.5q0 26.5 19.5 46 t48.5 19.5t47 -19.5t18 -45.5q0 -29 -19.5 -48.5t-45.5 -19.5q-29 0 -48.5 20.5t-19.5 47zM1925 180q0 27 19.5 46.5t48.5 19.5q27 0 46 -18.5t19 -47t-19.5 -48t-46 -19.5t-47 19t-20.5 48zM1925 905q0 27 19.5 46.5t48.5 19.5q27 0 46 -18.5t19 -47t-19.5 -48t-46 -19.5 t-47 19t-20.5 48zM2046 664q0 27 19.5 46t48 19t47 -18.5t18.5 -47t-19.5 -48t-45.5 -19.5q-29 0 -48.5 19.5t-19.5 48.5z" />
<glyph unicode="&#xe7;" horiz-adv-x="1208" d="M113 422q0 27 19.5 46t48 19t47 -18t18.5 -47t-19.5 -48.5t-46.5 -19.5q-29 0 -48 19.5t-19 48.5zM113 664q0 27 19.5 46t48 19t47 -18.5t18.5 -47t-19.5 -48t-46.5 -19.5q-29 0 -48 19.5t-19 48.5zM233 180q0 27 19.5 46.5t48.5 19.5q27 0 46.5 -18.5t19.5 -47 t-19.5 -48t-46.5 -19.5t-47.5 19t-20.5 48zM233 905q0 27 19.5 46.5t48.5 19.5q27 0 46.5 -18.5t19.5 -47t-19.5 -48t-46.5 -19.5t-47.5 19t-20.5 48zM354 -303q0 27 19.5 46t48.5 19t47 -18t18 -47t-19 -48.5t-46 -19.5q-29 0 -48.5 19.5t-19.5 48.5zM475 59.5 q0 26.5 19.5 46t48.5 19.5q27 0 46 -19.5t19 -46.5q0 -29 -19.5 -48t-46 -19t-47 20.5t-20.5 47zM475 1026q0 27 19.5 46.5t48.5 19.5q27 0 46 -19.5t19 -46.5q0 -29 -19.5 -48.5t-46 -19.5t-47 20.5t-20.5 47.5zM596 -182.5q0 26.5 19.5 46t48 19.5t47 -19.5t18.5 -45.5 q0 -29 -19.5 -48.5t-45.5 -19.5q-29 0 -48.5 20.5t-19.5 47zM717 59.5q0 26.5 19.5 46t47.5 19.5q27 0 46.5 -19.5t19.5 -46.5q0 -29 -19.5 -48t-46 -19t-47 20.5t-20.5 47zM717 1026q0 27 19.5 46.5t47.5 19.5q27 0 46.5 -19.5t19.5 -46.5q0 -29 -19.5 -48.5t-46 -19.5 t-47 20.5t-20.5 47.5zM958 180q0 27 19.5 46.5t48.5 19.5q27 0 46.5 -18.5t19.5 -47t-19.5 -48t-46.5 -19.5t-47.5 19t-20.5 48zM958 905q0 27 19.5 46.5t48.5 19.5q27 0 46.5 -18.5t19.5 -47t-19.5 -48t-46.5 -19.5t-47.5 19t-20.5 48z" />
<glyph unicode="&#xe8;" d="M113 422q0 27 19.5 46t48 19t47 -18t18.5 -47t-19.5 -48.5t-46.5 -19.5q-29 0 -48 19.5t-19 48.5zM113 664q0 27 19.5 46t48 19t47 -18.5t18.5 -47t-19.5 -48t-46.5 -19.5q-29 0 -48 19.5t-19 48.5zM233 180q0 27 19.5 46.5t48.5 19.5q27 0 46.5 -18.5t19.5 -47 t-19.5 -48t-46.5 -19.5t-47.5 19t-20.5 48zM233 905q0 27 19.5 46.5t48.5 19.5q27 0 46.5 -18.5t19.5 -47t-19.5 -48t-46.5 -19.5t-47.5 19t-20.5 48zM354 542.5q0 26.5 19.5 46t48.5 19.5t47 -19.5t18 -45.5q0 -29 -19 -48.5t-46 -19.5q-29 0 -48.5 20.5t-19.5 47z M475 59.5q0 26.5 19.5 46t48.5 19.5q27 0 46 -19.5t19 -46.5q0 -29 -19.5 -48t-46 -19t-47 20.5t-20.5 47zM475 1026q0 27 19.5 46.5t48.5 19.5q27 0 46 -19.5t19 -46.5q0 -29 -19.5 -48.5t-46 -19.5t-47 20.5t-20.5 47.5zM475 1389q0 27 19.5 46t48.5 19q27 0 46 -18.5 t19 -47t-19.5 -48t-46 -19.5t-47 19.5t-20.5 48.5zM596 542.5q0 26.5 19.5 46t48 19.5t47 -19.5t18.5 -45.5q0 -29 -19.5 -48.5t-45.5 -19.5q-29 0 -48.5 20.5t-19.5 47zM717 59.5q0 26.5 19.5 46t47.5 19.5q27 0 46.5 -19.5t19.5 -46.5q0 -29 -19.5 -48t-46 -19t-47 20.5 t-20.5 47zM717 1026q0 27 19.5 46.5t47.5 19.5q27 0 46.5 -19.5t19.5 -46.5q0 -29 -19.5 -48.5t-46 -19.5t-47 20.5t-20.5 47.5zM717 1267.5q0 26.5 19.5 46t47.5 19.5q27 0 46.5 -19.5t19.5 -45.5q0 -29 -19.5 -48.5t-46 -19.5t-47 20.5t-20.5 47zM838 542.5 q0 26.5 19.5 46t48 19.5t47 -19.5t18.5 -45.5q0 -29 -19.5 -48.5t-46.5 -19.5q-29 0 -48 20.5t-19 47zM958 180q0 27 19.5 46.5t48.5 19.5q27 0 46.5 -18.5t19.5 -47t-19.5 -48t-46.5 -19.5t-47.5 19t-20.5 48zM958 905q0 27 19.5 46.5t48.5 19.5q27 0 46.5 -18.5t19.5 -47 t-19.5 -48t-46.5 -19.5t-47.5 19t-20.5 48zM1079 664q0 27 19.5 46t48.5 19t47 -18.5t18 -47t-19 -48t-46 -19.5q-29 0 -48.5 19.5t-19.5 48.5z" />
<glyph unicode="&#xe9;" d="M113 422q0 27 19.5 46t48 19t47 -18t18.5 -47t-19.5 -48.5t-46.5 -19.5q-29 0 -48 19.5t-19 48.5zM113 664q0 27 19.5 46t48 19t47 -18.5t18.5 -47t-19.5 -48t-46.5 -19.5q-29 0 -48 19.5t-19 48.5zM233 180q0 27 19.5 46.5t48.5 19.5q27 0 46.5 -18.5t19.5 -47 t-19.5 -48t-46.5 -19.5t-47.5 19t-20.5 48zM233 905q0 27 19.5 46.5t48.5 19.5q27 0 46.5 -18.5t19.5 -47t-19.5 -48t-46.5 -19.5t-47.5 19t-20.5 48zM354 542.5q0 26.5 19.5 46t48.5 19.5t47 -19.5t18 -45.5q0 -29 -19 -48.5t-46 -19.5q-29 0 -48.5 20.5t-19.5 47z M475 59.5q0 26.5 19.5 46t48.5 19.5q27 0 46 -19.5t19 -46.5q0 -29 -19.5 -48t-46 -19t-47 20.5t-20.5 47zM475 1026q0 27 19.5 46.5t48.5 19.5q27 0 46 -19.5t19 -46.5q0 -29 -19.5 -48.5t-46 -19.5t-47 20.5t-20.5 47.5zM475 1267.5q0 26.5 19.5 46t48.5 19.5 q27 0 46 -19.5t19 -45.5q0 -29 -19.5 -48.5t-46 -19.5t-47 20.5t-20.5 47zM596 542.5q0 26.5 19.5 46t48 19.5t47 -19.5t18.5 -45.5q0 -29 -19.5 -48.5t-45.5 -19.5q-29 0 -48.5 20.5t-19.5 47zM717 59.5q0 26.5 19.5 46t47.5 19.5q27 0 46.5 -19.5t19.5 -46.5 q0 -29 -19.5 -48t-46 -19t-47 20.5t-20.5 47zM717 1026q0 27 19.5 46.5t47.5 19.5q27 0 46.5 -19.5t19.5 -46.5q0 -29 -19.5 -48.5t-46 -19.5t-47 20.5t-20.5 47.5zM717 1389q0 27 19.5 46t47.5 19q27 0 46.5 -18.5t19.5 -47t-19.5 -48t-46 -19.5t-47 19.5t-20.5 48.5z M838 542.5q0 26.5 19.5 46t48 19.5t47 -19.5t18.5 -45.5q0 -29 -19.5 -48.5t-46.5 -19.5q-29 0 -48 20.5t-19 47zM958 180q0 27 19.5 46.5t48.5 19.5q27 0 46.5 -18.5t19.5 -47t-19.5 -48t-46.5 -19.5t-47.5 19t-20.5 48zM958 905q0 27 19.5 46.5t48.5 19.5q27 0 46.5 -18.5 t19.5 -47t-19.5 -48t-46.5 -19.5t-47.5 19t-20.5 48zM1079 664q0 27 19.5 46t48.5 19t47 -18.5t18 -47t-19 -48t-46 -19.5q-29 0 -48.5 19.5t-19.5 48.5z" />
<glyph unicode="&#xea;" d="M113 422q0 27 19.5 46t48 19t47 -18t18.5 -47t-19.5 -48.5t-46.5 -19.5q-29 0 -48 19.5t-19 48.5zM113 664q0 27 19.5 46t48 19t47 -18.5t18.5 -47t-19.5 -48t-46.5 -19.5q-29 0 -48 19.5t-19 48.5zM233 180q0 27 19.5 46.5t48.5 19.5q27 0 46.5 -18.5t19.5 -47 t-19.5 -48t-46.5 -19.5t-47.5 19t-20.5 48zM233 905q0 27 19.5 46.5t48.5 19.5q27 0 46.5 -18.5t19.5 -47t-19.5 -48t-46.5 -19.5t-47.5 19t-20.5 48zM354 542.5q0 26.5 19.5 46t48.5 19.5t47 -19.5t18 -45.5q0 -29 -19 -48.5t-46 -19.5q-29 0 -48.5 20.5t-19.5 47z M354 1267.5q0 26.5 19.5 46t48.5 19.5t47 -19.5t18 -45.5q0 -29 -19 -48.5t-46 -19.5q-29 0 -48.5 20.5t-19.5 47zM475 59.5q0 26.5 19.5 46t48.5 19.5q27 0 46 -19.5t19 -46.5q0 -29 -19.5 -48t-46 -19t-47 20.5t-20.5 47zM475 1026q0 27 19.5 46.5t48.5 19.5 q27 0 46 -19.5t19 -46.5q0 -29 -19.5 -48.5t-46 -19.5t-47 20.5t-20.5 47.5zM596 542.5q0 26.5 19.5 46t48 19.5t47 -19.5t18.5 -45.5q0 -29 -19.5 -48.5t-45.5 -19.5q-29 0 -48.5 20.5t-19.5 47zM596 1389q0 27 19.5 46t48 19t47 -18.5t18.5 -47t-19.5 -48t-45.5 -19.5 q-29 0 -48.5 19.5t-19.5 48.5zM717 59.5q0 26.5 19.5 46t47.5 19.5q27 0 46.5 -19.5t19.5 -46.5q0 -29 -19.5 -48t-46 -19t-47 20.5t-20.5 47zM717 1026q0 27 19.5 46.5t47.5 19.5q27 0 46.5 -19.5t19.5 -46.5q0 -29 -19.5 -48.5t-46 -19.5t-47 20.5t-20.5 47.5zM838 542.5 q0 26.5 19.5 46t48 19.5t47 -19.5t18.5 -45.5q0 -29 -19.5 -48.5t-46.5 -19.5q-29 0 -48 20.5t-19 47zM838 1267.5q0 26.5 19.5 46t48 19.5t47 -19.5t18.5 -45.5q0 -29 -19.5 -48.5t-46.5 -19.5q-29 0 -48 20.5t-19 47zM958 180q0 27 19.5 46.5t48.5 19.5q27 0 46.5 -18.5 t19.5 -47t-19.5 -48t-46.5 -19.5t-47.5 19t-20.5 48zM958 905q0 27 19.5 46.5t48.5 19.5q27 0 46.5 -18.5t19.5 -47t-19.5 -48t-46.5 -19.5t-47.5 19t-20.5 48zM1079 664q0 27 19.5 46t48.5 19t47 -18.5t18 -47t-19 -48t-46 -19.5q-29 0 -48.5 19.5t-19.5 48.5z" />
<glyph unicode="&#xeb;" d="M113 422q0 27 19.5 46t48 19t47 -18t18.5 -47t-19.5 -48.5t-46.5 -19.5q-29 0 -48 19.5t-19 48.5zM113 664q0 27 19.5 46t48 19t47 -18.5t18.5 -47t-19.5 -48t-46.5 -19.5q-29 0 -48 19.5t-19 48.5zM233 180q0 27 19.5 46.5t48.5 19.5q27 0 46.5 -18.5t19.5 -47 t-19.5 -48t-46.5 -19.5t-47.5 19t-20.5 48zM233 905q0 27 19.5 46.5t48.5 19.5q27 0 46.5 -18.5t19.5 -47t-19.5 -48t-46.5 -19.5t-47.5 19t-20.5 48zM354 542.5q0 26.5 19.5 46t48.5 19.5t47 -19.5t18 -45.5q0 -29 -19 -48.5t-46 -19.5q-29 0 -48.5 20.5t-19.5 47z M475 59.5q0 26.5 19.5 46t48.5 19.5q27 0 46 -19.5t19 -46.5q0 -29 -19.5 -48t-46 -19t-47 20.5t-20.5 47zM475 1026q0 27 19.5 46.5t48.5 19.5q27 0 46 -19.5t19 -46.5q0 -29 -19.5 -48.5t-46 -19.5t-47 20.5t-20.5 47.5zM475 1389q0 27 19.5 46t48.5 19q27 0 46 -18.5 t19 -47t-19.5 -48t-46 -19.5t-47 19.5t-20.5 48.5zM596 542.5q0 26.5 19.5 46t48 19.5t47 -19.5t18.5 -45.5q0 -29 -19.5 -48.5t-45.5 -19.5q-29 0 -48.5 20.5t-19.5 47zM717 59.5q0 26.5 19.5 46t47.5 19.5q27 0 46.5 -19.5t19.5 -46.5q0 -29 -19.5 -48t-46 -19t-47 20.5 t-20.5 47zM717 1026q0 27 19.5 46.5t47.5 19.5q27 0 46.5 -19.5t19.5 -46.5q0 -29 -19.5 -48.5t-46 -19.5t-47 20.5t-20.5 47.5zM717 1389q0 27 19.5 46t47.5 19q27 0 46.5 -18.5t19.5 -47t-19.5 -48t-46 -19.5t-47 19.5t-20.5 48.5zM838 542.5q0 26.5 19.5 46t48 19.5 t47 -19.5t18.5 -45.5q0 -29 -19.5 -48.5t-46.5 -19.5q-29 0 -48 20.5t-19 47zM958 180q0 27 19.5 46.5t48.5 19.5q27 0 46.5 -18.5t19.5 -47t-19.5 -48t-46.5 -19.5t-47.5 19t-20.5 48zM958 905q0 27 19.5 46.5t48.5 19.5q27 0 46.5 -18.5t19.5 -47t-19.5 -48t-46.5 -19.5 t-47.5 19t-20.5 48zM1079 664q0 27 19.5 46t48.5 19t47 -18.5t18 -47t-19 -48t-46 -19.5q-29 0 -48.5 19.5t-19.5 48.5z" />
</font>
</defs>
</svg>
