<?xml version="1.0" standalone="no"?>
<!DOCTYPE svg PUBLIC "-//W3C//DTD SVG 1.1//EN" "http://www.w3.org/Graphics/SVG/1.1/DTD/svg11.dtd" >
<svg xmlns="http://www.w3.org/2000/svg">
<metadata>
This is a custom SVG webfont generated by Font Squirrel.
Copyright   : Copyright c 2007 by George Triantafyllakos All rights reserved
Designer    : George Triantafyllakos
Foundry     : George Triantafyllakos
Foundry URL : httpwwwbackpackergr
</metadata>
<defs>
<font id="webfontr7W52hyV" horiz-adv-x="350" >
<font-face units-per-em="1000" ascent="750" descent="-250" />
<missing-glyph horiz-adv-x="225" />
<glyph unicode=" "  horiz-adv-x="225" />
<glyph unicode="&#x09;" horiz-adv-x="225" />
<glyph unicode="&#xa0;" horiz-adv-x="225" />
<glyph unicode="!" horiz-adv-x="200" d="M75 25q0 11 7 18t18 7t18 -7t7 -18t-7 -18t-18 -7t-18 7t-7 18zM75 100q0 11 7 18t18 7t18 -7t7 -18t-7 -18t-18 -7t-18 7t-7 18zM75 325q0 11 7 18t18 7t18 -7t7 -18t-7 -18t-18 -7t-18 7t-7 18zM75 400q0 11 7 18t18 7t18 -7t7 -18t-7 -18t-18 -7t-18 7t-7 18zM75 475 q0 11 7 18t18 7t18 -7t7 -18t-7 -18t-18 -7t-18 7t-7 18zM75 550q0 11 7 18t18 7t18 -7t7 -18t-7 -18t-18 -7t-18 7t-7 18zM75 625q0 11 7 18t18 7t18 -7t7 -18t-7 -18t-18 -7t-18 7t-7 18zM75 700q0 11 7 18t18 7t18 -7t7 -18t-7 -18t-18 -7t-18 7t-7 18z" />
<glyph unicode="&#x22;" d="M75 550q0 11 7 18t18 7t18 -7t7 -18t-7 -18t-18 -7t-18 7t-7 18zM75 625q0 11 7 18t18 7t18 -7t7 -18t-7 -18t-18 -7t-18 7t-7 18zM75 700q0 11 7 18t18 7t18 -7t7 -18t-7 -18t-18 -7t-18 7t-7 18zM75 775q0 11 7 18t18 7t18 -7t7 -18t-7 -18t-18 -7t-18 7t-7 18z M225 550q0 11 7 18t18 7t18 -7t7 -18t-7 -18t-18 -7t-18 7t-7 18zM225 625q0 11 7 18t18 7t18 -7t7 -18t-7 -18t-18 -7t-18 7t-7 18zM225 700q0 11 7 18t18 7t18 -7t7 -18t-7 -18t-18 -7t-18 7t-7 18zM225 775q0 11 7 18t18 7t18 -7t7 -18t-7 -18t-18 -7t-18 7t-7 18z" />
<glyph unicode="#" horiz-adv-x="425" d="M0 175q0 11 7 18t18 7t18 -7t7 -18t-7 -18t-18 -7t-18 7t-7 18zM0 550q0 11 7 18t18 7t18 -7t7 -18t-7 -18t-18 -7t-18 7t-7 18zM75 25q0 11 7 18t18 7t18 -7t7 -18t-7 -18t-18 -7t-18 7t-7 18zM75 100q0 11 7 18t18 7t18 -7t7 -18t-7 -18t-18 -7t-18 7t-7 18zM75 175 q0 11 7 18t18 7t18 -7t7 -18t-7 -18t-18 -7t-18 7t-7 18zM75 250q0 11 7 18t18 7t18 -7t7 -18t-7 -18t-18 -7t-18 7t-7 18zM75 325q0 11 7 18t18 7t18 -7t7 -18t-7 -18t-18 -7t-18 7t-7 18zM75 400q0 11 7 18t18 7t18 -7t7 -18t-7 -18t-18 -7t-18 7t-7 18zM75 475q0 11 7 18 t18 7t18 -7t7 -18t-7 -18t-18 -7t-18 7t-7 18zM75 550q0 11 7 18t18 7t18 -7t7 -18t-7 -18t-18 -7t-18 7t-7 18zM75 625q0 11 7 18t18 7t18 -7t7 -18t-7 -18t-18 -7t-18 7t-7 18zM75 700q0 11 7 18t18 7t18 -7t7 -18t-7 -18t-18 -7t-18 7t-7 18zM150 175q0 11 7 18t18 7 t18 -7t7 -18t-7 -18t-18 -7t-18 7t-7 18zM150 550q0 11 7 18t18 7t18 -7t7 -18t-7 -18t-18 -7t-18 7t-7 18zM225 25q0 11 7 18t18 7t18 -7t7 -18t-7 -18t-18 -7t-18 7t-7 18zM225 100q0 11 7 18t18 7t18 -7t7 -18t-7 -18t-18 -7t-18 7t-7 18zM225 175q0 11 7 18t18 7t18 -7 t7 -18t-7 -18t-18 -7t-18 7t-7 18zM225 250q0 11 7 18t18 7t18 -7t7 -18t-7 -18t-18 -7t-18 7t-7 18zM225 325q0 11 7 18t18 7t18 -7t7 -18t-7 -18t-18 -7t-18 7t-7 18zM225 400q0 11 7 18t18 7t18 -7t7 -18t-7 -18t-18 -7t-18 7t-7 18zM225 475q0 11 7 18t18 7t18 -7t7 -18 t-7 -18t-18 -7t-18 7t-7 18zM225 550q0 11 7 18t18 7t18 -7t7 -18t-7 -18t-18 -7t-18 7t-7 18zM225 625q0 11 7 18t18 7t18 -7t7 -18t-7 -18t-18 -7t-18 7t-7 18zM225 700q0 11 7 18t18 7t18 -7t7 -18t-7 -18t-18 -7t-18 7t-7 18zM300 175q0 11 7 18t18 7t18 -7t7 -18 t-7 -18t-18 -7t-18 7t-7 18zM300 550q0 11 7 18t18 7t18 -7t7 -18t-7 -18t-18 -7t-18 7t-7 18z" />
<glyph unicode="$" horiz-adv-x="425" d="M0 100q0 11 7 18t18 7t18 -7t7 -18t-7 -18t-18 -7t-18 7t-7 18zM0 175q0 11 7 18t18 7t18 -7t7 -18t-7 -18t-18 -7t-18 7t-7 18zM0 475q0 11 7 18t18 7t18 -7t7 -18t-7 -18t-18 -7t-18 7t-7 18zM0 550q0 11 7 18t18 7t18 -7t7 -18t-7 -18t-18 -7t-18 7t-7 18zM0 625 q0 11 7 18t18 7t18 -7t7 -18t-7 -18t-18 -7t-18 7t-7 18zM75 25q0 11 7 18t18 7t18 -7t7 -18t-7 -18t-18 -7t-18 7t-7 18zM75 400q0 11 7 18t18 7t18 -7t7 -18t-7 -18t-18 -7t-18 7t-7 18zM75 700q0 11 7 18t18 7t18 -7t7 -18t-7 -18t-18 -7t-18 7t-7 18zM150 25q0 11 7 18 t18 7t18 -7t7 -18t-7 -18t-18 -7t-18 7t-7 18zM150 -50q0 11 7 18t18 7t18 -7t7 -18t-7 -18t-18 -7t-18 7t-7 18zM150 100q0 11 7 18t18 7t18 -7t7 -18t-7 -18t-18 -7t-18 7t-7 18zM150 175q0 11 7 18t18 7t18 -7t7 -18t-7 -18t-18 -7t-18 7t-7 18zM150 250q0 11 7 18t18 7 t18 -7t7 -18t-7 -18t-18 -7t-18 7t-7 18zM150 325q0 11 7 18t18 7t18 -7t7 -18t-7 -18t-18 -7t-18 7t-7 18zM150 400q0 11 7 18t18 7t18 -7t7 -18t-7 -18t-18 -7t-18 7t-7 18zM150 475q0 11 7 18t18 7t18 -7t7 -18t-7 -18t-18 -7t-18 7t-7 18zM150 550q0 11 7 18t18 7t18 -7 t7 -18t-7 -18t-18 -7t-18 7t-7 18zM150 625q0 11 7 18t18 7t18 -7t7 -18t-7 -18t-18 -7t-18 7t-7 18zM150 700q0 11 7 18t18 7t18 -7t7 -18t-7 -18t-18 -7t-18 7t-7 18zM150 775q0 11 7 18t18 7t18 -7t7 -18t-7 -18t-18 -7t-18 7t-7 18zM225 25q0 11 7 18t18 7t18 -7t7 -18 t-7 -18t-18 -7t-18 7t-7 18zM225 325q0 11 7 18t18 7t18 -7t7 -18t-7 -18t-18 -7t-18 7t-7 18zM225 700q0 11 7 18t18 7t18 -7t7 -18t-7 -18t-18 -7t-18 7t-7 18zM300 100q0 11 7 18t18 7t18 -7t7 -18t-7 -18t-18 -7t-18 7t-7 18zM300 175q0 11 7 18t18 7t18 -7t7 -18 t-7 -18t-18 -7t-18 7t-7 18zM300 250q0 11 7 18t18 7t18 -7t7 -18t-7 -18t-18 -7t-18 7t-7 18zM300 550q0 11 7 18t18 7t18 -7t7 -18t-7 -18t-18 -7t-18 7t-7 18zM300 625q0 11 7 18t18 7t18 -7t7 -18t-7 -18t-18 -7t-18 7t-7 18z" />
<glyph unicode="%" horiz-adv-x="425" d="M0 25q0 11 7 18t18 7t18 -7t7 -18t-7 -18t-18 -7t-18 7t-7 18zM0 100q0 11 7 18t18 7t18 -7t7 -18t-7 -18t-18 -7t-18 7t-7 18zM0 475q0 11 7 18t18 7t18 -7t7 -18t-7 -18t-18 -7t-18 7t-7 18zM0 550q0 11 7 18t18 7t18 -7t7 -18t-7 -18t-18 -7t-18 7t-7 18zM0 625 q0 11 7 18t18 7t18 -7t7 -18t-7 -18t-18 -7t-18 7t-7 18zM0 700q0 11 7 18t18 7t18 -7t7 -18t-7 -18t-18 -7t-18 7t-7 18zM75 175q0 11 7 18t18 7t18 -7t7 -18t-7 -18t-18 -7t-18 7t-7 18zM75 250q0 11 7 18t18 7t18 -7t7 -18t-7 -18t-18 -7t-18 7t-7 18zM75 475q0 11 7 18 t18 7t18 -7t7 -18t-7 -18t-18 -7t-18 7t-7 18zM75 550q0 11 7 18t18 7t18 -7t7 -18t-7 -18t-18 -7t-18 7t-7 18zM75 625q0 11 7 18t18 7t18 -7t7 -18t-7 -18t-18 -7t-18 7t-7 18zM75 700q0 11 7 18t18 7t18 -7t7 -18t-7 -18t-18 -7t-18 7t-7 18zM150 325q0 11 7 18t18 7 t18 -7t7 -18t-7 -18t-18 -7t-18 7t-7 18zM150 400q0 11 7 18t18 7t18 -7t7 -18t-7 -18t-18 -7t-18 7t-7 18zM225 25q0 11 7 18t18 7t18 -7t7 -18t-7 -18t-18 -7t-18 7t-7 18zM225 100q0 11 7 18t18 7t18 -7t7 -18t-7 -18t-18 -7t-18 7t-7 18zM225 175q0 11 7 18t18 7t18 -7 t7 -18t-7 -18t-18 -7t-18 7t-7 18zM225 250q0 11 7 18t18 7t18 -7t7 -18t-7 -18t-18 -7t-18 7t-7 18zM225 475q0 11 7 18t18 7t18 -7t7 -18t-7 -18t-18 -7t-18 7t-7 18zM225 550q0 11 7 18t18 7t18 -7t7 -18t-7 -18t-18 -7t-18 7t-7 18zM300 25q0 11 7 18t18 7t18 -7t7 -18 t-7 -18t-18 -7t-18 7t-7 18zM300 100q0 11 7 18t18 7t18 -7t7 -18t-7 -18t-18 -7t-18 7t-7 18zM300 175q0 11 7 18t18 7t18 -7t7 -18t-7 -18t-18 -7t-18 7t-7 18zM300 250q0 11 7 18t18 7t18 -7t7 -18t-7 -18t-18 -7t-18 7t-7 18zM300 625q0 11 7 18t18 7t18 -7t7 -18 t-7 -18t-18 -7t-18 7t-7 18zM300 700q0 11 7 18t18 7t18 -7t7 -18t-7 -18t-18 -7t-18 7t-7 18z" />
<glyph unicode="&#x26;" horiz-adv-x="425" d="M0 100q0 11 7 18t18 7t18 -7t7 -18t-7 -18t-18 -7t-18 7t-7 18zM0 175q0 11 7 18t18 7t18 -7t7 -18t-7 -18t-18 -7t-18 7t-7 18zM0 250q0 11 7 18t18 7t18 -7t7 -18t-7 -18t-18 -7t-18 7t-7 18zM0 325q0 11 7 18t18 7t18 -7t7 -18t-7 -18t-18 -7t-18 7t-7 18zM0 475 q0 11 7 18t18 7t18 -7t7 -18t-7 -18t-18 -7t-18 7t-7 18zM0 550q0 11 7 18t18 7t18 -7t7 -18t-7 -18t-18 -7t-18 7t-7 18zM0 625q0 11 7 18t18 7t18 -7t7 -18t-7 -18t-18 -7t-18 7t-7 18zM75 25q0 11 7 18t18 7t18 -7t7 -18t-7 -18t-18 -7t-18 7t-7 18zM75 400q0 11 7 18 t18 7t18 -7t7 -18t-7 -18t-18 -7t-18 7t-7 18zM75 700q0 11 7 18t18 7t18 -7t7 -18t-7 -18t-18 -7t-18 7t-7 18zM150 25q0 11 7 18t18 7t18 -7t7 -18t-7 -18t-18 -7t-18 7t-7 18zM150 325q0 11 7 18t18 7t18 -7t7 -18t-7 -18t-18 -7t-18 7t-7 18zM150 400q0 11 7 18t18 7 t18 -7t7 -18t-7 -18t-18 -7t-18 7t-7 18zM150 700q0 11 7 18t18 7t18 -7t7 -18t-7 -18t-18 -7t-18 7t-7 18zM225 100q0 11 7 18t18 7t18 -7t7 -18t-7 -18t-18 -7t-18 7t-7 18zM225 175q0 11 7 18t18 7t18 -7t7 -18t-7 -18t-18 -7t-18 7t-7 18zM225 250q0 11 7 18t18 7t18 -7 t7 -18t-7 -18t-18 -7t-18 7t-7 18zM225 475q0 11 7 18t18 7t18 -7t7 -18t-7 -18t-18 -7t-18 7t-7 18zM225 550q0 11 7 18t18 7t18 -7t7 -18t-7 -18t-18 -7t-18 7t-7 18zM225 625q0 11 7 18t18 7t18 -7t7 -18t-7 -18t-18 -7t-18 7t-7 18zM300 25q0 11 7 18t18 7t18 -7t7 -18 t-7 -18t-18 -7t-18 7t-7 18zM300 325q0 11 7 18t18 7t18 -7t7 -18t-7 -18t-18 -7t-18 7t-7 18z" />
<glyph unicode="'" horiz-adv-x="200" d="M75 550q0 11 7 18t18 7t18 -7t7 -18t-7 -18t-18 -7t-18 7t-7 18zM75 625q0 11 7 18t18 7t18 -7t7 -18t-7 -18t-18 -7t-18 7t-7 18zM75 700q0 11 7 18t18 7t18 -7t7 -18t-7 -18t-18 -7t-18 7t-7 18zM75 775q0 11 7 18t18 7t18 -7t7 -18t-7 -18t-18 -7t-18 7t-7 18z" />
<glyph unicode="(" d="M75 175q0 11 7 18t18 7t18 -7t7 -18t-7 -18t-18 -7t-18 7t-7 18zM75 250q0 11 7 18t18 7t18 -7t7 -18t-7 -18t-18 -7t-18 7t-7 18zM75 325q0 11 7 18t18 7t18 -7t7 -18t-7 -18t-18 -7t-18 7t-7 18zM75 400q0 11 7 18t18 7t18 -7t7 -18t-7 -18t-18 -7t-18 7t-7 18zM75 475 q0 11 7 18t18 7t18 -7t7 -18t-7 -18t-18 -7t-18 7t-7 18zM75 550q0 11 7 18t18 7t18 -7t7 -18t-7 -18t-18 -7t-18 7t-7 18zM150 100q0 11 7 18t18 7t18 -7t7 -18t-7 -18t-18 -7t-18 7t-7 18zM150 625q0 11 7 18t18 7t18 -7t7 -18t-7 -18t-18 -7t-18 7t-7 18zM225 25 q0 11 7 18t18 7t18 -7t7 -18t-7 -18t-18 -7t-18 7t-7 18zM225 700q0 11 7 18t18 7t18 -7t7 -18t-7 -18t-18 -7t-18 7t-7 18z" />
<glyph unicode=")" d="M75 25q0 11 7 18t18 7t18 -7t7 -18t-7 -18t-18 -7t-18 7t-7 18zM75 700q0 11 7 18t18 7t18 -7t7 -18t-7 -18t-18 -7t-18 7t-7 18zM150 100q0 11 7 18t18 7t18 -7t7 -18t-7 -18t-18 -7t-18 7t-7 18zM150 625q0 11 7 18t18 7t18 -7t7 -18t-7 -18t-18 -7t-18 7t-7 18z M225 175q0 11 7 18t18 7t18 -7t7 -18t-7 -18t-18 -7t-18 7t-7 18zM225 250q0 11 7 18t18 7t18 -7t7 -18t-7 -18t-18 -7t-18 7t-7 18zM225 325q0 11 7 18t18 7t18 -7t7 -18t-7 -18t-18 -7t-18 7t-7 18zM225 400q0 11 7 18t18 7t18 -7t7 -18t-7 -18t-18 -7t-18 7t-7 18z M225 475q0 11 7 18t18 7t18 -7t7 -18t-7 -18t-18 -7t-18 7t-7 18zM225 550q0 11 7 18t18 7t18 -7t7 -18t-7 -18t-18 -7t-18 7t-7 18z" />
<glyph unicode="*" d="M75 625q0 11 7 18t18 7t18 -7t7 -18t-7 -18t-18 -7t-18 7t-7 18zM75 775q0 11 7 18t18 7t18 -7t7 -18t-7 -18t-18 -7t-18 7t-7 18zM150 700q0 11 7 18t18 7t18 -7t7 -18t-7 -18t-18 -7t-18 7t-7 18zM225 625q0 11 7 18t18 7t18 -7t7 -18t-7 -18t-18 -7t-18 7t-7 18z M225 775q0 11 7 18t18 7t18 -7t7 -18t-7 -18t-18 -7t-18 7t-7 18z" />
<glyph unicode="+" horiz-adv-x="425" d="M0 325q0 11 7 18t18 7t18 -7t7 -18t-7 -18t-18 -7t-18 7t-7 18zM75 325q0 11 7 18t18 7t18 -7t7 -18t-7 -18t-18 -7t-18 7t-7 18zM150 175q0 11 7 18t18 7t18 -7t7 -18t-7 -18t-18 -7t-18 7t-7 18zM150 250q0 11 7 18t18 7t18 -7t7 -18t-7 -18t-18 -7t-18 7t-7 18z M150 325q0 11 7 18t18 7t18 -7t7 -18t-7 -18t-18 -7t-18 7t-7 18zM150 400q0 11 7 18t18 7t18 -7t7 -18t-7 -18t-18 -7t-18 7t-7 18zM150 475q0 11 7 18t18 7t18 -7t7 -18t-7 -18t-18 -7t-18 7t-7 18zM225 325q0 11 7 18t18 7t18 -7t7 -18t-7 -18t-18 -7t-18 7t-7 18z M300 325q0 11 7 18t18 7t18 -7t7 -18t-7 -18t-18 -7t-18 7t-7 18z" />
<glyph unicode="," horiz-adv-x="275" d="M75 -50q0 11 7 18t18 7t18 -7t7 -18t-7 -18t-18 -7t-18 7t-7 18zM75 -125q0 11 7 18t18 7t18 -7t7 -18t-7 -18t-18 -7t-18 7t-7 18zM150 25q0 11 7 18t18 7t18 -7t7 -18t-7 -18t-18 -7t-18 7t-7 18zM150 100q0 11 7 18t18 7t18 -7t7 -18t-7 -18t-18 -7t-18 7t-7 18z" />
<glyph unicode="-" d="M75 325q0 11 7 18t18 7t18 -7t7 -18t-7 -18t-18 -7t-18 7t-7 18zM150 325q0 11 7 18t18 7t18 -7t7 -18t-7 -18t-18 -7t-18 7t-7 18zM225 325q0 11 7 18t18 7t18 -7t7 -18t-7 -18t-18 -7t-18 7t-7 18z" />
<glyph unicode="." horiz-adv-x="275" d="M75 25q0 11 7 18t18 7t18 -7t7 -18t-7 -18t-18 -7t-18 7t-7 18zM75 100q0 11 7 18t18 7t18 -7t7 -18t-7 -18t-18 -7t-18 7t-7 18zM150 25q0 11 7 18t18 7t18 -7t7 -18t-7 -18t-18 -7t-18 7t-7 18zM150 100q0 11 7 18t18 7t18 -7t7 -18t-7 -18t-18 -7t-18 7t-7 18z" />
<glyph unicode="/" horiz-adv-x="425" d="M0 25q0 11 7 18t18 7t18 -7t7 -18t-7 -18t-18 -7t-18 7t-7 18zM0 100q0 11 7 18t18 7t18 -7t7 -18t-7 -18t-18 -7t-18 7t-7 18zM75 175q0 11 7 18t18 7t18 -7t7 -18t-7 -18t-18 -7t-18 7t-7 18zM75 250q0 11 7 18t18 7t18 -7t7 -18t-7 -18t-18 -7t-18 7t-7 18zM150 325 q0 11 7 18t18 7t18 -7t7 -18t-7 -18t-18 -7t-18 7t-7 18zM150 400q0 11 7 18t18 7t18 -7t7 -18t-7 -18t-18 -7t-18 7t-7 18zM225 475q0 11 7 18t18 7t18 -7t7 -18t-7 -18t-18 -7t-18 7t-7 18zM225 550q0 11 7 18t18 7t18 -7t7 -18t-7 -18t-18 -7t-18 7t-7 18zM300 625 q0 11 7 18t18 7t18 -7t7 -18t-7 -18t-18 -7t-18 7t-7 18zM300 700q0 11 7 18t18 7t18 -7t7 -18t-7 -18t-18 -7t-18 7t-7 18z" />
<glyph unicode="0" d="M75 100q0 11 7 18t18 7t18 -7t7 -18t-7 -18t-18 -7t-18 7t-7 18zM75 175q0 11 7 18t18 7t18 -7t7 -18t-7 -18t-18 -7t-18 7t-7 18zM75 250q0 11 7 18t18 7t18 -7t7 -18t-7 -18t-18 -7t-18 7t-7 18zM75 325q0 11 7 18t18 7t18 -7t7 -18t-7 -18t-18 -7t-18 7t-7 18zM75 400 q0 11 7 18t18 7t18 -7t7 -18t-7 -18t-18 -7t-18 7t-7 18zM75 475q0 11 7 18t18 7t18 -7t7 -18t-7 -18t-18 -7t-18 7t-7 18zM75 550q0 11 7 18t18 7t18 -7t7 -18t-7 -18t-18 -7t-18 7t-7 18zM150 25q0 11 7 18t18 7t18 -7t7 -18t-7 -18t-18 -7t-18 7t-7 18zM150 325 q0 11 7 18t18 7t18 -7t7 -18t-7 -18t-18 -7t-18 7t-7 18zM150 625q0 11 7 18t18 7t18 -7t7 -18t-7 -18t-18 -7t-18 7t-7 18zM225 100q0 11 7 18t18 7t18 -7t7 -18t-7 -18t-18 -7t-18 7t-7 18zM225 175q0 11 7 18t18 7t18 -7t7 -18t-7 -18t-18 -7t-18 7t-7 18zM225 250 q0 11 7 18t18 7t18 -7t7 -18t-7 -18t-18 -7t-18 7t-7 18zM225 325q0 11 7 18t18 7t18 -7t7 -18t-7 -18t-18 -7t-18 7t-7 18zM225 400q0 11 7 18t18 7t18 -7t7 -18t-7 -18t-18 -7t-18 7t-7 18zM225 475q0 11 7 18t18 7t18 -7t7 -18t-7 -18t-18 -7t-18 7t-7 18zM225 550 q0 11 7 18t18 7t18 -7t7 -18t-7 -18t-18 -7t-18 7t-7 18z" />
<glyph unicode="1" d="M75 25q0 11 7 18t18 7t18 -7t7 -18t-7 -18t-18 -7t-18 7t-7 18zM75 550q0 11 7 18t18 7t18 -7t7 -18t-7 -18t-18 -7t-18 7t-7 18zM150 25q0 11 7 18t18 7t18 -7t7 -18t-7 -18t-18 -7t-18 7t-7 18zM150 100q0 11 7 18t18 7t18 -7t7 -18t-7 -18t-18 -7t-18 7t-7 18z M150 175q0 11 7 18t18 7t18 -7t7 -18t-7 -18t-18 -7t-18 7t-7 18zM150 250q0 11 7 18t18 7t18 -7t7 -18t-7 -18t-18 -7t-18 7t-7 18zM150 325q0 11 7 18t18 7t18 -7t7 -18t-7 -18t-18 -7t-18 7t-7 18zM150 400q0 11 7 18t18 7t18 -7t7 -18t-7 -18t-18 -7t-18 7t-7 18z M150 475q0 11 7 18t18 7t18 -7t7 -18t-7 -18t-18 -7t-18 7t-7 18zM150 550q0 11 7 18t18 7t18 -7t7 -18t-7 -18t-18 -7t-18 7t-7 18zM150 625q0 11 7 18t18 7t18 -7t7 -18t-7 -18t-18 -7t-18 7t-7 18zM225 25q0 11 7 18t18 7t18 -7t7 -18t-7 -18t-18 -7t-18 7t-7 18z" />
<glyph unicode="2" d="M75 25q0 11 7 18t18 7t18 -7t7 -18t-7 -18t-18 -7t-18 7t-7 18zM75 100q0 11 7 18t18 7t18 -7t7 -18t-7 -18t-18 -7t-18 7t-7 18zM75 175q0 11 7 18t18 7t18 -7t7 -18t-7 -18t-18 -7t-18 7t-7 18zM75 475q0 11 7 18t18 7t18 -7t7 -18t-7 -18t-18 -7t-18 7t-7 18zM75 550 q0 11 7 18t18 7t18 -7t7 -18t-7 -18t-18 -7t-18 7t-7 18zM150 25q0 11 7 18t18 7t18 -7t7 -18t-7 -18t-18 -7t-18 7t-7 18zM150 250q0 11 7 18t18 7t18 -7t7 -18t-7 -18t-18 -7t-18 7t-7 18zM150 325q0 11 7 18t18 7t18 -7t7 -18t-7 -18t-18 -7t-18 7t-7 18zM150 625 q0 11 7 18t18 7t18 -7t7 -18t-7 -18t-18 -7t-18 7t-7 18zM225 25q0 11 7 18t18 7t18 -7t7 -18t-7 -18t-18 -7t-18 7t-7 18zM225 400q0 11 7 18t18 7t18 -7t7 -18t-7 -18t-18 -7t-18 7t-7 18zM225 475q0 11 7 18t18 7t18 -7t7 -18t-7 -18t-18 -7t-18 7t-7 18zM225 550 q0 11 7 18t18 7t18 -7t7 -18t-7 -18t-18 -7t-18 7t-7 18z" />
<glyph unicode="3" d="M75 -50q0 11 7 18t18 7t18 -7t7 -18t-7 -18t-18 -7t-18 7t-7 18zM75 -125q0 11 7 18t18 7t18 -7t7 -18t-7 -18t-18 -7t-18 7t-7 18zM75 475q0 11 7 18t18 7t18 -7t7 -18t-7 -18t-18 -7t-18 7t-7 18zM75 550q0 11 7 18t18 7t18 -7t7 -18t-7 -18t-18 -7t-18 7t-7 18z M150 -200q0 11 7 18t18 7t18 -7t7 -18t-7 -18t-18 -7t-18 7t-7 18zM150 250q0 11 7 18t18 7t18 -7t7 -18t-7 -18t-18 -7t-18 7t-7 18zM150 625q0 11 7 18t18 7t18 -7t7 -18t-7 -18t-18 -7t-18 7t-7 18zM225 25q0 11 7 18t18 7t18 -7t7 -18t-7 -18t-18 -7t-18 7t-7 18z M225 -50q0 11 7 18t18 7t18 -7t7 -18t-7 -18t-18 -7t-18 7t-7 18zM225 100q0 11 7 18t18 7t18 -7t7 -18t-7 -18t-18 -7t-18 7t-7 18zM225 -125q0 11 7 18t18 7t18 -7t7 -18t-7 -18t-18 -7t-18 7t-7 18zM225 175q0 11 7 18t18 7t18 -7t7 -18t-7 -18t-18 -7t-18 7t-7 18z M225 325q0 11 7 18t18 7t18 -7t7 -18t-7 -18t-18 -7t-18 7t-7 18zM225 400q0 11 7 18t18 7t18 -7t7 -18t-7 -18t-18 -7t-18 7t-7 18zM225 475q0 11 7 18t18 7t18 -7t7 -18t-7 -18t-18 -7t-18 7t-7 18zM225 550q0 11 7 18t18 7t18 -7t7 -18t-7 -18t-18 -7t-18 7t-7 18z" />
<glyph unicode="4" horiz-adv-x="425" d="M75 25q0 11 7 18t18 7t18 -7t7 -18t-7 -18t-18 -7t-18 7t-7 18zM75 100q0 11 7 18t18 7t18 -7t7 -18t-7 -18t-18 -7t-18 7t-7 18zM75 175q0 11 7 18t18 7t18 -7t7 -18t-7 -18t-18 -7t-18 7t-7 18zM75 250q0 11 7 18t18 7t18 -7t7 -18t-7 -18t-18 -7t-18 7t-7 18zM75 325 q0 11 7 18t18 7t18 -7t7 -18t-7 -18t-18 -7t-18 7t-7 18zM75 400q0 11 7 18t18 7t18 -7t7 -18t-7 -18t-18 -7t-18 7t-7 18zM150 25q0 11 7 18t18 7t18 -7t7 -18t-7 -18t-18 -7t-18 7t-7 18zM150 475q0 11 7 18t18 7t18 -7t7 -18t-7 -18t-18 -7t-18 7t-7 18zM150 550 q0 11 7 18t18 7t18 -7t7 -18t-7 -18t-18 -7t-18 7t-7 18zM225 25q0 11 7 18t18 7t18 -7t7 -18t-7 -18t-18 -7t-18 7t-7 18zM225 -50q0 11 7 18t18 7t18 -7t7 -18t-7 -18t-18 -7t-18 7t-7 18zM225 100q0 11 7 18t18 7t18 -7t7 -18t-7 -18t-18 -7t-18 7t-7 18zM225 -125 q0 11 7 18t18 7t18 -7t7 -18t-7 -18t-18 -7t-18 7t-7 18zM225 175q0 11 7 18t18 7t18 -7t7 -18t-7 -18t-18 -7t-18 7t-7 18zM225 -200q0 11 7 18t18 7t18 -7t7 -18t-7 -18t-18 -7t-18 7t-7 18zM225 250q0 11 7 18t18 7t18 -7t7 -18t-7 -18t-18 -7t-18 7t-7 18zM225 325 q0 11 7 18t18 7t18 -7t7 -18t-7 -18t-18 -7t-18 7t-7 18zM225 400q0 11 7 18t18 7t18 -7t7 -18t-7 -18t-18 -7t-18 7t-7 18zM225 475q0 11 7 18t18 7t18 -7t7 -18t-7 -18t-18 -7t-18 7t-7 18zM225 550q0 11 7 18t18 7t18 -7t7 -18t-7 -18t-18 -7t-18 7t-7 18zM225 625 q0 11 7 18t18 7t18 -7t7 -18t-7 -18t-18 -7t-18 7t-7 18zM300 25q0 11 7 18t18 7t18 -7t7 -18t-7 -18t-18 -7t-18 7t-7 18z" />
<glyph unicode="5" d="M75 -50q0 11 7 18t18 7t18 -7t7 -18t-7 -18t-18 -7t-18 7t-7 18zM75 -125q0 11 7 18t18 7t18 -7t7 -18t-7 -18t-18 -7t-18 7t-7 18zM75 250q0 11 7 18t18 7t18 -7t7 -18t-7 -18t-18 -7t-18 7t-7 18zM75 325q0 11 7 18t18 7t18 -7t7 -18t-7 -18t-18 -7t-18 7t-7 18z M75 400q0 11 7 18t18 7t18 -7t7 -18t-7 -18t-18 -7t-18 7t-7 18zM75 475q0 11 7 18t18 7t18 -7t7 -18t-7 -18t-18 -7t-18 7t-7 18zM75 550q0 11 7 18t18 7t18 -7t7 -18t-7 -18t-18 -7t-18 7t-7 18zM75 625q0 11 7 18t18 7t18 -7t7 -18t-7 -18t-18 -7t-18 7t-7 18zM150 -200 q0 11 7 18t18 7t18 -7t7 -18t-7 -18t-18 -7t-18 7t-7 18zM150 250q0 11 7 18t18 7t18 -7t7 -18t-7 -18t-18 -7t-18 7t-7 18zM150 625q0 11 7 18t18 7t18 -7t7 -18t-7 -18t-18 -7t-18 7t-7 18zM225 25q0 11 7 18t18 7t18 -7t7 -18t-7 -18t-18 -7t-18 7t-7 18zM225 -50 q0 11 7 18t18 7t18 -7t7 -18t-7 -18t-18 -7t-18 7t-7 18zM225 100q0 11 7 18t18 7t18 -7t7 -18t-7 -18t-18 -7t-18 7t-7 18zM225 -125q0 11 7 18t18 7t18 -7t7 -18t-7 -18t-18 -7t-18 7t-7 18zM225 175q0 11 7 18t18 7t18 -7t7 -18t-7 -18t-18 -7t-18 7t-7 18zM225 625 q0 11 7 18t18 7t18 -7t7 -18t-7 -18t-18 -7t-18 7t-7 18z" />
<glyph unicode="6" d="M75 100q0 11 7 18t18 7t18 -7t7 -18t-7 -18t-18 -7t-18 7t-7 18zM75 175q0 11 7 18t18 7t18 -7t7 -18t-7 -18t-18 -7t-18 7t-7 18zM75 250q0 11 7 18t18 7t18 -7t7 -18t-7 -18t-18 -7t-18 7t-7 18zM75 325q0 11 7 18t18 7t18 -7t7 -18t-7 -18t-18 -7t-18 7t-7 18zM75 400 q0 11 7 18t18 7t18 -7t7 -18t-7 -18t-18 -7t-18 7t-7 18zM75 475q0 11 7 18t18 7t18 -7t7 -18t-7 -18t-18 -7t-18 7t-7 18zM75 550q0 11 7 18t18 7t18 -7t7 -18t-7 -18t-18 -7t-18 7t-7 18zM75 625q0 11 7 18t18 7t18 -7t7 -18t-7 -18t-18 -7t-18 7t-7 18zM75 700q0 11 7 18 t18 7t18 -7t7 -18t-7 -18t-18 -7t-18 7t-7 18zM150 25q0 11 7 18t18 7t18 -7t7 -18t-7 -18t-18 -7t-18 7t-7 18zM150 475q0 11 7 18t18 7t18 -7t7 -18t-7 -18t-18 -7t-18 7t-7 18zM150 775q0 11 7 18t18 7t18 -7t7 -18t-7 -18t-18 -7t-18 7t-7 18zM225 100q0 11 7 18t18 7 t18 -7t7 -18t-7 -18t-18 -7t-18 7t-7 18zM225 175q0 11 7 18t18 7t18 -7t7 -18t-7 -18t-18 -7t-18 7t-7 18zM225 250q0 11 7 18t18 7t18 -7t7 -18t-7 -18t-18 -7t-18 7t-7 18zM225 325q0 11 7 18t18 7t18 -7t7 -18t-7 -18t-18 -7t-18 7t-7 18zM225 400q0 11 7 18t18 7t18 -7 t7 -18t-7 -18t-18 -7t-18 7t-7 18zM225 700q0 11 7 18t18 7t18 -7t7 -18t-7 -18t-18 -7t-18 7t-7 18z" />
<glyph unicode="7" d="M75 25q0 11 7 18t18 7t18 -7t7 -18t-7 -18t-18 -7t-18 7t-7 18zM75 -50q0 11 7 18t18 7t18 -7t7 -18t-7 -18t-18 -7t-18 7t-7 18zM75 -125q0 11 7 18t18 7t18 -7t7 -18t-7 -18t-18 -7t-18 7t-7 18zM75 -200q0 11 7 18t18 7t18 -7t7 -18t-7 -18t-18 -7t-18 7t-7 18z M75 625q0 11 7 18t18 7t18 -7t7 -18t-7 -18t-18 -7t-18 7t-7 18zM150 100q0 11 7 18t18 7t18 -7t7 -18t-7 -18t-18 -7t-18 7t-7 18zM150 175q0 11 7 18t18 7t18 -7t7 -18t-7 -18t-18 -7t-18 7t-7 18zM150 250q0 11 7 18t18 7t18 -7t7 -18t-7 -18t-18 -7t-18 7t-7 18z M150 325q0 11 7 18t18 7t18 -7t7 -18t-7 -18t-18 -7t-18 7t-7 18zM150 625q0 11 7 18t18 7t18 -7t7 -18t-7 -18t-18 -7t-18 7t-7 18zM225 400q0 11 7 18t18 7t18 -7t7 -18t-7 -18t-18 -7t-18 7t-7 18zM225 475q0 11 7 18t18 7t18 -7t7 -18t-7 -18t-18 -7t-18 7t-7 18z M225 550q0 11 7 18t18 7t18 -7t7 -18t-7 -18t-18 -7t-18 7t-7 18zM225 625q0 11 7 18t18 7t18 -7t7 -18t-7 -18t-18 -7t-18 7t-7 18z" />
<glyph unicode="8" d="M75 100q0 11 7 18t18 7t18 -7t7 -18t-7 -18t-18 -7t-18 7t-7 18zM75 175q0 11 7 18t18 7t18 -7t7 -18t-7 -18t-18 -7t-18 7t-7 18zM75 250q0 11 7 18t18 7t18 -7t7 -18t-7 -18t-18 -7t-18 7t-7 18zM75 325q0 11 7 18t18 7t18 -7t7 -18t-7 -18t-18 -7t-18 7t-7 18zM75 475 q0 11 7 18t18 7t18 -7t7 -18t-7 -18t-18 -7t-18 7t-7 18zM75 550q0 11 7 18t18 7t18 -7t7 -18t-7 -18t-18 -7t-18 7t-7 18zM75 625q0 11 7 18t18 7t18 -7t7 -18t-7 -18t-18 -7t-18 7t-7 18zM75 700q0 11 7 18t18 7t18 -7t7 -18t-7 -18t-18 -7t-18 7t-7 18zM150 25q0 11 7 18 t18 7t18 -7t7 -18t-7 -18t-18 -7t-18 7t-7 18zM150 400q0 11 7 18t18 7t18 -7t7 -18t-7 -18t-18 -7t-18 7t-7 18zM150 775q0 11 7 18t18 7t18 -7t7 -18t-7 -18t-18 -7t-18 7t-7 18zM225 100q0 11 7 18t18 7t18 -7t7 -18t-7 -18t-18 -7t-18 7t-7 18zM225 175q0 11 7 18t18 7 t18 -7t7 -18t-7 -18t-18 -7t-18 7t-7 18zM225 250q0 11 7 18t18 7t18 -7t7 -18t-7 -18t-18 -7t-18 7t-7 18zM225 325q0 11 7 18t18 7t18 -7t7 -18t-7 -18t-18 -7t-18 7t-7 18zM225 475q0 11 7 18t18 7t18 -7t7 -18t-7 -18t-18 -7t-18 7t-7 18zM225 550q0 11 7 18t18 7t18 -7 t7 -18t-7 -18t-18 -7t-18 7t-7 18zM225 625q0 11 7 18t18 7t18 -7t7 -18t-7 -18t-18 -7t-18 7t-7 18zM225 700q0 11 7 18t18 7t18 -7t7 -18t-7 -18t-18 -7t-18 7t-7 18z" />
<glyph unicode="9" d="M75 100q0 11 7 18t18 7t18 -7t7 -18t-7 -18t-18 -7t-18 7t-7 18zM75 400q0 11 7 18t18 7t18 -7t7 -18t-7 -18t-18 -7t-18 7t-7 18zM75 475q0 11 7 18t18 7t18 -7t7 -18t-7 -18t-18 -7t-18 7t-7 18zM75 550q0 11 7 18t18 7t18 -7t7 -18t-7 -18t-18 -7t-18 7t-7 18zM75 625 q0 11 7 18t18 7t18 -7t7 -18t-7 -18t-18 -7t-18 7t-7 18zM75 700q0 11 7 18t18 7t18 -7t7 -18t-7 -18t-18 -7t-18 7t-7 18zM150 25q0 11 7 18t18 7t18 -7t7 -18t-7 -18t-18 -7t-18 7t-7 18zM150 325q0 11 7 18t18 7t18 -7t7 -18t-7 -18t-18 -7t-18 7t-7 18zM150 775 q0 11 7 18t18 7t18 -7t7 -18t-7 -18t-18 -7t-18 7t-7 18zM225 100q0 11 7 18t18 7t18 -7t7 -18t-7 -18t-18 -7t-18 7t-7 18zM225 175q0 11 7 18t18 7t18 -7t7 -18t-7 -18t-18 -7t-18 7t-7 18zM225 250q0 11 7 18t18 7t18 -7t7 -18t-7 -18t-18 -7t-18 7t-7 18zM225 325 q0 11 7 18t18 7t18 -7t7 -18t-7 -18t-18 -7t-18 7t-7 18zM225 400q0 11 7 18t18 7t18 -7t7 -18t-7 -18t-18 -7t-18 7t-7 18zM225 475q0 11 7 18t18 7t18 -7t7 -18t-7 -18t-18 -7t-18 7t-7 18zM225 550q0 11 7 18t18 7t18 -7t7 -18t-7 -18t-18 -7t-18 7t-7 18zM225 625 q0 11 7 18t18 7t18 -7t7 -18t-7 -18t-18 -7t-18 7t-7 18zM225 700q0 11 7 18t18 7t18 -7t7 -18t-7 -18t-18 -7t-18 7t-7 18z" />
<glyph unicode=":" horiz-adv-x="275" d="M75 25q0 11 7 18t18 7t18 -7t7 -18t-7 -18t-18 -7t-18 7t-7 18zM75 100q0 11 7 18t18 7t18 -7t7 -18t-7 -18t-18 -7t-18 7t-7 18zM75 475q0 11 7 18t18 7t18 -7t7 -18t-7 -18t-18 -7t-18 7t-7 18zM75 550q0 11 7 18t18 7t18 -7t7 -18t-7 -18t-18 -7t-18 7t-7 18zM150 25 q0 11 7 18t18 7t18 -7t7 -18t-7 -18t-18 -7t-18 7t-7 18zM150 100q0 11 7 18t18 7t18 -7t7 -18t-7 -18t-18 -7t-18 7t-7 18zM150 475q0 11 7 18t18 7t18 -7t7 -18t-7 -18t-18 -7t-18 7t-7 18zM150 550q0 11 7 18t18 7t18 -7t7 -18t-7 -18t-18 -7t-18 7t-7 18z" />
<glyph unicode=";" horiz-adv-x="275" d="M75 -50q0 11 7 18t18 7t18 -7t7 -18t-7 -18t-18 -7t-18 7t-7 18zM75 -125q0 11 7 18t18 7t18 -7t7 -18t-7 -18t-18 -7t-18 7t-7 18zM75 475q0 11 7 18t18 7t18 -7t7 -18t-7 -18t-18 -7t-18 7t-7 18zM75 550q0 11 7 18t18 7t18 -7t7 -18t-7 -18t-18 -7t-18 7t-7 18z M150 25q0 11 7 18t18 7t18 -7t7 -18t-7 -18t-18 -7t-18 7t-7 18zM150 100q0 11 7 18t18 7t18 -7t7 -18t-7 -18t-18 -7t-18 7t-7 18zM150 475q0 11 7 18t18 7t18 -7t7 -18t-7 -18t-18 -7t-18 7t-7 18zM150 550q0 11 7 18t18 7t18 -7t7 -18t-7 -18t-18 -7t-18 7t-7 18z" />
<glyph unicode="&#x3c;" horiz-adv-x="425" d="M75 325q0 11 7 18t18 7t18 -7t7 -18t-7 -18t-18 -7t-18 7t-7 18zM150 250q0 11 7 18t18 7t18 -7t7 -18t-7 -18t-18 -7t-18 7t-7 18zM150 400q0 11 7 18t18 7t18 -7t7 -18t-7 -18t-18 -7t-18 7t-7 18zM225 175q0 11 7 18t18 7t18 -7t7 -18t-7 -18t-18 -7t-18 7t-7 18z M225 475q0 11 7 18t18 7t18 -7t7 -18t-7 -18t-18 -7t-18 7t-7 18zM300 100q0 11 7 18t18 7t18 -7t7 -18t-7 -18t-18 -7t-18 7t-7 18zM300 550q0 11 7 18t18 7t18 -7t7 -18t-7 -18t-18 -7t-18 7t-7 18z" />
<glyph unicode="=" horiz-adv-x="425" d="M75 250q0 11 7 18t18 7t18 -7t7 -18t-7 -18t-18 -7t-18 7t-7 18zM75 400q0 11 7 18t18 7t18 -7t7 -18t-7 -18t-18 -7t-18 7t-7 18zM150 250q0 11 7 18t18 7t18 -7t7 -18t-7 -18t-18 -7t-18 7t-7 18zM150 400q0 11 7 18t18 7t18 -7t7 -18t-7 -18t-18 -7t-18 7t-7 18z M225 250q0 11 7 18t18 7t18 -7t7 -18t-7 -18t-18 -7t-18 7t-7 18zM225 400q0 11 7 18t18 7t18 -7t7 -18t-7 -18t-18 -7t-18 7t-7 18zM300 250q0 11 7 18t18 7t18 -7t7 -18t-7 -18t-18 -7t-18 7t-7 18zM300 400q0 11 7 18t18 7t18 -7t7 -18t-7 -18t-18 -7t-18 7t-7 18z" />
<glyph unicode="&#x3e;" horiz-adv-x="425" d="M75 100q0 11 7 18t18 7t18 -7t7 -18t-7 -18t-18 -7t-18 7t-7 18zM75 550q0 11 7 18t18 7t18 -7t7 -18t-7 -18t-18 -7t-18 7t-7 18zM150 175q0 11 7 18t18 7t18 -7t7 -18t-7 -18t-18 -7t-18 7t-7 18zM150 475q0 11 7 18t18 7t18 -7t7 -18t-7 -18t-18 -7t-18 7t-7 18z M225 250q0 11 7 18t18 7t18 -7t7 -18t-7 -18t-18 -7t-18 7t-7 18zM225 400q0 11 7 18t18 7t18 -7t7 -18t-7 -18t-18 -7t-18 7t-7 18zM300 325q0 11 7 18t18 7t18 -7t7 -18t-7 -18t-18 -7t-18 7t-7 18z" />
<glyph unicode="?" d="M75 25q0 11 7 18t18 7t18 -7t7 -18t-7 -18t-18 -7t-18 7t-7 18zM75 100q0 11 7 18t18 7t18 -7t7 -18t-7 -18t-18 -7t-18 7t-7 18zM75 550q0 11 7 18t18 7t18 -7t7 -18t-7 -18t-18 -7t-18 7t-7 18zM75 625q0 11 7 18t18 7t18 -7t7 -18t-7 -18t-18 -7t-18 7t-7 18zM150 25 q0 11 7 18t18 7t18 -7t7 -18t-7 -18t-18 -7t-18 7t-7 18zM150 100q0 11 7 18t18 7t18 -7t7 -18t-7 -18t-18 -7t-18 7t-7 18zM150 325q0 11 7 18t18 7t18 -7t7 -18t-7 -18t-18 -7t-18 7t-7 18zM150 400q0 11 7 18t18 7t18 -7t7 -18t-7 -18t-18 -7t-18 7t-7 18zM150 700 q0 11 7 18t18 7t18 -7t7 -18t-7 -18t-18 -7t-18 7t-7 18zM225 475q0 11 7 18t18 7t18 -7t7 -18t-7 -18t-18 -7t-18 7t-7 18zM225 550q0 11 7 18t18 7t18 -7t7 -18t-7 -18t-18 -7t-18 7t-7 18zM225 625q0 11 7 18t18 7t18 -7t7 -18t-7 -18t-18 -7t-18 7t-7 18z" />
<glyph unicode="@" horiz-adv-x="425" d="M0 25q0 11 7 18t18 7t18 -7t7 -18t-7 -18t-18 -7t-18 7t-7 18zM0 -50q0 11 7 18t18 7t18 -7t7 -18t-7 -18t-18 -7t-18 7t-7 18zM0 100q0 11 7 18t18 7t18 -7t7 -18t-7 -18t-18 -7t-18 7t-7 18zM0 175q0 11 7 18t18 7t18 -7t7 -18t-7 -18t-18 -7t-18 7t-7 18zM0 250 q0 11 7 18t18 7t18 -7t7 -18t-7 -18t-18 -7t-18 7t-7 18zM0 325q0 11 7 18t18 7t18 -7t7 -18t-7 -18t-18 -7t-18 7t-7 18zM0 400q0 11 7 18t18 7t18 -7t7 -18t-7 -18t-18 -7t-18 7t-7 18zM0 475q0 11 7 18t18 7t18 -7t7 -18t-7 -18t-18 -7t-18 7t-7 18zM0 550q0 11 7 18 t18 7t18 -7t7 -18t-7 -18t-18 -7t-18 7t-7 18zM0 625q0 11 7 18t18 7t18 -7t7 -18t-7 -18t-18 -7t-18 7t-7 18zM75 -125q0 11 7 18t18 7t18 -7t7 -18t-7 -18t-18 -7t-18 7t-7 18zM75 700q0 11 7 18t18 7t18 -7t7 -18t-7 -18t-18 -7t-18 7t-7 18zM150 25q0 11 7 18t18 7 t18 -7t7 -18t-7 -18t-18 -7t-18 7t-7 18zM150 100q0 11 7 18t18 7t18 -7t7 -18t-7 -18t-18 -7t-18 7t-7 18zM150 -125q0 11 7 18t18 7t18 -7t7 -18t-7 -18t-18 -7t-18 7t-7 18zM150 175q0 11 7 18t18 7t18 -7t7 -18t-7 -18t-18 -7t-18 7t-7 18zM150 250q0 11 7 18t18 7 t18 -7t7 -18t-7 -18t-18 -7t-18 7t-7 18zM150 325q0 11 7 18t18 7t18 -7t7 -18t-7 -18t-18 -7t-18 7t-7 18zM150 400q0 11 7 18t18 7t18 -7t7 -18t-7 -18t-18 -7t-18 7t-7 18zM150 475q0 11 7 18t18 7t18 -7t7 -18t-7 -18t-18 -7t-18 7t-7 18zM150 550q0 11 7 18t18 7t18 -7 t7 -18t-7 -18t-18 -7t-18 7t-7 18zM150 700q0 11 7 18t18 7t18 -7t7 -18t-7 -18t-18 -7t-18 7t-7 18zM225 25q0 11 7 18t18 7t18 -7t7 -18t-7 -18t-18 -7t-18 7t-7 18zM225 -125q0 11 7 18t18 7t18 -7t7 -18t-7 -18t-18 -7t-18 7t-7 18zM225 700q0 11 7 18t18 7t18 -7t7 -18 t-7 -18t-18 -7t-18 7t-7 18zM300 25q0 11 7 18t18 7t18 -7t7 -18t-7 -18t-18 -7t-18 7t-7 18zM300 100q0 11 7 18t18 7t18 -7t7 -18t-7 -18t-18 -7t-18 7t-7 18zM300 -125q0 11 7 18t18 7t18 -7t7 -18t-7 -18t-18 -7t-18 7t-7 18zM300 175q0 11 7 18t18 7t18 -7t7 -18 t-7 -18t-18 -7t-18 7t-7 18zM300 250q0 11 7 18t18 7t18 -7t7 -18t-7 -18t-18 -7t-18 7t-7 18zM300 325q0 11 7 18t18 7t18 -7t7 -18t-7 -18t-18 -7t-18 7t-7 18zM300 400q0 11 7 18t18 7t18 -7t7 -18t-7 -18t-18 -7t-18 7t-7 18zM300 475q0 11 7 18t18 7t18 -7t7 -18 t-7 -18t-18 -7t-18 7t-7 18zM300 550q0 11 7 18t18 7t18 -7t7 -18t-7 -18t-18 -7t-18 7t-7 18zM300 625q0 11 7 18t18 7t18 -7t7 -18t-7 -18t-18 -7t-18 7t-7 18z" />
<glyph unicode="A" d="M75 25q0 11 7 18t18 7t18 -7t7 -18t-7 -18t-18 -7t-18 7t-7 18zM75 100q0 11 7 18t18 7t18 -7t7 -18t-7 -18t-18 -7t-18 7t-7 18zM75 175q0 11 7 18t18 7t18 -7t7 -18t-7 -18t-18 -7t-18 7t-7 18zM75 250q0 11 7 18t18 7t18 -7t7 -18t-7 -18t-18 -7t-18 7t-7 18zM75 325 q0 11 7 18t18 7t18 -7t7 -18t-7 -18t-18 -7t-18 7t-7 18zM75 400q0 11 7 18t18 7t18 -7t7 -18t-7 -18t-18 -7t-18 7t-7 18zM75 475q0 11 7 18t18 7t18 -7t7 -18t-7 -18t-18 -7t-18 7t-7 18zM75 550q0 11 7 18t18 7t18 -7t7 -18t-7 -18t-18 -7t-18 7t-7 18zM75 625q0 11 7 18 t18 7t18 -7t7 -18t-7 -18t-18 -7t-18 7t-7 18zM150 325q0 11 7 18t18 7t18 -7t7 -18t-7 -18t-18 -7t-18 7t-7 18zM150 700q0 11 7 18t18 7t18 -7t7 -18t-7 -18t-18 -7t-18 7t-7 18zM225 25q0 11 7 18t18 7t18 -7t7 -18t-7 -18t-18 -7t-18 7t-7 18zM225 100q0 11 7 18t18 7 t18 -7t7 -18t-7 -18t-18 -7t-18 7t-7 18zM225 175q0 11 7 18t18 7t18 -7t7 -18t-7 -18t-18 -7t-18 7t-7 18zM225 250q0 11 7 18t18 7t18 -7t7 -18t-7 -18t-18 -7t-18 7t-7 18zM225 325q0 11 7 18t18 7t18 -7t7 -18t-7 -18t-18 -7t-18 7t-7 18zM225 400q0 11 7 18t18 7t18 -7 t7 -18t-7 -18t-18 -7t-18 7t-7 18zM225 475q0 11 7 18t18 7t18 -7t7 -18t-7 -18t-18 -7t-18 7t-7 18zM225 550q0 11 7 18t18 7t18 -7t7 -18t-7 -18t-18 -7t-18 7t-7 18zM225 625q0 11 7 18t18 7t18 -7t7 -18t-7 -18t-18 -7t-18 7t-7 18z" />
<glyph unicode="B" d="M75 25q0 11 7 18t18 7t18 -7t7 -18t-7 -18t-18 -7t-18 7t-7 18zM75 100q0 11 7 18t18 7t18 -7t7 -18t-7 -18t-18 -7t-18 7t-7 18zM75 175q0 11 7 18t18 7t18 -7t7 -18t-7 -18t-18 -7t-18 7t-7 18zM75 250q0 11 7 18t18 7t18 -7t7 -18t-7 -18t-18 -7t-18 7t-7 18zM75 325 q0 11 7 18t18 7t18 -7t7 -18t-7 -18t-18 -7t-18 7t-7 18zM75 400q0 11 7 18t18 7t18 -7t7 -18t-7 -18t-18 -7t-18 7t-7 18zM75 475q0 11 7 18t18 7t18 -7t7 -18t-7 -18t-18 -7t-18 7t-7 18zM75 550q0 11 7 18t18 7t18 -7t7 -18t-7 -18t-18 -7t-18 7t-7 18zM75 625q0 11 7 18 t18 7t18 -7t7 -18t-7 -18t-18 -7t-18 7t-7 18zM75 700q0 11 7 18t18 7t18 -7t7 -18t-7 -18t-18 -7t-18 7t-7 18zM150 25q0 11 7 18t18 7t18 -7t7 -18t-7 -18t-18 -7t-18 7t-7 18zM150 400q0 11 7 18t18 7t18 -7t7 -18t-7 -18t-18 -7t-18 7t-7 18zM150 700q0 11 7 18t18 7 t18 -7t7 -18t-7 -18t-18 -7t-18 7t-7 18zM225 100q0 11 7 18t18 7t18 -7t7 -18t-7 -18t-18 -7t-18 7t-7 18zM225 175q0 11 7 18t18 7t18 -7t7 -18t-7 -18t-18 -7t-18 7t-7 18zM225 250q0 11 7 18t18 7t18 -7t7 -18t-7 -18t-18 -7t-18 7t-7 18zM225 325q0 11 7 18t18 7t18 -7 t7 -18t-7 -18t-18 -7t-18 7t-7 18zM225 475q0 11 7 18t18 7t18 -7t7 -18t-7 -18t-18 -7t-18 7t-7 18zM225 550q0 11 7 18t18 7t18 -7t7 -18t-7 -18t-18 -7t-18 7t-7 18zM225 625q0 11 7 18t18 7t18 -7t7 -18t-7 -18t-18 -7t-18 7t-7 18z" />
<glyph unicode="C" d="M75 100q0 11 7 18t18 7t18 -7t7 -18t-7 -18t-18 -7t-18 7t-7 18zM75 175q0 11 7 18t18 7t18 -7t7 -18t-7 -18t-18 -7t-18 7t-7 18zM75 250q0 11 7 18t18 7t18 -7t7 -18t-7 -18t-18 -7t-18 7t-7 18zM75 325q0 11 7 18t18 7t18 -7t7 -18t-7 -18t-18 -7t-18 7t-7 18zM75 400 q0 11 7 18t18 7t18 -7t7 -18t-7 -18t-18 -7t-18 7t-7 18zM75 475q0 11 7 18t18 7t18 -7t7 -18t-7 -18t-18 -7t-18 7t-7 18zM75 550q0 11 7 18t18 7t18 -7t7 -18t-7 -18t-18 -7t-18 7t-7 18zM75 625q0 11 7 18t18 7t18 -7t7 -18t-7 -18t-18 -7t-18 7t-7 18zM150 25q0 11 7 18 t18 7t18 -7t7 -18t-7 -18t-18 -7t-18 7t-7 18zM150 700q0 11 7 18t18 7t18 -7t7 -18t-7 -18t-18 -7t-18 7t-7 18zM225 25q0 11 7 18t18 7t18 -7t7 -18t-7 -18t-18 -7t-18 7t-7 18zM225 550q0 11 7 18t18 7t18 -7t7 -18t-7 -18t-18 -7t-18 7t-7 18zM225 625q0 11 7 18t18 7 t18 -7t7 -18t-7 -18t-18 -7t-18 7t-7 18zM225 700q0 11 7 18t18 7t18 -7t7 -18t-7 -18t-18 -7t-18 7t-7 18z" />
<glyph unicode="D" d="M75 25q0 11 7 18t18 7t18 -7t7 -18t-7 -18t-18 -7t-18 7t-7 18zM75 100q0 11 7 18t18 7t18 -7t7 -18t-7 -18t-18 -7t-18 7t-7 18zM75 175q0 11 7 18t18 7t18 -7t7 -18t-7 -18t-18 -7t-18 7t-7 18zM75 250q0 11 7 18t18 7t18 -7t7 -18t-7 -18t-18 -7t-18 7t-7 18zM75 325 q0 11 7 18t18 7t18 -7t7 -18t-7 -18t-18 -7t-18 7t-7 18zM75 400q0 11 7 18t18 7t18 -7t7 -18t-7 -18t-18 -7t-18 7t-7 18zM75 475q0 11 7 18t18 7t18 -7t7 -18t-7 -18t-18 -7t-18 7t-7 18zM75 550q0 11 7 18t18 7t18 -7t7 -18t-7 -18t-18 -7t-18 7t-7 18zM75 625q0 11 7 18 t18 7t18 -7t7 -18t-7 -18t-18 -7t-18 7t-7 18zM75 700q0 11 7 18t18 7t18 -7t7 -18t-7 -18t-18 -7t-18 7t-7 18zM150 25q0 11 7 18t18 7t18 -7t7 -18t-7 -18t-18 -7t-18 7t-7 18zM150 700q0 11 7 18t18 7t18 -7t7 -18t-7 -18t-18 -7t-18 7t-7 18zM225 100q0 11 7 18t18 7 t18 -7t7 -18t-7 -18t-18 -7t-18 7t-7 18zM225 175q0 11 7 18t18 7t18 -7t7 -18t-7 -18t-18 -7t-18 7t-7 18zM225 250q0 11 7 18t18 7t18 -7t7 -18t-7 -18t-18 -7t-18 7t-7 18zM225 325q0 11 7 18t18 7t18 -7t7 -18t-7 -18t-18 -7t-18 7t-7 18zM225 400q0 11 7 18t18 7t18 -7 t7 -18t-7 -18t-18 -7t-18 7t-7 18zM225 475q0 11 7 18t18 7t18 -7t7 -18t-7 -18t-18 -7t-18 7t-7 18zM225 550q0 11 7 18t18 7t18 -7t7 -18t-7 -18t-18 -7t-18 7t-7 18zM225 625q0 11 7 18t18 7t18 -7t7 -18t-7 -18t-18 -7t-18 7t-7 18z" />
<glyph unicode="E" d="M75 25q0 11 7 18t18 7t18 -7t7 -18t-7 -18t-18 -7t-18 7t-7 18zM75 100q0 11 7 18t18 7t18 -7t7 -18t-7 -18t-18 -7t-18 7t-7 18zM75 175q0 11 7 18t18 7t18 -7t7 -18t-7 -18t-18 -7t-18 7t-7 18zM75 250q0 11 7 18t18 7t18 -7t7 -18t-7 -18t-18 -7t-18 7t-7 18zM75 325 q0 11 7 18t18 7t18 -7t7 -18t-7 -18t-18 -7t-18 7t-7 18zM75 400q0 11 7 18t18 7t18 -7t7 -18t-7 -18t-18 -7t-18 7t-7 18zM75 475q0 11 7 18t18 7t18 -7t7 -18t-7 -18t-18 -7t-18 7t-7 18zM75 550q0 11 7 18t18 7t18 -7t7 -18t-7 -18t-18 -7t-18 7t-7 18zM75 625q0 11 7 18 t18 7t18 -7t7 -18t-7 -18t-18 -7t-18 7t-7 18zM75 700q0 11 7 18t18 7t18 -7t7 -18t-7 -18t-18 -7t-18 7t-7 18zM150 25q0 11 7 18t18 7t18 -7t7 -18t-7 -18t-18 -7t-18 7t-7 18zM150 400q0 11 7 18t18 7t18 -7t7 -18t-7 -18t-18 -7t-18 7t-7 18zM150 700q0 11 7 18t18 7 t18 -7t7 -18t-7 -18t-18 -7t-18 7t-7 18zM225 25q0 11 7 18t18 7t18 -7t7 -18t-7 -18t-18 -7t-18 7t-7 18zM225 100q0 11 7 18t18 7t18 -7t7 -18t-7 -18t-18 -7t-18 7t-7 18zM225 625q0 11 7 18t18 7t18 -7t7 -18t-7 -18t-18 -7t-18 7t-7 18zM225 700q0 11 7 18t18 7t18 -7 t7 -18t-7 -18t-18 -7t-18 7t-7 18z" />
<glyph unicode="F" d="M75 25q0 11 7 18t18 7t18 -7t7 -18t-7 -18t-18 -7t-18 7t-7 18zM75 100q0 11 7 18t18 7t18 -7t7 -18t-7 -18t-18 -7t-18 7t-7 18zM75 175q0 11 7 18t18 7t18 -7t7 -18t-7 -18t-18 -7t-18 7t-7 18zM75 250q0 11 7 18t18 7t18 -7t7 -18t-7 -18t-18 -7t-18 7t-7 18zM75 325 q0 11 7 18t18 7t18 -7t7 -18t-7 -18t-18 -7t-18 7t-7 18zM75 400q0 11 7 18t18 7t18 -7t7 -18t-7 -18t-18 -7t-18 7t-7 18zM75 475q0 11 7 18t18 7t18 -7t7 -18t-7 -18t-18 -7t-18 7t-7 18zM75 550q0 11 7 18t18 7t18 -7t7 -18t-7 -18t-18 -7t-18 7t-7 18zM75 625q0 11 7 18 t18 7t18 -7t7 -18t-7 -18t-18 -7t-18 7t-7 18zM75 700q0 11 7 18t18 7t18 -7t7 -18t-7 -18t-18 -7t-18 7t-7 18zM150 400q0 11 7 18t18 7t18 -7t7 -18t-7 -18t-18 -7t-18 7t-7 18zM150 700q0 11 7 18t18 7t18 -7t7 -18t-7 -18t-18 -7t-18 7t-7 18zM225 625q0 11 7 18t18 7 t18 -7t7 -18t-7 -18t-18 -7t-18 7t-7 18zM225 700q0 11 7 18t18 7t18 -7t7 -18t-7 -18t-18 -7t-18 7t-7 18z" />
<glyph unicode="G" d="M75 100q0 11 7 18t18 7t18 -7t7 -18t-7 -18t-18 -7t-18 7t-7 18zM75 175q0 11 7 18t18 7t18 -7t7 -18t-7 -18t-18 -7t-18 7t-7 18zM75 250q0 11 7 18t18 7t18 -7t7 -18t-7 -18t-18 -7t-18 7t-7 18zM75 325q0 11 7 18t18 7t18 -7t7 -18t-7 -18t-18 -7t-18 7t-7 18zM75 400 q0 11 7 18t18 7t18 -7t7 -18t-7 -18t-18 -7t-18 7t-7 18zM75 475q0 11 7 18t18 7t18 -7t7 -18t-7 -18t-18 -7t-18 7t-7 18zM75 550q0 11 7 18t18 7t18 -7t7 -18t-7 -18t-18 -7t-18 7t-7 18zM75 625q0 11 7 18t18 7t18 -7t7 -18t-7 -18t-18 -7t-18 7t-7 18zM150 25q0 11 7 18 t18 7t18 -7t7 -18t-7 -18t-18 -7t-18 7t-7 18zM150 325q0 11 7 18t18 7t18 -7t7 -18t-7 -18t-18 -7t-18 7t-7 18zM150 700q0 11 7 18t18 7t18 -7t7 -18t-7 -18t-18 -7t-18 7t-7 18zM225 25q0 11 7 18t18 7t18 -7t7 -18t-7 -18t-18 -7t-18 7t-7 18zM225 100q0 11 7 18t18 7 t18 -7t7 -18t-7 -18t-18 -7t-18 7t-7 18zM225 175q0 11 7 18t18 7t18 -7t7 -18t-7 -18t-18 -7t-18 7t-7 18zM225 250q0 11 7 18t18 7t18 -7t7 -18t-7 -18t-18 -7t-18 7t-7 18zM225 325q0 11 7 18t18 7t18 -7t7 -18t-7 -18t-18 -7t-18 7t-7 18zM225 550q0 11 7 18t18 7t18 -7 t7 -18t-7 -18t-18 -7t-18 7t-7 18zM225 625q0 11 7 18t18 7t18 -7t7 -18t-7 -18t-18 -7t-18 7t-7 18zM225 700q0 11 7 18t18 7t18 -7t7 -18t-7 -18t-18 -7t-18 7t-7 18z" />
<glyph unicode="H" d="M75 25q0 11 7 18t18 7t18 -7t7 -18t-7 -18t-18 -7t-18 7t-7 18zM75 100q0 11 7 18t18 7t18 -7t7 -18t-7 -18t-18 -7t-18 7t-7 18zM75 175q0 11 7 18t18 7t18 -7t7 -18t-7 -18t-18 -7t-18 7t-7 18zM75 250q0 11 7 18t18 7t18 -7t7 -18t-7 -18t-18 -7t-18 7t-7 18zM75 325 q0 11 7 18t18 7t18 -7t7 -18t-7 -18t-18 -7t-18 7t-7 18zM75 400q0 11 7 18t18 7t18 -7t7 -18t-7 -18t-18 -7t-18 7t-7 18zM75 475q0 11 7 18t18 7t18 -7t7 -18t-7 -18t-18 -7t-18 7t-7 18zM75 550q0 11 7 18t18 7t18 -7t7 -18t-7 -18t-18 -7t-18 7t-7 18zM75 625q0 11 7 18 t18 7t18 -7t7 -18t-7 -18t-18 -7t-18 7t-7 18zM75 700q0 11 7 18t18 7t18 -7t7 -18t-7 -18t-18 -7t-18 7t-7 18zM150 325q0 11 7 18t18 7t18 -7t7 -18t-7 -18t-18 -7t-18 7t-7 18zM225 25q0 11 7 18t18 7t18 -7t7 -18t-7 -18t-18 -7t-18 7t-7 18zM225 100q0 11 7 18t18 7 t18 -7t7 -18t-7 -18t-18 -7t-18 7t-7 18zM225 175q0 11 7 18t18 7t18 -7t7 -18t-7 -18t-18 -7t-18 7t-7 18zM225 250q0 11 7 18t18 7t18 -7t7 -18t-7 -18t-18 -7t-18 7t-7 18zM225 325q0 11 7 18t18 7t18 -7t7 -18t-7 -18t-18 -7t-18 7t-7 18zM225 400q0 11 7 18t18 7t18 -7 t7 -18t-7 -18t-18 -7t-18 7t-7 18zM225 475q0 11 7 18t18 7t18 -7t7 -18t-7 -18t-18 -7t-18 7t-7 18zM225 550q0 11 7 18t18 7t18 -7t7 -18t-7 -18t-18 -7t-18 7t-7 18zM225 625q0 11 7 18t18 7t18 -7t7 -18t-7 -18t-18 -7t-18 7t-7 18zM225 700q0 11 7 18t18 7t18 -7t7 -18 t-7 -18t-18 -7t-18 7t-7 18z" />
<glyph unicode="I" d="M75 25q0 11 7 18t18 7t18 -7t7 -18t-7 -18t-18 -7t-18 7t-7 18zM75 700q0 11 7 18t18 7t18 -7t7 -18t-7 -18t-18 -7t-18 7t-7 18zM150 25q0 11 7 18t18 7t18 -7t7 -18t-7 -18t-18 -7t-18 7t-7 18zM150 100q0 11 7 18t18 7t18 -7t7 -18t-7 -18t-18 -7t-18 7t-7 18z M150 175q0 11 7 18t18 7t18 -7t7 -18t-7 -18t-18 -7t-18 7t-7 18zM150 250q0 11 7 18t18 7t18 -7t7 -18t-7 -18t-18 -7t-18 7t-7 18zM150 325q0 11 7 18t18 7t18 -7t7 -18t-7 -18t-18 -7t-18 7t-7 18zM150 400q0 11 7 18t18 7t18 -7t7 -18t-7 -18t-18 -7t-18 7t-7 18z M150 475q0 11 7 18t18 7t18 -7t7 -18t-7 -18t-18 -7t-18 7t-7 18zM150 550q0 11 7 18t18 7t18 -7t7 -18t-7 -18t-18 -7t-18 7t-7 18zM150 625q0 11 7 18t18 7t18 -7t7 -18t-7 -18t-18 -7t-18 7t-7 18zM150 700q0 11 7 18t18 7t18 -7t7 -18t-7 -18t-18 -7t-18 7t-7 18z M225 25q0 11 7 18t18 7t18 -7t7 -18t-7 -18t-18 -7t-18 7t-7 18zM225 700q0 11 7 18t18 7t18 -7t7 -18t-7 -18t-18 -7t-18 7t-7 18z" />
<glyph unicode="J" d="M75 100q0 11 7 18t18 7t18 -7t7 -18t-7 -18t-18 -7t-18 7t-7 18zM75 175q0 11 7 18t18 7t18 -7t7 -18t-7 -18t-18 -7t-18 7t-7 18zM150 25q0 11 7 18t18 7t18 -7t7 -18t-7 -18t-18 -7t-18 7t-7 18zM150 700q0 11 7 18t18 7t18 -7t7 -18t-7 -18t-18 -7t-18 7t-7 18z M225 100q0 11 7 18t18 7t18 -7t7 -18t-7 -18t-18 -7t-18 7t-7 18zM225 175q0 11 7 18t18 7t18 -7t7 -18t-7 -18t-18 -7t-18 7t-7 18zM225 250q0 11 7 18t18 7t18 -7t7 -18t-7 -18t-18 -7t-18 7t-7 18zM225 325q0 11 7 18t18 7t18 -7t7 -18t-7 -18t-18 -7t-18 7t-7 18z M225 400q0 11 7 18t18 7t18 -7t7 -18t-7 -18t-18 -7t-18 7t-7 18zM225 475q0 11 7 18t18 7t18 -7t7 -18t-7 -18t-18 -7t-18 7t-7 18zM225 550q0 11 7 18t18 7t18 -7t7 -18t-7 -18t-18 -7t-18 7t-7 18zM225 625q0 11 7 18t18 7t18 -7t7 -18t-7 -18t-18 -7t-18 7t-7 18z M225 700q0 11 7 18t18 7t18 -7t7 -18t-7 -18t-18 -7t-18 7t-7 18z" />
<glyph unicode="K" d="M75 25q0 11 7 18t18 7t18 -7t7 -18t-7 -18t-18 -7t-18 7t-7 18zM75 100q0 11 7 18t18 7t18 -7t7 -18t-7 -18t-18 -7t-18 7t-7 18zM75 175q0 11 7 18t18 7t18 -7t7 -18t-7 -18t-18 -7t-18 7t-7 18zM75 250q0 11 7 18t18 7t18 -7t7 -18t-7 -18t-18 -7t-18 7t-7 18zM75 325 q0 11 7 18t18 7t18 -7t7 -18t-7 -18t-18 -7t-18 7t-7 18zM75 400q0 11 7 18t18 7t18 -7t7 -18t-7 -18t-18 -7t-18 7t-7 18zM75 475q0 11 7 18t18 7t18 -7t7 -18t-7 -18t-18 -7t-18 7t-7 18zM75 550q0 11 7 18t18 7t18 -7t7 -18t-7 -18t-18 -7t-18 7t-7 18zM75 625q0 11 7 18 t18 7t18 -7t7 -18t-7 -18t-18 -7t-18 7t-7 18zM75 700q0 11 7 18t18 7t18 -7t7 -18t-7 -18t-18 -7t-18 7t-7 18zM150 400q0 11 7 18t18 7t18 -7t7 -18t-7 -18t-18 -7t-18 7t-7 18zM225 25q0 11 7 18t18 7t18 -7t7 -18t-7 -18t-18 -7t-18 7t-7 18zM225 100q0 11 7 18t18 7 t18 -7t7 -18t-7 -18t-18 -7t-18 7t-7 18zM225 175q0 11 7 18t18 7t18 -7t7 -18t-7 -18t-18 -7t-18 7t-7 18zM225 250q0 11 7 18t18 7t18 -7t7 -18t-7 -18t-18 -7t-18 7t-7 18zM225 325q0 11 7 18t18 7t18 -7t7 -18t-7 -18t-18 -7t-18 7t-7 18zM225 475q0 11 7 18t18 7t18 -7 t7 -18t-7 -18t-18 -7t-18 7t-7 18zM225 550q0 11 7 18t18 7t18 -7t7 -18t-7 -18t-18 -7t-18 7t-7 18zM225 625q0 11 7 18t18 7t18 -7t7 -18t-7 -18t-18 -7t-18 7t-7 18zM225 700q0 11 7 18t18 7t18 -7t7 -18t-7 -18t-18 -7t-18 7t-7 18z" />
<glyph unicode="L" d="M75 25q0 11 7 18t18 7t18 -7t7 -18t-7 -18t-18 -7t-18 7t-7 18zM75 100q0 11 7 18t18 7t18 -7t7 -18t-7 -18t-18 -7t-18 7t-7 18zM75 175q0 11 7 18t18 7t18 -7t7 -18t-7 -18t-18 -7t-18 7t-7 18zM75 250q0 11 7 18t18 7t18 -7t7 -18t-7 -18t-18 -7t-18 7t-7 18zM75 325 q0 11 7 18t18 7t18 -7t7 -18t-7 -18t-18 -7t-18 7t-7 18zM75 400q0 11 7 18t18 7t18 -7t7 -18t-7 -18t-18 -7t-18 7t-7 18zM75 475q0 11 7 18t18 7t18 -7t7 -18t-7 -18t-18 -7t-18 7t-7 18zM75 550q0 11 7 18t18 7t18 -7t7 -18t-7 -18t-18 -7t-18 7t-7 18zM75 625q0 11 7 18 t18 7t18 -7t7 -18t-7 -18t-18 -7t-18 7t-7 18zM75 700q0 11 7 18t18 7t18 -7t7 -18t-7 -18t-18 -7t-18 7t-7 18zM150 25q0 11 7 18t18 7t18 -7t7 -18t-7 -18t-18 -7t-18 7t-7 18zM225 25q0 11 7 18t18 7t18 -7t7 -18t-7 -18t-18 -7t-18 7t-7 18zM225 100q0 11 7 18t18 7 t18 -7t7 -18t-7 -18t-18 -7t-18 7t-7 18zM225 175q0 11 7 18t18 7t18 -7t7 -18t-7 -18t-18 -7t-18 7t-7 18z" />
<glyph unicode="M" horiz-adv-x="500" d="M75 25q0 11 7 18t18 7t18 -7t7 -18t-7 -18t-18 -7t-18 7t-7 18zM75 100q0 11 7 18t18 7t18 -7t7 -18t-7 -18t-18 -7t-18 7t-7 18zM75 175q0 11 7 18t18 7t18 -7t7 -18t-7 -18t-18 -7t-18 7t-7 18zM75 250q0 11 7 18t18 7t18 -7t7 -18t-7 -18t-18 -7t-18 7t-7 18zM75 325 q0 11 7 18t18 7t18 -7t7 -18t-7 -18t-18 -7t-18 7t-7 18zM75 400q0 11 7 18t18 7t18 -7t7 -18t-7 -18t-18 -7t-18 7t-7 18zM75 475q0 11 7 18t18 7t18 -7t7 -18t-7 -18t-18 -7t-18 7t-7 18zM75 550q0 11 7 18t18 7t18 -7t7 -18t-7 -18t-18 -7t-18 7t-7 18zM75 625q0 11 7 18 t18 7t18 -7t7 -18t-7 -18t-18 -7t-18 7t-7 18zM150 700q0 11 7 18t18 7t18 -7t7 -18t-7 -18t-18 -7t-18 7t-7 18zM225 25q0 11 7 18t18 7t18 -7t7 -18t-7 -18t-18 -7t-18 7t-7 18zM225 100q0 11 7 18t18 7t18 -7t7 -18t-7 -18t-18 -7t-18 7t-7 18zM225 175q0 11 7 18t18 7 t18 -7t7 -18t-7 -18t-18 -7t-18 7t-7 18zM225 250q0 11 7 18t18 7t18 -7t7 -18t-7 -18t-18 -7t-18 7t-7 18zM225 325q0 11 7 18t18 7t18 -7t7 -18t-7 -18t-18 -7t-18 7t-7 18zM225 400q0 11 7 18t18 7t18 -7t7 -18t-7 -18t-18 -7t-18 7t-7 18zM225 475q0 11 7 18t18 7t18 -7 t7 -18t-7 -18t-18 -7t-18 7t-7 18zM225 550q0 11 7 18t18 7t18 -7t7 -18t-7 -18t-18 -7t-18 7t-7 18zM225 625q0 11 7 18t18 7t18 -7t7 -18t-7 -18t-18 -7t-18 7t-7 18zM300 700q0 11 7 18t18 7t18 -7t7 -18t-7 -18t-18 -7t-18 7t-7 18zM375 25q0 11 7 18t18 7t18 -7t7 -18 t-7 -18t-18 -7t-18 7t-7 18zM375 100q0 11 7 18t18 7t18 -7t7 -18t-7 -18t-18 -7t-18 7t-7 18zM375 175q0 11 7 18t18 7t18 -7t7 -18t-7 -18t-18 -7t-18 7t-7 18zM375 250q0 11 7 18t18 7t18 -7t7 -18t-7 -18t-18 -7t-18 7t-7 18zM375 325q0 11 7 18t18 7t18 -7t7 -18 t-7 -18t-18 -7t-18 7t-7 18zM375 400q0 11 7 18t18 7t18 -7t7 -18t-7 -18t-18 -7t-18 7t-7 18zM375 475q0 11 7 18t18 7t18 -7t7 -18t-7 -18t-18 -7t-18 7t-7 18zM375 550q0 11 7 18t18 7t18 -7t7 -18t-7 -18t-18 -7t-18 7t-7 18zM375 625q0 11 7 18t18 7t18 -7t7 -18 t-7 -18t-18 -7t-18 7t-7 18z" />
<glyph unicode="N" d="M0 25q0 11 7 18t18 7t18 -7t7 -18t-7 -18t-18 -7t-18 7t-7 18zM0 100q0 11 7 18t18 7t18 -7t7 -18t-7 -18t-18 -7t-18 7t-7 18zM0 175q0 11 7 18t18 7t18 -7t7 -18t-7 -18t-18 -7t-18 7t-7 18zM0 250q0 11 7 18t18 7t18 -7t7 -18t-7 -18t-18 -7t-18 7t-7 18zM0 325 q0 11 7 18t18 7t18 -7t7 -18t-7 -18t-18 -7t-18 7t-7 18zM0 400q0 11 7 18t18 7t18 -7t7 -18t-7 -18t-18 -7t-18 7t-7 18zM0 475q0 11 7 18t18 7t18 -7t7 -18t-7 -18t-18 -7t-18 7t-7 18zM0 550q0 11 7 18t18 7t18 -7t7 -18t-7 -18t-18 -7t-18 7t-7 18zM0 625q0 11 7 18 t18 7t18 -7t7 -18t-7 -18t-18 -7t-18 7t-7 18zM0 700q0 11 7 18t18 7t18 -7t7 -18t-7 -18t-18 -7t-18 7t-7 18zM75 550q0 11 7 18t18 7t18 -7t7 -18t-7 -18t-18 -7t-18 7t-7 18zM150 475q0 11 7 18t18 7t18 -7t7 -18t-7 -18t-18 -7t-18 7t-7 18zM225 25q0 11 7 18t18 7 t18 -7t7 -18t-7 -18t-18 -7t-18 7t-7 18zM225 100q0 11 7 18t18 7t18 -7t7 -18t-7 -18t-18 -7t-18 7t-7 18zM225 175q0 11 7 18t18 7t18 -7t7 -18t-7 -18t-18 -7t-18 7t-7 18zM225 250q0 11 7 18t18 7t18 -7t7 -18t-7 -18t-18 -7t-18 7t-7 18zM225 325q0 11 7 18t18 7t18 -7 t7 -18t-7 -18t-18 -7t-18 7t-7 18zM225 400q0 11 7 18t18 7t18 -7t7 -18t-7 -18t-18 -7t-18 7t-7 18zM225 475q0 11 7 18t18 7t18 -7t7 -18t-7 -18t-18 -7t-18 7t-7 18zM225 550q0 11 7 18t18 7t18 -7t7 -18t-7 -18t-18 -7t-18 7t-7 18zM225 625q0 11 7 18t18 7t18 -7t7 -18 t-7 -18t-18 -7t-18 7t-7 18zM225 700q0 11 7 18t18 7t18 -7t7 -18t-7 -18t-18 -7t-18 7t-7 18z" />
<glyph unicode="O" d="M75 100q0 11 7 18t18 7t18 -7t7 -18t-7 -18t-18 -7t-18 7t-7 18zM75 175q0 11 7 18t18 7t18 -7t7 -18t-7 -18t-18 -7t-18 7t-7 18zM75 250q0 11 7 18t18 7t18 -7t7 -18t-7 -18t-18 -7t-18 7t-7 18zM75 325q0 11 7 18t18 7t18 -7t7 -18t-7 -18t-18 -7t-18 7t-7 18zM75 400 q0 11 7 18t18 7t18 -7t7 -18t-7 -18t-18 -7t-18 7t-7 18zM75 475q0 11 7 18t18 7t18 -7t7 -18t-7 -18t-18 -7t-18 7t-7 18zM75 550q0 11 7 18t18 7t18 -7t7 -18t-7 -18t-18 -7t-18 7t-7 18zM75 625q0 11 7 18t18 7t18 -7t7 -18t-7 -18t-18 -7t-18 7t-7 18zM150 25q0 11 7 18 t18 7t18 -7t7 -18t-7 -18t-18 -7t-18 7t-7 18zM150 700q0 11 7 18t18 7t18 -7t7 -18t-7 -18t-18 -7t-18 7t-7 18zM225 100q0 11 7 18t18 7t18 -7t7 -18t-7 -18t-18 -7t-18 7t-7 18zM225 175q0 11 7 18t18 7t18 -7t7 -18t-7 -18t-18 -7t-18 7t-7 18zM225 250q0 11 7 18t18 7 t18 -7t7 -18t-7 -18t-18 -7t-18 7t-7 18zM225 325q0 11 7 18t18 7t18 -7t7 -18t-7 -18t-18 -7t-18 7t-7 18zM225 400q0 11 7 18t18 7t18 -7t7 -18t-7 -18t-18 -7t-18 7t-7 18zM225 475q0 11 7 18t18 7t18 -7t7 -18t-7 -18t-18 -7t-18 7t-7 18zM225 550q0 11 7 18t18 7t18 -7 t7 -18t-7 -18t-18 -7t-18 7t-7 18zM225 625q0 11 7 18t18 7t18 -7t7 -18t-7 -18t-18 -7t-18 7t-7 18z" />
<glyph unicode="P" d="M75 25q0 11 7 18t18 7t18 -7t7 -18t-7 -18t-18 -7t-18 7t-7 18zM75 100q0 11 7 18t18 7t18 -7t7 -18t-7 -18t-18 -7t-18 7t-7 18zM75 175q0 11 7 18t18 7t18 -7t7 -18t-7 -18t-18 -7t-18 7t-7 18zM75 250q0 11 7 18t18 7t18 -7t7 -18t-7 -18t-18 -7t-18 7t-7 18zM75 325 q0 11 7 18t18 7t18 -7t7 -18t-7 -18t-18 -7t-18 7t-7 18zM75 400q0 11 7 18t18 7t18 -7t7 -18t-7 -18t-18 -7t-18 7t-7 18zM75 475q0 11 7 18t18 7t18 -7t7 -18t-7 -18t-18 -7t-18 7t-7 18zM75 550q0 11 7 18t18 7t18 -7t7 -18t-7 -18t-18 -7t-18 7t-7 18zM75 625q0 11 7 18 t18 7t18 -7t7 -18t-7 -18t-18 -7t-18 7t-7 18zM75 700q0 11 7 18t18 7t18 -7t7 -18t-7 -18t-18 -7t-18 7t-7 18zM150 325q0 11 7 18t18 7t18 -7t7 -18t-7 -18t-18 -7t-18 7t-7 18zM150 700q0 11 7 18t18 7t18 -7t7 -18t-7 -18t-18 -7t-18 7t-7 18zM225 400q0 11 7 18t18 7 t18 -7t7 -18t-7 -18t-18 -7t-18 7t-7 18zM225 475q0 11 7 18t18 7t18 -7t7 -18t-7 -18t-18 -7t-18 7t-7 18zM225 550q0 11 7 18t18 7t18 -7t7 -18t-7 -18t-18 -7t-18 7t-7 18zM225 625q0 11 7 18t18 7t18 -7t7 -18t-7 -18t-18 -7t-18 7t-7 18z" />
<glyph unicode="Q" d="M75 100q0 11 7 18t18 7t18 -7t7 -18t-7 -18t-18 -7t-18 7t-7 18zM75 175q0 11 7 18t18 7t18 -7t7 -18t-7 -18t-18 -7t-18 7t-7 18zM75 250q0 11 7 18t18 7t18 -7t7 -18t-7 -18t-18 -7t-18 7t-7 18zM75 325q0 11 7 18t18 7t18 -7t7 -18t-7 -18t-18 -7t-18 7t-7 18zM75 400 q0 11 7 18t18 7t18 -7t7 -18t-7 -18t-18 -7t-18 7t-7 18zM75 475q0 11 7 18t18 7t18 -7t7 -18t-7 -18t-18 -7t-18 7t-7 18zM75 550q0 11 7 18t18 7t18 -7t7 -18t-7 -18t-18 -7t-18 7t-7 18zM75 625q0 11 7 18t18 7t18 -7t7 -18t-7 -18t-18 -7t-18 7t-7 18zM150 25q0 11 7 18 t18 7t18 -7t7 -18t-7 -18t-18 -7t-18 7t-7 18zM150 -50q0 11 7 18t18 7t18 -7t7 -18t-7 -18t-18 -7t-18 7t-7 18zM150 100q0 11 7 18t18 7t18 -7t7 -18t-7 -18t-18 -7t-18 7t-7 18zM150 700q0 11 7 18t18 7t18 -7t7 -18t-7 -18t-18 -7t-18 7t-7 18zM225 100q0 11 7 18t18 7 t18 -7t7 -18t-7 -18t-18 -7t-18 7t-7 18zM225 175q0 11 7 18t18 7t18 -7t7 -18t-7 -18t-18 -7t-18 7t-7 18zM225 250q0 11 7 18t18 7t18 -7t7 -18t-7 -18t-18 -7t-18 7t-7 18zM225 325q0 11 7 18t18 7t18 -7t7 -18t-7 -18t-18 -7t-18 7t-7 18zM225 400q0 11 7 18t18 7t18 -7 t7 -18t-7 -18t-18 -7t-18 7t-7 18zM225 475q0 11 7 18t18 7t18 -7t7 -18t-7 -18t-18 -7t-18 7t-7 18zM225 550q0 11 7 18t18 7t18 -7t7 -18t-7 -18t-18 -7t-18 7t-7 18zM225 625q0 11 7 18t18 7t18 -7t7 -18t-7 -18t-18 -7t-18 7t-7 18z" />
<glyph unicode="R" d="M75 25q0 11 7 18t18 7t18 -7t7 -18t-7 -18t-18 -7t-18 7t-7 18zM75 100q0 11 7 18t18 7t18 -7t7 -18t-7 -18t-18 -7t-18 7t-7 18zM75 175q0 11 7 18t18 7t18 -7t7 -18t-7 -18t-18 -7t-18 7t-7 18zM75 250q0 11 7 18t18 7t18 -7t7 -18t-7 -18t-18 -7t-18 7t-7 18zM75 325 q0 11 7 18t18 7t18 -7t7 -18t-7 -18t-18 -7t-18 7t-7 18zM75 400q0 11 7 18t18 7t18 -7t7 -18t-7 -18t-18 -7t-18 7t-7 18zM75 475q0 11 7 18t18 7t18 -7t7 -18t-7 -18t-18 -7t-18 7t-7 18zM75 550q0 11 7 18t18 7t18 -7t7 -18t-7 -18t-18 -7t-18 7t-7 18zM75 625q0 11 7 18 t18 7t18 -7t7 -18t-7 -18t-18 -7t-18 7t-7 18zM75 700q0 11 7 18t18 7t18 -7t7 -18t-7 -18t-18 -7t-18 7t-7 18zM150 400q0 11 7 18t18 7t18 -7t7 -18t-7 -18t-18 -7t-18 7t-7 18zM150 700q0 11 7 18t18 7t18 -7t7 -18t-7 -18t-18 -7t-18 7t-7 18zM225 25q0 11 7 18t18 7 t18 -7t7 -18t-7 -18t-18 -7t-18 7t-7 18zM225 100q0 11 7 18t18 7t18 -7t7 -18t-7 -18t-18 -7t-18 7t-7 18zM225 175q0 11 7 18t18 7t18 -7t7 -18t-7 -18t-18 -7t-18 7t-7 18zM225 250q0 11 7 18t18 7t18 -7t7 -18t-7 -18t-18 -7t-18 7t-7 18zM225 325q0 11 7 18t18 7t18 -7 t7 -18t-7 -18t-18 -7t-18 7t-7 18zM225 475q0 11 7 18t18 7t18 -7t7 -18t-7 -18t-18 -7t-18 7t-7 18zM225 550q0 11 7 18t18 7t18 -7t7 -18t-7 -18t-18 -7t-18 7t-7 18zM225 625q0 11 7 18t18 7t18 -7t7 -18t-7 -18t-18 -7t-18 7t-7 18z" />
<glyph unicode="S" d="M75 100q0 11 7 18t18 7t18 -7t7 -18t-7 -18t-18 -7t-18 7t-7 18zM75 175q0 11 7 18t18 7t18 -7t7 -18t-7 -18t-18 -7t-18 7t-7 18zM75 475q0 11 7 18t18 7t18 -7t7 -18t-7 -18t-18 -7t-18 7t-7 18zM75 550q0 11 7 18t18 7t18 -7t7 -18t-7 -18t-18 -7t-18 7t-7 18zM75 625 q0 11 7 18t18 7t18 -7t7 -18t-7 -18t-18 -7t-18 7t-7 18zM150 25q0 11 7 18t18 7t18 -7t7 -18t-7 -18t-18 -7t-18 7t-7 18zM150 400q0 11 7 18t18 7t18 -7t7 -18t-7 -18t-18 -7t-18 7t-7 18zM150 700q0 11 7 18t18 7t18 -7t7 -18t-7 -18t-18 -7t-18 7t-7 18zM225 100 q0 11 7 18t18 7t18 -7t7 -18t-7 -18t-18 -7t-18 7t-7 18zM225 175q0 11 7 18t18 7t18 -7t7 -18t-7 -18t-18 -7t-18 7t-7 18zM225 250q0 11 7 18t18 7t18 -7t7 -18t-7 -18t-18 -7t-18 7t-7 18zM225 325q0 11 7 18t18 7t18 -7t7 -18t-7 -18t-18 -7t-18 7t-7 18zM225 550 q0 11 7 18t18 7t18 -7t7 -18t-7 -18t-18 -7t-18 7t-7 18zM225 625q0 11 7 18t18 7t18 -7t7 -18t-7 -18t-18 -7t-18 7t-7 18z" />
<glyph unicode="T" d="M75 700q0 11 7 18t18 7t18 -7t7 -18t-7 -18t-18 -7t-18 7t-7 18zM150 25q0 11 7 18t18 7t18 -7t7 -18t-7 -18t-18 -7t-18 7t-7 18zM150 100q0 11 7 18t18 7t18 -7t7 -18t-7 -18t-18 -7t-18 7t-7 18zM150 175q0 11 7 18t18 7t18 -7t7 -18t-7 -18t-18 -7t-18 7t-7 18z M150 250q0 11 7 18t18 7t18 -7t7 -18t-7 -18t-18 -7t-18 7t-7 18zM150 325q0 11 7 18t18 7t18 -7t7 -18t-7 -18t-18 -7t-18 7t-7 18zM150 400q0 11 7 18t18 7t18 -7t7 -18t-7 -18t-18 -7t-18 7t-7 18zM150 475q0 11 7 18t18 7t18 -7t7 -18t-7 -18t-18 -7t-18 7t-7 18z M150 550q0 11 7 18t18 7t18 -7t7 -18t-7 -18t-18 -7t-18 7t-7 18zM150 625q0 11 7 18t18 7t18 -7t7 -18t-7 -18t-18 -7t-18 7t-7 18zM150 700q0 11 7 18t18 7t18 -7t7 -18t-7 -18t-18 -7t-18 7t-7 18zM225 700q0 11 7 18t18 7t18 -7t7 -18t-7 -18t-18 -7t-18 7t-7 18z" />
<glyph unicode="U" d="M76 100q0 11 7 18t18 7t18 -7t7 -18t-7 -18t-18 -7t-18 7t-7 18zM76 175q0 11 7 18t18 7t18 -7t7 -18t-7 -18t-18 -7t-18 7t-7 18zM76 250q0 11 7 18t18 7t18 -7t7 -18t-7 -18t-18 -7t-18 7t-7 18zM76 325q0 11 7 18t18 7t18 -7t7 -18t-7 -18t-18 -7t-18 7t-7 18zM76 400 q0 11 7 18t18 7t18 -7t7 -18t-7 -18t-18 -7t-18 7t-7 18zM76 475q0 11 7 18t18 7t18 -7t7 -18t-7 -18t-18 -7t-18 7t-7 18zM76 550q0 11 7 18t18 7t18 -7t7 -18t-7 -18t-18 -7t-18 7t-7 18zM76 625q0 11 7 18t18 7t18 -7t7 -18t-7 -18t-18 -7t-18 7t-7 18zM76 700q0 11 7 18 t18 7t18 -7t7 -18t-7 -18t-18 -7t-18 7t-7 18zM151 25q0 11 7 18t18 7t18 -7t7 -18t-7 -18t-18 -7t-18 7t-7 18zM225 25q0 11 7 18t18 7t18 -7t7 -18t-7 -18t-18 -7t-18 7t-7 18zM225 100q0 11 7 18t18 7t18 -7t7 -18t-7 -18t-18 -7t-18 7t-7 18zM225 175q0 11 7 18t18 7 t18 -7t7 -18t-7 -18t-18 -7t-18 7t-7 18zM225 250q0 11 7 18t18 7t18 -7t7 -18t-7 -18t-18 -7t-18 7t-7 18zM225 325q0 11 7 18t18 7t18 -7t7 -18t-7 -18t-18 -7t-18 7t-7 18zM225 400q0 11 7 18t18 7t18 -7t7 -18t-7 -18t-18 -7t-18 7t-7 18zM225 475q0 11 7 18t18 7t18 -7 t7 -18t-7 -18t-18 -7t-18 7t-7 18zM225 550q0 11 7 18t18 7t18 -7t7 -18t-7 -18t-18 -7t-18 7t-7 18zM225 625q0 11 7 18t18 7t18 -7t7 -18t-7 -18t-18 -7t-18 7t-7 18zM225 700q0 11 7 18t18 7t18 -7t7 -18t-7 -18t-18 -7t-18 7t-7 18z" />
<glyph unicode="V" d="M75 175q0 11 7 18t18 7t18 -7t7 -18t-7 -18t-18 -7t-18 7t-7 18zM75 250q0 11 7 18t18 7t18 -7t7 -18t-7 -18t-18 -7t-18 7t-7 18zM75 325q0 11 7 18t18 7t18 -7t7 -18t-7 -18t-18 -7t-18 7t-7 18zM75 400q0 11 7 18t18 7t18 -7t7 -18t-7 -18t-18 -7t-18 7t-7 18zM75 475 q0 11 7 18t18 7t18 -7t7 -18t-7 -18t-18 -7t-18 7t-7 18zM75 550q0 11 7 18t18 7t18 -7t7 -18t-7 -18t-18 -7t-18 7t-7 18zM75 625q0 11 7 18t18 7t18 -7t7 -18t-7 -18t-18 -7t-18 7t-7 18zM75 700q0 11 7 18t18 7t18 -7t7 -18t-7 -18t-18 -7t-18 7t-7 18zM150 25q0 11 7 18 t18 7t18 -7t7 -18t-7 -18t-18 -7t-18 7t-7 18zM150 100q0 11 7 18t18 7t18 -7t7 -18t-7 -18t-18 -7t-18 7t-7 18zM225 175q0 11 7 18t18 7t18 -7t7 -18t-7 -18t-18 -7t-18 7t-7 18zM225 250q0 11 7 18t18 7t18 -7t7 -18t-7 -18t-18 -7t-18 7t-7 18zM225 325q0 11 7 18t18 7 t18 -7t7 -18t-7 -18t-18 -7t-18 7t-7 18zM225 400q0 11 7 18t18 7t18 -7t7 -18t-7 -18t-18 -7t-18 7t-7 18zM225 475q0 11 7 18t18 7t18 -7t7 -18t-7 -18t-18 -7t-18 7t-7 18zM225 550q0 11 7 18t18 7t18 -7t7 -18t-7 -18t-18 -7t-18 7t-7 18zM225 625q0 11 7 18t18 7t18 -7 t7 -18t-7 -18t-18 -7t-18 7t-7 18zM225 700q0 11 7 18t18 7t18 -7t7 -18t-7 -18t-18 -7t-18 7t-7 18z" />
<glyph unicode="W" horiz-adv-x="500" d="M75 175q0 11 7 18t18 7t18 -7t7 -18t-7 -18t-18 -7t-18 7t-7 18zM75 250q0 11 7 18t18 7t18 -7t7 -18t-7 -18t-18 -7t-18 7t-7 18zM75 325q0 11 7 18t18 7t18 -7t7 -18t-7 -18t-18 -7t-18 7t-7 18zM75 400q0 11 7 18t18 7t18 -7t7 -18t-7 -18t-18 -7t-18 7t-7 18zM75 475 q0 11 7 18t18 7t18 -7t7 -18t-7 -18t-18 -7t-18 7t-7 18zM75 550q0 11 7 18t18 7t18 -7t7 -18t-7 -18t-18 -7t-18 7t-7 18zM75 625q0 11 7 18t18 7t18 -7t7 -18t-7 -18t-18 -7t-18 7t-7 18zM75 700q0 11 7 18t18 7t18 -7t7 -18t-7 -18t-18 -7t-18 7t-7 18zM150 25q0 11 7 18 t18 7t18 -7t7 -18t-7 -18t-18 -7t-18 7t-7 18zM150 100q0 11 7 18t18 7t18 -7t7 -18t-7 -18t-18 -7t-18 7t-7 18zM225 175q0 11 7 18t18 7t18 -7t7 -18t-7 -18t-18 -7t-18 7t-7 18zM225 250q0 11 7 18t18 7t18 -7t7 -18t-7 -18t-18 -7t-18 7t-7 18zM225 325q0 11 7 18t18 7 t18 -7t7 -18t-7 -18t-18 -7t-18 7t-7 18zM225 400q0 11 7 18t18 7t18 -7t7 -18t-7 -18t-18 -7t-18 7t-7 18zM225 475q0 11 7 18t18 7t18 -7t7 -18t-7 -18t-18 -7t-18 7t-7 18zM225 550q0 11 7 18t18 7t18 -7t7 -18t-7 -18t-18 -7t-18 7t-7 18zM225 625q0 11 7 18t18 7t18 -7 t7 -18t-7 -18t-18 -7t-18 7t-7 18zM225 700q0 11 7 18t18 7t18 -7t7 -18t-7 -18t-18 -7t-18 7t-7 18zM300 25q0 11 7 18t18 7t18 -7t7 -18t-7 -18t-18 -7t-18 7t-7 18zM300 100q0 11 7 18t18 7t18 -7t7 -18t-7 -18t-18 -7t-18 7t-7 18zM375 175q0 11 7 18t18 7t18 -7t7 -18 t-7 -18t-18 -7t-18 7t-7 18zM375 250q0 11 7 18t18 7t18 -7t7 -18t-7 -18t-18 -7t-18 7t-7 18zM375 325q0 11 7 18t18 7t18 -7t7 -18t-7 -18t-18 -7t-18 7t-7 18zM375 400q0 11 7 18t18 7t18 -7t7 -18t-7 -18t-18 -7t-18 7t-7 18zM375 475q0 11 7 18t18 7t18 -7t7 -18 t-7 -18t-18 -7t-18 7t-7 18zM375 550q0 11 7 18t18 7t18 -7t7 -18t-7 -18t-18 -7t-18 7t-7 18zM375 625q0 11 7 18t18 7t18 -7t7 -18t-7 -18t-18 -7t-18 7t-7 18zM375 700q0 11 7 18t18 7t18 -7t7 -18t-7 -18t-18 -7t-18 7t-7 18z" />
<glyph unicode="X" d="M75 25q0 11 7 18t18 7t18 -7t7 -18t-7 -18t-18 -7t-18 7t-7 18zM75 100q0 11 7 18t18 7t18 -7t7 -18t-7 -18t-18 -7t-18 7t-7 18zM75 175q0 11 7 18t18 7t18 -7t7 -18t-7 -18t-18 -7t-18 7t-7 18zM75 250q0 11 7 18t18 7t18 -7t7 -18t-7 -18t-18 -7t-18 7t-7 18zM75 325 q0 11 7 18t18 7t18 -7t7 -18t-7 -18t-18 -7t-18 7t-7 18zM75 475q0 11 7 18t18 7t18 -7t7 -18t-7 -18t-18 -7t-18 7t-7 18zM75 550q0 11 7 18t18 7t18 -7t7 -18t-7 -18t-18 -7t-18 7t-7 18zM75 625q0 11 7 18t18 7t18 -7t7 -18t-7 -18t-18 -7t-18 7t-7 18zM75 700q0 11 7 18 t18 7t18 -7t7 -18t-7 -18t-18 -7t-18 7t-7 18zM150 400q0 11 7 18t18 7t18 -7t7 -18t-7 -18t-18 -7t-18 7t-7 18zM225 25q0 11 7 18t18 7t18 -7t7 -18t-7 -18t-18 -7t-18 7t-7 18zM225 100q0 11 7 18t18 7t18 -7t7 -18t-7 -18t-18 -7t-18 7t-7 18zM225 175q0 11 7 18t18 7 t18 -7t7 -18t-7 -18t-18 -7t-18 7t-7 18zM225 250q0 11 7 18t18 7t18 -7t7 -18t-7 -18t-18 -7t-18 7t-7 18zM225 325q0 11 7 18t18 7t18 -7t7 -18t-7 -18t-18 -7t-18 7t-7 18zM225 475q0 11 7 18t18 7t18 -7t7 -18t-7 -18t-18 -7t-18 7t-7 18zM225 550q0 11 7 18t18 7t18 -7 t7 -18t-7 -18t-18 -7t-18 7t-7 18zM225 625q0 11 7 18t18 7t18 -7t7 -18t-7 -18t-18 -7t-18 7t-7 18zM225 700q0 11 7 18t18 7t18 -7t7 -18t-7 -18t-18 -7t-18 7t-7 18z" />
<glyph unicode="Y" d="M75 400q0 11 7 18t18 7t18 -7t7 -18t-7 -18t-18 -7t-18 7t-7 18zM75 475q0 11 7 18t18 7t18 -7t7 -18t-7 -18t-18 -7t-18 7t-7 18zM75 550q0 11 7 18t18 7t18 -7t7 -18t-7 -18t-18 -7t-18 7t-7 18zM75 625q0 11 7 18t18 7t18 -7t7 -18t-7 -18t-18 -7t-18 7t-7 18zM75 700 q0 11 7 18t18 7t18 -7t7 -18t-7 -18t-18 -7t-18 7t-7 18zM150 25q0 11 7 18t18 7t18 -7t7 -18t-7 -18t-18 -7t-18 7t-7 18zM150 100q0 11 7 18t18 7t18 -7t7 -18t-7 -18t-18 -7t-18 7t-7 18zM150 175q0 11 7 18t18 7t18 -7t7 -18t-7 -18t-18 -7t-18 7t-7 18zM150 250 q0 11 7 18t18 7t18 -7t7 -18t-7 -18t-18 -7t-18 7t-7 18zM150 325q0 11 7 18t18 7t18 -7t7 -18t-7 -18t-18 -7t-18 7t-7 18zM225 400q0 11 7 18t18 7t18 -7t7 -18t-7 -18t-18 -7t-18 7t-7 18zM225 475q0 11 7 18t18 7t18 -7t7 -18t-7 -18t-18 -7t-18 7t-7 18zM225 550 q0 11 7 18t18 7t18 -7t7 -18t-7 -18t-18 -7t-18 7t-7 18zM225 625q0 11 7 18t18 7t18 -7t7 -18t-7 -18t-18 -7t-18 7t-7 18zM225 700q0 11 7 18t18 7t18 -7t7 -18t-7 -18t-18 -7t-18 7t-7 18z" />
<glyph unicode="Z" d="M75 25q0 11 7 18t18 7t18 -7t7 -18t-7 -18t-18 -7t-18 7t-7 18zM75 100q0 11 7 18t18 7t18 -7t7 -18t-7 -18t-18 -7t-18 7t-7 18zM75 175q0 11 7 18t18 7t18 -7t7 -18t-7 -18t-18 -7t-18 7t-7 18zM75 250q0 11 7 18t18 7t18 -7t7 -18t-7 -18t-18 -7t-18 7t-7 18zM75 700 q0 11 7 18t18 7t18 -7t7 -18t-7 -18t-18 -7t-18 7t-7 18zM150 25q0 11 7 18t18 7t18 -7t7 -18t-7 -18t-18 -7t-18 7t-7 18zM150 325q0 11 7 18t18 7t18 -7t7 -18t-7 -18t-18 -7t-18 7t-7 18zM150 400q0 11 7 18t18 7t18 -7t7 -18t-7 -18t-18 -7t-18 7t-7 18zM150 475 q0 11 7 18t18 7t18 -7t7 -18t-7 -18t-18 -7t-18 7t-7 18zM150 700q0 11 7 18t18 7t18 -7t7 -18t-7 -18t-18 -7t-18 7t-7 18zM225 25q0 11 7 18t18 7t18 -7t7 -18t-7 -18t-18 -7t-18 7t-7 18zM225 550q0 11 7 18t18 7t18 -7t7 -18t-7 -18t-18 -7t-18 7t-7 18zM225 625 q0 11 7 18t18 7t18 -7t7 -18t-7 -18t-18 -7t-18 7t-7 18zM225 700q0 11 7 18t18 7t18 -7t7 -18t-7 -18t-18 -7t-18 7t-7 18z" />
<glyph unicode="[" horiz-adv-x="275" d="M75 25q0 11 7 18t18 7t18 -7t7 -18t-7 -18t-18 -7t-18 7t-7 18zM75 -50q0 11 7 18t18 7t18 -7t7 -18t-7 -18t-18 -7t-18 7t-7 18zM75 100q0 11 7 18t18 7t18 -7t7 -18t-7 -18t-18 -7t-18 7t-7 18zM75 175q0 11 7 18t18 7t18 -7t7 -18t-7 -18t-18 -7t-18 7t-7 18zM75 250 q0 11 7 18t18 7t18 -7t7 -18t-7 -18t-18 -7t-18 7t-7 18zM75 325q0 11 7 18t18 7t18 -7t7 -18t-7 -18t-18 -7t-18 7t-7 18zM75 400q0 11 7 18t18 7t18 -7t7 -18t-7 -18t-18 -7t-18 7t-7 18zM75 475q0 11 7 18t18 7t18 -7t7 -18t-7 -18t-18 -7t-18 7t-7 18zM75 550q0 11 7 18 t18 7t18 -7t7 -18t-7 -18t-18 -7t-18 7t-7 18zM75 625q0 11 7 18t18 7t18 -7t7 -18t-7 -18t-18 -7t-18 7t-7 18zM75 700q0 11 7 18t18 7t18 -7t7 -18t-7 -18t-18 -7t-18 7t-7 18zM75 775q0 11 7 18t18 7t18 -7t7 -18t-7 -18t-18 -7t-18 7t-7 18zM150 -50q0 11 7 18t18 7 t18 -7t7 -18t-7 -18t-18 -7t-18 7t-7 18zM150 775q0 11 7 18t18 7t18 -7t7 -18t-7 -18t-18 -7t-18 7t-7 18z" />
<glyph unicode="\" horiz-adv-x="425" d="M0 625q0 11 7 18t18 7t18 -7t7 -18t-7 -18t-18 -7t-18 7t-7 18zM0 700q0 11 7 18t18 7t18 -7t7 -18t-7 -18t-18 -7t-18 7t-7 18zM75 475q0 11 7 18t18 7t18 -7t7 -18t-7 -18t-18 -7t-18 7t-7 18zM75 550q0 11 7 18t18 7t18 -7t7 -18t-7 -18t-18 -7t-18 7t-7 18zM150 325 q0 11 7 18t18 7t18 -7t7 -18t-7 -18t-18 -7t-18 7t-7 18zM150 400q0 11 7 18t18 7t18 -7t7 -18t-7 -18t-18 -7t-18 7t-7 18zM225 175q0 11 7 18t18 7t18 -7t7 -18t-7 -18t-18 -7t-18 7t-7 18zM225 250q0 11 7 18t18 7t18 -7t7 -18t-7 -18t-18 -7t-18 7t-7 18zM300 25 q0 11 7 18t18 7t18 -7t7 -18t-7 -18t-18 -7t-18 7t-7 18zM300 100q0 11 7 18t18 7t18 -7t7 -18t-7 -18t-18 -7t-18 7t-7 18z" />
<glyph unicode="]" horiz-adv-x="275" d="M75 -50q0 11 7 18t18 7t18 -7t7 -18t-7 -18t-18 -7t-18 7t-7 18zM75 775q0 11 7 18t18 7t18 -7t7 -18t-7 -18t-18 -7t-18 7t-7 18zM150 25q0 11 7 18t18 7t18 -7t7 -18t-7 -18t-18 -7t-18 7t-7 18zM150 -50q0 11 7 18t18 7t18 -7t7 -18t-7 -18t-18 -7t-18 7t-7 18z M150 100q0 11 7 18t18 7t18 -7t7 -18t-7 -18t-18 -7t-18 7t-7 18zM150 175q0 11 7 18t18 7t18 -7t7 -18t-7 -18t-18 -7t-18 7t-7 18zM150 250q0 11 7 18t18 7t18 -7t7 -18t-7 -18t-18 -7t-18 7t-7 18zM150 325q0 11 7 18t18 7t18 -7t7 -18t-7 -18t-18 -7t-18 7t-7 18z M150 400q0 11 7 18t18 7t18 -7t7 -18t-7 -18t-18 -7t-18 7t-7 18zM150 475q0 11 7 18t18 7t18 -7t7 -18t-7 -18t-18 -7t-18 7t-7 18zM150 550q0 11 7 18t18 7t18 -7t7 -18t-7 -18t-18 -7t-18 7t-7 18zM150 625q0 11 7 18t18 7t18 -7t7 -18t-7 -18t-18 -7t-18 7t-7 18z M150 700q0 11 7 18t18 7t18 -7t7 -18t-7 -18t-18 -7t-18 7t-7 18zM150 775q0 11 7 18t18 7t18 -7t7 -18t-7 -18t-18 -7t-18 7t-7 18z" />
<glyph unicode="^" d="M75 775q0 11 7 18t18 7t18 -7t7 -18t-7 -18t-18 -7t-18 7t-7 18zM150 850q0 11 7 18t18 7t18 -7t7 -18t-7 -18t-18 -7t-18 7t-7 18zM225 775q0 11 7 18t18 7t18 -7t7 -18t-7 -18t-18 -7t-18 7t-7 18z" />
<glyph unicode="_" horiz-adv-x="425" d="M75 25q0 11 7 18t18 7t18 -7t7 -18t-7 -18t-18 -7t-18 7t-7 18zM150 25q0 11 7 18t18 7t18 -7t7 -18t-7 -18t-18 -7t-18 7t-7 18zM225 25q0 11 7 18t18 7t18 -7t7 -18t-7 -18t-18 -7t-18 7t-7 18zM300 25q0 11 7 18t18 7t18 -7t7 -18t-7 -18t-18 -7t-18 7t-7 18z" />
<glyph unicode="`" d="M75 850q0 11 7 18t18 7t18 -7t7 -18t-7 -18t-18 -7t-18 7t-7 18zM150 775q0 11 7 18t18 7t18 -7t7 -18t-7 -18t-18 -7t-18 7t-7 18zM225 775q0 11 7 18t18 7t18 -7t7 -18t-7 -18t-18 -7t-18 7t-7 18z" />
<glyph unicode="a" d="M75 100q0 11 7 18t18 7t18 -7t7 -18t-7 -18t-18 -7t-18 7t-7 18zM75 175q0 11 7 18t18 7t18 -7t7 -18t-7 -18t-18 -7t-18 7t-7 18zM75 250q0 11 7 18t18 7t18 -7t7 -18t-7 -18t-18 -7t-18 7t-7 18zM75 325q0 11 7 18t18 7t18 -7t7 -18t-7 -18t-18 -7t-18 7t-7 18zM75 550 q0 11 7 18t18 7t18 -7t7 -18t-7 -18t-18 -7t-18 7t-7 18zM150 25q0 11 7 18t18 7t18 -7t7 -18t-7 -18t-18 -7t-18 7t-7 18zM150 400q0 11 7 18t18 7t18 -7t7 -18t-7 -18t-18 -7t-18 7t-7 18zM150 625q0 11 7 18t18 7t18 -7t7 -18t-7 -18t-18 -7t-18 7t-7 18zM225 25 q0 11 7 18t18 7t18 -7t7 -18t-7 -18t-18 -7t-18 7t-7 18zM225 100q0 11 7 18t18 7t18 -7t7 -18t-7 -18t-18 -7t-18 7t-7 18zM225 175q0 11 7 18t18 7t18 -7t7 -18t-7 -18t-18 -7t-18 7t-7 18zM225 250q0 11 7 18t18 7t18 -7t7 -18t-7 -18t-18 -7t-18 7t-7 18zM225 325 q0 11 7 18t18 7t18 -7t7 -18t-7 -18t-18 -7t-18 7t-7 18zM225 400q0 11 7 18t18 7t18 -7t7 -18t-7 -18t-18 -7t-18 7t-7 18zM225 475q0 11 7 18t18 7t18 -7t7 -18t-7 -18t-18 -7t-18 7t-7 18zM225 550q0 11 7 18t18 7t18 -7t7 -18t-7 -18t-18 -7t-18 7t-7 18z" />
<glyph unicode="b" d="M75 25q0 11 7 18t18 7t18 -7t7 -18t-7 -18t-18 -7t-18 7t-7 18zM75 100q0 11 7 18t18 7t18 -7t7 -18t-7 -18t-18 -7t-18 7t-7 18zM75 175q0 11 7 18t18 7t18 -7t7 -18t-7 -18t-18 -7t-18 7t-7 18zM75 250q0 11 7 18t18 7t18 -7t7 -18t-7 -18t-18 -7t-18 7t-7 18zM75 325 q0 11 7 18t18 7t18 -7t7 -18t-7 -18t-18 -7t-18 7t-7 18zM75 400q0 11 7 18t18 7t18 -7t7 -18t-7 -18t-18 -7t-18 7t-7 18zM75 475q0 11 7 18t18 7t18 -7t7 -18t-7 -18t-18 -7t-18 7t-7 18zM75 550q0 11 7 18t18 7t18 -7t7 -18t-7 -18t-18 -7t-18 7t-7 18zM75 625q0 11 7 18 t18 7t18 -7t7 -18t-7 -18t-18 -7t-18 7t-7 18zM75 700q0 11 7 18t18 7t18 -7t7 -18t-7 -18t-18 -7t-18 7t-7 18zM75 775q0 11 7 18t18 7t18 -7t7 -18t-7 -18t-18 -7t-18 7t-7 18zM150 25q0 11 7 18t18 7t18 -7t7 -18t-7 -18t-18 -7t-18 7t-7 18zM150 625q0 11 7 18t18 7 t18 -7t7 -18t-7 -18t-18 -7t-18 7t-7 18zM225 100q0 11 7 18t18 7t18 -7t7 -18t-7 -18t-18 -7t-18 7t-7 18zM225 175q0 11 7 18t18 7t18 -7t7 -18t-7 -18t-18 -7t-18 7t-7 18zM225 250q0 11 7 18t18 7t18 -7t7 -18t-7 -18t-18 -7t-18 7t-7 18zM225 325q0 11 7 18t18 7t18 -7 t7 -18t-7 -18t-18 -7t-18 7t-7 18zM225 400q0 11 7 18t18 7t18 -7t7 -18t-7 -18t-18 -7t-18 7t-7 18zM225 475q0 11 7 18t18 7t18 -7t7 -18t-7 -18t-18 -7t-18 7t-7 18zM225 550q0 11 7 18t18 7t18 -7t7 -18t-7 -18t-18 -7t-18 7t-7 18z" />
<glyph unicode="c" d="M75 100q0 11 7 18t18 7t18 -7t7 -18t-7 -18t-18 -7t-18 7t-7 18zM75 175q0 11 7 18t18 7t18 -7t7 -18t-7 -18t-18 -7t-18 7t-7 18zM75 250q0 11 7 18t18 7t18 -7t7 -18t-7 -18t-18 -7t-18 7t-7 18zM75 325q0 11 7 18t18 7t18 -7t7 -18t-7 -18t-18 -7t-18 7t-7 18zM75 400 q0 11 7 18t18 7t18 -7t7 -18t-7 -18t-18 -7t-18 7t-7 18zM75 475q0 11 7 18t18 7t18 -7t7 -18t-7 -18t-18 -7t-18 7t-7 18zM75 550q0 11 7 18t18 7t18 -7t7 -18t-7 -18t-18 -7t-18 7t-7 18zM150 25q0 11 7 18t18 7t18 -7t7 -18t-7 -18t-18 -7t-18 7t-7 18zM150 625 q0 11 7 18t18 7t18 -7t7 -18t-7 -18t-18 -7t-18 7t-7 18zM225 100q0 11 7 18t18 7t18 -7t7 -18t-7 -18t-18 -7t-18 7t-7 18zM225 550q0 11 7 18t18 7t18 -7t7 -18t-7 -18t-18 -7t-18 7t-7 18z" />
<glyph unicode="d" d="M75 100q0 11 7 18t18 7t18 -7t7 -18t-7 -18t-18 -7t-18 7t-7 18zM75 175q0 11 7 18t18 7t18 -7t7 -18t-7 -18t-18 -7t-18 7t-7 18zM75 250q0 11 7 18t18 7t18 -7t7 -18t-7 -18t-18 -7t-18 7t-7 18zM75 325q0 11 7 18t18 7t18 -7t7 -18t-7 -18t-18 -7t-18 7t-7 18zM75 400 q0 11 7 18t18 7t18 -7t7 -18t-7 -18t-18 -7t-18 7t-7 18zM75 475q0 11 7 18t18 7t18 -7t7 -18t-7 -18t-18 -7t-18 7t-7 18zM75 550q0 11 7 18t18 7t18 -7t7 -18t-7 -18t-18 -7t-18 7t-7 18zM150 25q0 11 7 18t18 7t18 -7t7 -18t-7 -18t-18 -7t-18 7t-7 18zM150 625 q0 11 7 18t18 7t18 -7t7 -18t-7 -18t-18 -7t-18 7t-7 18zM225 25q0 11 7 18t18 7t18 -7t7 -18t-7 -18t-18 -7t-18 7t-7 18zM225 100q0 11 7 18t18 7t18 -7t7 -18t-7 -18t-18 -7t-18 7t-7 18zM225 175q0 11 7 18t18 7t18 -7t7 -18t-7 -18t-18 -7t-18 7t-7 18zM225 250 q0 11 7 18t18 7t18 -7t7 -18t-7 -18t-18 -7t-18 7t-7 18zM225 325q0 11 7 18t18 7t18 -7t7 -18t-7 -18t-18 -7t-18 7t-7 18zM225 400q0 11 7 18t18 7t18 -7t7 -18t-7 -18t-18 -7t-18 7t-7 18zM225 475q0 11 7 18t18 7t18 -7t7 -18t-7 -18t-18 -7t-18 7t-7 18zM225 550 q0 11 7 18t18 7t18 -7t7 -18t-7 -18t-18 -7t-18 7t-7 18zM225 625q0 11 7 18t18 7t18 -7t7 -18t-7 -18t-18 -7t-18 7t-7 18zM225 700q0 11 7 18t18 7t18 -7t7 -18t-7 -18t-18 -7t-18 7t-7 18zM225 775q0 11 7 18t18 7t18 -7t7 -18t-7 -18t-18 -7t-18 7t-7 18z" />
<glyph unicode="e" d="M75 100q0 11 7 18t18 7t18 -7t7 -18t-7 -18t-18 -7t-18 7t-7 18zM75 175q0 11 7 18t18 7t18 -7t7 -18t-7 -18t-18 -7t-18 7t-7 18zM75 250q0 11 7 18t18 7t18 -7t7 -18t-7 -18t-18 -7t-18 7t-7 18zM75 325q0 11 7 18t18 7t18 -7t7 -18t-7 -18t-18 -7t-18 7t-7 18zM75 400 q0 11 7 18t18 7t18 -7t7 -18t-7 -18t-18 -7t-18 7t-7 18zM75 475q0 11 7 18t18 7t18 -7t7 -18t-7 -18t-18 -7t-18 7t-7 18zM75 550q0 11 7 18t18 7t18 -7t7 -18t-7 -18t-18 -7t-18 7t-7 18zM150 25q0 11 7 18t18 7t18 -7t7 -18t-7 -18t-18 -7t-18 7t-7 18zM150 325 q0 11 7 18t18 7t18 -7t7 -18t-7 -18t-18 -7t-18 7t-7 18zM150 625q0 11 7 18t18 7t18 -7t7 -18t-7 -18t-18 -7t-18 7t-7 18zM225 100q0 11 7 18t18 7t18 -7t7 -18t-7 -18t-18 -7t-18 7t-7 18zM225 325q0 11 7 18t18 7t18 -7t7 -18t-7 -18t-18 -7t-18 7t-7 18zM225 400 q0 11 7 18t18 7t18 -7t7 -18t-7 -18t-18 -7t-18 7t-7 18zM225 475q0 11 7 18t18 7t18 -7t7 -18t-7 -18t-18 -7t-18 7t-7 18zM225 550q0 11 7 18t18 7t18 -7t7 -18t-7 -18t-18 -7t-18 7t-7 18z" />
<glyph unicode="f" d="M75 625q0 11 7 18t18 7t18 -7t7 -18t-7 -18t-18 -7t-18 7t-7 18zM150 25q0 11 7 18t18 7t18 -7t7 -18t-7 -18t-18 -7t-18 7t-7 18zM150 100q0 11 7 18t18 7t18 -7t7 -18t-7 -18t-18 -7t-18 7t-7 18zM150 175q0 11 7 18t18 7t18 -7t7 -18t-7 -18t-18 -7t-18 7t-7 18z M150 250q0 11 7 18t18 7t18 -7t7 -18t-7 -18t-18 -7t-18 7t-7 18zM150 325q0 11 7 18t18 7t18 -7t7 -18t-7 -18t-18 -7t-18 7t-7 18zM150 400q0 11 7 18t18 7t18 -7t7 -18t-7 -18t-18 -7t-18 7t-7 18zM150 475q0 11 7 18t18 7t18 -7t7 -18t-7 -18t-18 -7t-18 7t-7 18z M150 550q0 11 7 18t18 7t18 -7t7 -18t-7 -18t-18 -7t-18 7t-7 18zM150 625q0 11 7 18t18 7t18 -7t7 -18t-7 -18t-18 -7t-18 7t-7 18zM150 700q0 11 7 18t18 7t18 -7t7 -18t-7 -18t-18 -7t-18 7t-7 18zM225 625q0 11 7 18t18 7t18 -7t7 -18t-7 -18t-18 -7t-18 7t-7 18z M225 775q0 11 7 18t18 7t18 -7t7 -18t-7 -18t-18 -7t-18 7t-7 18zM300 775q0 11 7 18t18 7t18 -7t7 -18t-7 -18t-18 -7t-18 7t-7 18z" />
<glyph unicode="g" d="M75 100q0 11 7 18t18 7t18 -7t7 -18t-7 -18t-18 -7t-18 7t-7 18zM75 -125q0 11 7 18t18 7t18 -7t7 -18t-7 -18t-18 -7t-18 7t-7 18zM75 175q0 11 7 18t18 7t18 -7t7 -18t-7 -18t-18 -7t-18 7t-7 18zM75 250q0 11 7 18t18 7t18 -7t7 -18t-7 -18t-18 -7t-18 7t-7 18z M75 325q0 11 7 18t18 7t18 -7t7 -18t-7 -18t-18 -7t-18 7t-7 18zM75 400q0 11 7 18t18 7t18 -7t7 -18t-7 -18t-18 -7t-18 7t-7 18zM75 475q0 11 7 18t18 7t18 -7t7 -18t-7 -18t-18 -7t-18 7t-7 18zM75 550q0 11 7 18t18 7t18 -7t7 -18t-7 -18t-18 -7t-18 7t-7 18zM150 25 q0 11 7 18t18 7t18 -7t7 -18t-7 -18t-18 -7t-18 7t-7 18zM150 -200q0 11 7 18t18 7t18 -7t7 -18t-7 -18t-18 -7t-18 7t-7 18zM150 625q0 11 7 18t18 7t18 -7t7 -18t-7 -18t-18 -7t-18 7t-7 18zM225 25q0 11 7 18t18 7t18 -7t7 -18t-7 -18t-18 -7t-18 7t-7 18zM225 -50 q0 11 7 18t18 7t18 -7t7 -18t-7 -18t-18 -7t-18 7t-7 18zM225 100q0 11 7 18t18 7t18 -7t7 -18t-7 -18t-18 -7t-18 7t-7 18zM225 -125q0 11 7 18t18 7t18 -7t7 -18t-7 -18t-18 -7t-18 7t-7 18zM225 175q0 11 7 18t18 7t18 -7t7 -18t-7 -18t-18 -7t-18 7t-7 18zM225 250 q0 11 7 18t18 7t18 -7t7 -18t-7 -18t-18 -7t-18 7t-7 18zM225 325q0 11 7 18t18 7t18 -7t7 -18t-7 -18t-18 -7t-18 7t-7 18zM225 400q0 11 7 18t18 7t18 -7t7 -18t-7 -18t-18 -7t-18 7t-7 18zM225 475q0 11 7 18t18 7t18 -7t7 -18t-7 -18t-18 -7t-18 7t-7 18zM225 550 q0 11 7 18t18 7t18 -7t7 -18t-7 -18t-18 -7t-18 7t-7 18z" />
<glyph unicode="h" d="M75 25q0 11 7 18t18 7t18 -7t7 -18t-7 -18t-18 -7t-18 7t-7 18zM75 100q0 11 7 18t18 7t18 -7t7 -18t-7 -18t-18 -7t-18 7t-7 18zM75 175q0 11 7 18t18 7t18 -7t7 -18t-7 -18t-18 -7t-18 7t-7 18zM75 250q0 11 7 18t18 7t18 -7t7 -18t-7 -18t-18 -7t-18 7t-7 18zM75 325 q0 11 7 18t18 7t18 -7t7 -18t-7 -18t-18 -7t-18 7t-7 18zM75 400q0 11 7 18t18 7t18 -7t7 -18t-7 -18t-18 -7t-18 7t-7 18zM75 475q0 11 7 18t18 7t18 -7t7 -18t-7 -18t-18 -7t-18 7t-7 18zM75 550q0 11 7 18t18 7t18 -7t7 -18t-7 -18t-18 -7t-18 7t-7 18zM75 625q0 11 7 18 t18 7t18 -7t7 -18t-7 -18t-18 -7t-18 7t-7 18zM75 700q0 11 7 18t18 7t18 -7t7 -18t-7 -18t-18 -7t-18 7t-7 18zM75 775q0 11 7 18t18 7t18 -7t7 -18t-7 -18t-18 -7t-18 7t-7 18zM150 625q0 11 7 18t18 7t18 -7t7 -18t-7 -18t-18 -7t-18 7t-7 18zM225 25q0 11 7 18t18 7 t18 -7t7 -18t-7 -18t-18 -7t-18 7t-7 18zM225 100q0 11 7 18t18 7t18 -7t7 -18t-7 -18t-18 -7t-18 7t-7 18zM225 175q0 11 7 18t18 7t18 -7t7 -18t-7 -18t-18 -7t-18 7t-7 18zM225 250q0 11 7 18t18 7t18 -7t7 -18t-7 -18t-18 -7t-18 7t-7 18zM225 325q0 11 7 18t18 7t18 -7 t7 -18t-7 -18t-18 -7t-18 7t-7 18zM225 400q0 11 7 18t18 7t18 -7t7 -18t-7 -18t-18 -7t-18 7t-7 18zM225 475q0 11 7 18t18 7t18 -7t7 -18t-7 -18t-18 -7t-18 7t-7 18zM225 550q0 11 7 18t18 7t18 -7t7 -18t-7 -18t-18 -7t-18 7t-7 18z" />
<glyph unicode="i" d="M75 25q0 11 7 18t18 7t18 -7t7 -18t-7 -18t-18 -7t-18 7t-7 18zM75 625q0 11 7 18t18 7t18 -7t7 -18t-7 -18t-18 -7t-18 7t-7 18zM150 25q0 11 7 18t18 7t18 -7t7 -18t-7 -18t-18 -7t-18 7t-7 18zM150 100q0 11 7 18t18 7t18 -7t7 -18t-7 -18t-18 -7t-18 7t-7 18z M150 175q0 11 7 18t18 7t18 -7t7 -18t-7 -18t-18 -7t-18 7t-7 18zM150 250q0 11 7 18t18 7t18 -7t7 -18t-7 -18t-18 -7t-18 7t-7 18zM150 325q0 11 7 18t18 7t18 -7t7 -18t-7 -18t-18 -7t-18 7t-7 18zM150 400q0 11 7 18t18 7t18 -7t7 -18t-7 -18t-18 -7t-18 7t-7 18z M150 475q0 11 7 18t18 7t18 -7t7 -18t-7 -18t-18 -7t-18 7t-7 18zM150 550q0 11 7 18t18 7t18 -7t7 -18t-7 -18t-18 -7t-18 7t-7 18zM150 625q0 11 7 18t18 7t18 -7t7 -18t-7 -18t-18 -7t-18 7t-7 18zM150 775q0 11 7 18t18 7t18 -7t7 -18t-7 -18t-18 -7t-18 7t-7 18z M150 850q0 11 7 18t18 7t18 -7t7 -18t-7 -18t-18 -7t-18 7t-7 18zM225 25q0 11 7 18t18 7t18 -7t7 -18t-7 -18t-18 -7t-18 7t-7 18z" />
<glyph unicode="j" horiz-adv-x="275" d="M0 -200q0 11 7 18t18 7t18 -7t7 -18t-7 -18t-18 -7t-18 7t-7 18zM0 625q0 11 7 18t18 7t18 -7t7 -18t-7 -18t-18 -7t-18 7t-7 18zM75 -200q0 11 7 18t18 7t18 -7t7 -18t-7 -18t-18 -7t-18 7t-7 18zM75 625q0 11 7 18t18 7t18 -7t7 -18t-7 -18t-18 -7t-18 7t-7 18zM150 25 q0 11 7 18t18 7t18 -7t7 -18t-7 -18t-18 -7t-18 7t-7 18zM150 -50q0 11 7 18t18 7t18 -7t7 -18t-7 -18t-18 -7t-18 7t-7 18zM150 100q0 11 7 18t18 7t18 -7t7 -18t-7 -18t-18 -7t-18 7t-7 18zM150 -125q0 11 7 18t18 7t18 -7t7 -18t-7 -18t-18 -7t-18 7t-7 18zM150 175 q0 11 7 18t18 7t18 -7t7 -18t-7 -18t-18 -7t-18 7t-7 18zM150 250q0 11 7 18t18 7t18 -7t7 -18t-7 -18t-18 -7t-18 7t-7 18zM150 325q0 11 7 18t18 7t18 -7t7 -18t-7 -18t-18 -7t-18 7t-7 18zM150 400q0 11 7 18t18 7t18 -7t7 -18t-7 -18t-18 -7t-18 7t-7 18zM150 475 q0 11 7 18t18 7t18 -7t7 -18t-7 -18t-18 -7t-18 7t-7 18zM150 550q0 11 7 18t18 7t18 -7t7 -18t-7 -18t-18 -7t-18 7t-7 18zM150 625q0 11 7 18t18 7t18 -7t7 -18t-7 -18t-18 -7t-18 7t-7 18zM150 775q0 11 7 18t18 7t18 -7t7 -18t-7 -18t-18 -7t-18 7t-7 18zM150 850 q0 11 7 18t18 7t18 -7t7 -18t-7 -18t-18 -7t-18 7t-7 18z" />
<glyph unicode="k" d="M75 25q0 11 7 18t18 7t18 -7t7 -18t-7 -18t-18 -7t-18 7t-7 18zM75 100q0 11 7 18t18 7t18 -7t7 -18t-7 -18t-18 -7t-18 7t-7 18zM75 175q0 11 7 18t18 7t18 -7t7 -18t-7 -18t-18 -7t-18 7t-7 18zM75 250q0 11 7 18t18 7t18 -7t7 -18t-7 -18t-18 -7t-18 7t-7 18zM75 325 q0 11 7 18t18 7t18 -7t7 -18t-7 -18t-18 -7t-18 7t-7 18zM75 400q0 11 7 18t18 7t18 -7t7 -18t-7 -18t-18 -7t-18 7t-7 18zM75 475q0 11 7 18t18 7t18 -7t7 -18t-7 -18t-18 -7t-18 7t-7 18zM75 550q0 11 7 18t18 7t18 -7t7 -18t-7 -18t-18 -7t-18 7t-7 18zM75 625q0 11 7 18 t18 7t18 -7t7 -18t-7 -18t-18 -7t-18 7t-7 18zM75 700q0 11 7 18t18 7t18 -7t7 -18t-7 -18t-18 -7t-18 7t-7 18zM75 775q0 11 7 18t18 7t18 -7t7 -18t-7 -18t-18 -7t-18 7t-7 18zM150 400q0 11 7 18t18 7t18 -7t7 -18t-7 -18t-18 -7t-18 7t-7 18zM225 25q0 11 7 18t18 7 t18 -7t7 -18t-7 -18t-18 -7t-18 7t-7 18zM225 100q0 11 7 18t18 7t18 -7t7 -18t-7 -18t-18 -7t-18 7t-7 18zM225 175q0 11 7 18t18 7t18 -7t7 -18t-7 -18t-18 -7t-18 7t-7 18zM225 250q0 11 7 18t18 7t18 -7t7 -18t-7 -18t-18 -7t-18 7t-7 18zM225 325q0 11 7 18t18 7t18 -7 t7 -18t-7 -18t-18 -7t-18 7t-7 18zM225 475q0 11 7 18t18 7t18 -7t7 -18t-7 -18t-18 -7t-18 7t-7 18zM225 550q0 11 7 18t18 7t18 -7t7 -18t-7 -18t-18 -7t-18 7t-7 18zM225 625q0 11 7 18t18 7t18 -7t7 -18t-7 -18t-18 -7t-18 7t-7 18z" />
<glyph unicode="l" d="M75 25q0 11 7 18t18 7t18 -7t7 -18t-7 -18t-18 -7t-18 7t-7 18zM75 775q0 11 7 18t18 7t18 -7t7 -18t-7 -18t-18 -7t-18 7t-7 18zM150 25q0 11 7 18t18 7t18 -7t7 -18t-7 -18t-18 -7t-18 7t-7 18zM150 100q0 11 7 18t18 7t18 -7t7 -18t-7 -18t-18 -7t-18 7t-7 18z M150 175q0 11 7 18t18 7t18 -7t7 -18t-7 -18t-18 -7t-18 7t-7 18zM150 250q0 11 7 18t18 7t18 -7t7 -18t-7 -18t-18 -7t-18 7t-7 18zM150 325q0 11 7 18t18 7t18 -7t7 -18t-7 -18t-18 -7t-18 7t-7 18zM150 400q0 11 7 18t18 7t18 -7t7 -18t-7 -18t-18 -7t-18 7t-7 18z M150 475q0 11 7 18t18 7t18 -7t7 -18t-7 -18t-18 -7t-18 7t-7 18zM150 550q0 11 7 18t18 7t18 -7t7 -18t-7 -18t-18 -7t-18 7t-7 18zM150 625q0 11 7 18t18 7t18 -7t7 -18t-7 -18t-18 -7t-18 7t-7 18zM150 700q0 11 7 18t18 7t18 -7t7 -18t-7 -18t-18 -7t-18 7t-7 18z M150 775q0 11 7 18t18 7t18 -7t7 -18t-7 -18t-18 -7t-18 7t-7 18zM225 25q0 11 7 18t18 7t18 -7t7 -18t-7 -18t-18 -7t-18 7t-7 18z" />
<glyph unicode="m" horiz-adv-x="500" d="M75 25q0 11 7 18t18 7t18 -7t7 -18t-7 -18t-18 -7t-18 7t-7 18zM75 100q0 11 7 18t18 7t18 -7t7 -18t-7 -18t-18 -7t-18 7t-7 18zM75 175q0 11 7 18t18 7t18 -7t7 -18t-7 -18t-18 -7t-18 7t-7 18zM75 250q0 11 7 18t18 7t18 -7t7 -18t-7 -18t-18 -7t-18 7t-7 18zM75 325 q0 11 7 18t18 7t18 -7t7 -18t-7 -18t-18 -7t-18 7t-7 18zM75 400q0 11 7 18t18 7t18 -7t7 -18t-7 -18t-18 -7t-18 7t-7 18zM75 475q0 11 7 18t18 7t18 -7t7 -18t-7 -18t-18 -7t-18 7t-7 18zM75 550q0 11 7 18t18 7t18 -7t7 -18t-7 -18t-18 -7t-18 7t-7 18zM75 625q0 11 7 18 t18 7t18 -7t7 -18t-7 -18t-18 -7t-18 7t-7 18zM150 625q0 11 7 18t18 7t18 -7t7 -18t-7 -18t-18 -7t-18 7t-7 18zM225 25q0 11 7 18t18 7t18 -7t7 -18t-7 -18t-18 -7t-18 7t-7 18zM225 100q0 11 7 18t18 7t18 -7t7 -18t-7 -18t-18 -7t-18 7t-7 18zM225 175q0 11 7 18t18 7 t18 -7t7 -18t-7 -18t-18 -7t-18 7t-7 18zM225 250q0 11 7 18t18 7t18 -7t7 -18t-7 -18t-18 -7t-18 7t-7 18zM225 325q0 11 7 18t18 7t18 -7t7 -18t-7 -18t-18 -7t-18 7t-7 18zM225 400q0 11 7 18t18 7t18 -7t7 -18t-7 -18t-18 -7t-18 7t-7 18zM225 475q0 11 7 18t18 7t18 -7 t7 -18t-7 -18t-18 -7t-18 7t-7 18zM225 550q0 11 7 18t18 7t18 -7t7 -18t-7 -18t-18 -7t-18 7t-7 18zM300 625q0 11 7 18t18 7t18 -7t7 -18t-7 -18t-18 -7t-18 7t-7 18zM375 25q0 11 7 18t18 7t18 -7t7 -18t-7 -18t-18 -7t-18 7t-7 18zM375 100q0 11 7 18t18 7t18 -7t7 -18 t-7 -18t-18 -7t-18 7t-7 18zM375 175q0 11 7 18t18 7t18 -7t7 -18t-7 -18t-18 -7t-18 7t-7 18zM375 250q0 11 7 18t18 7t18 -7t7 -18t-7 -18t-18 -7t-18 7t-7 18zM375 325q0 11 7 18t18 7t18 -7t7 -18t-7 -18t-18 -7t-18 7t-7 18zM375 400q0 11 7 18t18 7t18 -7t7 -18 t-7 -18t-18 -7t-18 7t-7 18zM375 475q0 11 7 18t18 7t18 -7t7 -18t-7 -18t-18 -7t-18 7t-7 18zM375 550q0 11 7 18t18 7t18 -7t7 -18t-7 -18t-18 -7t-18 7t-7 18z" />
<glyph unicode="n" d="M75 25q0 11 7 18t18 7t18 -7t7 -18t-7 -18t-18 -7t-18 7t-7 18zM75 100q0 11 7 18t18 7t18 -7t7 -18t-7 -18t-18 -7t-18 7t-7 18zM75 175q0 11 7 18t18 7t18 -7t7 -18t-7 -18t-18 -7t-18 7t-7 18zM75 250q0 11 7 18t18 7t18 -7t7 -18t-7 -18t-18 -7t-18 7t-7 18zM75 325 q0 11 7 18t18 7t18 -7t7 -18t-7 -18t-18 -7t-18 7t-7 18zM75 400q0 11 7 18t18 7t18 -7t7 -18t-7 -18t-18 -7t-18 7t-7 18zM75 475q0 11 7 18t18 7t18 -7t7 -18t-7 -18t-18 -7t-18 7t-7 18zM75 550q0 11 7 18t18 7t18 -7t7 -18t-7 -18t-18 -7t-18 7t-7 18zM75 625q0 11 7 18 t18 7t18 -7t7 -18t-7 -18t-18 -7t-18 7t-7 18zM150 625q0 11 7 18t18 7t18 -7t7 -18t-7 -18t-18 -7t-18 7t-7 18zM225 25q0 11 7 18t18 7t18 -7t7 -18t-7 -18t-18 -7t-18 7t-7 18zM225 100q0 11 7 18t18 7t18 -7t7 -18t-7 -18t-18 -7t-18 7t-7 18zM225 175q0 11 7 18t18 7 t18 -7t7 -18t-7 -18t-18 -7t-18 7t-7 18zM225 250q0 11 7 18t18 7t18 -7t7 -18t-7 -18t-18 -7t-18 7t-7 18zM225 325q0 11 7 18t18 7t18 -7t7 -18t-7 -18t-18 -7t-18 7t-7 18zM225 400q0 11 7 18t18 7t18 -7t7 -18t-7 -18t-18 -7t-18 7t-7 18zM225 475q0 11 7 18t18 7t18 -7 t7 -18t-7 -18t-18 -7t-18 7t-7 18zM225 550q0 11 7 18t18 7t18 -7t7 -18t-7 -18t-18 -7t-18 7t-7 18z" />
<glyph unicode="o" d="M75 100q0 11 7 18t18 7t18 -7t7 -18t-7 -18t-18 -7t-18 7t-7 18zM75 175q0 11 7 18t18 7t18 -7t7 -18t-7 -18t-18 -7t-18 7t-7 18zM75 250q0 11 7 18t18 7t18 -7t7 -18t-7 -18t-18 -7t-18 7t-7 18zM75 325q0 11 7 18t18 7t18 -7t7 -18t-7 -18t-18 -7t-18 7t-7 18zM75 400 q0 11 7 18t18 7t18 -7t7 -18t-7 -18t-18 -7t-18 7t-7 18zM75 475q0 11 7 18t18 7t18 -7t7 -18t-7 -18t-18 -7t-18 7t-7 18zM75 550q0 11 7 18t18 7t18 -7t7 -18t-7 -18t-18 -7t-18 7t-7 18zM150 25q0 11 7 18t18 7t18 -7t7 -18t-7 -18t-18 -7t-18 7t-7 18zM150 625 q0 11 7 18t18 7t18 -7t7 -18t-7 -18t-18 -7t-18 7t-7 18zM225 100q0 11 7 18t18 7t18 -7t7 -18t-7 -18t-18 -7t-18 7t-7 18zM225 175q0 11 7 18t18 7t18 -7t7 -18t-7 -18t-18 -7t-18 7t-7 18zM225 250q0 11 7 18t18 7t18 -7t7 -18t-7 -18t-18 -7t-18 7t-7 18zM225 325 q0 11 7 18t18 7t18 -7t7 -18t-7 -18t-18 -7t-18 7t-7 18zM225 400q0 11 7 18t18 7t18 -7t7 -18t-7 -18t-18 -7t-18 7t-7 18zM225 475q0 11 7 18t18 7t18 -7t7 -18t-7 -18t-18 -7t-18 7t-7 18zM225 550q0 11 7 18t18 7t18 -7t7 -18t-7 -18t-18 -7t-18 7t-7 18z" />
<glyph unicode="p" d="M75 25q0 11 7 18t18 7t18 -7t7 -18t-7 -18t-18 -7t-18 7t-7 18zM75 -50q0 11 7 18t18 7t18 -7t7 -18t-7 -18t-18 -7t-18 7t-7 18zM75 100q0 11 7 18t18 7t18 -7t7 -18t-7 -18t-18 -7t-18 7t-7 18zM75 -125q0 11 7 18t18 7t18 -7t7 -18t-7 -18t-18 -7t-18 7t-7 18zM75 175 q0 11 7 18t18 7t18 -7t7 -18t-7 -18t-18 -7t-18 7t-7 18zM75 -200q0 11 7 18t18 7t18 -7t7 -18t-7 -18t-18 -7t-18 7t-7 18zM75 250q0 11 7 18t18 7t18 -7t7 -18t-7 -18t-18 -7t-18 7t-7 18zM75 325q0 11 7 18t18 7t18 -7t7 -18t-7 -18t-18 -7t-18 7t-7 18zM75 400 q0 11 7 18t18 7t18 -7t7 -18t-7 -18t-18 -7t-18 7t-7 18zM75 475q0 11 7 18t18 7t18 -7t7 -18t-7 -18t-18 -7t-18 7t-7 18zM75 550q0 11 7 18t18 7t18 -7t7 -18t-7 -18t-18 -7t-18 7t-7 18zM75 625q0 11 7 18t18 7t18 -7t7 -18t-7 -18t-18 -7t-18 7t-7 18zM150 25q0 11 7 18 t18 7t18 -7t7 -18t-7 -18t-18 -7t-18 7t-7 18zM150 625q0 11 7 18t18 7t18 -7t7 -18t-7 -18t-18 -7t-18 7t-7 18zM225 100q0 11 7 18t18 7t18 -7t7 -18t-7 -18t-18 -7t-18 7t-7 18zM225 175q0 11 7 18t18 7t18 -7t7 -18t-7 -18t-18 -7t-18 7t-7 18zM225 250q0 11 7 18t18 7 t18 -7t7 -18t-7 -18t-18 -7t-18 7t-7 18zM225 325q0 11 7 18t18 7t18 -7t7 -18t-7 -18t-18 -7t-18 7t-7 18zM225 400q0 11 7 18t18 7t18 -7t7 -18t-7 -18t-18 -7t-18 7t-7 18zM225 475q0 11 7 18t18 7t18 -7t7 -18t-7 -18t-18 -7t-18 7t-7 18zM225 550q0 11 7 18t18 7t18 -7 t7 -18t-7 -18t-18 -7t-18 7t-7 18z" />
<glyph unicode="q" d="M75 100q0 11 7 18t18 7t18 -7t7 -18t-7 -18t-18 -7t-18 7t-7 18zM75 175q0 11 7 18t18 7t18 -7t7 -18t-7 -18t-18 -7t-18 7t-7 18zM75 250q0 11 7 18t18 7t18 -7t7 -18t-7 -18t-18 -7t-18 7t-7 18zM75 325q0 11 7 18t18 7t18 -7t7 -18t-7 -18t-18 -7t-18 7t-7 18zM75 400 q0 11 7 18t18 7t18 -7t7 -18t-7 -18t-18 -7t-18 7t-7 18zM75 475q0 11 7 18t18 7t18 -7t7 -18t-7 -18t-18 -7t-18 7t-7 18zM75 550q0 11 7 18t18 7t18 -7t7 -18t-7 -18t-18 -7t-18 7t-7 18zM150 25q0 11 7 18t18 7t18 -7t7 -18t-7 -18t-18 -7t-18 7t-7 18zM150 625 q0 11 7 18t18 7t18 -7t7 -18t-7 -18t-18 -7t-18 7t-7 18zM225 25q0 11 7 18t18 7t18 -7t7 -18t-7 -18t-18 -7t-18 7t-7 18zM225 -50q0 11 7 18t18 7t18 -7t7 -18t-7 -18t-18 -7t-18 7t-7 18zM225 100q0 11 7 18t18 7t18 -7t7 -18t-7 -18t-18 -7t-18 7t-7 18zM225 -125 q0 11 7 18t18 7t18 -7t7 -18t-7 -18t-18 -7t-18 7t-7 18zM225 175q0 11 7 18t18 7t18 -7t7 -18t-7 -18t-18 -7t-18 7t-7 18zM225 -200q0 11 7 18t18 7t18 -7t7 -18t-7 -18t-18 -7t-18 7t-7 18zM225 250q0 11 7 18t18 7t18 -7t7 -18t-7 -18t-18 -7t-18 7t-7 18zM225 325 q0 11 7 18t18 7t18 -7t7 -18t-7 -18t-18 -7t-18 7t-7 18zM225 400q0 11 7 18t18 7t18 -7t7 -18t-7 -18t-18 -7t-18 7t-7 18zM225 475q0 11 7 18t18 7t18 -7t7 -18t-7 -18t-18 -7t-18 7t-7 18zM225 550q0 11 7 18t18 7t18 -7t7 -18t-7 -18t-18 -7t-18 7t-7 18z" />
<glyph unicode="r" horiz-adv-x="275" d="M75 25q0 11 7 18t18 7t18 -7t7 -18t-7 -18t-18 -7t-18 7t-7 18zM75 100q0 11 7 18t18 7t18 -7t7 -18t-7 -18t-18 -7t-18 7t-7 18zM75 175q0 11 7 18t18 7t18 -7t7 -18t-7 -18t-18 -7t-18 7t-7 18zM75 250q0 11 7 18t18 7t18 -7t7 -18t-7 -18t-18 -7t-18 7t-7 18zM75 325 q0 11 7 18t18 7t18 -7t7 -18t-7 -18t-18 -7t-18 7t-7 18zM75 400q0 11 7 18t18 7t18 -7t7 -18t-7 -18t-18 -7t-18 7t-7 18zM75 475q0 11 7 18t18 7t18 -7t7 -18t-7 -18t-18 -7t-18 7t-7 18zM75 550q0 11 7 18t18 7t18 -7t7 -18t-7 -18t-18 -7t-18 7t-7 18zM75 625q0 11 7 18 t18 7t18 -7t7 -18t-7 -18t-18 -7t-18 7t-7 18zM150 550q0 11 7 18t18 7t18 -7t7 -18t-7 -18t-18 -7t-18 7t-7 18zM225 625q0 11 7 18t18 7t18 -7t7 -18t-7 -18t-18 -7t-18 7t-7 18z" />
<glyph unicode="s" d="M75 100q0 11 7 18t18 7t18 -7t7 -18t-7 -18t-18 -7t-18 7t-7 18zM75 175q0 11 7 18t18 7t18 -7t7 -18t-7 -18t-18 -7t-18 7t-7 18zM75 400q0 11 7 18t18 7t18 -7t7 -18t-7 -18t-18 -7t-18 7t-7 18zM75 475q0 11 7 18t18 7t18 -7t7 -18t-7 -18t-18 -7t-18 7t-7 18zM75 550 q0 11 7 18t18 7t18 -7t7 -18t-7 -18t-18 -7t-18 7t-7 18zM150 25q0 11 7 18t18 7t18 -7t7 -18t-7 -18t-18 -7t-18 7t-7 18zM150 325q0 11 7 18t18 7t18 -7t7 -18t-7 -18t-18 -7t-18 7t-7 18zM150 625q0 11 7 18t18 7t18 -7t7 -18t-7 -18t-18 -7t-18 7t-7 18zM225 100 q0 11 7 18t18 7t18 -7t7 -18t-7 -18t-18 -7t-18 7t-7 18zM225 175q0 11 7 18t18 7t18 -7t7 -18t-7 -18t-18 -7t-18 7t-7 18zM225 250q0 11 7 18t18 7t18 -7t7 -18t-7 -18t-18 -7t-18 7t-7 18zM225 475q0 11 7 18t18 7t18 -7t7 -18t-7 -18t-18 -7t-18 7t-7 18zM225 550 q0 11 7 18t18 7t18 -7t7 -18t-7 -18t-18 -7t-18 7t-7 18z" />
<glyph unicode="t" d="M75 625q0 11 7 18t18 7t18 -7t7 -18t-7 -18t-18 -7t-18 7t-7 18zM150 100q0 11 7 18t18 7t18 -7t7 -18t-7 -18t-18 -7t-18 7t-7 18zM150 175q0 11 7 18t18 7t18 -7t7 -18t-7 -18t-18 -7t-18 7t-7 18zM150 250q0 11 7 18t18 7t18 -7t7 -18t-7 -18t-18 -7t-18 7t-7 18z M150 325q0 11 7 18t18 7t18 -7t7 -18t-7 -18t-18 -7t-18 7t-7 18zM150 400q0 11 7 18t18 7t18 -7t7 -18t-7 -18t-18 -7t-18 7t-7 18zM150 475q0 11 7 18t18 7t18 -7t7 -18t-7 -18t-18 -7t-18 7t-7 18zM150 550q0 11 7 18t18 7t18 -7t7 -18t-7 -18t-18 -7t-18 7t-7 18z M150 625q0 11 7 18t18 7t18 -7t7 -18t-7 -18t-18 -7t-18 7t-7 18zM150 700q0 11 7 18t18 7t18 -7t7 -18t-7 -18t-18 -7t-18 7t-7 18zM225 25q0 11 7 18t18 7t18 -7t7 -18t-7 -18t-18 -7t-18 7t-7 18zM225 625q0 11 7 18t18 7t18 -7t7 -18t-7 -18t-18 -7t-18 7t-7 18z" />
<glyph unicode="u" d="M75 100q0 11 7 18t18 7t18 -7t7 -18t-7 -18t-18 -7t-18 7t-7 18zM75 175q0 11 7 18t18 7t18 -7t7 -18t-7 -18t-18 -7t-18 7t-7 18zM75 250q0 11 7 18t18 7t18 -7t7 -18t-7 -18t-18 -7t-18 7t-7 18zM75 325q0 11 7 18t18 7t18 -7t7 -18t-7 -18t-18 -7t-18 7t-7 18zM75 400 q0 11 7 18t18 7t18 -7t7 -18t-7 -18t-18 -7t-18 7t-7 18zM75 475q0 11 7 18t18 7t18 -7t7 -18t-7 -18t-18 -7t-18 7t-7 18zM75 550q0 11 7 18t18 7t18 -7t7 -18t-7 -18t-18 -7t-18 7t-7 18zM75 625q0 11 7 18t18 7t18 -7t7 -18t-7 -18t-18 -7t-18 7t-7 18zM150 25q0 11 7 18 t18 7t18 -7t7 -18t-7 -18t-18 -7t-18 7t-7 18zM225 25q0 11 7 18t18 7t18 -7t7 -18t-7 -18t-18 -7t-18 7t-7 18zM225 100q0 11 7 18t18 7t18 -7t7 -18t-7 -18t-18 -7t-18 7t-7 18zM225 175q0 11 7 18t18 7t18 -7t7 -18t-7 -18t-18 -7t-18 7t-7 18zM225 250q0 11 7 18t18 7 t18 -7t7 -18t-7 -18t-18 -7t-18 7t-7 18zM225 325q0 11 7 18t18 7t18 -7t7 -18t-7 -18t-18 -7t-18 7t-7 18zM225 400q0 11 7 18t18 7t18 -7t7 -18t-7 -18t-18 -7t-18 7t-7 18zM225 475q0 11 7 18t18 7t18 -7t7 -18t-7 -18t-18 -7t-18 7t-7 18zM225 550q0 11 7 18t18 7t18 -7 t7 -18t-7 -18t-18 -7t-18 7t-7 18zM225 625q0 11 7 18t18 7t18 -7t7 -18t-7 -18t-18 -7t-18 7t-7 18z" />
<glyph unicode="v" d="M75 175q0 11 7 18t18 7t18 -7t7 -18t-7 -18t-18 -7t-18 7t-7 18zM75 250q0 11 7 18t18 7t18 -7t7 -18t-7 -18t-18 -7t-18 7t-7 18zM75 325q0 11 7 18t18 7t18 -7t7 -18t-7 -18t-18 -7t-18 7t-7 18zM75 400q0 11 7 18t18 7t18 -7t7 -18t-7 -18t-18 -7t-18 7t-7 18zM75 475 q0 11 7 18t18 7t18 -7t7 -18t-7 -18t-18 -7t-18 7t-7 18zM75 550q0 11 7 18t18 7t18 -7t7 -18t-7 -18t-18 -7t-18 7t-7 18zM75 625q0 11 7 18t18 7t18 -7t7 -18t-7 -18t-18 -7t-18 7t-7 18zM150 25q0 11 7 18t18 7t18 -7t7 -18t-7 -18t-18 -7t-18 7t-7 18zM150 100 q0 11 7 18t18 7t18 -7t7 -18t-7 -18t-18 -7t-18 7t-7 18zM225 175q0 11 7 18t18 7t18 -7t7 -18t-7 -18t-18 -7t-18 7t-7 18zM225 250q0 11 7 18t18 7t18 -7t7 -18t-7 -18t-18 -7t-18 7t-7 18zM225 325q0 11 7 18t18 7t18 -7t7 -18t-7 -18t-18 -7t-18 7t-7 18zM225 400 q0 11 7 18t18 7t18 -7t7 -18t-7 -18t-18 -7t-18 7t-7 18zM225 475q0 11 7 18t18 7t18 -7t7 -18t-7 -18t-18 -7t-18 7t-7 18zM225 550q0 11 7 18t18 7t18 -7t7 -18t-7 -18t-18 -7t-18 7t-7 18zM225 625q0 11 7 18t18 7t18 -7t7 -18t-7 -18t-18 -7t-18 7t-7 18z" />
<glyph unicode="w" horiz-adv-x="500" d="M75 175q0 11 7 18t18 7t18 -7t7 -18t-7 -18t-18 -7t-18 7t-7 18zM75 250q0 11 7 18t18 7t18 -7t7 -18t-7 -18t-18 -7t-18 7t-7 18zM75 325q0 11 7 18t18 7t18 -7t7 -18t-7 -18t-18 -7t-18 7t-7 18zM75 400q0 11 7 18t18 7t18 -7t7 -18t-7 -18t-18 -7t-18 7t-7 18zM75 475 q0 11 7 18t18 7t18 -7t7 -18t-7 -18t-18 -7t-18 7t-7 18zM75 550q0 11 7 18t18 7t18 -7t7 -18t-7 -18t-18 -7t-18 7t-7 18zM75 625q0 11 7 18t18 7t18 -7t7 -18t-7 -18t-18 -7t-18 7t-7 18zM150 25q0 11 7 18t18 7t18 -7t7 -18t-7 -18t-18 -7t-18 7t-7 18zM150 100 q0 11 7 18t18 7t18 -7t7 -18t-7 -18t-18 -7t-18 7t-7 18zM225 175q0 11 7 18t18 7t18 -7t7 -18t-7 -18t-18 -7t-18 7t-7 18zM225 250q0 11 7 18t18 7t18 -7t7 -18t-7 -18t-18 -7t-18 7t-7 18zM225 325q0 11 7 18t18 7t18 -7t7 -18t-7 -18t-18 -7t-18 7t-7 18zM225 400 q0 11 7 18t18 7t18 -7t7 -18t-7 -18t-18 -7t-18 7t-7 18zM225 475q0 11 7 18t18 7t18 -7t7 -18t-7 -18t-18 -7t-18 7t-7 18zM225 550q0 11 7 18t18 7t18 -7t7 -18t-7 -18t-18 -7t-18 7t-7 18zM225 625q0 11 7 18t18 7t18 -7t7 -18t-7 -18t-18 -7t-18 7t-7 18zM300 25 q0 11 7 18t18 7t18 -7t7 -18t-7 -18t-18 -7t-18 7t-7 18zM300 100q0 11 7 18t18 7t18 -7t7 -18t-7 -18t-18 -7t-18 7t-7 18zM375 175q0 11 7 18t18 7t18 -7t7 -18t-7 -18t-18 -7t-18 7t-7 18zM375 250q0 11 7 18t18 7t18 -7t7 -18t-7 -18t-18 -7t-18 7t-7 18zM375 325 q0 11 7 18t18 7t18 -7t7 -18t-7 -18t-18 -7t-18 7t-7 18zM375 400q0 11 7 18t18 7t18 -7t7 -18t-7 -18t-18 -7t-18 7t-7 18zM375 475q0 11 7 18t18 7t18 -7t7 -18t-7 -18t-18 -7t-18 7t-7 18zM375 550q0 11 7 18t18 7t18 -7t7 -18t-7 -18t-18 -7t-18 7t-7 18zM375 625 q0 11 7 18t18 7t18 -7t7 -18t-7 -18t-18 -7t-18 7t-7 18z" />
<glyph unicode="x" d="M75 25q0 11 7 18t18 7t18 -7t7 -18t-7 -18t-18 -7t-18 7t-7 18zM75 100q0 11 7 18t18 7t18 -7t7 -18t-7 -18t-18 -7t-18 7t-7 18zM75 175q0 11 7 18t18 7t18 -7t7 -18t-7 -18t-18 -7t-18 7t-7 18zM75 250q0 11 7 18t18 7t18 -7t7 -18t-7 -18t-18 -7t-18 7t-7 18zM75 400 q0 11 7 18t18 7t18 -7t7 -18t-7 -18t-18 -7t-18 7t-7 18zM75 475q0 11 7 18t18 7t18 -7t7 -18t-7 -18t-18 -7t-18 7t-7 18zM75 550q0 11 7 18t18 7t18 -7t7 -18t-7 -18t-18 -7t-18 7t-7 18zM75 625q0 11 7 18t18 7t18 -7t7 -18t-7 -18t-18 -7t-18 7t-7 18zM150 325 q0 11 7 18t18 7t18 -7t7 -18t-7 -18t-18 -7t-18 7t-7 18zM225 25q0 11 7 18t18 7t18 -7t7 -18t-7 -18t-18 -7t-18 7t-7 18zM225 100q0 11 7 18t18 7t18 -7t7 -18t-7 -18t-18 -7t-18 7t-7 18zM225 175q0 11 7 18t18 7t18 -7t7 -18t-7 -18t-18 -7t-18 7t-7 18zM225 250 q0 11 7 18t18 7t18 -7t7 -18t-7 -18t-18 -7t-18 7t-7 18zM225 400q0 11 7 18t18 7t18 -7t7 -18t-7 -18t-18 -7t-18 7t-7 18zM225 475q0 11 7 18t18 7t18 -7t7 -18t-7 -18t-18 -7t-18 7t-7 18zM225 550q0 11 7 18t18 7t18 -7t7 -18t-7 -18t-18 -7t-18 7t-7 18zM225 625 q0 11 7 18t18 7t18 -7t7 -18t-7 -18t-18 -7t-18 7t-7 18z" />
<glyph unicode="y" d="M75 100q0 11 7 18t18 7t18 -7t7 -18t-7 -18t-18 -7t-18 7t-7 18zM75 -125q0 11 7 18t18 7t18 -7t7 -18t-7 -18t-18 -7t-18 7t-7 18zM75 175q0 11 7 18t18 7t18 -7t7 -18t-7 -18t-18 -7t-18 7t-7 18zM75 250q0 11 7 18t18 7t18 -7t7 -18t-7 -18t-18 -7t-18 7t-7 18z M75 325q0 11 7 18t18 7t18 -7t7 -18t-7 -18t-18 -7t-18 7t-7 18zM75 400q0 11 7 18t18 7t18 -7t7 -18t-7 -18t-18 -7t-18 7t-7 18zM75 475q0 11 7 18t18 7t18 -7t7 -18t-7 -18t-18 -7t-18 7t-7 18zM75 550q0 11 7 18t18 7t18 -7t7 -18t-7 -18t-18 -7t-18 7t-7 18zM75 625 q0 11 7 18t18 7t18 -7t7 -18t-7 -18t-18 -7t-18 7t-7 18zM150 25q0 11 7 18t18 7t18 -7t7 -18t-7 -18t-18 -7t-18 7t-7 18zM150 -200q0 11 7 18t18 7t18 -7t7 -18t-7 -18t-18 -7t-18 7t-7 18zM225 25q0 11 7 18t18 7t18 -7t7 -18t-7 -18t-18 -7t-18 7t-7 18zM225 -50 q0 11 7 18t18 7t18 -7t7 -18t-7 -18t-18 -7t-18 7t-7 18zM225 100q0 11 7 18t18 7t18 -7t7 -18t-7 -18t-18 -7t-18 7t-7 18zM225 -125q0 11 7 18t18 7t18 -7t7 -18t-7 -18t-18 -7t-18 7t-7 18zM225 175q0 11 7 18t18 7t18 -7t7 -18t-7 -18t-18 -7t-18 7t-7 18zM225 250 q0 11 7 18t18 7t18 -7t7 -18t-7 -18t-18 -7t-18 7t-7 18zM225 325q0 11 7 18t18 7t18 -7t7 -18t-7 -18t-18 -7t-18 7t-7 18zM225 400q0 11 7 18t18 7t18 -7t7 -18t-7 -18t-18 -7t-18 7t-7 18zM225 475q0 11 7 18t18 7t18 -7t7 -18t-7 -18t-18 -7t-18 7t-7 18zM225 550 q0 11 7 18t18 7t18 -7t7 -18t-7 -18t-18 -7t-18 7t-7 18zM225 625q0 11 7 18t18 7t18 -7t7 -18t-7 -18t-18 -7t-18 7t-7 18z" />
<glyph unicode="z" d="M75 25q0 11 7 18t18 7t18 -7t7 -18t-7 -18t-18 -7t-18 7t-7 18zM75 100q0 11 7 18t18 7t18 -7t7 -18t-7 -18t-18 -7t-18 7t-7 18zM75 175q0 11 7 18t18 7t18 -7t7 -18t-7 -18t-18 -7t-18 7t-7 18zM75 625q0 11 7 18t18 7t18 -7t7 -18t-7 -18t-18 -7t-18 7t-7 18zM150 25 q0 11 7 18t18 7t18 -7t7 -18t-7 -18t-18 -7t-18 7t-7 18zM150 250q0 11 7 18t18 7t18 -7t7 -18t-7 -18t-18 -7t-18 7t-7 18zM150 325q0 11 7 18t18 7t18 -7t7 -18t-7 -18t-18 -7t-18 7t-7 18zM150 400q0 11 7 18t18 7t18 -7t7 -18t-7 -18t-18 -7t-18 7t-7 18zM150 625 q0 11 7 18t18 7t18 -7t7 -18t-7 -18t-18 -7t-18 7t-7 18zM225 25q0 11 7 18t18 7t18 -7t7 -18t-7 -18t-18 -7t-18 7t-7 18zM225 475q0 11 7 18t18 7t18 -7t7 -18t-7 -18t-18 -7t-18 7t-7 18zM225 550q0 11 7 18t18 7t18 -7t7 -18t-7 -18t-18 -7t-18 7t-7 18zM225 625 q0 11 7 18t18 7t18 -7t7 -18t-7 -18t-18 -7t-18 7t-7 18z" />
<glyph unicode="{" d="M73 400q0 11 7 18t18 7t18 -7t7 -18t-7 -18t-18 -7t-18 7t-7 18zM150 25q0 11 7 18t18 7t18 -7t7 -18t-7 -18t-18 -7t-18 7t-7 18zM150 100q0 11 7 18t18 7t18 -7t7 -18t-7 -18t-18 -7t-18 7t-7 18zM150 175q0 11 7 18t18 7t18 -7t7 -18t-7 -18t-18 -7t-18 7t-7 18z M150 250q0 11 7 18t18 7t18 -7t7 -18t-7 -18t-18 -7t-18 7t-7 18zM150 325q0 11 7 18t18 7t18 -7t7 -18t-7 -18t-18 -7t-18 7t-7 18zM150 475q0 11 7 18t18 7t18 -7t7 -18t-7 -18t-18 -7t-18 7t-7 18zM150 550q0 11 7 18t18 7t18 -7t7 -18t-7 -18t-18 -7t-18 7t-7 18z M150 625q0 11 7 18t18 7t18 -7t7 -18t-7 -18t-18 -7t-18 7t-7 18zM150 700q0 11 7 18t18 7t18 -7t7 -18t-7 -18t-18 -7t-18 7t-7 18zM225 -50q0 11 7 18t18 7t18 -7t7 -18t-7 -18t-18 -7t-18 7t-7 18zM225 775q0 11 7 18t18 7t18 -7t7 -18t-7 -18t-18 -7t-18 7t-7 18z" />
<glyph unicode="|" horiz-adv-x="200" d="M75 25q0 11 7 18t18 7t18 -7t7 -18t-7 -18t-18 -7t-18 7t-7 18zM75 -50q0 11 7 18t18 7t18 -7t7 -18t-7 -18t-18 -7t-18 7t-7 18zM75 100q0 11 7 18t18 7t18 -7t7 -18t-7 -18t-18 -7t-18 7t-7 18zM75 175q0 11 7 18t18 7t18 -7t7 -18t-7 -18t-18 -7t-18 7t-7 18zM75 250 q0 11 7 18t18 7t18 -7t7 -18t-7 -18t-18 -7t-18 7t-7 18zM75 325q0 11 7 18t18 7t18 -7t7 -18t-7 -18t-18 -7t-18 7t-7 18zM75 400q0 11 7 18t18 7t18 -7t7 -18t-7 -18t-18 -7t-18 7t-7 18zM75 475q0 11 7 18t18 7t18 -7t7 -18t-7 -18t-18 -7t-18 7t-7 18zM75 550q0 11 7 18 t18 7t18 -7t7 -18t-7 -18t-18 -7t-18 7t-7 18zM75 625q0 11 7 18t18 7t18 -7t7 -18t-7 -18t-18 -7t-18 7t-7 18zM75 700q0 11 7 18t18 7t18 -7t7 -18t-7 -18t-18 -7t-18 7t-7 18zM75 775q0 11 7 18t18 7t18 -7t7 -18t-7 -18t-18 -7t-18 7t-7 18z" />
<glyph unicode="}" d="M73 -50q0 11 7 18t18 7t18 -7t7 -18t-7 -18t-18 -7t-18 7t-7 18zM73 775q0 11 7 18t18 7t18 -7t7 -18t-7 -18t-18 -7t-18 7t-7 18zM148 25q0 11 7 18t18 7t18 -7t7 -18t-7 -18t-18 -7t-18 7t-7 18zM148 100q0 11 7 18t18 7t18 -7t7 -18t-7 -18t-18 -7t-18 7t-7 18z M148 175q0 11 7 18t18 7t18 -7t7 -18t-7 -18t-18 -7t-18 7t-7 18zM148 250q0 11 7 18t18 7t18 -7t7 -18t-7 -18t-18 -7t-18 7t-7 18zM148 325q0 11 7 18t18 7t18 -7t7 -18t-7 -18t-18 -7t-18 7t-7 18zM148 475q0 11 7 18t18 7t18 -7t7 -18t-7 -18t-18 -7t-18 7t-7 18z M148 550q0 11 7 18t18 7t18 -7t7 -18t-7 -18t-18 -7t-18 7t-7 18zM148 625q0 11 7 18t18 7t18 -7t7 -18t-7 -18t-18 -7t-18 7t-7 18zM148 700q0 11 7 18t18 7t18 -7t7 -18t-7 -18t-18 -7t-18 7t-7 18zM225 400q0 11 7 18t18 7t18 -7t7 -18t-7 -18t-18 -7t-18 7t-7 18z" />
<glyph unicode="~" horiz-adv-x="500" d="M75 325q0 11 7 18t18 7t18 -7t7 -18t-7 -18t-18 -7t-18 7t-7 18zM150 400q0 11 7 18t18 7t18 -7t7 -18t-7 -18t-18 -7t-18 7t-7 18zM225 325q0 11 7 18t18 7t18 -7t7 -18t-7 -18t-18 -7t-18 7t-7 18zM300 250q0 11 7 18t18 7t18 -7t7 -18t-7 -18t-18 -7t-18 7t-7 18z M375 325q0 11 7 18t18 7t18 -7t7 -18t-7 -18t-18 -7t-18 7t-7 18z" />
<glyph unicode="&#xa2;" d="M75 100q0 11 7 18t18 7t18 -7t7 -18t-7 -18t-18 -7t-18 7t-7 18zM75 175q0 11 7 18t18 7t18 -7t7 -18t-7 -18t-18 -7t-18 7t-7 18zM75 250q0 11 7 18t18 7t18 -7t7 -18t-7 -18t-18 -7t-18 7t-7 18zM75 325q0 11 7 18t18 7t18 -7t7 -18t-7 -18t-18 -7t-18 7t-7 18zM75 400 q0 11 7 18t18 7t18 -7t7 -18t-7 -18t-18 -7t-18 7t-7 18zM75 475q0 11 7 18t18 7t18 -7t7 -18t-7 -18t-18 -7t-18 7t-7 18zM75 550q0 11 7 18t18 7t18 -7t7 -18t-7 -18t-18 -7t-18 7t-7 18zM150 25q0 11 7 18t18 7t18 -7t7 -18t-7 -18t-18 -7t-18 7t-7 18zM150 -50 q0 11 7 18t18 7t18 -7t7 -18t-7 -18t-18 -7t-18 7t-7 18zM150 100q0 11 7 18t18 7t18 -7t7 -18t-7 -18t-18 -7t-18 7t-7 18zM150 175q0 11 7 18t18 7t18 -7t7 -18t-7 -18t-18 -7t-18 7t-7 18zM150 250q0 11 7 18t18 7t18 -7t7 -18t-7 -18t-18 -7t-18 7t-7 18zM150 325 q0 11 7 18t18 7t18 -7t7 -18t-7 -18t-18 -7t-18 7t-7 18zM150 400q0 11 7 18t18 7t18 -7t7 -18t-7 -18t-18 -7t-18 7t-7 18zM150 475q0 11 7 18t18 7t18 -7t7 -18t-7 -18t-18 -7t-18 7t-7 18zM150 550q0 11 7 18t18 7t18 -7t7 -18t-7 -18t-18 -7t-18 7t-7 18zM150 625 q0 11 7 18t18 7t18 -7t7 -18t-7 -18t-18 -7t-18 7t-7 18zM150 700q0 11 7 18t18 7t18 -7t7 -18t-7 -18t-18 -7t-18 7t-7 18zM225 100q0 11 7 18t18 7t18 -7t7 -18t-7 -18t-18 -7t-18 7t-7 18zM225 550q0 11 7 18t18 7t18 -7t7 -18t-7 -18t-18 -7t-18 7t-7 18z" />
<glyph unicode="&#xa3;" horiz-adv-x="425" d="M75 25q0 11 7 18t18 7t18 -7t7 -18t-7 -18t-18 -7t-18 7t-7 18zM75 475q0 11 7 18t18 7t18 -7t7 -18t-7 -18t-18 -7t-18 7t-7 18zM150 25q0 11 7 18t18 7t18 -7t7 -18t-7 -18t-18 -7t-18 7t-7 18zM150 100q0 11 7 18t18 7t18 -7t7 -18t-7 -18t-18 -7t-18 7t-7 18z M150 175q0 11 7 18t18 7t18 -7t7 -18t-7 -18t-18 -7t-18 7t-7 18zM150 250q0 11 7 18t18 7t18 -7t7 -18t-7 -18t-18 -7t-18 7t-7 18zM150 325q0 11 7 18t18 7t18 -7t7 -18t-7 -18t-18 -7t-18 7t-7 18zM150 400q0 11 7 18t18 7t18 -7t7 -18t-7 -18t-18 -7t-18 7t-7 18z M150 475q0 11 7 18t18 7t18 -7t7 -18t-7 -18t-18 -7t-18 7t-7 18zM150 550q0 11 7 18t18 7t18 -7t7 -18t-7 -18t-18 -7t-18 7t-7 18zM150 625q0 11 7 18t18 7t18 -7t7 -18t-7 -18t-18 -7t-18 7t-7 18zM225 25q0 11 7 18t18 7t18 -7t7 -18t-7 -18t-18 -7t-18 7t-7 18z M225 475q0 11 7 18t18 7t18 -7t7 -18t-7 -18t-18 -7t-18 7t-7 18zM225 700q0 11 7 18t18 7t18 -7t7 -18t-7 -18t-18 -7t-18 7t-7 18zM300 100q0 11 7 18t18 7t18 -7t7 -18t-7 -18t-18 -7t-18 7t-7 18zM300 475q0 11 7 18t18 7t18 -7t7 -18t-7 -18t-18 -7t-18 7t-7 18z M300 625q0 11 7 18t18 7t18 -7t7 -18t-7 -18t-18 -7t-18 7t-7 18zM300 700q0 11 7 18t18 7t18 -7t7 -18t-7 -18t-18 -7t-18 7t-7 18z" />
<glyph unicode="&#xa5;" d="M75 250q0 11 7 18t18 7t18 -7t7 -18t-7 -18t-18 -7t-18 7t-7 18zM75 400q0 11 7 18t18 7t18 -7t7 -18t-7 -18t-18 -7t-18 7t-7 18zM75 475q0 11 7 18t18 7t18 -7t7 -18t-7 -18t-18 -7t-18 7t-7 18zM75 550q0 11 7 18t18 7t18 -7t7 -18t-7 -18t-18 -7t-18 7t-7 18zM75 625 q0 11 7 18t18 7t18 -7t7 -18t-7 -18t-18 -7t-18 7t-7 18zM75 700q0 11 7 18t18 7t18 -7t7 -18t-7 -18t-18 -7t-18 7t-7 18zM150 25q0 11 7 18t18 7t18 -7t7 -18t-7 -18t-18 -7t-18 7t-7 18zM150 100q0 11 7 18t18 7t18 -7t7 -18t-7 -18t-18 -7t-18 7t-7 18zM150 175 q0 11 7 18t18 7t18 -7t7 -18t-7 -18t-18 -7t-18 7t-7 18zM150 250q0 11 7 18t18 7t18 -7t7 -18t-7 -18t-18 -7t-18 7t-7 18zM150 325q0 11 7 18t18 7t18 -7t7 -18t-7 -18t-18 -7t-18 7t-7 18zM225 250q0 11 7 18t18 7t18 -7t7 -18t-7 -18t-18 -7t-18 7t-7 18zM225 400 q0 11 7 18t18 7t18 -7t7 -18t-7 -18t-18 -7t-18 7t-7 18zM225 475q0 11 7 18t18 7t18 -7t7 -18t-7 -18t-18 -7t-18 7t-7 18zM225 550q0 11 7 18t18 7t18 -7t7 -18t-7 -18t-18 -7t-18 7t-7 18zM225 625q0 11 7 18t18 7t18 -7t7 -18t-7 -18t-18 -7t-18 7t-7 18zM225 700 q0 11 7 18t18 7t18 -7t7 -18t-7 -18t-18 -7t-18 7t-7 18z" />
<glyph unicode="&#xa9;" horiz-adv-x="425" d="M75 475q0 11 7 18t18 7t18 -7t7 -18t-7 -18t-18 -7t-18 7t-7 18zM75 550q0 11 7 18t18 7t18 -7t7 -18t-7 -18t-18 -7t-18 7t-7 18zM75 625q0 11 7 18t18 7t18 -7t7 -18t-7 -18t-18 -7t-18 7t-7 18zM150 400q0 11 7 18t18 7t18 -7t7 -18t-7 -18t-18 -7t-18 7t-7 18z M150 550q0 11 7 18t18 7t18 -7t7 -18t-7 -18t-18 -7t-18 7t-7 18zM150 700q0 11 7 18t18 7t18 -7t7 -18t-7 -18t-18 -7t-18 7t-7 18zM225 400q0 11 7 18t18 7t18 -7t7 -18t-7 -18t-18 -7t-18 7t-7 18zM225 475q0 11 7 18t18 7t18 -7t7 -18t-7 -18t-18 -7t-18 7t-7 18z M225 625q0 11 7 18t18 7t18 -7t7 -18t-7 -18t-18 -7t-18 7t-7 18zM225 700q0 11 7 18t18 7t18 -7t7 -18t-7 -18t-18 -7t-18 7t-7 18zM300 475q0 11 7 18t18 7t18 -7t7 -18t-7 -18t-18 -7t-18 7t-7 18zM300 550q0 11 7 18t18 7t18 -7t7 -18t-7 -18t-18 -7t-18 7t-7 18z M300 625q0 11 7 18t18 7t18 -7t7 -18t-7 -18t-18 -7t-18 7t-7 18z" />
<glyph unicode="&#xad;" d="M75 325q0 11 7 18t18 7t18 -7t7 -18t-7 -18t-18 -7t-18 7t-7 18zM150 325q0 11 7 18t18 7t18 -7t7 -18t-7 -18t-18 -7t-18 7t-7 18zM225 325q0 11 7 18t18 7t18 -7t7 -18t-7 -18t-18 -7t-18 7t-7 18z" />
<glyph unicode="&#xae;" horiz-adv-x="425" d="M75 100q0 11 7 18t18 7t18 -7t7 -18t-7 -18t-18 -7t-18 7t-7 18zM75 175q0 11 7 18t18 7t18 -7t7 -18t-7 -18t-18 -7t-18 7t-7 18zM75 250q0 11 7 18t18 7t18 -7t7 -18t-7 -18t-18 -7t-18 7t-7 18zM75 325q0 11 7 18t18 7t18 -7t7 -18t-7 -18t-18 -7t-18 7t-7 18zM75 400 q0 11 7 18t18 7t18 -7t7 -18t-7 -18t-18 -7t-18 7t-7 18zM75 475q0 11 7 18t18 7t18 -7t7 -18t-7 -18t-18 -7t-18 7t-7 18zM75 550q0 11 7 18t18 7t18 -7t7 -18t-7 -18t-18 -7t-18 7t-7 18zM150 25q0 11 7 18t18 7t18 -7t7 -18t-7 -18t-18 -7t-18 7t-7 18zM150 325 q0 11 7 18t18 7t18 -7t7 -18t-7 -18t-18 -7t-18 7t-7 18zM150 475q0 11 7 18t18 7t18 -7t7 -18t-7 -18t-18 -7t-18 7t-7 18zM150 625q0 11 7 18t18 7t18 -7t7 -18t-7 -18t-18 -7t-18 7t-7 18zM225 25q0 11 7 18t18 7t18 -7t7 -18t-7 -18t-18 -7t-18 7t-7 18zM225 175 q0 11 7 18t18 7t18 -7t7 -18t-7 -18t-18 -7t-18 7t-7 18zM225 250q0 11 7 18t18 7t18 -7t7 -18t-7 -18t-18 -7t-18 7t-7 18zM225 400q0 11 7 18t18 7t18 -7t7 -18t-7 -18t-18 -7t-18 7t-7 18zM225 625q0 11 7 18t18 7t18 -7t7 -18t-7 -18t-18 -7t-18 7t-7 18zM300 100 q0 11 7 18t18 7t18 -7t7 -18t-7 -18t-18 -7t-18 7t-7 18zM300 175q0 11 7 18t18 7t18 -7t7 -18t-7 -18t-18 -7t-18 7t-7 18zM300 250q0 11 7 18t18 7t18 -7t7 -18t-7 -18t-18 -7t-18 7t-7 18zM300 325q0 11 7 18t18 7t18 -7t7 -18t-7 -18t-18 -7t-18 7t-7 18zM300 400 q0 11 7 18t18 7t18 -7t7 -18t-7 -18t-18 -7t-18 7t-7 18zM300 475q0 11 7 18t18 7t18 -7t7 -18t-7 -18t-18 -7t-18 7t-7 18zM300 550q0 11 7 18t18 7t18 -7t7 -18t-7 -18t-18 -7t-18 7t-7 18z" />
<glyph unicode="&#xb4;" d="M75 775q0 11 7 18t18 7t18 -7t7 -18t-7 -18t-18 -7t-18 7t-7 18zM150 775q0 11 7 18t18 7t18 -7t7 -18t-7 -18t-18 -7t-18 7t-7 18zM225 850q0 11 7 18t18 7t18 -7t7 -18t-7 -18t-18 -7t-18 7t-7 18z" />
<glyph unicode="&#x2000;" horiz-adv-x="437" />
<glyph unicode="&#x2001;" horiz-adv-x="875" />
<glyph unicode="&#x2002;" horiz-adv-x="437" />
<glyph unicode="&#x2003;" horiz-adv-x="875" />
<glyph unicode="&#x2004;" horiz-adv-x="291" />
<glyph unicode="&#x2005;" horiz-adv-x="218" />
<glyph unicode="&#x2006;" horiz-adv-x="145" />
<glyph unicode="&#x2007;" horiz-adv-x="145" />
<glyph unicode="&#x2008;" horiz-adv-x="109" />
<glyph unicode="&#x2009;" horiz-adv-x="175" />
<glyph unicode="&#x200a;" horiz-adv-x="48" />
<glyph unicode="&#x2010;" d="M75 325q0 11 7 18t18 7t18 -7t7 -18t-7 -18t-18 -7t-18 7t-7 18zM150 325q0 11 7 18t18 7t18 -7t7 -18t-7 -18t-18 -7t-18 7t-7 18zM225 325q0 11 7 18t18 7t18 -7t7 -18t-7 -18t-18 -7t-18 7t-7 18z" />
<glyph unicode="&#x2011;" d="M75 325q0 11 7 18t18 7t18 -7t7 -18t-7 -18t-18 -7t-18 7t-7 18zM150 325q0 11 7 18t18 7t18 -7t7 -18t-7 -18t-18 -7t-18 7t-7 18zM225 325q0 11 7 18t18 7t18 -7t7 -18t-7 -18t-18 -7t-18 7t-7 18z" />
<glyph unicode="&#x2012;" d="M75 325q0 11 7 18t18 7t18 -7t7 -18t-7 -18t-18 -7t-18 7t-7 18zM150 325q0 11 7 18t18 7t18 -7t7 -18t-7 -18t-18 -7t-18 7t-7 18zM225 325q0 11 7 18t18 7t18 -7t7 -18t-7 -18t-18 -7t-18 7t-7 18z" />
<glyph unicode="&#x2013;" horiz-adv-x="425" d="M75 325q0 11 7 18t18 7t18 -7t7 -18t-7 -18t-18 -7t-18 7t-7 18zM150 325q0 11 7 18t18 7t18 -7t7 -18t-7 -18t-18 -7t-18 7t-7 18zM225 325q0 11 7 18t18 7t18 -7t7 -18t-7 -18t-18 -7t-18 7t-7 18zM300 325q0 11 7 18t18 7t18 -7t7 -18t-7 -18t-18 -7t-18 7t-7 18z" />
<glyph unicode="&#x2014;" horiz-adv-x="425" d="M0 325q0 11 7 18t18 7t18 -7t7 -18t-7 -18t-18 -7t-18 7t-7 18zM75 325q0 11 7 18t18 7t18 -7t7 -18t-7 -18t-18 -7t-18 7t-7 18zM150 325q0 11 7 18t18 7t18 -7t7 -18t-7 -18t-18 -7t-18 7t-7 18zM225 325q0 11 7 18t18 7t18 -7t7 -18t-7 -18t-18 -7t-18 7t-7 18z M300 325q0 11 7 18t18 7t18 -7t7 -18t-7 -18t-18 -7t-18 7t-7 18z" />
<glyph unicode="&#x2018;" horiz-adv-x="275" d="M75 625q0 11 7 18t18 7t18 -7t7 -18t-7 -18t-18 -7t-18 7t-7 18zM75 700q0 11 7 18t18 7t18 -7t7 -18t-7 -18t-18 -7t-18 7t-7 18zM75 775q0 11 7 18t18 7t18 -7t7 -18t-7 -18t-18 -7t-18 7t-7 18zM150 550q0 11 7 18t18 7t18 -7t7 -18t-7 -18t-18 -7t-18 7t-7 18z" />
<glyph unicode="&#x2019;" horiz-adv-x="275" d="M75 550q0 11 7 18t18 7t18 -7t7 -18t-7 -18t-18 -7t-18 7t-7 18zM150 625q0 11 7 18t18 7t18 -7t7 -18t-7 -18t-18 -7t-18 7t-7 18zM150 700q0 11 7 18t18 7t18 -7t7 -18t-7 -18t-18 -7t-18 7t-7 18zM150 775q0 11 7 18t18 7t18 -7t7 -18t-7 -18t-18 -7t-18 7t-7 18z" />
<glyph unicode="&#x201c;" horiz-adv-x="425" d="M75 625q0 11 7 18t18 7t18 -7t7 -18t-7 -18t-18 -7t-18 7t-7 18zM75 700q0 11 7 18t18 7t18 -7t7 -18t-7 -18t-18 -7t-18 7t-7 18zM75 775q0 11 7 18t18 7t18 -7t7 -18t-7 -18t-18 -7t-18 7t-7 18zM150 550q0 11 7 18t18 7t18 -7t7 -18t-7 -18t-18 -7t-18 7t-7 18z M225 625q0 11 7 18t18 7t18 -7t7 -18t-7 -18t-18 -7t-18 7t-7 18zM225 700q0 11 7 18t18 7t18 -7t7 -18t-7 -18t-18 -7t-18 7t-7 18zM225 775q0 11 7 18t18 7t18 -7t7 -18t-7 -18t-18 -7t-18 7t-7 18zM300 550q0 11 7 18t18 7t18 -7t7 -18t-7 -18t-18 -7t-18 7t-7 18z" />
<glyph unicode="&#x201d;" horiz-adv-x="425" d="M75 550q0 11 7 18t18 7t18 -7t7 -18t-7 -18t-18 -7t-18 7t-7 18zM150 625q0 11 7 18t18 7t18 -7t7 -18t-7 -18t-18 -7t-18 7t-7 18zM150 700q0 11 7 18t18 7t18 -7t7 -18t-7 -18t-18 -7t-18 7t-7 18zM150 775q0 11 7 18t18 7t18 -7t7 -18t-7 -18t-18 -7t-18 7t-7 18z M225 550q0 11 7 18t18 7t18 -7t7 -18t-7 -18t-18 -7t-18 7t-7 18zM300 625q0 11 7 18t18 7t18 -7t7 -18t-7 -18t-18 -7t-18 7t-7 18zM300 700q0 11 7 18t18 7t18 -7t7 -18t-7 -18t-18 -7t-18 7t-7 18zM300 775q0 11 7 18t18 7t18 -7t7 -18t-7 -18t-18 -7t-18 7t-7 18z" />
<glyph unicode="&#x2022;" d="M75 250q0 11 7 18t18 7t18 -7t7 -18t-7 -18t-18 -7t-18 7t-7 18zM75 325q0 11 7 18t18 7t18 -7t7 -18t-7 -18t-18 -7t-18 7t-7 18zM75 400q0 11 7 18t18 7t18 -7t7 -18t-7 -18t-18 -7t-18 7t-7 18zM150 250q0 11 7 18t18 7t18 -7t7 -18t-7 -18t-18 -7t-18 7t-7 18z M150 325q0 11 7 18t18 7t18 -7t7 -18t-7 -18t-18 -7t-18 7t-7 18zM150 400q0 11 7 18t18 7t18 -7t7 -18t-7 -18t-18 -7t-18 7t-7 18zM225 250q0 11 7 18t18 7t18 -7t7 -18t-7 -18t-18 -7t-18 7t-7 18zM225 325q0 11 7 18t18 7t18 -7t7 -18t-7 -18t-18 -7t-18 7t-7 18z M225 400q0 11 7 18t18 7t18 -7t7 -18t-7 -18t-18 -7t-18 7t-7 18z" />
<glyph unicode="&#x2026;" horiz-adv-x="500" d="M75 25q0 11 7 18t18 7t18 -7t7 -18t-7 -18t-18 -7t-18 7t-7 18zM75 100q0 11 7 18t18 7t18 -7t7 -18t-7 -18t-18 -7t-18 7t-7 18zM225 25q0 11 7 18t18 7t18 -7t7 -18t-7 -18t-18 -7t-18 7t-7 18zM225 100q0 11 7 18t18 7t18 -7t7 -18t-7 -18t-18 -7t-18 7t-7 18zM375 25 q0 11 7 18t18 7t18 -7t7 -18t-7 -18t-18 -7t-18 7t-7 18zM375 100q0 11 7 18t18 7t18 -7t7 -18t-7 -18t-18 -7t-18 7t-7 18z" />
<glyph unicode="&#x202f;" horiz-adv-x="175" />
<glyph unicode="&#x205f;" horiz-adv-x="218" />
<glyph unicode="&#x20ac;" horiz-adv-x="500" d="M75 325q0 11 7 18t18 7t18 -7t7 -18t-7 -18t-18 -7t-18 7t-7 18zM75 400q0 11 7 18t18 7t18 -7t7 -18t-7 -18t-18 -7t-18 7t-7 18zM150 100q0 11 7 18t18 7t18 -7t7 -18t-7 -18t-18 -7t-18 7t-7 18zM150 175q0 11 7 18t18 7t18 -7t7 -18t-7 -18t-18 -7t-18 7t-7 18z M150 250q0 11 7 18t18 7t18 -7t7 -18t-7 -18t-18 -7t-18 7t-7 18zM150 325q0 11 7 18t18 7t18 -7t7 -18t-7 -18t-18 -7t-18 7t-7 18zM150 400q0 11 7 18t18 7t18 -7t7 -18t-7 -18t-18 -7t-18 7t-7 18zM150 475q0 11 7 18t18 7t18 -7t7 -18t-7 -18t-18 -7t-18 7t-7 18z M150 550q0 11 7 18t18 7t18 -7t7 -18t-7 -18t-18 -7t-18 7t-7 18zM150 625q0 11 7 18t18 7t18 -7t7 -18t-7 -18t-18 -7t-18 7t-7 18zM225 25q0 11 7 18t18 7t18 -7t7 -18t-7 -18t-18 -7t-18 7t-7 18zM225 325q0 11 7 18t18 7t18 -7t7 -18t-7 -18t-18 -7t-18 7t-7 18z M225 400q0 11 7 18t18 7t18 -7t7 -18t-7 -18t-18 -7t-18 7t-7 18zM225 700q0 11 7 18t18 7t18 -7t7 -18t-7 -18t-18 -7t-18 7t-7 18zM300 25q0 11 7 18t18 7t18 -7t7 -18t-7 -18t-18 -7t-18 7t-7 18zM300 400q0 11 7 18t18 7t18 -7t7 -18t-7 -18t-18 -7t-18 7t-7 18z M300 700q0 11 7 18t18 7t18 -7t7 -18t-7 -18t-18 -7t-18 7t-7 18zM375 100q0 11 7 18t18 7t18 -7t7 -18t-7 -18t-18 -7t-18 7t-7 18zM375 625q0 11 7 18t18 7t18 -7t7 -18t-7 -18t-18 -7t-18 7t-7 18z" />
<glyph unicode="&#x2122;" horiz-adv-x="500" d="M75 700q0 11 7 18t18 7t18 -7t7 -18t-7 -18t-18 -7t-18 7t-7 18zM150 475q0 11 7 18t18 7t18 -7t7 -18t-7 -18t-18 -7t-18 7t-7 18zM150 550q0 11 7 18t18 7t18 -7t7 -18t-7 -18t-18 -7t-18 7t-7 18zM150 625q0 11 7 18t18 7t18 -7t7 -18t-7 -18t-18 -7t-18 7t-7 18z M150 700q0 11 7 18t18 7t18 -7t7 -18t-7 -18t-18 -7t-18 7t-7 18zM225 475q0 11 7 18t18 7t18 -7t7 -18t-7 -18t-18 -7t-18 7t-7 18zM225 550q0 11 7 18t18 7t18 -7t7 -18t-7 -18t-18 -7t-18 7t-7 18zM225 625q0 11 7 18t18 7t18 -7t7 -18t-7 -18t-18 -7t-18 7t-7 18z M225 700q0 11 7 18t18 7t18 -7t7 -18t-7 -18t-18 -7t-18 7t-7 18zM300 625q0 11 7 18t18 7t18 -7t7 -18t-7 -18t-18 -7t-18 7t-7 18zM375 475q0 11 7 18t18 7t18 -7t7 -18t-7 -18t-18 -7t-18 7t-7 18zM375 550q0 11 7 18t18 7t18 -7t7 -18t-7 -18t-18 -7t-18 7t-7 18z M375 625q0 11 7 18t18 7t18 -7t7 -18t-7 -18t-18 -7t-18 7t-7 18zM375 700q0 11 7 18t18 7t18 -7t7 -18t-7 -18t-18 -7t-18 7t-7 18z" />
<glyph unicode="&#xe000;" horiz-adv-x="650" d="M0 650h650v-650h-650v650z" />
<glyph unicode="&#xfb01;" horiz-adv-x="700" d="M425 25q0 11 7 18t18 7t18 -7t7 -18t-7 -18t-18 -7t-18 7t-7 18zM425 625q0 11 7 18t18 7t18 -7t7 -18t-7 -18t-18 -7t-18 7t-7 18zM500 25q0 11 7 18t18 7t18 -7t7 -18t-7 -18t-18 -7t-18 7t-7 18zM500 100q0 11 7 18t18 7t18 -7t7 -18t-7 -18t-18 -7t-18 7t-7 18z M500 175q0 11 7 18t18 7t18 -7t7 -18t-7 -18t-18 -7t-18 7t-7 18zM500 250q0 11 7 18t18 7t18 -7t7 -18t-7 -18t-18 -7t-18 7t-7 18zM500 325q0 11 7 18t18 7t18 -7t7 -18t-7 -18t-18 -7t-18 7t-7 18zM500 400q0 11 7 18t18 7t18 -7t7 -18t-7 -18t-18 -7t-18 7t-7 18z M500 475q0 11 7 18t18 7t18 -7t7 -18t-7 -18t-18 -7t-18 7t-7 18zM500 550q0 11 7 18t18 7t18 -7t7 -18t-7 -18t-18 -7t-18 7t-7 18zM500 625q0 11 7 18t18 7t18 -7t7 -18t-7 -18t-18 -7t-18 7t-7 18zM500 775q0 11 7 18t18 7t18 -7t7 -18t-7 -18t-18 -7t-18 7t-7 18z M500 850q0 11 7 18t18 7t18 -7t7 -18t-7 -18t-18 -7t-18 7t-7 18zM575 25q0 11 7 18t18 7t18 -7t7 -18t-7 -18t-18 -7t-18 7t-7 18zM75 625q0 11 7 18t18 7t18 -7t7 -18t-7 -18t-18 -7t-18 7t-7 18zM150 25q0 11 7 18t18 7t18 -7t7 -18t-7 -18t-18 -7t-18 7t-7 18zM150 100 q0 11 7 18t18 7t18 -7t7 -18t-7 -18t-18 -7t-18 7t-7 18zM150 175q0 11 7 18t18 7t18 -7t7 -18t-7 -18t-18 -7t-18 7t-7 18zM150 250q0 11 7 18t18 7t18 -7t7 -18t-7 -18t-18 -7t-18 7t-7 18zM150 325q0 11 7 18t18 7t18 -7t7 -18t-7 -18t-18 -7t-18 7t-7 18zM150 400 q0 11 7 18t18 7t18 -7t7 -18t-7 -18t-18 -7t-18 7t-7 18zM150 475q0 11 7 18t18 7t18 -7t7 -18t-7 -18t-18 -7t-18 7t-7 18zM150 550q0 11 7 18t18 7t18 -7t7 -18t-7 -18t-18 -7t-18 7t-7 18zM150 625q0 11 7 18t18 7t18 -7t7 -18t-7 -18t-18 -7t-18 7t-7 18zM150 700 q0 11 7 18t18 7t18 -7t7 -18t-7 -18t-18 -7t-18 7t-7 18zM225 625q0 11 7 18t18 7t18 -7t7 -18t-7 -18t-18 -7t-18 7t-7 18zM225 775q0 11 7 18t18 7t18 -7t7 -18t-7 -18t-18 -7t-18 7t-7 18zM300 775q0 11 7 18t18 7t18 -7t7 -18t-7 -18t-18 -7t-18 7t-7 18z" />
<glyph unicode="&#xfb02;" horiz-adv-x="700" d="M425 25q0 11 7 18t18 7t18 -7t7 -18t-7 -18t-18 -7t-18 7t-7 18zM425 775q0 11 7 18t18 7t18 -7t7 -18t-7 -18t-18 -7t-18 7t-7 18zM500 25q0 11 7 18t18 7t18 -7t7 -18t-7 -18t-18 -7t-18 7t-7 18zM500 100q0 11 7 18t18 7t18 -7t7 -18t-7 -18t-18 -7t-18 7t-7 18z M500 175q0 11 7 18t18 7t18 -7t7 -18t-7 -18t-18 -7t-18 7t-7 18zM500 250q0 11 7 18t18 7t18 -7t7 -18t-7 -18t-18 -7t-18 7t-7 18zM500 325q0 11 7 18t18 7t18 -7t7 -18t-7 -18t-18 -7t-18 7t-7 18zM500 400q0 11 7 18t18 7t18 -7t7 -18t-7 -18t-18 -7t-18 7t-7 18z M500 475q0 11 7 18t18 7t18 -7t7 -18t-7 -18t-18 -7t-18 7t-7 18zM500 550q0 11 7 18t18 7t18 -7t7 -18t-7 -18t-18 -7t-18 7t-7 18zM500 625q0 11 7 18t18 7t18 -7t7 -18t-7 -18t-18 -7t-18 7t-7 18zM500 700q0 11 7 18t18 7t18 -7t7 -18t-7 -18t-18 -7t-18 7t-7 18z M500 775q0 11 7 18t18 7t18 -7t7 -18t-7 -18t-18 -7t-18 7t-7 18zM575 25q0 11 7 18t18 7t18 -7t7 -18t-7 -18t-18 -7t-18 7t-7 18zM75 625q0 11 7 18t18 7t18 -7t7 -18t-7 -18t-18 -7t-18 7t-7 18zM150 25q0 11 7 18t18 7t18 -7t7 -18t-7 -18t-18 -7t-18 7t-7 18zM150 100 q0 11 7 18t18 7t18 -7t7 -18t-7 -18t-18 -7t-18 7t-7 18zM150 175q0 11 7 18t18 7t18 -7t7 -18t-7 -18t-18 -7t-18 7t-7 18zM150 250q0 11 7 18t18 7t18 -7t7 -18t-7 -18t-18 -7t-18 7t-7 18zM150 325q0 11 7 18t18 7t18 -7t7 -18t-7 -18t-18 -7t-18 7t-7 18zM150 400 q0 11 7 18t18 7t18 -7t7 -18t-7 -18t-18 -7t-18 7t-7 18zM150 475q0 11 7 18t18 7t18 -7t7 -18t-7 -18t-18 -7t-18 7t-7 18zM150 550q0 11 7 18t18 7t18 -7t7 -18t-7 -18t-18 -7t-18 7t-7 18zM150 625q0 11 7 18t18 7t18 -7t7 -18t-7 -18t-18 -7t-18 7t-7 18zM150 700 q0 11 7 18t18 7t18 -7t7 -18t-7 -18t-18 -7t-18 7t-7 18zM225 625q0 11 7 18t18 7t18 -7t7 -18t-7 -18t-18 -7t-18 7t-7 18zM225 775q0 11 7 18t18 7t18 -7t7 -18t-7 -18t-18 -7t-18 7t-7 18zM300 775q0 11 7 18t18 7t18 -7t7 -18t-7 -18t-18 -7t-18 7t-7 18z" />
<glyph unicode="&#xfb03;" horiz-adv-x="1050" d="M775 25q0 11 7 18t18 7t18 -7t7 -18t-7 -18t-18 -7t-18 7t-7 18zM775 625q0 11 7 18t18 7t18 -7t7 -18t-7 -18t-18 -7t-18 7t-7 18zM850 25q0 11 7 18t18 7t18 -7t7 -18t-7 -18t-18 -7t-18 7t-7 18zM850 100q0 11 7 18t18 7t18 -7t7 -18t-7 -18t-18 -7t-18 7t-7 18z M850 175q0 11 7 18t18 7t18 -7t7 -18t-7 -18t-18 -7t-18 7t-7 18zM850 250q0 11 7 18t18 7t18 -7t7 -18t-7 -18t-18 -7t-18 7t-7 18zM850 325q0 11 7 18t18 7t18 -7t7 -18t-7 -18t-18 -7t-18 7t-7 18zM850 400q0 11 7 18t18 7t18 -7t7 -18t-7 -18t-18 -7t-18 7t-7 18z M850 475q0 11 7 18t18 7t18 -7t7 -18t-7 -18t-18 -7t-18 7t-7 18zM850 550q0 11 7 18t18 7t18 -7t7 -18t-7 -18t-18 -7t-18 7t-7 18zM850 625q0 11 7 18t18 7t18 -7t7 -18t-7 -18t-18 -7t-18 7t-7 18zM850 775q0 11 7 18t18 7t18 -7t7 -18t-7 -18t-18 -7t-18 7t-7 18z M850 850q0 11 7 18t18 7t18 -7t7 -18t-7 -18t-18 -7t-18 7t-7 18zM925 25q0 11 7 18t18 7t18 -7t7 -18t-7 -18t-18 -7t-18 7t-7 18zM425 625q0 11 7 18t18 7t18 -7t7 -18t-7 -18t-18 -7t-18 7t-7 18zM500 25q0 11 7 18t18 7t18 -7t7 -18t-7 -18t-18 -7t-18 7t-7 18zM500 100 q0 11 7 18t18 7t18 -7t7 -18t-7 -18t-18 -7t-18 7t-7 18zM500 175q0 11 7 18t18 7t18 -7t7 -18t-7 -18t-18 -7t-18 7t-7 18zM500 250q0 11 7 18t18 7t18 -7t7 -18t-7 -18t-18 -7t-18 7t-7 18zM500 325q0 11 7 18t18 7t18 -7t7 -18t-7 -18t-18 -7t-18 7t-7 18zM500 400 q0 11 7 18t18 7t18 -7t7 -18t-7 -18t-18 -7t-18 7t-7 18zM500 475q0 11 7 18t18 7t18 -7t7 -18t-7 -18t-18 -7t-18 7t-7 18zM500 550q0 11 7 18t18 7t18 -7t7 -18t-7 -18t-18 -7t-18 7t-7 18zM500 625q0 11 7 18t18 7t18 -7t7 -18t-7 -18t-18 -7t-18 7t-7 18zM500 700 q0 11 7 18t18 7t18 -7t7 -18t-7 -18t-18 -7t-18 7t-7 18zM575 625q0 11 7 18t18 7t18 -7t7 -18t-7 -18t-18 -7t-18 7t-7 18zM575 775q0 11 7 18t18 7t18 -7t7 -18t-7 -18t-18 -7t-18 7t-7 18zM650 775q0 11 7 18t18 7t18 -7t7 -18t-7 -18t-18 -7t-18 7t-7 18zM75 625 q0 11 7 18t18 7t18 -7t7 -18t-7 -18t-18 -7t-18 7t-7 18zM150 25q0 11 7 18t18 7t18 -7t7 -18t-7 -18t-18 -7t-18 7t-7 18zM150 100q0 11 7 18t18 7t18 -7t7 -18t-7 -18t-18 -7t-18 7t-7 18zM150 175q0 11 7 18t18 7t18 -7t7 -18t-7 -18t-18 -7t-18 7t-7 18zM150 250 q0 11 7 18t18 7t18 -7t7 -18t-7 -18t-18 -7t-18 7t-7 18zM150 325q0 11 7 18t18 7t18 -7t7 -18t-7 -18t-18 -7t-18 7t-7 18zM150 400q0 11 7 18t18 7t18 -7t7 -18t-7 -18t-18 -7t-18 7t-7 18zM150 475q0 11 7 18t18 7t18 -7t7 -18t-7 -18t-18 -7t-18 7t-7 18zM150 550 q0 11 7 18t18 7t18 -7t7 -18t-7 -18t-18 -7t-18 7t-7 18zM150 625q0 11 7 18t18 7t18 -7t7 -18t-7 -18t-18 -7t-18 7t-7 18zM150 700q0 11 7 18t18 7t18 -7t7 -18t-7 -18t-18 -7t-18 7t-7 18zM225 625q0 11 7 18t18 7t18 -7t7 -18t-7 -18t-18 -7t-18 7t-7 18zM225 775 q0 11 7 18t18 7t18 -7t7 -18t-7 -18t-18 -7t-18 7t-7 18zM300 775q0 11 7 18t18 7t18 -7t7 -18t-7 -18t-18 -7t-18 7t-7 18z" />
<glyph unicode="&#xfb04;" horiz-adv-x="1050" d="M775 25q0 11 7 18t18 7t18 -7t7 -18t-7 -18t-18 -7t-18 7t-7 18zM775 775q0 11 7 18t18 7t18 -7t7 -18t-7 -18t-18 -7t-18 7t-7 18zM850 25q0 11 7 18t18 7t18 -7t7 -18t-7 -18t-18 -7t-18 7t-7 18zM850 100q0 11 7 18t18 7t18 -7t7 -18t-7 -18t-18 -7t-18 7t-7 18z M850 175q0 11 7 18t18 7t18 -7t7 -18t-7 -18t-18 -7t-18 7t-7 18zM850 250q0 11 7 18t18 7t18 -7t7 -18t-7 -18t-18 -7t-18 7t-7 18zM850 325q0 11 7 18t18 7t18 -7t7 -18t-7 -18t-18 -7t-18 7t-7 18zM850 400q0 11 7 18t18 7t18 -7t7 -18t-7 -18t-18 -7t-18 7t-7 18z M850 475q0 11 7 18t18 7t18 -7t7 -18t-7 -18t-18 -7t-18 7t-7 18zM850 550q0 11 7 18t18 7t18 -7t7 -18t-7 -18t-18 -7t-18 7t-7 18zM850 625q0 11 7 18t18 7t18 -7t7 -18t-7 -18t-18 -7t-18 7t-7 18zM850 700q0 11 7 18t18 7t18 -7t7 -18t-7 -18t-18 -7t-18 7t-7 18z M850 775q0 11 7 18t18 7t18 -7t7 -18t-7 -18t-18 -7t-18 7t-7 18zM925 25q0 11 7 18t18 7t18 -7t7 -18t-7 -18t-18 -7t-18 7t-7 18zM425 625q0 11 7 18t18 7t18 -7t7 -18t-7 -18t-18 -7t-18 7t-7 18zM500 25q0 11 7 18t18 7t18 -7t7 -18t-7 -18t-18 -7t-18 7t-7 18zM500 100 q0 11 7 18t18 7t18 -7t7 -18t-7 -18t-18 -7t-18 7t-7 18zM500 175q0 11 7 18t18 7t18 -7t7 -18t-7 -18t-18 -7t-18 7t-7 18zM500 250q0 11 7 18t18 7t18 -7t7 -18t-7 -18t-18 -7t-18 7t-7 18zM500 325q0 11 7 18t18 7t18 -7t7 -18t-7 -18t-18 -7t-18 7t-7 18zM500 400 q0 11 7 18t18 7t18 -7t7 -18t-7 -18t-18 -7t-18 7t-7 18zM500 475q0 11 7 18t18 7t18 -7t7 -18t-7 -18t-18 -7t-18 7t-7 18zM500 550q0 11 7 18t18 7t18 -7t7 -18t-7 -18t-18 -7t-18 7t-7 18zM500 625q0 11 7 18t18 7t18 -7t7 -18t-7 -18t-18 -7t-18 7t-7 18zM500 700 q0 11 7 18t18 7t18 -7t7 -18t-7 -18t-18 -7t-18 7t-7 18zM575 625q0 11 7 18t18 7t18 -7t7 -18t-7 -18t-18 -7t-18 7t-7 18zM575 775q0 11 7 18t18 7t18 -7t7 -18t-7 -18t-18 -7t-18 7t-7 18zM650 775q0 11 7 18t18 7t18 -7t7 -18t-7 -18t-18 -7t-18 7t-7 18zM75 625 q0 11 7 18t18 7t18 -7t7 -18t-7 -18t-18 -7t-18 7t-7 18zM150 25q0 11 7 18t18 7t18 -7t7 -18t-7 -18t-18 -7t-18 7t-7 18zM150 100q0 11 7 18t18 7t18 -7t7 -18t-7 -18t-18 -7t-18 7t-7 18zM150 175q0 11 7 18t18 7t18 -7t7 -18t-7 -18t-18 -7t-18 7t-7 18zM150 250 q0 11 7 18t18 7t18 -7t7 -18t-7 -18t-18 -7t-18 7t-7 18zM150 325q0 11 7 18t18 7t18 -7t7 -18t-7 -18t-18 -7t-18 7t-7 18zM150 400q0 11 7 18t18 7t18 -7t7 -18t-7 -18t-18 -7t-18 7t-7 18zM150 475q0 11 7 18t18 7t18 -7t7 -18t-7 -18t-18 -7t-18 7t-7 18zM150 550 q0 11 7 18t18 7t18 -7t7 -18t-7 -18t-18 -7t-18 7t-7 18zM150 625q0 11 7 18t18 7t18 -7t7 -18t-7 -18t-18 -7t-18 7t-7 18zM150 700q0 11 7 18t18 7t18 -7t7 -18t-7 -18t-18 -7t-18 7t-7 18zM225 625q0 11 7 18t18 7t18 -7t7 -18t-7 -18t-18 -7t-18 7t-7 18zM225 775 q0 11 7 18t18 7t18 -7t7 -18t-7 -18t-18 -7t-18 7t-7 18zM300 775q0 11 7 18t18 7t18 -7t7 -18t-7 -18t-18 -7t-18 7t-7 18z" />
</font>
</defs>
</svg>
