<?xml version="1.0" standalone="no"?>
<!DOCTYPE svg PUBLIC "-//W3C//DTD SVG 1.1//EN" "http://www.w3.org/Graphics/SVG/1.1/DTD/svg11.dtd" >
<svg xmlns="http://www.w3.org/2000/svg">
<metadata>
This is a custom SVG webfont generated by Font Squirrel.
Copyright   : Copyright c 2007 by George Triantafyllakos All rights reserved
Designer    : George Triantafyllakos
Foundry     : George Triantafyllakos
Foundry URL : httpwwwbackpackergr
</metadata>
<defs>
<font id="webfontrGsDwFbz" horiz-adv-x="716" >
<font-face units-per-em="2048" ascent="1536" descent="-512" />
<missing-glyph horiz-adv-x="460" />
<glyph unicode=" "  horiz-adv-x="460" />
<glyph unicode="&#x09;" horiz-adv-x="460" />
<glyph unicode="&#xa0;" horiz-adv-x="460" />
<glyph unicode="!" horiz-adv-x="409" d="M154 0v106h106v-106h-106zM154 154v106h106v-106h-106zM154 614v107h106v-107h-106zM154 768v106h106v-106h-106zM154 922v106h106v-106h-106zM154 1075v107h106v-107h-106zM154 1229v106h106v-106h-106zM154 1382v107h106v-107h-106z" />
<glyph unicode="&#x22;" d="M154 1075v107h106v-107h-106zM154 1229v106h106v-106h-106zM154 1382v107h106v-107h-106zM154 1536v106h106v-106h-106zM461 1075v107h106v-107h-106zM461 1229v106h106v-106h-106zM461 1382v107h106v-107h-106zM461 1536v106h106v-106h-106z" />
<glyph unicode="#" horiz-adv-x="870" d="M0 307v107h106v-107h-106zM0 1075v107h106v-107h-106zM154 0v106h106v-106h-106zM154 154v106h106v-106h-106zM154 307v107h106v-107h-106zM154 461v106h106v-106h-106zM154 614v107h106v-107h-106zM154 768v106h106v-106h-106zM154 922v106h106v-106h-106zM154 1075v107 h106v-107h-106zM154 1229v106h106v-106h-106zM154 1382v107h106v-107h-106zM307 307v107h107v-107h-107zM307 1075v107h107v-107h-107zM461 0v106h106v-106h-106zM461 154v106h106v-106h-106zM461 307v107h106v-107h-106zM461 461v106h106v-106h-106zM461 614v107h106v-107 h-106zM461 768v106h106v-106h-106zM461 922v106h106v-106h-106zM461 1075v107h106v-107h-106zM461 1229v106h106v-106h-106zM461 1382v107h106v-107h-106zM614 307v107h107v-107h-107zM614 1075v107h107v-107h-107z" />
<glyph unicode="$" horiz-adv-x="870" d="M0 154v106h106v-106h-106zM0 307v107h106v-107h-106zM0 922v106h106v-106h-106zM0 1075v107h106v-107h-106zM0 1229v106h106v-106h-106zM154 0v106h106v-106h-106zM154 768v106h106v-106h-106zM154 1382v107h106v-107h-106zM307 0v106h107v-106h-107zM307 -47h107v-107 h-107v107zM307 154v106h107v-106h-107zM307 307v107h107v-107h-107zM307 461v106h107v-106h-107zM307 614v107h107v-107h-107zM307 768v106h107v-106h-107zM307 922v106h107v-106h-107zM307 1075v107h107v-107h-107zM307 1229v106h107v-106h-107zM307 1382v107h107v-107 h-107zM307 1536v106h107v-106h-107zM461 0v106h106v-106h-106zM461 614v107h106v-107h-106zM461 1382v107h106v-107h-106zM614 154v106h107v-106h-107zM614 307v107h107v-107h-107zM614 461v106h107v-106h-107zM614 1075v107h107v-107h-107zM614 1229v106h107v-106h-107z " />
<glyph unicode="%" horiz-adv-x="870" d="M0 0v106h106v-106h-106zM0 154v106h106v-106h-106zM0 922v106h106v-106h-106zM0 1075v107h106v-107h-106zM0 1229v106h106v-106h-106zM0 1382v107h106v-107h-106zM154 307v107h106v-107h-106zM154 461v106h106v-106h-106zM154 922v106h106v-106h-106zM154 1075v107h106 v-107h-106zM154 1229v106h106v-106h-106zM154 1382v107h106v-107h-106zM307 614v107h107v-107h-107zM307 768v106h107v-106h-107zM461 0v106h106v-106h-106zM461 154v106h106v-106h-106zM461 307v107h106v-107h-106zM461 461v106h106v-106h-106zM461 922v106h106v-106h-106z M461 1075v107h106v-107h-106zM614 0v106h107v-106h-107zM614 154v106h107v-106h-107zM614 307v107h107v-107h-107zM614 461v106h107v-106h-107zM614 1229v106h107v-106h-107zM614 1382v107h107v-107h-107z" />
<glyph unicode="&#x26;" horiz-adv-x="870" d="M0 154v106h106v-106h-106zM0 307v107h106v-107h-106zM0 461v106h106v-106h-106zM0 614v107h106v-107h-106zM0 922v106h106v-106h-106zM0 1075v107h106v-107h-106zM0 1229v106h106v-106h-106zM154 0v106h106v-106h-106zM154 768v106h106v-106h-106zM154 1382v107h106v-107 h-106zM307 0v106h107v-106h-107zM307 614v107h107v-107h-107zM307 768v106h107v-106h-107zM307 1382v107h107v-107h-107zM461 154v106h106v-106h-106zM461 307v107h106v-107h-106zM461 461v106h106v-106h-106zM461 922v106h106v-106h-106zM461 1075v107h106v-107h-106z M461 1229v106h106v-106h-106zM614 0v106h107v-106h-107zM614 614v107h107v-107h-107z" />
<glyph unicode="'" horiz-adv-x="409" d="M154 1075v107h106v-107h-106zM154 1229v106h106v-106h-106zM154 1382v107h106v-107h-106zM154 1536v106h106v-106h-106z" />
<glyph unicode="(" d="M154 307v107h106v-107h-106zM154 461v106h106v-106h-106zM154 614v107h106v-107h-106zM154 768v106h106v-106h-106zM154 922v106h106v-106h-106zM154 1075v107h106v-107h-106zM307 154v106h107v-106h-107zM307 1229v106h107v-106h-107zM461 0v106h106v-106h-106z M461 1382v107h106v-107h-106z" />
<glyph unicode=")" d="M154 0v106h106v-106h-106zM154 1382v107h106v-107h-106zM307 154v106h107v-106h-107zM307 1229v106h107v-106h-107zM461 307v107h106v-107h-106zM461 461v106h106v-106h-106zM461 614v107h106v-107h-106zM461 768v106h106v-106h-106zM461 922v106h106v-106h-106z M461 1075v107h106v-107h-106z" />
<glyph unicode="*" d="M154 1229v106h106v-106h-106zM154 1536v106h106v-106h-106zM307 1382v107h107v-107h-107zM461 1229v106h106v-106h-106zM461 1536v106h106v-106h-106z" />
<glyph unicode="+" horiz-adv-x="870" d="M0 614v107h106v-107h-106zM154 614v107h106v-107h-106zM307 307v107h107v-107h-107zM307 461v106h107v-106h-107zM307 614v107h107v-107h-107zM307 768v106h107v-106h-107zM307 922v106h107v-106h-107zM461 614v107h106v-107h-106zM614 614v107h107v-107h-107z" />
<glyph unicode="," horiz-adv-x="563" d="M154 -47h106v-107h-106v107zM154 -201h106v-106h-106v106zM307 0v106h107v-106h-107zM307 154v106h107v-106h-107z" />
<glyph unicode="-" d="M154 614v107h106v-107h-106zM307 614v107h107v-107h-107zM461 614v107h106v-107h-106z" />
<glyph unicode="." horiz-adv-x="563" d="M154 0v106h106v-106h-106zM154 154v106h106v-106h-106zM307 0v106h107v-106h-107zM307 154v106h107v-106h-107z" />
<glyph unicode="/" horiz-adv-x="870" d="M0 0v106h106v-106h-106zM0 154v106h106v-106h-106zM154 307v107h106v-107h-106zM154 461v106h106v-106h-106zM307 614v107h107v-107h-107zM307 768v106h107v-106h-107zM461 922v106h106v-106h-106zM461 1075v107h106v-107h-106zM614 1229v106h107v-106h-107zM614 1382 v107h107v-107h-107z" />
<glyph unicode="0" d="M154 154v106h106v-106h-106zM154 307v107h106v-107h-106zM154 461v106h106v-106h-106zM154 614v107h106v-107h-106zM154 768v106h106v-106h-106zM154 922v106h106v-106h-106zM154 1075v107h106v-107h-106zM307 0v106h107v-106h-107zM307 614v107h107v-107h-107zM307 1229 v106h107v-106h-107zM461 154v106h106v-106h-106zM461 307v107h106v-107h-106zM461 461v106h106v-106h-106zM461 614v107h106v-107h-106zM461 768v106h106v-106h-106zM461 922v106h106v-106h-106zM461 1075v107h106v-107h-106z" />
<glyph unicode="1" d="M154 0v106h106v-106h-106zM154 1075v107h106v-107h-106zM307 0v106h107v-106h-107zM307 154v106h107v-106h-107zM307 307v107h107v-107h-107zM307 461v106h107v-106h-107zM307 614v107h107v-107h-107zM307 768v106h107v-106h-107zM307 922v106h107v-106h-107zM307 1075 v107h107v-107h-107zM307 1229v106h107v-106h-107zM461 0v106h106v-106h-106z" />
<glyph unicode="2" d="M154 0v106h106v-106h-106zM154 154v106h106v-106h-106zM154 307v107h106v-107h-106zM154 922v106h106v-106h-106zM154 1075v107h106v-107h-106zM307 0v106h107v-106h-107zM307 461v106h107v-106h-107zM307 614v107h107v-107h-107zM307 1229v106h107v-106h-107zM461 0v106 h106v-106h-106zM461 768v106h106v-106h-106zM461 922v106h106v-106h-106zM461 1075v107h106v-107h-106z" />
<glyph unicode="3" d="M154 -47h106v-107h-106v107zM154 -201h106v-106h-106v106zM154 922v106h106v-106h-106zM154 1075v107h106v-107h-106zM307 -354h107v-107h-107v107zM307 461v106h107v-106h-107zM307 1229v106h107v-106h-107zM461 0v106h106v-106h-106zM461 -47h106v-107h-106v107z M461 154v106h106v-106h-106zM461 -201h106v-106h-106v106zM461 307v107h106v-107h-106zM461 614v107h106v-107h-106zM461 768v106h106v-106h-106zM461 922v106h106v-106h-106zM461 1075v107h106v-107h-106z" />
<glyph unicode="4" horiz-adv-x="870" d="M154 0v106h106v-106h-106zM154 154v106h106v-106h-106zM154 307v107h106v-107h-106zM154 461v106h106v-106h-106zM154 614v107h106v-107h-106zM154 768v106h106v-106h-106zM307 0v106h107v-106h-107zM307 922v106h107v-106h-107zM307 1075v107h107v-107h-107zM461 0v106 h106v-106h-106zM461 -47h106v-107h-106v107zM461 154v106h106v-106h-106zM461 -201h106v-106h-106v106zM461 307v107h106v-107h-106zM461 -354h106v-107h-106v107zM461 461v106h106v-106h-106zM461 614v107h106v-107h-106zM461 768v106h106v-106h-106zM461 922v106h106v-106 h-106zM461 1075v107h106v-107h-106zM461 1229v106h106v-106h-106zM614 0v106h107v-106h-107z" />
<glyph unicode="5" d="M154 -47h106v-107h-106v107zM154 -201h106v-106h-106v106zM154 461v106h106v-106h-106zM154 614v107h106v-107h-106zM154 768v106h106v-106h-106zM154 922v106h106v-106h-106zM154 1075v107h106v-107h-106zM154 1229v106h106v-106h-106zM307 -354h107v-107h-107v107z M307 461v106h107v-106h-107zM307 1229v106h107v-106h-107zM461 0v106h106v-106h-106zM461 -47h106v-107h-106v107zM461 154v106h106v-106h-106zM461 -201h106v-106h-106v106zM461 307v107h106v-107h-106zM461 1229v106h106v-106h-106z" />
<glyph unicode="6" d="M154 154v106h106v-106h-106zM154 307v107h106v-107h-106zM154 461v106h106v-106h-106zM154 614v107h106v-107h-106zM154 768v106h106v-106h-106zM154 922v106h106v-106h-106zM154 1075v107h106v-107h-106zM154 1229v106h106v-106h-106zM154 1382v107h106v-107h-106z M307 0v106h107v-106h-107zM307 922v106h107v-106h-107zM307 1536v106h107v-106h-107zM461 154v106h106v-106h-106zM461 307v107h106v-107h-106zM461 461v106h106v-106h-106zM461 614v107h106v-107h-106zM461 768v106h106v-106h-106zM461 1382v107h106v-107h-106z" />
<glyph unicode="7" d="M154 0v106h106v-106h-106zM154 -47h106v-107h-106v107zM154 -201h106v-106h-106v106zM154 -354h106v-107h-106v107zM154 1229v106h106v-106h-106zM307 154v106h107v-106h-107zM307 307v107h107v-107h-107zM307 461v106h107v-106h-107zM307 614v107h107v-107h-107z M307 1229v106h107v-106h-107zM461 768v106h106v-106h-106zM461 922v106h106v-106h-106zM461 1075v107h106v-107h-106zM461 1229v106h106v-106h-106z" />
<glyph unicode="8" d="M154 154v106h106v-106h-106zM154 307v107h106v-107h-106zM154 461v106h106v-106h-106zM154 614v107h106v-107h-106zM154 922v106h106v-106h-106zM154 1075v107h106v-107h-106zM154 1229v106h106v-106h-106zM154 1382v107h106v-107h-106zM307 0v106h107v-106h-107z M307 768v106h107v-106h-107zM307 1536v106h107v-106h-107zM461 154v106h106v-106h-106zM461 307v107h106v-107h-106zM461 461v106h106v-106h-106zM461 614v107h106v-107h-106zM461 922v106h106v-106h-106zM461 1075v107h106v-107h-106zM461 1229v106h106v-106h-106z M461 1382v107h106v-107h-106z" />
<glyph unicode="9" d="M154 154v106h106v-106h-106zM154 768v106h106v-106h-106zM154 922v106h106v-106h-106zM154 1075v107h106v-107h-106zM154 1229v106h106v-106h-106zM154 1382v107h106v-107h-106zM307 0v106h107v-106h-107zM307 614v107h107v-107h-107zM307 1536v106h107v-106h-107z M461 154v106h106v-106h-106zM461 307v107h106v-107h-106zM461 461v106h106v-106h-106zM461 614v107h106v-107h-106zM461 768v106h106v-106h-106zM461 922v106h106v-106h-106zM461 1075v107h106v-107h-106zM461 1229v106h106v-106h-106zM461 1382v107h106v-107h-106z" />
<glyph unicode=":" horiz-adv-x="563" d="M154 0v106h106v-106h-106zM154 154v106h106v-106h-106zM154 922v106h106v-106h-106zM154 1075v107h106v-107h-106zM307 0v106h107v-106h-107zM307 154v106h107v-106h-107zM307 922v106h107v-106h-107zM307 1075v107h107v-107h-107z" />
<glyph unicode=";" horiz-adv-x="563" d="M154 -47h106v-107h-106v107zM154 -201h106v-106h-106v106zM154 922v106h106v-106h-106zM154 1075v107h106v-107h-106zM307 0v106h107v-106h-107zM307 154v106h107v-106h-107zM307 922v106h107v-106h-107zM307 1075v107h107v-107h-107z" />
<glyph unicode="&#x3c;" horiz-adv-x="870" d="M154 614v107h106v-107h-106zM307 461v106h107v-106h-107zM307 768v106h107v-106h-107zM461 307v107h106v-107h-106zM461 922v106h106v-106h-106zM614 154v106h107v-106h-107zM614 1075v107h107v-107h-107z" />
<glyph unicode="=" horiz-adv-x="870" d="M154 461v106h106v-106h-106zM154 768v106h106v-106h-106zM307 461v106h107v-106h-107zM307 768v106h107v-106h-107zM461 461v106h106v-106h-106zM461 768v106h106v-106h-106zM614 461v106h107v-106h-107zM614 768v106h107v-106h-107z" />
<glyph unicode="&#x3e;" horiz-adv-x="870" d="M154 154v106h106v-106h-106zM154 1075v107h106v-107h-106zM307 307v107h107v-107h-107zM307 922v106h107v-106h-107zM461 461v106h106v-106h-106zM461 768v106h106v-106h-106zM614 614v107h107v-107h-107z" />
<glyph unicode="?" d="M154 0v106h106v-106h-106zM154 154v106h106v-106h-106zM154 1075v107h106v-107h-106zM154 1229v106h106v-106h-106zM307 0v106h107v-106h-107zM307 154v106h107v-106h-107zM307 614v107h107v-107h-107zM307 768v106h107v-106h-107zM307 1382v107h107v-107h-107zM461 922 v106h106v-106h-106zM461 1075v107h106v-107h-106zM461 1229v106h106v-106h-106z" />
<glyph unicode="@" horiz-adv-x="870" d="M0 0v106h106v-106h-106zM0 -47h106v-107h-106v107zM0 154v106h106v-106h-106zM0 307v107h106v-107h-106zM0 461v106h106v-106h-106zM0 614v107h106v-107h-106zM0 768v106h106v-106h-106zM0 922v106h106v-106h-106zM0 1075v107h106v-107h-106zM0 1229v106h106v-106h-106z M154 -201h106v-106h-106v106zM154 1382v107h106v-107h-106zM307 0v106h107v-106h-107zM307 154v106h107v-106h-107zM307 -201h107v-106h-107v106zM307 307v107h107v-107h-107zM307 461v106h107v-106h-107zM307 614v107h107v-107h-107zM307 768v106h107v-106h-107zM307 922 v106h107v-106h-107zM307 1075v107h107v-107h-107zM307 1382v107h107v-107h-107zM461 0v106h106v-106h-106zM461 -201h106v-106h-106v106zM461 1382v107h106v-107h-106zM614 0v106h107v-106h-107zM614 154v106h107v-106h-107zM614 -201h107v-106h-107v106zM614 307v107h107 v-107h-107zM614 461v106h107v-106h-107zM614 614v107h107v-107h-107zM614 768v106h107v-106h-107zM614 922v106h107v-106h-107zM614 1075v107h107v-107h-107zM614 1229v106h107v-106h-107z" />
<glyph unicode="A" d="M154 0v106h106v-106h-106zM154 154v106h106v-106h-106zM154 307v107h106v-107h-106zM154 461v106h106v-106h-106zM154 614v107h106v-107h-106zM154 768v106h106v-106h-106zM154 922v106h106v-106h-106zM154 1075v107h106v-107h-106zM154 1229v106h106v-106h-106zM307 614 v107h107v-107h-107zM307 1382v107h107v-107h-107zM461 0v106h106v-106h-106zM461 154v106h106v-106h-106zM461 307v107h106v-107h-106zM461 461v106h106v-106h-106zM461 614v107h106v-107h-106zM461 768v106h106v-106h-106zM461 922v106h106v-106h-106zM461 1075v107h106 v-107h-106zM461 1229v106h106v-106h-106z" />
<glyph unicode="B" d="M154 0v106h106v-106h-106zM154 154v106h106v-106h-106zM154 307v107h106v-107h-106zM154 461v106h106v-106h-106zM154 614v107h106v-107h-106zM154 768v106h106v-106h-106zM154 922v106h106v-106h-106zM154 1075v107h106v-107h-106zM154 1229v106h106v-106h-106z M154 1382v107h106v-107h-106zM307 0v106h107v-106h-107zM307 768v106h107v-106h-107zM307 1382v107h107v-107h-107zM461 154v106h106v-106h-106zM461 307v107h106v-107h-106zM461 461v106h106v-106h-106zM461 614v107h106v-107h-106zM461 922v106h106v-106h-106zM461 1075 v107h106v-107h-106zM461 1229v106h106v-106h-106z" />
<glyph unicode="C" d="M154 154v106h106v-106h-106zM154 307v107h106v-107h-106zM154 461v106h106v-106h-106zM154 614v107h106v-107h-106zM154 768v106h106v-106h-106zM154 922v106h106v-106h-106zM154 1075v107h106v-107h-106zM154 1229v106h106v-106h-106zM307 0v106h107v-106h-107z M307 1382v107h107v-107h-107zM461 0v106h106v-106h-106zM461 1075v107h106v-107h-106zM461 1229v106h106v-106h-106zM461 1382v107h106v-107h-106z" />
<glyph unicode="D" d="M154 0v106h106v-106h-106zM154 154v106h106v-106h-106zM154 307v107h106v-107h-106zM154 461v106h106v-106h-106zM154 614v107h106v-107h-106zM154 768v106h106v-106h-106zM154 922v106h106v-106h-106zM154 1075v107h106v-107h-106zM154 1229v106h106v-106h-106z M154 1382v107h106v-107h-106zM307 0v106h107v-106h-107zM307 1382v107h107v-107h-107zM461 154v106h106v-106h-106zM461 307v107h106v-107h-106zM461 461v106h106v-106h-106zM461 614v107h106v-107h-106zM461 768v106h106v-106h-106zM461 922v106h106v-106h-106zM461 1075 v107h106v-107h-106zM461 1229v106h106v-106h-106z" />
<glyph unicode="E" d="M154 0v106h106v-106h-106zM154 154v106h106v-106h-106zM154 307v107h106v-107h-106zM154 461v106h106v-106h-106zM154 614v107h106v-107h-106zM154 768v106h106v-106h-106zM154 922v106h106v-106h-106zM154 1075v107h106v-107h-106zM154 1229v106h106v-106h-106z M154 1382v107h106v-107h-106zM307 0v106h107v-106h-107zM307 768v106h107v-106h-107zM307 1382v107h107v-107h-107zM461 0v106h106v-106h-106zM461 154v106h106v-106h-106zM461 1229v106h106v-106h-106zM461 1382v107h106v-107h-106z" />
<glyph unicode="F" d="M154 0v106h106v-106h-106zM154 154v106h106v-106h-106zM154 307v107h106v-107h-106zM154 461v106h106v-106h-106zM154 614v107h106v-107h-106zM154 768v106h106v-106h-106zM154 922v106h106v-106h-106zM154 1075v107h106v-107h-106zM154 1229v106h106v-106h-106z M154 1382v107h106v-107h-106zM307 768v106h107v-106h-107zM307 1382v107h107v-107h-107zM461 1229v106h106v-106h-106zM461 1382v107h106v-107h-106z" />
<glyph unicode="G" d="M154 154v106h106v-106h-106zM154 307v107h106v-107h-106zM154 461v106h106v-106h-106zM154 614v107h106v-107h-106zM154 768v106h106v-106h-106zM154 922v106h106v-106h-106zM154 1075v107h106v-107h-106zM154 1229v106h106v-106h-106zM307 0v106h107v-106h-107zM307 614 v107h107v-107h-107zM307 1382v107h107v-107h-107zM461 0v106h106v-106h-106zM461 154v106h106v-106h-106zM461 307v107h106v-107h-106zM461 461v106h106v-106h-106zM461 614v107h106v-107h-106zM461 1075v107h106v-107h-106zM461 1229v106h106v-106h-106zM461 1382v107h106 v-107h-106z" />
<glyph unicode="H" d="M154 0v106h106v-106h-106zM154 154v106h106v-106h-106zM154 307v107h106v-107h-106zM154 461v106h106v-106h-106zM154 614v107h106v-107h-106zM154 768v106h106v-106h-106zM154 922v106h106v-106h-106zM154 1075v107h106v-107h-106zM154 1229v106h106v-106h-106z M154 1382v107h106v-107h-106zM307 614v107h107v-107h-107zM461 0v106h106v-106h-106zM461 154v106h106v-106h-106zM461 307v107h106v-107h-106zM461 461v106h106v-106h-106zM461 614v107h106v-107h-106zM461 768v106h106v-106h-106zM461 922v106h106v-106h-106zM461 1075 v107h106v-107h-106zM461 1229v106h106v-106h-106zM461 1382v107h106v-107h-106z" />
<glyph unicode="I" d="M154 0v106h106v-106h-106zM154 1382v107h106v-107h-106zM307 0v106h107v-106h-107zM307 154v106h107v-106h-107zM307 307v107h107v-107h-107zM307 461v106h107v-106h-107zM307 614v107h107v-107h-107zM307 768v106h107v-106h-107zM307 922v106h107v-106h-107zM307 1075 v107h107v-107h-107zM307 1229v106h107v-106h-107zM307 1382v107h107v-107h-107zM461 0v106h106v-106h-106zM461 1382v107h106v-107h-106z" />
<glyph unicode="J" d="M154 154v106h106v-106h-106zM154 307v107h106v-107h-106zM307 0v106h107v-106h-107zM307 1382v107h107v-107h-107zM461 154v106h106v-106h-106zM461 307v107h106v-107h-106zM461 461v106h106v-106h-106zM461 614v107h106v-107h-106zM461 768v106h106v-106h-106zM461 922 v106h106v-106h-106zM461 1075v107h106v-107h-106zM461 1229v106h106v-106h-106zM461 1382v107h106v-107h-106z" />
<glyph unicode="K" d="M154 0v106h106v-106h-106zM154 154v106h106v-106h-106zM154 307v107h106v-107h-106zM154 461v106h106v-106h-106zM154 614v107h106v-107h-106zM154 768v106h106v-106h-106zM154 922v106h106v-106h-106zM154 1075v107h106v-107h-106zM154 1229v106h106v-106h-106z M154 1382v107h106v-107h-106zM307 768v106h107v-106h-107zM461 0v106h106v-106h-106zM461 154v106h106v-106h-106zM461 307v107h106v-107h-106zM461 461v106h106v-106h-106zM461 614v107h106v-107h-106zM461 922v106h106v-106h-106zM461 1075v107h106v-107h-106zM461 1229 v106h106v-106h-106zM461 1382v107h106v-107h-106z" />
<glyph unicode="L" d="M154 0v106h106v-106h-106zM154 154v106h106v-106h-106zM154 307v107h106v-107h-106zM154 461v106h106v-106h-106zM154 614v107h106v-107h-106zM154 768v106h106v-106h-106zM154 922v106h106v-106h-106zM154 1075v107h106v-107h-106zM154 1229v106h106v-106h-106z M154 1382v107h106v-107h-106zM307 0v106h107v-106h-107zM461 0v106h106v-106h-106zM461 154v106h106v-106h-106zM461 307v107h106v-107h-106z" />
<glyph unicode="M" horiz-adv-x="1024" d="M154 0v106h106v-106h-106zM154 154v106h106v-106h-106zM154 307v107h106v-107h-106zM154 461v106h106v-106h-106zM154 614v107h106v-107h-106zM154 768v106h106v-106h-106zM154 922v106h106v-106h-106zM154 1075v107h106v-107h-106zM154 1229v106h106v-106h-106z M307 1382v107h107v-107h-107zM461 0v106h106v-106h-106zM461 154v106h106v-106h-106zM461 307v107h106v-107h-106zM461 461v106h106v-106h-106zM461 614v107h106v-107h-106zM461 768v106h106v-106h-106zM461 922v106h106v-106h-106zM461 1075v107h106v-107h-106zM461 1229 v106h106v-106h-106zM614 1382v107h107v-107h-107zM768 0v106h106v-106h-106zM768 154v106h106v-106h-106zM768 307v107h106v-107h-106zM768 461v106h106v-106h-106zM768 614v107h106v-107h-106zM768 768v106h106v-106h-106zM768 922v106h106v-106h-106zM768 1075v107h106 v-107h-106zM768 1229v106h106v-106h-106z" />
<glyph unicode="N" d="M0 0v106h106v-106h-106zM0 154v106h106v-106h-106zM0 307v107h106v-107h-106zM0 461v106h106v-106h-106zM0 614v107h106v-107h-106zM0 768v106h106v-106h-106zM0 922v106h106v-106h-106zM0 1075v107h106v-107h-106zM0 1229v106h106v-106h-106zM0 1382v107h106v-107h-106z M154 1075v107h106v-107h-106zM307 922v106h107v-106h-107zM461 0v106h106v-106h-106zM461 154v106h106v-106h-106zM461 307v107h106v-107h-106zM461 461v106h106v-106h-106zM461 614v107h106v-107h-106zM461 768v106h106v-106h-106zM461 922v106h106v-106h-106zM461 1075 v107h106v-107h-106zM461 1229v106h106v-106h-106zM461 1382v107h106v-107h-106z" />
<glyph unicode="O" d="M154 154v106h106v-106h-106zM154 307v107h106v-107h-106zM154 461v106h106v-106h-106zM154 614v107h106v-107h-106zM154 768v106h106v-106h-106zM154 922v106h106v-106h-106zM154 1075v107h106v-107h-106zM154 1229v106h106v-106h-106zM307 0v106h107v-106h-107z M307 1382v107h107v-107h-107zM461 154v106h106v-106h-106zM461 307v107h106v-107h-106zM461 461v106h106v-106h-106zM461 614v107h106v-107h-106zM461 768v106h106v-106h-106zM461 922v106h106v-106h-106zM461 1075v107h106v-107h-106zM461 1229v106h106v-106h-106z" />
<glyph unicode="P" d="M154 0v106h106v-106h-106zM154 154v106h106v-106h-106zM154 307v107h106v-107h-106zM154 461v106h106v-106h-106zM154 614v107h106v-107h-106zM154 768v106h106v-106h-106zM154 922v106h106v-106h-106zM154 1075v107h106v-107h-106zM154 1229v106h106v-106h-106z M154 1382v107h106v-107h-106zM307 614v107h107v-107h-107zM307 1382v107h107v-107h-107zM461 768v106h106v-106h-106zM461 922v106h106v-106h-106zM461 1075v107h106v-107h-106zM461 1229v106h106v-106h-106z" />
<glyph unicode="Q" d="M154 154v106h106v-106h-106zM154 307v107h106v-107h-106zM154 461v106h106v-106h-106zM154 614v107h106v-107h-106zM154 768v106h106v-106h-106zM154 922v106h106v-106h-106zM154 1075v107h106v-107h-106zM154 1229v106h106v-106h-106zM307 0v106h107v-106h-107zM307 -47 h107v-107h-107v107zM307 154v106h107v-106h-107zM307 1382v107h107v-107h-107zM461 154v106h106v-106h-106zM461 307v107h106v-107h-106zM461 461v106h106v-106h-106zM461 614v107h106v-107h-106zM461 768v106h106v-106h-106zM461 922v106h106v-106h-106zM461 1075v107h106 v-107h-106zM461 1229v106h106v-106h-106z" />
<glyph unicode="R" d="M154 0v106h106v-106h-106zM154 154v106h106v-106h-106zM154 307v107h106v-107h-106zM154 461v106h106v-106h-106zM154 614v107h106v-107h-106zM154 768v106h106v-106h-106zM154 922v106h106v-106h-106zM154 1075v107h106v-107h-106zM154 1229v106h106v-106h-106z M154 1382v107h106v-107h-106zM307 768v106h107v-106h-107zM307 1382v107h107v-107h-107zM461 0v106h106v-106h-106zM461 154v106h106v-106h-106zM461 307v107h106v-107h-106zM461 461v106h106v-106h-106zM461 614v107h106v-107h-106zM461 922v106h106v-106h-106zM461 1075 v107h106v-107h-106zM461 1229v106h106v-106h-106z" />
<glyph unicode="S" d="M154 154v106h106v-106h-106zM154 307v107h106v-107h-106zM154 922v106h106v-106h-106zM154 1075v107h106v-107h-106zM154 1229v106h106v-106h-106zM307 0v106h107v-106h-107zM307 768v106h107v-106h-107zM307 1382v107h107v-107h-107zM461 154v106h106v-106h-106z M461 307v107h106v-107h-106zM461 461v106h106v-106h-106zM461 614v107h106v-107h-106zM461 1075v107h106v-107h-106zM461 1229v106h106v-106h-106z" />
<glyph unicode="T" d="M154 1382v107h106v-107h-106zM307 0v106h107v-106h-107zM307 154v106h107v-106h-107zM307 307v107h107v-107h-107zM307 461v106h107v-106h-107zM307 614v107h107v-107h-107zM307 768v106h107v-106h-107zM307 922v106h107v-106h-107zM307 1075v107h107v-107h-107z M307 1229v106h107v-106h-107zM307 1382v107h107v-107h-107zM461 1382v107h106v-107h-106z" />
<glyph unicode="U" d="M156 154v106h106v-106h-106zM156 307v107h106v-107h-106zM156 461v106h106v-106h-106zM156 614v107h106v-107h-106zM156 768v106h106v-106h-106zM156 922v106h106v-106h-106zM156 1075v107h106v-107h-106zM156 1229v106h106v-106h-106zM156 1382v107h106v-107h-106z M309 0v106h107v-106h-107zM461 0v106h106v-106h-106zM461 154v106h106v-106h-106zM461 307v107h106v-107h-106zM461 461v106h106v-106h-106zM461 614v107h106v-107h-106zM461 768v106h106v-106h-106zM461 922v106h106v-106h-106zM461 1075v107h106v-107h-106zM461 1229v106 h106v-106h-106zM461 1382v107h106v-107h-106z" />
<glyph unicode="V" d="M154 307v107h106v-107h-106zM154 461v106h106v-106h-106zM154 614v107h106v-107h-106zM154 768v106h106v-106h-106zM154 922v106h106v-106h-106zM154 1075v107h106v-107h-106zM154 1229v106h106v-106h-106zM154 1382v107h106v-107h-106zM307 0v106h107v-106h-107z M307 154v106h107v-106h-107zM461 307v107h106v-107h-106zM461 461v106h106v-106h-106zM461 614v107h106v-107h-106zM461 768v106h106v-106h-106zM461 922v106h106v-106h-106zM461 1075v107h106v-107h-106zM461 1229v106h106v-106h-106zM461 1382v107h106v-107h-106z" />
<glyph unicode="W" horiz-adv-x="1024" d="M154 307v107h106v-107h-106zM154 461v106h106v-106h-106zM154 614v107h106v-107h-106zM154 768v106h106v-106h-106zM154 922v106h106v-106h-106zM154 1075v107h106v-107h-106zM154 1229v106h106v-106h-106zM154 1382v107h106v-107h-106zM307 0v106h107v-106h-107z M307 154v106h107v-106h-107zM461 307v107h106v-107h-106zM461 461v106h106v-106h-106zM461 614v107h106v-107h-106zM461 768v106h106v-106h-106zM461 922v106h106v-106h-106zM461 1075v107h106v-107h-106zM461 1229v106h106v-106h-106zM461 1382v107h106v-107h-106zM614 0 v106h107v-106h-107zM614 154v106h107v-106h-107zM768 307v107h106v-107h-106zM768 461v106h106v-106h-106zM768 614v107h106v-107h-106zM768 768v106h106v-106h-106zM768 922v106h106v-106h-106zM768 1075v107h106v-107h-106zM768 1229v106h106v-106h-106zM768 1382v107h106 v-107h-106z" />
<glyph unicode="X" d="M154 0v106h106v-106h-106zM154 154v106h106v-106h-106zM154 307v107h106v-107h-106zM154 461v106h106v-106h-106zM154 614v107h106v-107h-106zM154 922v106h106v-106h-106zM154 1075v107h106v-107h-106zM154 1229v106h106v-106h-106zM154 1382v107h106v-107h-106z M307 768v106h107v-106h-107zM461 0v106h106v-106h-106zM461 154v106h106v-106h-106zM461 307v107h106v-107h-106zM461 461v106h106v-106h-106zM461 614v107h106v-107h-106zM461 922v106h106v-106h-106zM461 1075v107h106v-107h-106zM461 1229v106h106v-106h-106zM461 1382 v107h106v-107h-106z" />
<glyph unicode="Y" d="M154 768v106h106v-106h-106zM154 922v106h106v-106h-106zM154 1075v107h106v-107h-106zM154 1229v106h106v-106h-106zM154 1382v107h106v-107h-106zM307 0v106h107v-106h-107zM307 154v106h107v-106h-107zM307 307v107h107v-107h-107zM307 461v106h107v-106h-107z M307 614v107h107v-107h-107zM461 768v106h106v-106h-106zM461 922v106h106v-106h-106zM461 1075v107h106v-107h-106zM461 1229v106h106v-106h-106zM461 1382v107h106v-107h-106z" />
<glyph unicode="Z" d="M154 0v106h106v-106h-106zM154 154v106h106v-106h-106zM154 307v107h106v-107h-106zM154 461v106h106v-106h-106zM154 1382v107h106v-107h-106zM307 0v106h107v-106h-107zM307 614v107h107v-107h-107zM307 768v106h107v-106h-107zM307 922v106h107v-106h-107zM307 1382 v107h107v-107h-107zM461 0v106h106v-106h-106zM461 1075v107h106v-107h-106zM461 1229v106h106v-106h-106zM461 1382v107h106v-107h-106z" />
<glyph unicode="[" horiz-adv-x="563" d="M154 0v106h106v-106h-106zM154 -47h106v-107h-106v107zM154 154v106h106v-106h-106zM154 307v107h106v-107h-106zM154 461v106h106v-106h-106zM154 614v107h106v-107h-106zM154 768v106h106v-106h-106zM154 922v106h106v-106h-106zM154 1075v107h106v-107h-106zM154 1229 v106h106v-106h-106zM154 1382v107h106v-107h-106zM154 1536v106h106v-106h-106zM307 -47h107v-107h-107v107zM307 1536v106h107v-106h-107z" />
<glyph unicode="\" horiz-adv-x="870" d="M102 1229v106h107v-106h-107zM102 1382v107h107v-107h-107zM256 922v106h106v-106h-106zM256 1075v107h106v-107h-106zM410 614v107h106v-107h-106zM410 768v106h106v-106h-106zM563 307v107h107v-107h-107zM563 461v106h107v-106h-107zM717 0v106h106v-106h-106z M717 154v106h106v-106h-106z" />
<glyph unicode="]" horiz-adv-x="563" d="M256 -47h106v-107h-106v107zM256 1536v106h106v-106h-106zM410 0v106h106v-106h-106zM410 -47h106v-107h-106v107zM410 154v106h106v-106h-106zM410 307v107h106v-107h-106zM410 461v106h106v-106h-106zM410 614v107h106v-107h-106zM410 768v106h106v-106h-106zM410 922 v106h106v-106h-106zM410 1075v107h106v-107h-106zM410 1229v106h106v-106h-106zM410 1382v107h106v-107h-106zM410 1536v106h106v-106h-106z" />
<glyph unicode="^" d="M154 1536v106h106v-106h-106zM307 1690v106h107v-106h-107zM461 1536v106h106v-106h-106z" />
<glyph unicode="_" horiz-adv-x="870" d="M154 0v106h106v-106h-106zM307 0v106h107v-106h-107zM461 0v106h106v-106h-106zM614 0v106h107v-106h-107z" />
<glyph unicode="`" d="M154 1690v106h106v-106h-106zM307 1536v106h107v-106h-107zM461 1536v106h106v-106h-106z" />
<glyph unicode="a" d="M154 154v106h106v-106h-106zM154 307v107h106v-107h-106zM154 461v106h106v-106h-106zM154 614v107h106v-107h-106zM154 1075v107h106v-107h-106zM307 0v106h107v-106h-107zM307 768v106h107v-106h-107zM307 1229v106h107v-106h-107zM461 0v106h106v-106h-106zM461 154 v106h106v-106h-106zM461 307v107h106v-107h-106zM461 461v106h106v-106h-106zM461 614v107h106v-107h-106zM461 768v106h106v-106h-106zM461 922v106h106v-106h-106zM461 1075v107h106v-107h-106z" />
<glyph unicode="b" d="M154 0v106h106v-106h-106zM154 154v106h106v-106h-106zM154 307v107h106v-107h-106zM154 461v106h106v-106h-106zM154 614v107h106v-107h-106zM154 768v106h106v-106h-106zM154 922v106h106v-106h-106zM154 1075v107h106v-107h-106zM154 1229v106h106v-106h-106z M154 1382v107h106v-107h-106zM154 1536v106h106v-106h-106zM307 0v106h107v-106h-107zM307 1229v106h107v-106h-107zM461 154v106h106v-106h-106zM461 307v107h106v-107h-106zM461 461v106h106v-106h-106zM461 614v107h106v-107h-106zM461 768v106h106v-106h-106zM461 922 v106h106v-106h-106zM461 1075v107h106v-107h-106z" />
<glyph unicode="c" d="M154 154v106h106v-106h-106zM154 307v107h106v-107h-106zM154 461v106h106v-106h-106zM154 614v107h106v-107h-106zM154 768v106h106v-106h-106zM154 922v106h106v-106h-106zM154 1075v107h106v-107h-106zM307 0v106h107v-106h-107zM307 1229v106h107v-106h-107zM461 154 v106h106v-106h-106zM461 1075v107h106v-107h-106z" />
<glyph unicode="d" d="M154 154v106h106v-106h-106zM154 307v107h106v-107h-106zM154 461v106h106v-106h-106zM154 614v107h106v-107h-106zM154 768v106h106v-106h-106zM154 922v106h106v-106h-106zM154 1075v107h106v-107h-106zM307 0v106h107v-106h-107zM307 1229v106h107v-106h-107zM461 0 v106h106v-106h-106zM461 154v106h106v-106h-106zM461 307v107h106v-107h-106zM461 461v106h106v-106h-106zM461 614v107h106v-107h-106zM461 768v106h106v-106h-106zM461 922v106h106v-106h-106zM461 1075v107h106v-107h-106zM461 1229v106h106v-106h-106zM461 1382v107h106 v-107h-106zM461 1536v106h106v-106h-106z" />
<glyph unicode="e" d="M154 154v106h106v-106h-106zM154 307v107h106v-107h-106zM154 461v106h106v-106h-106zM154 614v107h106v-107h-106zM154 768v106h106v-106h-106zM154 922v106h106v-106h-106zM154 1075v107h106v-107h-106zM307 0v106h107v-106h-107zM307 614v107h107v-107h-107zM307 1229 v106h107v-106h-107zM461 154v106h106v-106h-106zM461 614v107h106v-107h-106zM461 768v106h106v-106h-106zM461 922v106h106v-106h-106zM461 1075v107h106v-107h-106z" />
<glyph unicode="f" d="M154 1229v106h106v-106h-106zM307 0v106h107v-106h-107zM307 154v106h107v-106h-107zM307 307v107h107v-107h-107zM307 461v106h107v-106h-107zM307 614v107h107v-107h-107zM307 768v106h107v-106h-107zM307 922v106h107v-106h-107zM307 1075v107h107v-107h-107z M307 1229v106h107v-106h-107zM307 1382v107h107v-107h-107zM461 1229v106h106v-106h-106zM461 1536v106h106v-106h-106zM614 1536v106h107v-106h-107z" />
<glyph unicode="g" d="M154 154v106h106v-106h-106zM154 -201h106v-106h-106v106zM154 307v107h106v-107h-106zM154 461v106h106v-106h-106zM154 614v107h106v-107h-106zM154 768v106h106v-106h-106zM154 922v106h106v-106h-106zM154 1075v107h106v-107h-106zM307 0v106h107v-106h-107z M307 -354h107v-107h-107v107zM307 1229v106h107v-106h-107zM461 0v106h106v-106h-106zM461 -47h106v-107h-106v107zM461 154v106h106v-106h-106zM461 -201h106v-106h-106v106zM461 307v107h106v-107h-106zM461 461v106h106v-106h-106zM461 614v107h106v-107h-106zM461 768 v106h106v-106h-106zM461 922v106h106v-106h-106zM461 1075v107h106v-107h-106z" />
<glyph unicode="h" d="M154 0v106h106v-106h-106zM154 154v106h106v-106h-106zM154 307v107h106v-107h-106zM154 461v106h106v-106h-106zM154 614v107h106v-107h-106zM154 768v106h106v-106h-106zM154 922v106h106v-106h-106zM154 1075v107h106v-107h-106zM154 1229v106h106v-106h-106z M154 1382v107h106v-107h-106zM154 1536v106h106v-106h-106zM307 1229v106h107v-106h-107zM461 0v106h106v-106h-106zM461 154v106h106v-106h-106zM461 307v107h106v-107h-106zM461 461v106h106v-106h-106zM461 614v107h106v-107h-106zM461 768v106h106v-106h-106zM461 922 v106h106v-106h-106zM461 1075v107h106v-107h-106z" />
<glyph unicode="i" d="M154 0v106h106v-106h-106zM154 1229v106h106v-106h-106zM307 0v106h107v-106h-107zM307 154v106h107v-106h-107zM307 307v107h107v-107h-107zM307 461v106h107v-106h-107zM307 614v107h107v-107h-107zM307 768v106h107v-106h-107zM307 922v106h107v-106h-107zM307 1075 v107h107v-107h-107zM307 1229v106h107v-106h-107zM307 1536v106h107v-106h-107zM307 1690v106h107v-106h-107zM461 0v106h106v-106h-106z" />
<glyph unicode="j" horiz-adv-x="563" d="M0 -354h106v-107h-106v107zM0 1229v106h106v-106h-106zM154 -354h106v-107h-106v107zM154 1229v106h106v-106h-106zM307 0v106h107v-106h-107zM307 -47h107v-107h-107v107zM307 154v106h107v-106h-107zM307 -201h107v-106h-107v106zM307 307v107h107v-107h-107zM307 461 v106h107v-106h-107zM307 614v107h107v-107h-107zM307 768v106h107v-106h-107zM307 922v106h107v-106h-107zM307 1075v107h107v-107h-107zM307 1229v106h107v-106h-107zM307 1536v106h107v-106h-107zM307 1690v106h107v-106h-107z" />
<glyph unicode="k" d="M154 0v106h106v-106h-106zM154 154v106h106v-106h-106zM154 307v107h106v-107h-106zM154 461v106h106v-106h-106zM154 614v107h106v-107h-106zM154 768v106h106v-106h-106zM154 922v106h106v-106h-106zM154 1075v107h106v-107h-106zM154 1229v106h106v-106h-106z M154 1382v107h106v-107h-106zM154 1536v106h106v-106h-106zM307 768v106h107v-106h-107zM461 0v106h106v-106h-106zM461 154v106h106v-106h-106zM461 307v107h106v-107h-106zM461 461v106h106v-106h-106zM461 614v107h106v-107h-106zM461 922v106h106v-106h-106zM461 1075 v107h106v-107h-106zM461 1229v106h106v-106h-106z" />
<glyph unicode="l" d="M154 0v106h106v-106h-106zM154 1536v106h106v-106h-106zM307 0v106h107v-106h-107zM307 154v106h107v-106h-107zM307 307v107h107v-107h-107zM307 461v106h107v-106h-107zM307 614v107h107v-107h-107zM307 768v106h107v-106h-107zM307 922v106h107v-106h-107zM307 1075 v107h107v-107h-107zM307 1229v106h107v-106h-107zM307 1382v107h107v-107h-107zM307 1536v106h107v-106h-107zM461 0v106h106v-106h-106z" />
<glyph unicode="m" horiz-adv-x="1024" d="M154 0v106h106v-106h-106zM154 154v106h106v-106h-106zM154 307v107h106v-107h-106zM154 461v106h106v-106h-106zM154 614v107h106v-107h-106zM154 768v106h106v-106h-106zM154 922v106h106v-106h-106zM154 1075v107h106v-107h-106zM154 1229v106h106v-106h-106z M307 1229v106h107v-106h-107zM461 0v106h106v-106h-106zM461 154v106h106v-106h-106zM461 307v107h106v-107h-106zM461 461v106h106v-106h-106zM461 614v107h106v-107h-106zM461 768v106h106v-106h-106zM461 922v106h106v-106h-106zM461 1075v107h106v-107h-106zM614 1229 v106h107v-106h-107zM768 0v106h106v-106h-106zM768 154v106h106v-106h-106zM768 307v107h106v-107h-106zM768 461v106h106v-106h-106zM768 614v107h106v-107h-106zM768 768v106h106v-106h-106zM768 922v106h106v-106h-106zM768 1075v107h106v-107h-106z" />
<glyph unicode="n" d="M154 0v106h106v-106h-106zM154 154v106h106v-106h-106zM154 307v107h106v-107h-106zM154 461v106h106v-106h-106zM154 614v107h106v-107h-106zM154 768v106h106v-106h-106zM154 922v106h106v-106h-106zM154 1075v107h106v-107h-106zM154 1229v106h106v-106h-106z M307 1229v106h107v-106h-107zM461 0v106h106v-106h-106zM461 154v106h106v-106h-106zM461 307v107h106v-107h-106zM461 461v106h106v-106h-106zM461 614v107h106v-107h-106zM461 768v106h106v-106h-106zM461 922v106h106v-106h-106zM461 1075v107h106v-107h-106z" />
<glyph unicode="o" d="M154 154v106h106v-106h-106zM154 307v107h106v-107h-106zM154 461v106h106v-106h-106zM154 614v107h106v-107h-106zM154 768v106h106v-106h-106zM154 922v106h106v-106h-106zM154 1075v107h106v-107h-106zM307 0v106h107v-106h-107zM307 1229v106h107v-106h-107zM461 154 v106h106v-106h-106zM461 307v107h106v-107h-106zM461 461v106h106v-106h-106zM461 614v107h106v-107h-106zM461 768v106h106v-106h-106zM461 922v106h106v-106h-106zM461 1075v107h106v-107h-106z" />
<glyph unicode="p" d="M154 0v106h106v-106h-106zM154 -47h106v-107h-106v107zM154 154v106h106v-106h-106zM154 -201h106v-106h-106v106zM154 307v107h106v-107h-106zM154 -354h106v-107h-106v107zM154 461v106h106v-106h-106zM154 614v107h106v-107h-106zM154 768v106h106v-106h-106zM154 922 v106h106v-106h-106zM154 1075v107h106v-107h-106zM154 1229v106h106v-106h-106zM307 0v106h107v-106h-107zM307 1229v106h107v-106h-107zM461 154v106h106v-106h-106zM461 307v107h106v-107h-106zM461 461v106h106v-106h-106zM461 614v107h106v-107h-106zM461 768v106h106 v-106h-106zM461 922v106h106v-106h-106zM461 1075v107h106v-107h-106z" />
<glyph unicode="q" d="M154 154v106h106v-106h-106zM154 307v107h106v-107h-106zM154 461v106h106v-106h-106zM154 614v107h106v-107h-106zM154 768v106h106v-106h-106zM154 922v106h106v-106h-106zM154 1075v107h106v-107h-106zM307 0v106h107v-106h-107zM307 1229v106h107v-106h-107zM461 0 v106h106v-106h-106zM461 -47h106v-107h-106v107zM461 154v106h106v-106h-106zM461 -201h106v-106h-106v106zM461 307v107h106v-107h-106zM461 -354h106v-107h-106v107zM461 461v106h106v-106h-106zM461 614v107h106v-107h-106zM461 768v106h106v-106h-106zM461 922v106h106 v-106h-106zM461 1075v107h106v-107h-106z" />
<glyph unicode="r" horiz-adv-x="563" d="M154 0v106h106v-106h-106zM154 154v106h106v-106h-106zM154 307v107h106v-107h-106zM154 461v106h106v-106h-106zM154 614v107h106v-107h-106zM154 768v106h106v-106h-106zM154 922v106h106v-106h-106zM154 1075v107h106v-107h-106zM154 1229v106h106v-106h-106z M307 1075v107h107v-107h-107zM461 1229v106h106v-106h-106z" />
<glyph unicode="s" d="M154 154v106h106v-106h-106zM154 307v107h106v-107h-106zM154 768v106h106v-106h-106zM154 922v106h106v-106h-106zM154 1075v107h106v-107h-106zM307 0v106h107v-106h-107zM307 614v107h107v-107h-107zM307 1229v106h107v-106h-107zM461 154v106h106v-106h-106zM461 307 v107h106v-107h-106zM461 461v106h106v-106h-106zM461 922v106h106v-106h-106zM461 1075v107h106v-107h-106z" />
<glyph unicode="t" d="M154 1229v106h106v-106h-106zM307 154v106h107v-106h-107zM307 307v107h107v-107h-107zM307 461v106h107v-106h-107zM307 614v107h107v-107h-107zM307 768v106h107v-106h-107zM307 922v106h107v-106h-107zM307 1075v107h107v-107h-107zM307 1229v106h107v-106h-107z M307 1382v107h107v-107h-107zM461 0v106h106v-106h-106zM461 1229v106h106v-106h-106z" />
<glyph unicode="u" d="M154 154v106h106v-106h-106zM154 307v107h106v-107h-106zM154 461v106h106v-106h-106zM154 614v107h106v-107h-106zM154 768v106h106v-106h-106zM154 922v106h106v-106h-106zM154 1075v107h106v-107h-106zM154 1229v106h106v-106h-106zM307 0v106h107v-106h-107zM461 0 v106h106v-106h-106zM461 154v106h106v-106h-106zM461 307v107h106v-107h-106zM461 461v106h106v-106h-106zM461 614v107h106v-107h-106zM461 768v106h106v-106h-106zM461 922v106h106v-106h-106zM461 1075v107h106v-107h-106zM461 1229v106h106v-106h-106z" />
<glyph unicode="v" d="M154 307v107h106v-107h-106zM154 461v106h106v-106h-106zM154 614v107h106v-107h-106zM154 768v106h106v-106h-106zM154 922v106h106v-106h-106zM154 1075v107h106v-107h-106zM154 1229v106h106v-106h-106zM307 0v106h107v-106h-107zM307 154v106h107v-106h-107zM461 307 v107h106v-107h-106zM461 461v106h106v-106h-106zM461 614v107h106v-107h-106zM461 768v106h106v-106h-106zM461 922v106h106v-106h-106zM461 1075v107h106v-107h-106zM461 1229v106h106v-106h-106z" />
<glyph unicode="w" horiz-adv-x="1024" d="M154 307v107h106v-107h-106zM154 461v106h106v-106h-106zM154 614v107h106v-107h-106zM154 768v106h106v-106h-106zM154 922v106h106v-106h-106zM154 1075v107h106v-107h-106zM154 1229v106h106v-106h-106zM307 0v106h107v-106h-107zM307 154v106h107v-106h-107zM461 307 v107h106v-107h-106zM461 461v106h106v-106h-106zM461 614v107h106v-107h-106zM461 768v106h106v-106h-106zM461 922v106h106v-106h-106zM461 1075v107h106v-107h-106zM461 1229v106h106v-106h-106zM614 0v106h107v-106h-107zM614 154v106h107v-106h-107zM768 307v107h106 v-107h-106zM768 461v106h106v-106h-106zM768 614v107h106v-107h-106zM768 768v106h106v-106h-106zM768 922v106h106v-106h-106zM768 1075v107h106v-107h-106zM768 1229v106h106v-106h-106z" />
<glyph unicode="x" d="M154 0v106h106v-106h-106zM154 154v106h106v-106h-106zM154 307v107h106v-107h-106zM154 461v106h106v-106h-106zM154 768v106h106v-106h-106zM154 922v106h106v-106h-106zM154 1075v107h106v-107h-106zM154 1229v106h106v-106h-106zM307 614v107h107v-107h-107zM461 0 v106h106v-106h-106zM461 154v106h106v-106h-106zM461 307v107h106v-107h-106zM461 461v106h106v-106h-106zM461 768v106h106v-106h-106zM461 922v106h106v-106h-106zM461 1075v107h106v-107h-106zM461 1229v106h106v-106h-106z" />
<glyph unicode="y" d="M154 154v106h106v-106h-106zM154 -201h106v-106h-106v106zM154 307v107h106v-107h-106zM154 461v106h106v-106h-106zM154 614v107h106v-107h-106zM154 768v106h106v-106h-106zM154 922v106h106v-106h-106zM154 1075v107h106v-107h-106zM154 1229v106h106v-106h-106z M307 0v106h107v-106h-107zM307 -354h107v-107h-107v107zM461 0v106h106v-106h-106zM461 -47h106v-107h-106v107zM461 154v106h106v-106h-106zM461 -201h106v-106h-106v106zM461 307v107h106v-107h-106zM461 461v106h106v-106h-106zM461 614v107h106v-107h-106zM461 768v106 h106v-106h-106zM461 922v106h106v-106h-106zM461 1075v107h106v-107h-106zM461 1229v106h106v-106h-106z" />
<glyph unicode="z" d="M154 0v106h106v-106h-106zM154 154v106h106v-106h-106zM154 307v107h106v-107h-106zM154 1229v106h106v-106h-106zM307 0v106h107v-106h-107zM307 461v106h107v-106h-107zM307 614v107h107v-107h-107zM307 768v106h107v-106h-107zM307 1229v106h107v-106h-107zM461 0v106 h106v-106h-106zM461 922v106h106v-106h-106zM461 1075v107h106v-107h-106zM461 1229v106h106v-106h-106z" />
<glyph unicode="{" d="M150 768v106h106v-106h-106zM307 0v106h107v-106h-107zM307 154v106h107v-106h-107zM307 307v107h107v-107h-107zM307 461v106h107v-106h-107zM307 614v107h107v-107h-107zM307 922v106h107v-106h-107zM307 1075v107h107v-107h-107zM307 1229v106h107v-106h-107z M307 1382v107h107v-107h-107zM461 -47h106v-107h-106v107zM461 1536v106h106v-106h-106z" />
<glyph unicode="|" horiz-adv-x="409" d="M154 0v106h106v-106h-106zM154 -47h106v-107h-106v107zM154 154v106h106v-106h-106zM154 307v107h106v-107h-106zM154 461v106h106v-106h-106zM154 614v107h106v-107h-106zM154 768v106h106v-106h-106zM154 922v106h106v-106h-106zM154 1075v107h106v-107h-106zM154 1229 v106h106v-106h-106zM154 1382v107h106v-107h-106zM154 1536v106h106v-106h-106z" />
<glyph unicode="}" d="M252 -47h106v-107h-106v107zM252 1536v106h106v-106h-106zM406 0v106h106v-106h-106zM406 154v106h106v-106h-106zM406 307v107h106v-107h-106zM406 461v106h106v-106h-106zM406 614v107h106v-107h-106zM406 922v106h106v-106h-106zM406 1075v107h106v-107h-106z M406 1229v106h106v-106h-106zM406 1382v107h106v-107h-106zM563 768v106h107v-106h-107z" />
<glyph unicode="~" horiz-adv-x="1024" d="M154 614v107h106v-107h-106zM307 768v106h107v-106h-107zM461 614v107h106v-107h-106zM614 461v106h107v-106h-107zM768 614v107h106v-107h-106z" />
<glyph unicode="&#xa2;" d="M154 154v106h106v-106h-106zM154 307v107h106v-107h-106zM154 461v106h106v-106h-106zM154 614v107h106v-107h-106zM154 768v106h106v-106h-106zM154 922v106h106v-106h-106zM154 1075v107h106v-107h-106zM307 0v106h107v-106h-107zM307 -47h107v-107h-107v107zM307 154 v106h107v-106h-107zM307 307v107h107v-107h-107zM307 461v106h107v-106h-107zM307 614v107h107v-107h-107zM307 768v106h107v-106h-107zM307 922v106h107v-106h-107zM307 1075v107h107v-107h-107zM307 1229v106h107v-106h-107zM307 1382v107h107v-107h-107zM461 154v106h106 v-106h-106zM461 1075v107h106v-107h-106z" />
<glyph unicode="&#xa3;" horiz-adv-x="870" d="M154 0v106h106v-106h-106zM154 922v106h106v-106h-106zM307 0v106h107v-106h-107zM307 154v106h107v-106h-107zM307 307v107h107v-107h-107zM307 461v106h107v-106h-107zM307 614v107h107v-107h-107zM307 768v106h107v-106h-107zM307 922v106h107v-106h-107zM307 1075 v107h107v-107h-107zM307 1229v106h107v-106h-107zM461 0v106h106v-106h-106zM461 922v106h106v-106h-106zM461 1382v107h106v-107h-106zM614 154v106h107v-106h-107zM614 922v106h107v-106h-107zM614 1229v106h107v-106h-107zM614 1382v107h107v-107h-107z" />
<glyph unicode="&#xa5;" d="M154 461v106h106v-106h-106zM154 768v106h106v-106h-106zM154 922v106h106v-106h-106zM154 1075v107h106v-107h-106zM154 1229v106h106v-106h-106zM154 1382v107h106v-107h-106zM307 0v106h107v-106h-107zM307 154v106h107v-106h-107zM307 307v107h107v-107h-107z M307 461v106h107v-106h-107zM307 614v107h107v-107h-107zM461 461v106h106v-106h-106zM461 768v106h106v-106h-106zM461 922v106h106v-106h-106zM461 1075v107h106v-107h-106zM461 1229v106h106v-106h-106zM461 1382v107h106v-107h-106z" />
<glyph unicode="&#xa9;" horiz-adv-x="870" d="M154 922v106h106v-106h-106zM154 1075v107h106v-107h-106zM154 1229v106h106v-106h-106zM307 768v106h107v-106h-107zM307 1075v107h107v-107h-107zM307 1382v107h107v-107h-107zM461 768v106h106v-106h-106zM461 922v106h106v-106h-106zM461 1229v106h106v-106h-106z M461 1382v107h106v-107h-106zM614 922v106h107v-106h-107zM614 1075v107h107v-107h-107zM614 1229v106h107v-106h-107z" />
<glyph unicode="&#xad;" d="M154 614v107h106v-107h-106zM307 614v107h107v-107h-107zM461 614v107h106v-107h-106z" />
<glyph unicode="&#xae;" horiz-adv-x="870" d="M154 154v106h106v-106h-106zM154 307v107h106v-107h-106zM154 461v106h106v-106h-106zM154 614v107h106v-107h-106zM154 768v106h106v-106h-106zM154 922v106h106v-106h-106zM154 1075v107h106v-107h-106zM307 0v106h107v-106h-107zM307 614v107h107v-107h-107zM307 922 v106h107v-106h-107zM307 1229v106h107v-106h-107zM461 0v106h106v-106h-106zM461 307v107h106v-107h-106zM461 461v106h106v-106h-106zM461 768v106h106v-106h-106zM461 1229v106h106v-106h-106zM614 154v106h107v-106h-107zM614 307v107h107v-107h-107zM614 461v106h107 v-106h-107zM614 614v107h107v-107h-107zM614 768v106h107v-106h-107zM614 922v106h107v-106h-107zM614 1075v107h107v-107h-107z" />
<glyph unicode="&#xb4;" d="M154 1536v106h106v-106h-106zM307 1536v106h107v-106h-107zM461 1690v106h106v-106h-106z" />
<glyph unicode="&#x2000;" horiz-adv-x="897" />
<glyph unicode="&#x2001;" horiz-adv-x="1796" />
<glyph unicode="&#x2002;" horiz-adv-x="897" />
<glyph unicode="&#x2003;" horiz-adv-x="1796" />
<glyph unicode="&#x2004;" horiz-adv-x="598" />
<glyph unicode="&#x2005;" horiz-adv-x="448" />
<glyph unicode="&#x2006;" horiz-adv-x="299" />
<glyph unicode="&#x2007;" horiz-adv-x="299" />
<glyph unicode="&#x2008;" horiz-adv-x="223" />
<glyph unicode="&#x2009;" horiz-adv-x="358" />
<glyph unicode="&#x200a;" horiz-adv-x="98" />
<glyph unicode="&#x2010;" d="M154 614v107h106v-107h-106zM307 614v107h107v-107h-107zM461 614v107h106v-107h-106z" />
<glyph unicode="&#x2011;" d="M154 614v107h106v-107h-106zM307 614v107h107v-107h-107zM461 614v107h106v-107h-106z" />
<glyph unicode="&#x2012;" d="M154 614v107h106v-107h-106zM307 614v107h107v-107h-107zM461 614v107h106v-107h-106z" />
<glyph unicode="&#x2013;" horiz-adv-x="870" d="M154 614v107h106v-107h-106zM307 614v107h107v-107h-107zM461 614v107h106v-107h-106zM614 614v107h107v-107h-107z" />
<glyph unicode="&#x2014;" horiz-adv-x="870" d="M0 614v107h106v-107h-106zM154 614v107h106v-107h-106zM307 614v107h107v-107h-107zM461 614v107h106v-107h-106zM614 614v107h107v-107h-107z" />
<glyph unicode="&#x2018;" horiz-adv-x="563" d="M154 1229v106h106v-106h-106zM154 1382v107h106v-107h-106zM154 1536v106h106v-106h-106zM307 1075v107h107v-107h-107z" />
<glyph unicode="&#x2019;" horiz-adv-x="563" d="M154 1075v107h106v-107h-106zM307 1229v106h107v-106h-107zM307 1382v107h107v-107h-107zM307 1536v106h107v-106h-107z" />
<glyph unicode="&#x201c;" horiz-adv-x="870" d="M154 1229v106h106v-106h-106zM154 1382v107h106v-107h-106zM154 1536v106h106v-106h-106zM307 1075v107h107v-107h-107zM461 1229v106h106v-106h-106zM461 1382v107h106v-107h-106zM461 1536v106h106v-106h-106zM614 1075v107h107v-107h-107z" />
<glyph unicode="&#x201d;" horiz-adv-x="870" d="M154 1075v107h106v-107h-106zM307 1229v106h107v-106h-107zM307 1382v107h107v-107h-107zM307 1536v106h107v-106h-107zM461 1075v107h106v-107h-106zM614 1229v106h107v-106h-107zM614 1382v107h107v-107h-107zM614 1536v106h107v-106h-107z" />
<glyph unicode="&#x2022;" d="M154 461v106h106v-106h-106zM154 614v107h106v-107h-106zM154 768v106h106v-106h-106zM307 461v106h107v-106h-107zM307 614v107h107v-107h-107zM307 768v106h107v-106h-107zM461 461v106h106v-106h-106zM461 614v107h106v-107h-106zM461 768v106h106v-106h-106z" />
<glyph unicode="&#x2026;" horiz-adv-x="1024" d="M154 0v106h106v-106h-106zM154 154v106h106v-106h-106zM461 0v106h106v-106h-106zM461 154v106h106v-106h-106zM768 0v106h106v-106h-106zM768 154v106h106v-106h-106z" />
<glyph unicode="&#x202f;" horiz-adv-x="358" />
<glyph unicode="&#x205f;" horiz-adv-x="448" />
<glyph unicode="&#x20ac;" horiz-adv-x="1024" d="M154 614v107h106v-107h-106zM154 768v106h106v-106h-106zM307 154v106h107v-106h-107zM307 307v107h107v-107h-107zM307 461v106h107v-106h-107zM307 614v107h107v-107h-107zM307 768v106h107v-106h-107zM307 922v106h107v-106h-107zM307 1075v107h107v-107h-107z M307 1229v106h107v-106h-107zM461 0v106h106v-106h-106zM461 614v107h106v-107h-106zM461 768v106h106v-106h-106zM461 1382v107h106v-107h-106zM614 0v106h107v-106h-107zM614 768v106h107v-106h-107zM614 1382v107h107v-107h-107zM768 154v106h106v-106h-106zM768 1229 v106h106v-106h-106z" />
<glyph unicode="&#x2122;" horiz-adv-x="1024" d="M154 1382v107h106v-107h-106zM307 922v106h107v-106h-107zM307 1075v107h107v-107h-107zM307 1229v106h107v-106h-107zM307 1382v107h107v-107h-107zM461 922v106h106v-106h-106zM461 1075v107h106v-107h-106zM461 1229v106h106v-106h-106zM461 1382v107h106v-107h-106z M614 1229v106h107v-106h-107zM768 922v106h106v-106h-106zM768 1075v107h106v-107h-106zM768 1229v106h106v-106h-106zM768 1382v107h106v-107h-106z" />
<glyph unicode="&#xe000;" horiz-adv-x="1335" d="M0 1335h1335v-1335h-1335v1335z" />
<glyph unicode="&#xfb01;" horiz-adv-x="1433" d="M871 0v106h106v-106h-106zM871 1229v106h106v-106h-106zM1024 0v106h107v-106h-107zM1024 154v106h107v-106h-107zM1024 307v107h107v-107h-107zM1024 461v106h107v-106h-107zM1024 614v107h107v-107h-107zM1024 768v106h107v-106h-107zM1024 922v106h107v-106h-107z M1024 1075v107h107v-107h-107zM1024 1229v106h107v-106h-107zM1024 1536v106h107v-106h-107zM1024 1690v106h107v-106h-107zM1178 0v106h106v-106h-106zM154 1229v106h106v-106h-106zM307 0v106h107v-106h-107zM307 154v106h107v-106h-107zM307 307v107h107v-107h-107z M307 461v106h107v-106h-107zM307 614v107h107v-107h-107zM307 768v106h107v-106h-107zM307 922v106h107v-106h-107zM307 1075v107h107v-107h-107zM307 1229v106h107v-106h-107zM307 1382v107h107v-107h-107zM461 1229v106h106v-106h-106zM461 1536v106h106v-106h-106z M614 1536v106h107v-106h-107z" />
<glyph unicode="&#xfb02;" horiz-adv-x="1433" d="M871 0v106h106v-106h-106zM871 1536v106h106v-106h-106zM1024 0v106h107v-106h-107zM1024 154v106h107v-106h-107zM1024 307v107h107v-107h-107zM1024 461v106h107v-106h-107zM1024 614v107h107v-107h-107zM1024 768v106h107v-106h-107zM1024 922v106h107v-106h-107z M1024 1075v107h107v-107h-107zM1024 1229v106h107v-106h-107zM1024 1382v107h107v-107h-107zM1024 1536v106h107v-106h-107zM1178 0v106h106v-106h-106zM154 1229v106h106v-106h-106zM307 0v106h107v-106h-107zM307 154v106h107v-106h-107zM307 307v107h107v-107h-107z M307 461v106h107v-106h-107zM307 614v107h107v-107h-107zM307 768v106h107v-106h-107zM307 922v106h107v-106h-107zM307 1075v107h107v-107h-107zM307 1229v106h107v-106h-107zM307 1382v107h107v-107h-107zM461 1229v106h106v-106h-106zM461 1536v106h106v-106h-106z M614 1536v106h107v-106h-107z" />
<glyph unicode="&#xfb03;" horiz-adv-x="2150" d="M1588 0v106h106v-106h-106zM1588 1229v106h106v-106h-106zM1741 0v106h107v-106h-107zM1741 154v106h107v-106h-107zM1741 307v107h107v-107h-107zM1741 461v106h107v-106h-107zM1741 614v107h107v-107h-107zM1741 768v106h107v-106h-107zM1741 922v106h107v-106h-107z M1741 1075v107h107v-107h-107zM1741 1229v106h107v-106h-107zM1741 1536v106h107v-106h-107zM1741 1690v106h107v-106h-107zM1895 0v106h106v-106h-106zM871 1229v106h106v-106h-106zM1024 0v106h107v-106h-107zM1024 154v106h107v-106h-107zM1024 307v107h107v-107h-107z M1024 461v106h107v-106h-107zM1024 614v107h107v-107h-107zM1024 768v106h107v-106h-107zM1024 922v106h107v-106h-107zM1024 1075v107h107v-107h-107zM1024 1229v106h107v-106h-107zM1024 1382v107h107v-107h-107zM1178 1229v106h106v-106h-106zM1178 1536v106h106v-106 h-106zM1331 1536v106h107v-106h-107zM154 1229v106h106v-106h-106zM307 0v106h107v-106h-107zM307 154v106h107v-106h-107zM307 307v107h107v-107h-107zM307 461v106h107v-106h-107zM307 614v107h107v-107h-107zM307 768v106h107v-106h-107zM307 922v106h107v-106h-107z M307 1075v107h107v-107h-107zM307 1229v106h107v-106h-107zM307 1382v107h107v-107h-107zM461 1229v106h106v-106h-106zM461 1536v106h106v-106h-106zM614 1536v106h107v-106h-107z" />
<glyph unicode="&#xfb04;" horiz-adv-x="2150" d="M1588 0v106h106v-106h-106zM1588 1536v106h106v-106h-106zM1741 0v106h107v-106h-107zM1741 154v106h107v-106h-107zM1741 307v107h107v-107h-107zM1741 461v106h107v-106h-107zM1741 614v107h107v-107h-107zM1741 768v106h107v-106h-107zM1741 922v106h107v-106h-107z M1741 1075v107h107v-107h-107zM1741 1229v106h107v-106h-107zM1741 1382v107h107v-107h-107zM1741 1536v106h107v-106h-107zM1895 0v106h106v-106h-106zM871 1229v106h106v-106h-106zM1024 0v106h107v-106h-107zM1024 154v106h107v-106h-107zM1024 307v107h107v-107h-107z M1024 461v106h107v-106h-107zM1024 614v107h107v-107h-107zM1024 768v106h107v-106h-107zM1024 922v106h107v-106h-107zM1024 1075v107h107v-107h-107zM1024 1229v106h107v-106h-107zM1024 1382v107h107v-107h-107zM1178 1229v106h106v-106h-106zM1178 1536v106h106v-106 h-106zM1331 1536v106h107v-106h-107zM154 1229v106h106v-106h-106zM307 0v106h107v-106h-107zM307 154v106h107v-106h-107zM307 307v107h107v-107h-107zM307 461v106h107v-106h-107zM307 614v107h107v-107h-107zM307 768v106h107v-106h-107zM307 922v106h107v-106h-107z M307 1075v107h107v-107h-107zM307 1229v106h107v-106h-107zM307 1382v107h107v-107h-107zM461 1229v106h106v-106h-106zM461 1536v106h106v-106h-106zM614 1536v106h107v-106h-107z" />
</font>
</defs>
</svg>
